<?xml version="1.0" encoding="UTF-8" standalone="no"?>
<!DOCTYPE svg PUBLIC "-//W3C//DTD SVG 1.1//EN"
 "http://www.w3.org/Graphics/SVG/1.1/DTD/svg11.dtd">
<!-- Generated by graphviz version 7.0.2 (0)
 -->
<!-- Pages: 1 -->
<svg width="759pt" height="342pt"
 viewBox="0.00 0.00 759.00 342.00" xmlns="http://www.w3.org/2000/svg" xmlns:xlink="http://www.w3.org/1999/xlink">
<g id="graph0" class="graph" transform="scale(1 1) rotate(0) translate(4 338)">
<polygon fill="white" stroke="none" points="-4,4 -4,-338 755,-338 755,4 -4,4"/>
<!-- currentCommittee -->
<g id="node1" class="node">
<title>currentCommittee</title>
<polygon fill="none" stroke="black" points="198,-280.5 198,-333.5 443,-333.5 443,-280.5 198,-280.5"/>
<text text-anchor="middle" x="320.5" y="-318.3" font-family="Times,serif" font-size="14.00">Aggregated committee </text>
<text text-anchor="middle" x="320.5" y="-303.3" font-family="Times,serif" font-size="14.00">members&#39; public keys</text>
<text text-anchor="middle" x="320.5" y="-288.3" font-family="Times,serif" font-size="14.00">with CommitteeHashPolicy NFT</text>
</g>
<!-- transaction -->
<g id="node3" class="node">
<title>transaction</title>
<polygon fill="none" stroke="black" points="249.5,-229 156.83,-211 249.5,-193 342.17,-211 249.5,-229"/>
<text text-anchor="middle" x="249.5" y="-207.3" font-family="Times,serif" font-size="14.00">Transaction</text>
</g>
<!-- currentCommittee&#45;&gt;transaction -->
<g id="edge2" class="edge">
<title>currentCommittee&#45;&gt;transaction</title>
<path fill="none" stroke="black" d="M301.47,-280.81C290.99,-266.94 278.05,-249.8 267.71,-236.1"/>
<polygon fill="black" stroke="black" points="270.75,-234.33 261.93,-228.46 265.17,-238.55 270.75,-234.33"/>
<text text-anchor="middle" x="343" y="-250.8" font-family="Times,serif" font-size="14.00">reference input</text>
</g>
<!-- plutusScript -->
<g id="node2" class="node">
<title>plutusScript</title>
<polygon fill="none" stroke="black" points="526,-288 526,-326 751,-326 751,-288 526,-288"/>
<text text-anchor="middle" x="638.5" y="-310.8" font-family="Times,serif" font-size="14.00">CheckpointValidator with the</text>
<text text-anchor="middle" x="638.5" y="-295.8" font-family="Times,serif" font-size="14.00">Checkpoint NFT</text>
</g>
<!-- plutusScript&#45;&gt;transaction -->
<g id="edge1" class="edge">
<title>plutusScript&#45;&gt;transaction</title>
<path fill="none" stroke="black" d="M574.61,-288.06C530.37,-275.87 470.04,-259.72 416.5,-247 379.63,-238.24 337.91,-229.5 305.39,-222.94"/>
<polygon fill="black" stroke="black" points="306.28,-219.55 295.78,-221.01 304.9,-226.41 306.28,-219.55"/>
<text text-anchor="middle" x="490.5" y="-250.8" font-family="Times,serif" font-size="14.00">input</text>
</g>
<!-- committeeCertificateVerificationMintingPolicy -->
<g id="node4" class="node">
<title>committeeCertificateVerificationMintingPolicy</title>
<polygon fill="none" stroke="black" points="451,-88.5 451,-141.5 626,-141.5 626,-88.5 451,-88.5"/>
<text text-anchor="middle" x="538.5" y="-126.3" font-family="Times,serif" font-size="14.00">Committee Certificate</text>
<text text-anchor="middle" x="538.5" y="-111.3" font-family="Times,serif" font-size="14.00">Verification Minting</text>
<text text-anchor="middle" x="538.5" y="-96.3" font-family="Times,serif" font-size="14.00">Policy</text>
</g>
<!-- plutusScript&#45;&gt;committeeCertificateVerificationMintingPolicy -->
<g id="edge3" class="edge">
<title>plutusScript&#45;&gt;committeeCertificateVerificationMintingPolicy</title>
<path fill="none" stroke="black" stroke-dasharray="5,2" d="M632.66,-288.21C624.88,-265.47 610.04,-225.17 592.5,-193 584.58,-178.46 574.46,-163.36 565.13,-150.43"/>
<polygon fill="black" stroke="black" points="568.15,-148.63 559.41,-142.65 562.51,-152.78 568.15,-148.63"/>
<text text-anchor="middle" x="657.86" y="-230.18" font-family="Times,serif" font-size="14.00">checks if</text>
<text text-anchor="middle" x="657.86" y="-215.18" font-family="Times,serif" font-size="14.00">token is minted</text>
</g>
<!-- transaction&#45;&gt;committeeCertificateVerificationMintingPolicy -->
<g id="edge5" class="edge">
<title>transaction&#45;&gt;committeeCertificateVerificationMintingPolicy</title>
<path fill="none" stroke="black" d="M280.43,-198.51C308.89,-188.07 352.35,-172.43 390.5,-160 406.49,-154.79 423.54,-149.49 440.16,-144.46"/>
<polygon fill="black" stroke="black" points="440.99,-147.86 449.56,-141.63 438.97,-141.16 440.99,-147.86"/>
<text text-anchor="middle" x="411" y="-163.8" font-family="Times,serif" font-size="14.00">mints</text>
</g>
<!-- txOutputs -->
<g id="node5" class="node">
<title>txOutputs</title>
<polygon fill="none" stroke="black" points="120,-96 120,-134 379,-134 379,-96 120,-96"/>
<text text-anchor="middle" x="249.5" y="-118.8" font-family="Times,serif" font-size="14.00">new CheckpointValidator with the</text>
<text text-anchor="middle" x="249.5" y="-103.8" font-family="Times,serif" font-size="14.00">Checkpoint NFT</text>
</g>
<!-- transaction&#45;&gt;txOutputs -->
<g id="edge7" class="edge">
<title>transaction&#45;&gt;txOutputs</title>
<path fill="none" stroke="black" d="M249.5,-192.76C249.5,-179.41 249.5,-160.63 249.5,-144.98"/>
<polygon fill="black" stroke="black" points="253,-145.28 249.5,-135.28 246,-145.28 253,-145.28"/>
<text text-anchor="middle" x="273.5" y="-163.8" font-family="Times,serif" font-size="14.00">output</text>
</g>
<!-- burnAddress -->
<g id="node6" class="node">
<title>burnAddress</title>
<polygon fill="none" stroke="black" points="0,-0.5 0,-36.5 113,-36.5 113,-0.5 0,-0.5"/>
<text text-anchor="middle" x="56.5" y="-14.8" font-family="Times,serif" font-size="14.00">Burn address</text>
</g>
<!-- transaction&#45;&gt;burnAddress -->
<g id="edge8" class="edge">
<title>transaction&#45;&gt;burnAddress</title>
<path fill="none" stroke="black" d="M173.15,-207.39C125.24,-201.31 66.8,-184.79 35.5,-142 15.12,-114.14 28.41,-73.27 41.25,-46.52"/>
<polygon fill="black" stroke="black" points="44.33,-48.19 45.75,-37.69 38.09,-45.01 44.33,-48.19"/>
<text text-anchor="middle" x="59.5" y="-111.3" font-family="Times,serif" font-size="14.00">output</text>
</g>
<!-- committeeCertificateVerificationMintingPolicy&#45;&gt;currentCommittee -->
<g id="edge4" class="edge">
<title>committeeCertificateVerificationMintingPolicy&#45;&gt;currentCommittee</title>
<path fill="none" stroke="black" stroke-dasharray="5,2" d="M522.48,-141.43C501.43,-173.15 461.78,-227.42 416.5,-262 410.24,-266.78 403.38,-271.2 396.29,-275.24"/>
<polygon fill="black" stroke="black" points="394.99,-271.96 387.85,-279.79 398.31,-278.12 394.99,-271.96"/>
<text text-anchor="middle" x="526.5" y="-207.3" font-family="Times,serif" font-size="14.00">searches for</text>
</g>
<!-- committeeCertificateVerificationMintingPolicy&#45;&gt;burnAddress -->
<g id="edge6" class="edge">
<title>committeeCertificateVerificationMintingPolicy&#45;&gt;burnAddress</title>
<path fill="none" stroke="black" stroke-dasharray="5,2" d="M451.19,-95.32C439.21,-92.82 427.05,-90.32 415.5,-88 314.09,-67.61 196.25,-45.41 124.03,-31.97"/>
<polygon fill="black" stroke="black" points="124.8,-28.56 114.33,-30.17 123.52,-35.44 124.8,-28.56"/>
<text text-anchor="middle" x="350" y="-58.8" font-family="Times,serif" font-size="14.00">is paid to</text>
</g>
</g>
</svg>
