<?xml version="1.0" encoding="UTF-8" standalone="no"?>
<!DOCTYPE svg PUBLIC "-//W3C//DTD SVG 1.1//EN"
 "http://www.w3.org/Graphics/SVG/1.1/DTD/svg11.dtd">
<!-- Generated by graphviz version 5.0.1 (0)
 -->
<!-- Pages: 1 -->
<svg width="653pt" height="342pt"
 viewBox="0.00 0.00 653.00 342.00" xmlns="http://www.w3.org/2000/svg" xmlns:xlink="http://www.w3.org/1999/xlink">
<g id="graph0" class="graph" transform="scale(1 1) rotate(0) translate(4 338)">
<polygon fill="white" stroke="none" points="-4,4 -4,-338 649,-338 649,4 -4,4"/>
<!-- currentCommittee -->
<g id="node1" class="node">
<title>currentCommittee</title>
<polygon fill="none" stroke="black" points="187.5,-280.5 187.5,-333.5 384.5,-333.5 384.5,-280.5 187.5,-280.5"/>
<text text-anchor="middle" x="286" y="-318.3" font-family="Times,serif" font-size="14.00">Aggregated committee </text>
<text text-anchor="middle" x="286" y="-303.3" font-family="Times,serif" font-size="14.00">members&#39; public keys</text>
<text text-anchor="middle" x="286" y="-288.3" font-family="Times,serif" font-size="14.00">with CommitteeHashPolicy NFT</text>
</g>
<!-- transaction -->
<g id="node3" class="node">
<title>transaction</title>
<polygon fill="none" stroke="black" points="196,-229 122.43,-211 196,-193 269.57,-211 196,-229"/>
<text text-anchor="middle" x="196" y="-207.3" font-family="Times,serif" font-size="14.00">Transaction</text>
</g>
<!-- currentCommittee&#45;&gt;transaction -->
<g id="edge2" class="edge">
<title>currentCommittee&#45;&gt;transaction</title>
<path fill="none" stroke="black" d="M261.41,-280.31C247.27,-265.55 229.72,-247.21 216.36,-233.26"/>
<polygon fill="black" stroke="black" points="218.86,-230.81 209.41,-226.01 213.8,-235.65 218.86,-230.81"/>
<text text-anchor="middle" x="284" y="-250.8" font-family="Times,serif" font-size="14.00">reference input</text>
</g>
<!-- plutusScript -->
<g id="node2" class="node">
<title>plutusScript</title>
<polygon fill="none" stroke="black" points="469,-288 469,-326 645,-326 645,-288 469,-288"/>
<text text-anchor="middle" x="557" y="-310.8" font-family="Times,serif" font-size="14.00">CheckpointValidator with the</text>
<text text-anchor="middle" x="557" y="-295.8" font-family="Times,serif" font-size="14.00">Checkpoint NFT</text>
</g>
<!-- plutusScript&#45;&gt;transaction -->
<g id="edge1" class="edge">
<title>plutusScript&#45;&gt;transaction</title>
<path fill="none" stroke="black" d="M493.95,-287.99C451.41,-275.99 393.95,-260.09 343,-247 309.25,-238.33 270.94,-229.24 241.9,-222.49"/>
<polygon fill="black" stroke="black" points="242.56,-219.05 232.03,-220.21 240.99,-225.87 242.56,-219.05"/>
<text text-anchor="middle" x="410" y="-250.8" font-family="Times,serif" font-size="14.00">input</text>
</g>
<!-- committeeCertificateVerificationMintingPolicy -->
<g id="node4" class="node">
<title>committeeCertificateVerificationMintingPolicy</title>
<polygon fill="none" stroke="black" points="369.5,-88.5 369.5,-141.5 508.5,-141.5 508.5,-88.5 369.5,-88.5"/>
<text text-anchor="middle" x="439" y="-126.3" font-family="Times,serif" font-size="14.00">Committee Certificate</text>
<text text-anchor="middle" x="439" y="-111.3" font-family="Times,serif" font-size="14.00">Verification Minting</text>
<text text-anchor="middle" x="439" y="-96.3" font-family="Times,serif" font-size="14.00">Policy</text>
</g>
<!-- plutusScript&#45;&gt;committeeCertificateVerificationMintingPolicy -->
<g id="edge3" class="edge">
<title>plutusScript&#45;&gt;committeeCertificateVerificationMintingPolicy</title>
<path fill="none" stroke="black" stroke-dasharray="5,2" d="M548.72,-287.85C538.06,-265.07 518.46,-225.1 498,-193 488.55,-178.18 477.01,-162.65 466.64,-149.45"/>
<polygon fill="black" stroke="black" points="469.33,-147.21 460.37,-141.56 463.85,-151.57 469.33,-147.21"/>
<text text-anchor="middle" x="552.1" y="-230.92" font-family="Times,serif" font-size="14.00">checks if</text>
<text text-anchor="middle" x="552.1" y="-215.92" font-family="Times,serif" font-size="14.00">token is minted</text>
</g>
<!-- transaction&#45;&gt;committeeCertificateVerificationMintingPolicy -->
<g id="edge5" class="edge">
<title>transaction&#45;&gt;committeeCertificateVerificationMintingPolicy</title>
<path fill="none" stroke="black" d="M222.93,-199.58C256.59,-186.56 315.57,-163.75 363.42,-145.24"/>
<polygon fill="black" stroke="black" points="364.76,-148.47 372.83,-141.6 362.24,-141.94 364.76,-148.47"/>
<text text-anchor="middle" x="339.5" y="-163.8" font-family="Times,serif" font-size="14.00">mints</text>
</g>
<!-- txOutputs -->
<g id="node5" class="node">
<title>txOutputs</title>
<polygon fill="none" stroke="black" points="94.5,-96 94.5,-134 297.5,-134 297.5,-96 94.5,-96"/>
<text text-anchor="middle" x="196" y="-118.8" font-family="Times,serif" font-size="14.00">new CheckpointValidator with the</text>
<text text-anchor="middle" x="196" y="-103.8" font-family="Times,serif" font-size="14.00">Checkpoint NFT</text>
</g>
<!-- transaction&#45;&gt;txOutputs -->
<g id="edge7" class="edge">
<title>transaction&#45;&gt;txOutputs</title>
<path fill="none" stroke="black" d="M196,-192.76C196,-179.24 196,-160.13 196,-144.37"/>
<polygon fill="black" stroke="black" points="199.5,-144.09 196,-134.09 192.5,-144.09 199.5,-144.09"/>
<text text-anchor="middle" x="213.5" y="-163.8" font-family="Times,serif" font-size="14.00">output</text>
</g>
<!-- burnAddress -->
<g id="node6" class="node">
<title>burnAddress</title>
<polygon fill="none" stroke="black" points="0,-0.5 0,-36.5 88,-36.5 88,-0.5 0,-0.5"/>
<text text-anchor="middle" x="44" y="-14.8" font-family="Times,serif" font-size="14.00">Burn address</text>
</g>
<!-- transaction&#45;&gt;burnAddress -->
<g id="edge8" class="edge">
<title>transaction&#45;&gt;burnAddress</title>
<path fill="none" stroke="black" d="M145.6,-205.25C104.97,-198.47 50.26,-182 23,-142 3.41,-113.26 16.82,-72.14 29.44,-45.63"/>
<polygon fill="black" stroke="black" points="32.62,-47.08 33.99,-36.57 26.37,-43.94 32.62,-47.08"/>
<text text-anchor="middle" x="40.5" y="-111.3" font-family="Times,serif" font-size="14.00">output</text>
</g>
<!-- committeeCertificateVerificationMintingPolicy&#45;&gt;currentCommittee -->
<g id="edge4" class="edge">
<title>committeeCertificateVerificationMintingPolicy&#45;&gt;currentCommittee</title>
<path fill="none" stroke="black" stroke-dasharray="5,2" d="M425.65,-141.56C408.89,-172.21 378.06,-224.18 343,-262 339.23,-266.07 335.05,-270.05 330.72,-273.85"/>
<polygon fill="black" stroke="black" points="328.24,-271.37 322.83,-280.47 332.74,-276.73 328.24,-271.37"/>
<text text-anchor="middle" x="427" y="-207.3" font-family="Times,serif" font-size="14.00">searches for</text>
</g>
<!-- committeeCertificateVerificationMintingPolicy&#45;&gt;burnAddress -->
<g id="edge6" class="edge">
<title>committeeCertificateVerificationMintingPolicy&#45;&gt;burnAddress</title>
<path fill="none" stroke="black" stroke-dasharray="5,2" d="M369.27,-96.62C357.5,-93.72 345.41,-90.76 334,-88 251.94,-68.15 156.65,-45.77 98.34,-32.15"/>
<polygon fill="black" stroke="black" points="98.79,-28.66 88.25,-29.8 97.2,-35.48 98.79,-28.66"/>
<text text-anchor="middle" x="279.5" y="-58.8" font-family="Times,serif" font-size="14.00">is paid to</text>
</g>
</g>
</svg>
