<?xml version="1.0" encoding="UTF-8" standalone="no"?>
<!DOCTYPE svg PUBLIC "-//W3C//DTD SVG 1.1//EN"
 "http://www.w3.org/Graphics/SVG/1.1/DTD/svg11.dtd">
<!-- Generated by graphviz version 7.0.2 (0)
 -->
<!-- Pages: 1 -->
<svg width="798pt" height="297pt"
 viewBox="0.00 0.00 797.50 297.00" xmlns="http://www.w3.org/2000/svg" xmlns:xlink="http://www.w3.org/1999/xlink">
<g id="graph0" class="graph" transform="scale(1 1) rotate(0) translate(4 293)">
<polygon fill="white" stroke="none" points="-4,4 -4,-293 793.5,-293 793.5,4 -4,4"/>
<!-- currentCommittee -->
<g id="node1" class="node">
<title>currentCommittee</title>
<polygon fill="none" stroke="black" points="450.5,-235.5 450.5,-288.5 789.5,-288.5 789.5,-235.5 450.5,-235.5"/>
<text text-anchor="middle" x="620" y="-273.3" font-family="Times,serif" font-size="14.00">UpdateCommitteeValidator with the</text>
<text text-anchor="middle" x="620" y="-258.3" font-family="Times,serif" font-size="14.00"> CommitteeHashPolicy NFT with datum</text>
<text text-anchor="middle" x="620" y="-243.3" font-family="Times,serif" font-size="14.00"> UpdateCommitteeDatum aggregatePubKeys</text>
</g>
<!-- transaction -->
<g id="node2" class="node">
<title>transaction</title>
<polygon fill="none" stroke="black" points="442,-199 349.33,-181 442,-163 534.67,-181 442,-199"/>
<text text-anchor="middle" x="442" y="-177.3" font-family="Times,serif" font-size="14.00">Transaction</text>
</g>
<!-- currentCommittee&#45;&gt;transaction -->
<g id="edge1" class="edge">
<title>currentCommittee&#45;&gt;transaction</title>
<path fill="none" stroke="black" d="M562.7,-235.57C535.55,-223.52 503.88,-209.47 479.8,-198.78"/>
<polygon fill="black" stroke="black" points="481.25,-195.59 470.69,-194.73 478.41,-201.99 481.25,-195.59"/>
<text text-anchor="middle" x="502.25" y="-220.97" font-family="Times,serif" font-size="14.00">input</text>
</g>
<!-- committeeCertificateVerificationMintingPolicy -->
<g id="node3" class="node">
<title>committeeCertificateVerificationMintingPolicy</title>
<polygon fill="none" stroke="black" points="556.5,-73.5 556.5,-126.5 731.5,-126.5 731.5,-73.5 556.5,-73.5"/>
<text text-anchor="middle" x="644" y="-111.3" font-family="Times,serif" font-size="14.00">Committee Certificate</text>
<text text-anchor="middle" x="644" y="-96.3" font-family="Times,serif" font-size="14.00">Verification Minting</text>
<text text-anchor="middle" x="644" y="-81.3" font-family="Times,serif" font-size="14.00">Policy</text>
</g>
<!-- currentCommittee&#45;&gt;committeeCertificateVerificationMintingPolicy -->
<g id="edge2" class="edge">
<title>currentCommittee&#45;&gt;committeeCertificateVerificationMintingPolicy</title>
<path fill="none" stroke="black" stroke-dasharray="5,2" d="M623.91,-235.61C627.85,-209.02 633.97,-167.72 638.42,-137.68"/>
<polygon fill="black" stroke="black" points="641.87,-138.28 639.87,-127.87 634.94,-137.25 641.87,-138.28"/>
<text text-anchor="middle" x="687.16" y="-205.45" font-family="Times,serif" font-size="14.00">checks if</text>
<text text-anchor="middle" x="687.16" y="-190.45" font-family="Times,serif" font-size="14.00">token is minted</text>
</g>
<!-- transaction&#45;&gt;committeeCertificateVerificationMintingPolicy -->
<g id="edge4" class="edge">
<title>transaction&#45;&gt;committeeCertificateVerificationMintingPolicy</title>
<path fill="none" stroke="black" d="M471.81,-168.34C497.27,-158.39 535.01,-143.63 568.67,-130.46"/>
<polygon fill="black" stroke="black" points="569.53,-133.88 577.56,-126.98 566.98,-127.36 569.53,-133.88"/>
<text text-anchor="middle" x="499.74" y="-138.2" font-family="Times,serif" font-size="14.00">mints</text>
</g>
<!-- newCommittee -->
<g id="node4" class="node">
<title>newCommittee</title>
<polygon fill="none" stroke="black" points="0,-73.5 0,-126.5 338,-126.5 338,-73.5 0,-73.5"/>
<text text-anchor="middle" x="169" y="-111.3" font-family="Times,serif" font-size="14.00">New committee address with the</text>
<text text-anchor="middle" x="169" y="-96.3" font-family="Times,serif" font-size="14.00"> CommitteeHashPolicy NFT with datum</text>
<text text-anchor="middle" x="169" y="-81.3" font-family="Times,serif" font-size="14.00">UpdateCommitteeDatum aggregatePubKeys&#39;</text>
</g>
<!-- transaction&#45;&gt;newCommittee -->
<g id="edge6" class="edge">
<title>transaction&#45;&gt;newCommittee</title>
<path fill="none" stroke="black" d="M406.03,-169.59C370.96,-159.44 316.04,-143.55 267.89,-129.62"/>
<polygon fill="black" stroke="black" points="269.12,-126.33 258.54,-126.91 267.17,-133.05 269.12,-126.33"/>
<text text-anchor="middle" x="312.96" y="-153.4" font-family="Times,serif" font-size="14.00">output</text>
</g>
<!-- burnAddress -->
<g id="node5" class="node">
<title>burnAddress</title>
<polygon fill="none" stroke="black" points="488.5,-0.5 488.5,-36.5 601.5,-36.5 601.5,-0.5 488.5,-0.5"/>
<text text-anchor="middle" x="545" y="-14.8" font-family="Times,serif" font-size="14.00">Burn address</text>
</g>
<!-- transaction&#45;&gt;burnAddress -->
<g id="edge7" class="edge">
<title>transaction&#45;&gt;burnAddress</title>
<path fill="none" stroke="black" d="M452.44,-164.52C470.13,-136.62 506.16,-79.78 527.67,-45.83"/>
<polygon fill="black" stroke="black" points="530.38,-48.1 532.78,-37.78 524.47,-44.35 530.38,-48.1"/>
<text text-anchor="middle" x="466.06" y="-108.98" font-family="Times,serif" font-size="14.00">output</text>
</g>
<!-- committeeCertificateVerificationMintingPolicy&#45;&gt;currentCommittee -->
<g id="edge3" class="edge">
<title>committeeCertificateVerificationMintingPolicy:ne&#45;&gt;currentCommittee:se</title>
<path fill="none" stroke="black" stroke-dasharray="5,2" d="M732,-127C732,-127 770.29,-198.3 784.65,-225.03"/>
<polygon fill="black" stroke="black" points="781.47,-226.51 789.28,-233.67 787.64,-223.2 781.47,-226.51"/>
<text text-anchor="middle" x="714.32" y="-164.82" font-family="Times,serif" font-size="14.00">searches for</text>
</g>
<!-- committeeCertificateVerificationMintingPolicy&#45;&gt;burnAddress -->
<g id="edge5" class="edge">
<title>committeeCertificateVerificationMintingPolicy&#45;&gt;burnAddress</title>
<path fill="none" stroke="black" stroke-dasharray="5,2" d="M612.4,-73.63C600.32,-63.92 586.59,-52.9 574.69,-43.34"/>
<polygon fill="black" stroke="black" points="577.17,-40.84 567.18,-37.31 572.79,-46.3 577.17,-40.84"/>
<text text-anchor="middle" x="560.05" y="-62.28" font-family="Times,serif" font-size="14.00">is paid to</text>
</g>
</g>
</svg>
