<?xml version="1.0" encoding="UTF-8" standalone="no"?>
<!DOCTYPE svg PUBLIC "-//W3C//DTD SVG 1.1//EN"
 "http://www.w3.org/Graphics/SVG/1.1/DTD/svg11.dtd">
<!-- Generated by graphviz version 5.0.1 (0)
 -->
<!-- Pages: 1 -->
<svg width="690pt" height="297pt"
 viewBox="0.00 0.00 689.50 297.00" xmlns="http://www.w3.org/2000/svg" xmlns:xlink="http://www.w3.org/1999/xlink">
<g id="graph0" class="graph" transform="scale(1 1) rotate(0) translate(4 293)">
<polygon fill="white" stroke="none" points="-4,4 -4,-293 685.5,-293 685.5,4 -4,4"/>
<!-- currentCommittee -->
<g id="node1" class="node">
<title>currentCommittee</title>
<polygon fill="none" stroke="black" points="418.5,-235.5 418.5,-288.5 681.5,-288.5 681.5,-235.5 418.5,-235.5"/>
<text text-anchor="middle" x="550" y="-273.3" font-family="Times,serif" font-size="14.00">UpdateCommitteeValidator with the</text>
<text text-anchor="middle" x="550" y="-258.3" font-family="Times,serif" font-size="14.00"> CommitteeHashPolicy NFT with datum</text>
<text text-anchor="middle" x="550" y="-243.3" font-family="Times,serif" font-size="14.00"> UpdateCommitteeDatum aggregatePubKeys</text>
</g>
<!-- transaction -->
<g id="node2" class="node">
<title>transaction</title>
<polygon fill="none" stroke="black" points="367,-199 293.43,-181 367,-163 440.57,-181 367,-199"/>
<text text-anchor="middle" x="367" y="-177.3" font-family="Times,serif" font-size="14.00">Transaction</text>
</g>
<!-- currentCommittee&#45;&gt;transaction -->
<g id="edge1" class="edge">
<title>currentCommittee&#45;&gt;transaction</title>
<path fill="none" stroke="black" d="M490.84,-235.46C461.52,-222.8 427.12,-207.95 402.03,-197.12"/>
<polygon fill="black" stroke="black" points="403.13,-193.79 392.56,-193.03 400.36,-200.21 403.13,-193.79"/>
<text text-anchor="middle" x="432.43" y="-220.09" font-family="Times,serif" font-size="14.00">input</text>
</g>
<!-- committeeCertificateVerificationMintingPolicy -->
<g id="node3" class="node">
<title>committeeCertificateVerificationMintingPolicy</title>
<polygon fill="none" stroke="black" points="480.5,-73.5 480.5,-126.5 619.5,-126.5 619.5,-73.5 480.5,-73.5"/>
<text text-anchor="middle" x="550" y="-111.3" font-family="Times,serif" font-size="14.00">Committee Certificate</text>
<text text-anchor="middle" x="550" y="-96.3" font-family="Times,serif" font-size="14.00">Verification Minting</text>
<text text-anchor="middle" x="550" y="-81.3" font-family="Times,serif" font-size="14.00">Policy</text>
</g>
<!-- currentCommittee&#45;&gt;committeeCertificateVerificationMintingPolicy -->
<g id="edge2" class="edge">
<title>currentCommittee&#45;&gt;committeeCertificateVerificationMintingPolicy</title>
<path fill="none" stroke="black" stroke-dasharray="5,2" d="M550,-235.25C550,-208.32 550,-166.58 550,-136.59"/>
<polygon fill="black" stroke="black" points="553.5,-136.52 550,-126.52 546.5,-136.52 553.5,-136.52"/>
<text text-anchor="middle" x="507.5" y="-204.72" font-family="Times,serif" font-size="14.00">checks if</text>
<text text-anchor="middle" x="507.5" y="-189.72" font-family="Times,serif" font-size="14.00">token is minted</text>
</g>
<!-- transaction&#45;&gt;committeeCertificateVerificationMintingPolicy -->
<g id="edge4" class="edge">
<title>transaction&#45;&gt;committeeCertificateVerificationMintingPolicy</title>
<path fill="none" stroke="black" d="M392.45,-169.02C415.41,-159.1 450.26,-144.06 481.34,-130.64"/>
<polygon fill="black" stroke="black" points="483.06,-133.71 490.85,-126.53 480.29,-127.28 483.06,-133.71"/>
<text text-anchor="middle" x="421.39" y="-138.63" font-family="Times,serif" font-size="14.00">mints</text>
</g>
<!-- newCommittee -->
<g id="node4" class="node">
<title>newCommittee</title>
<polygon fill="none" stroke="black" points="0,-73.5 0,-126.5 262,-126.5 262,-73.5 0,-73.5"/>
<text text-anchor="middle" x="131" y="-111.3" font-family="Times,serif" font-size="14.00">New committee address with the</text>
<text text-anchor="middle" x="131" y="-96.3" font-family="Times,serif" font-size="14.00"> CommitteeHashPolicy NFT with datum</text>
<text text-anchor="middle" x="131" y="-81.3" font-family="Times,serif" font-size="14.00">UpdateCommitteeDatum aggregatePubKeys&#39;</text>
</g>
<!-- transaction&#45;&gt;newCommittee -->
<g id="edge6" class="edge">
<title>transaction&#45;&gt;newCommittee</title>
<path fill="none" stroke="black" d="M337.59,-170.15C307.43,-160.06 259.09,-143.88 216.75,-129.7"/>
<polygon fill="black" stroke="black" points="217.85,-126.38 207.25,-126.53 215.63,-133.02 217.85,-126.38"/>
<text text-anchor="middle" x="259.67" y="-153.73" font-family="Times,serif" font-size="14.00">output</text>
</g>
<!-- burnAddress -->
<g id="node5" class="node">
<title>burnAddress</title>
<polygon fill="none" stroke="black" points="416,-0.5 416,-36.5 504,-36.5 504,-0.5 416,-0.5"/>
<text text-anchor="middle" x="460" y="-14.8" font-family="Times,serif" font-size="14.00">Burn address</text>
</g>
<!-- transaction&#45;&gt;burnAddress -->
<g id="edge7" class="edge">
<title>transaction&#45;&gt;burnAddress</title>
<path fill="none" stroke="black" d="M376.09,-165.12C391.96,-137.38 424.92,-79.8 444.47,-45.63"/>
<polygon fill="black" stroke="black" points="447.68,-47.08 449.61,-36.66 441.6,-43.6 447.68,-47.08"/>
<text text-anchor="middle" x="392.78" y="-109.18" font-family="Times,serif" font-size="14.00">output</text>
</g>
<!-- committeeCertificateVerificationMintingPolicy&#45;&gt;currentCommittee -->
<g id="edge3" class="edge">
<title>committeeCertificateVerificationMintingPolicy:ne&#45;&gt;currentCommittee:se</title>
<path fill="none" stroke="black" stroke-dasharray="5,2" d="M620,-127C620,-127 662.12,-200.37 676.93,-226.16"/>
<polygon fill="black" stroke="black" points="673.99,-228.07 682,-235 680.06,-224.58 673.99,-228.07"/>
<text text-anchor="middle" x="615.46" y="-180.38" font-family="Times,serif" font-size="14.00">searches for</text>
</g>
<!-- committeeCertificateVerificationMintingPolicy&#45;&gt;burnAddress -->
<g id="edge5" class="edge">
<title>committeeCertificateVerificationMintingPolicy&#45;&gt;burnAddress</title>
<path fill="none" stroke="black" stroke-dasharray="5,2" d="M521.03,-73.41C510.03,-63.69 497.56,-52.68 486.77,-43.15"/>
<polygon fill="black" stroke="black" points="489.07,-40.51 479.26,-36.51 484.44,-45.76 489.07,-40.51"/>
<text text-anchor="middle" x="478.4" y="-62.08" font-family="Times,serif" font-size="14.00">is paid to</text>
</g>
</g>
</svg>
