<?xml version="1.0" encoding="UTF-8" standalone="no"?>
<!DOCTYPE svg PUBLIC "-//W3C//DTD SVG 1.1//EN"
 "http://www.w3.org/Graphics/SVG/1.1/DTD/svg11.dtd">
<!-- Generated by graphviz version 7.0.2 (0)
 -->
<!-- Pages: 1 -->
<svg width="811pt" height="581pt"
 viewBox="0.00 0.00 811.00 581.00" xmlns="http://www.w3.org/2000/svg" xmlns:xlink="http://www.w3.org/1999/xlink">
<g id="graph0" class="graph" transform="scale(1 1) rotate(0) translate(4 577)">
<polygon fill="white" stroke="none" points="-4,4 -4,-577 807,-577 807,4 -4,4"/>
<!-- currentCommittee -->
<g id="node1" class="node">
<title>currentCommittee</title>
<polygon fill="none" stroke="black" points="481.5,-519.5 481.5,-572.5 726.5,-572.5 726.5,-519.5 481.5,-519.5"/>
<text text-anchor="middle" x="604" y="-557.3" font-family="Times,serif" font-size="14.00">Aggregated committee </text>
<text text-anchor="middle" x="604" y="-542.3" font-family="Times,serif" font-size="14.00">members&#39; public keys</text>
<text text-anchor="middle" x="604" y="-527.3" font-family="Times,serif" font-size="14.00">with CommitteeHashPolicy NFT</text>
</g>
<!-- transaction -->
<g id="node2" class="node">
<title>transaction</title>
<polygon fill="none" stroke="black" points="406,-464 313.33,-446 406,-428 498.67,-446 406,-464"/>
<text text-anchor="middle" x="406" y="-442.3" font-family="Times,serif" font-size="14.00">Transaction</text>
</g>
<!-- currentCommittee&#45;&gt;transaction -->
<g id="edge1" class="edge">
<title>currentCommittee&#45;&gt;transaction</title>
<path fill="none" stroke="black" d="M552.49,-519.51C517.65,-502.26 472.51,-479.92 441.6,-464.62"/>
<polygon fill="black" stroke="black" points="443.17,-461.49 432.66,-460.19 440.07,-467.77 443.17,-461.49"/>
<text text-anchor="middle" x="436.42" y="-493.32" font-family="Times,serif" font-size="14.00">reference input</text>
</g>
<!-- committeeCertificateVerificationMintingPolicy -->
<g id="node3" class="node">
<title>committeeCertificateVerificationMintingPolicy</title>
<polygon fill="none" stroke="black" points="233.5,-92.5 233.5,-145.5 408.5,-145.5 408.5,-92.5 233.5,-92.5"/>
<text text-anchor="middle" x="321" y="-130.3" font-family="Times,serif" font-size="14.00">Committee Certificate</text>
<text text-anchor="middle" x="321" y="-115.3" font-family="Times,serif" font-size="14.00">Verification Minting</text>
<text text-anchor="middle" x="321" y="-100.3" font-family="Times,serif" font-size="14.00">Policy</text>
</g>
<!-- transaction&#45;&gt;committeeCertificateVerificationMintingPolicy -->
<g id="edge4" class="edge">
<title>transaction&#45;&gt;committeeCertificateVerificationMintingPolicy</title>
<path fill="none" stroke="black" d="M363.82,-435.72C331.09,-426.06 287.9,-407.37 267,-373 224.88,-303.75 268.98,-206.4 298.67,-154.99"/>
<polygon fill="black" stroke="black" points="301.53,-157.03 303.62,-146.64 295.51,-153.46 301.53,-157.03"/>
<text text-anchor="middle" x="231.24" y="-282.52" font-family="Times,serif" font-size="14.00">mints</text>
</g>
<!-- plutusScript -->
<g id="node4" class="node">
<title>plutusScript</title>
<polygon fill="none" stroke="black" points="303,-230.5 303,-266.5 543,-266.5 543,-230.5 303,-230.5"/>
<text text-anchor="middle" x="423" y="-244.8" font-family="Times,serif" font-size="14.00">MerkleRootTokenMintingPolicy</text>
</g>
<!-- transaction&#45;&gt;plutusScript -->
<g id="edge6" class="edge">
<title>transaction&#45;&gt;plutusScript</title>
<path fill="none" stroke="black" d="M448.18,-435.72C480.91,-426.06 524.1,-407.37 545,-373 569.99,-331.91 516.43,-294.06 472.53,-271.38"/>
<polygon fill="black" stroke="black" points="474.35,-268.38 463.84,-267.04 471.22,-274.64 474.35,-268.38"/>
<text text-anchor="middle" x="571.5" y="-350.8" font-family="Times,serif" font-size="14.00">mints</text>
</g>
<!-- burnAddress -->
<g id="node5" class="node">
<title>burnAddress</title>
<polygon fill="none" stroke="black" points="30.5,-0.5 30.5,-36.5 143.5,-36.5 143.5,-0.5 30.5,-0.5"/>
<text text-anchor="middle" x="87" y="-14.8" font-family="Times,serif" font-size="14.00">Burn address</text>
</g>
<!-- transaction&#45;&gt;burnAddress -->
<g id="edge9" class="edge">
<title>transaction&#45;&gt;burnAddress</title>
<path fill="none" stroke="black" d="M333.98,-441.53C229.44,-434.5 48,-413.88 48,-355.5 48,-355.5 48,-355.5 48,-118 48,-92.39 59.53,-65.51 70.06,-46.31"/>
<polygon fill="black" stroke="black" points="73,-48.21 74.96,-37.8 66.94,-44.71 73,-48.21"/>
<text text-anchor="middle" x="24" y="-329.62" font-family="Times,serif" font-size="14.00">output</text>
</g>
<!-- recipient -->
<g id="node6" class="node">
<title>recipient</title>
<polygon fill="none" stroke="black" points="303,-336.5 303,-372.5 509,-372.5 509,-336.5 303,-336.5"/>
<text text-anchor="middle" x="406" y="-350.8" font-family="Times,serif" font-size="14.00">MerkleRootTokenValidator</text>
</g>
<!-- transaction&#45;&gt;recipient -->
<g id="edge8" class="edge">
<title>transaction&#45;&gt;recipient</title>
<path fill="none" stroke="black" d="M406,-427.74C406,-415.28 406,-398.18 406,-383.74"/>
<polygon fill="black" stroke="black" points="409.5,-383.91 406,-373.91 402.5,-383.91 409.5,-383.91"/>
<text text-anchor="middle" x="382" y="-403.8" font-family="Times,serif" font-size="14.00">output</text>
</g>
<!-- committeeCertificateVerificationMintingPolicy&#45;&gt;currentCommittee -->
<g id="edge3" class="edge">
<title>committeeCertificateVerificationMintingPolicy&#45;&gt;currentCommittee</title>
<path fill="none" stroke="black" stroke-dasharray="5,2" d="M408.29,-125.24C547.19,-136.01 803,-166.78 803,-247.5 803,-447 803,-447 803,-447 803,-485.11 773.27,-508.39 736.79,-522.63"/>
<polygon fill="black" stroke="black" points="735.98,-519.2 727.77,-525.89 738.36,-525.78 735.98,-519.2"/>
<text text-anchor="middle" x="613.73" y="-163.94" font-family="Times,serif" font-size="14.00">searches for</text>
</g>
<!-- committeeCertificateVerificationMintingPolicy&#45;&gt;burnAddress -->
<g id="edge5" class="edge">
<title>committeeCertificateVerificationMintingPolicy&#45;&gt;burnAddress</title>
<path fill="none" stroke="black" stroke-dasharray="5,2" d="M260.43,-92.51C222.23,-76.42 173.46,-55.9 137.38,-40.71"/>
<polygon fill="black" stroke="black" points="139.05,-37.61 128.48,-36.96 136.34,-44.07 139.05,-37.61"/>
<text text-anchor="middle" x="160.08" y="-68.17" font-family="Times,serif" font-size="14.00">is paid to</text>
</g>
<!-- plutusScript&#45;&gt;committeeCertificateVerificationMintingPolicy -->
<g id="edge2" class="edge">
<title>plutusScript&#45;&gt;committeeCertificateVerificationMintingPolicy</title>
<path fill="none" stroke="black" stroke-dasharray="5,2" d="M409.46,-230.57C393.91,-211.14 368.03,-178.79 348.27,-154.08"/>
<polygon fill="black" stroke="black" points="351.22,-152.17 342.24,-146.55 345.75,-156.54 351.22,-152.17"/>
<text text-anchor="middle" x="446" y="-191.8" font-family="Times,serif" font-size="14.00">checks if</text>
<text text-anchor="middle" x="446" y="-176.8" font-family="Times,serif" font-size="14.00"> token is minted</text>
</g>
<!-- recipient&#45;&gt;plutusScript -->
<g id="edge7" class="edge">
<title>recipient&#45;&gt;plutusScript</title>
<path fill="none" stroke="black" stroke-dasharray="5,2" d="M410.57,-325.54C413.67,-306.58 417.66,-282.15 420.28,-266.17"/>
<polygon fill="black" stroke="black" points="407.13,-324.86 408.98,-335.3 414.04,-325.99 407.13,-324.86"/>
<text text-anchor="middle" x="449.5" y="-297.8" font-family="Times,serif" font-size="14.00">is paid to</text>
</g>
</g>
</svg>
