<?xml version="1.0" encoding="UTF-8" standalone="no"?>
<!DOCTYPE svg PUBLIC "-//W3C//DTD SVG 1.1//EN"
 "http://www.w3.org/Graphics/SVG/1.1/DTD/svg11.dtd">
<!-- Generated by graphviz version 5.0.1 (0)
 -->
<!-- Pages: 1 -->
<svg width="750pt" height="581pt"
 viewBox="0.00 0.00 750.00 581.00" xmlns="http://www.w3.org/2000/svg" xmlns:xlink="http://www.w3.org/1999/xlink">
<g id="graph0" class="graph" transform="scale(1 1) rotate(0) translate(4 577)">
<polygon fill="white" stroke="none" points="-4,4 -4,-577 746,-577 746,4 -4,4"/>
<!-- currentCommittee -->
<g id="node1" class="node">
<title>currentCommittee</title>
<polygon fill="none" stroke="black" points="459.5,-519.5 459.5,-572.5 656.5,-572.5 656.5,-519.5 459.5,-519.5"/>
<text text-anchor="middle" x="558" y="-557.3" font-family="Times,serif" font-size="14.00">Aggregated committee </text>
<text text-anchor="middle" x="558" y="-542.3" font-family="Times,serif" font-size="14.00">members&#39; public keys</text>
<text text-anchor="middle" x="558" y="-527.3" font-family="Times,serif" font-size="14.00">with CommitteeHashPolicy NFT</text>
</g>
<!-- transaction -->
<g id="node2" class="node">
<title>transaction</title>
<polygon fill="none" stroke="black" points="374,-464 300.43,-446 374,-428 447.57,-446 374,-464"/>
<text text-anchor="middle" x="374" y="-442.3" font-family="Times,serif" font-size="14.00">Transaction</text>
</g>
<!-- currentCommittee&#45;&gt;transaction -->
<g id="edge1" class="edge">
<title>currentCommittee&#45;&gt;transaction</title>
<path fill="none" stroke="black" d="M509.66,-519.25C476.56,-501.62 433.64,-478.77 405.03,-463.53"/>
<polygon fill="black" stroke="black" points="406.39,-460.28 395.92,-458.67 403.1,-466.46 406.39,-460.28"/>
<text text-anchor="middle" x="411.64" y="-492.69" font-family="Times,serif" font-size="14.00">reference input</text>
</g>
<!-- committeeCertificateVerificationMintingPolicy -->
<g id="node3" class="node">
<title>committeeCertificateVerificationMintingPolicy</title>
<polygon fill="none" stroke="black" points="231.5,-92.5 231.5,-145.5 370.5,-145.5 370.5,-92.5 231.5,-92.5"/>
<text text-anchor="middle" x="301" y="-130.3" font-family="Times,serif" font-size="14.00">Committee Certificate</text>
<text text-anchor="middle" x="301" y="-115.3" font-family="Times,serif" font-size="14.00">Verification Minting</text>
<text text-anchor="middle" x="301" y="-100.3" font-family="Times,serif" font-size="14.00">Policy</text>
</g>
<!-- transaction&#45;&gt;committeeCertificateVerificationMintingPolicy -->
<g id="edge4" class="edge">
<title>transaction&#45;&gt;committeeCertificateVerificationMintingPolicy</title>
<path fill="none" stroke="black" d="M341.92,-435.72C313.15,-425.5 272.67,-405.98 254,-373 214.21,-302.73 254.04,-205.57 280.89,-154.51"/>
<polygon fill="black" stroke="black" points="284.07,-156 285.73,-145.54 277.91,-152.68 284.07,-156"/>
<text text-anchor="middle" x="222.75" y="-286.96" font-family="Times,serif" font-size="14.00">mints</text>
</g>
<!-- plutusScript -->
<g id="node4" class="node">
<title>plutusScript</title>
<polygon fill="none" stroke="black" points="290,-230.5 290,-266.5 486,-266.5 486,-230.5 290,-230.5"/>
<text text-anchor="middle" x="388" y="-244.8" font-family="Times,serif" font-size="14.00">MerkleRootTokenMintingPolicy</text>
</g>
<!-- transaction&#45;&gt;plutusScript -->
<g id="edge6" class="edge">
<title>transaction&#45;&gt;plutusScript</title>
<path fill="none" stroke="black" d="M406.08,-435.72C434.85,-425.5 475.33,-405.98 494,-373 516.3,-333.62 469.21,-295.18 430.82,-271.91"/>
<polygon fill="black" stroke="black" points="432.19,-268.66 421.8,-266.61 428.65,-274.69 432.19,-268.66"/>
<text text-anchor="middle" x="514.5" y="-350.8" font-family="Times,serif" font-size="14.00">mints</text>
</g>
<!-- burnAddress -->
<g id="node5" class="node">
<title>burnAddress</title>
<polygon fill="none" stroke="black" points="30,-0.5 30,-36.5 118,-36.5 118,-0.5 30,-0.5"/>
<text text-anchor="middle" x="74" y="-14.8" font-family="Times,serif" font-size="14.00">Burn address</text>
</g>
<!-- transaction&#45;&gt;burnAddress -->
<g id="edge9" class="edge">
<title>transaction&#45;&gt;burnAddress</title>
<path fill="none" stroke="black" d="M317.64,-441.72C221.24,-434.56 35,-413.25 35,-355.5 35,-355.5 35,-355.5 35,-118 35,-92.08 46.82,-64.84 57.45,-45.6"/>
<polygon fill="black" stroke="black" points="60.54,-47.24 62.51,-36.83 54.48,-43.74 60.54,-47.24"/>
<text text-anchor="middle" x="17.5" y="-329.62" font-family="Times,serif" font-size="14.00">output</text>
</g>
<!-- recipient -->
<g id="node6" class="node">
<title>recipient</title>
<polygon fill="none" stroke="black" points="290.5,-336.5 290.5,-372.5 457.5,-372.5 457.5,-336.5 290.5,-336.5"/>
<text text-anchor="middle" x="374" y="-350.8" font-family="Times,serif" font-size="14.00">MerkleRootTokenValidator</text>
</g>
<!-- transaction&#45;&gt;recipient -->
<g id="edge8" class="edge">
<title>transaction&#45;&gt;recipient</title>
<path fill="none" stroke="black" d="M374,-427.74C374,-414.99 374,-397.37 374,-382.73"/>
<polygon fill="black" stroke="black" points="377.5,-382.7 374,-372.7 370.5,-382.7 377.5,-382.7"/>
<text text-anchor="middle" x="356.5" y="-404.21" font-family="Times,serif" font-size="14.00">output</text>
</g>
<!-- committeeCertificateVerificationMintingPolicy&#45;&gt;currentCommittee -->
<g id="edge3" class="edge">
<title>committeeCertificateVerificationMintingPolicy&#45;&gt;currentCommittee</title>
<path fill="none" stroke="black" stroke-dasharray="5,2" d="M370.88,-125.67C495.23,-137.7 742,-171.19 742,-247.5 742,-447 742,-447 742,-447 742,-487.79 706.33,-511.66 666.4,-525.6"/>
<polygon fill="black" stroke="black" points="665.15,-522.33 656.73,-528.77 667.33,-528.98 665.15,-522.33"/>
<text text-anchor="middle" x="570.07" y="-166.28" font-family="Times,serif" font-size="14.00">searches for</text>
</g>
<!-- committeeCertificateVerificationMintingPolicy&#45;&gt;burnAddress -->
<g id="edge5" class="edge">
<title>committeeCertificateVerificationMintingPolicy&#45;&gt;burnAddress</title>
<path fill="none" stroke="black" stroke-dasharray="5,2" d="M241.95,-92.38C204.97,-76.33 157.88,-55.9 122.97,-40.75"/>
<polygon fill="black" stroke="black" points="124.04,-37.4 113.47,-36.63 121.25,-43.82 124.04,-37.4"/>
<text text-anchor="middle" x="151.81" y="-68.13" font-family="Times,serif" font-size="14.00">is paid to</text>
</g>
<!-- plutusScript&#45;&gt;committeeCertificateVerificationMintingPolicy -->
<g id="edge2" class="edge">
<title>plutusScript&#45;&gt;committeeCertificateVerificationMintingPolicy</title>
<path fill="none" stroke="black" stroke-dasharray="5,2" d="M376.27,-230.3C362.99,-210.85 341.03,-178.67 324.25,-154.07"/>
<polygon fill="black" stroke="black" points="327.08,-152.01 318.55,-145.72 321.3,-155.96 327.08,-152.01"/>
<text text-anchor="middle" x="402.5" y="-191.8" font-family="Times,serif" font-size="14.00">checks if</text>
<text text-anchor="middle" x="402.5" y="-176.8" font-family="Times,serif" font-size="14.00"> token is minted</text>
</g>
<!-- recipient&#45;&gt;plutusScript -->
<g id="edge7" class="edge">
<title>recipient&#45;&gt;plutusScript</title>
<path fill="none" stroke="black" stroke-dasharray="5,2" d="M377.67,-326.26C380.21,-307.4 383.51,-282.89 385.68,-266.7"/>
<polygon fill="black" stroke="black" points="374.18,-325.95 376.31,-336.33 381.11,-326.88 374.18,-325.95"/>
<text text-anchor="middle" x="407.5" y="-297.8" font-family="Times,serif" font-size="14.00">is paid to</text>
</g>
</g>
</svg>
