<?xml version="1.0" encoding="UTF-8" standalone="no"?>
<!DOCTYPE svg PUBLIC "-//W3C//DTD SVG 1.1//EN"
 "http://www.w3.org/Graphics/SVG/1.1/DTD/svg11.dtd">
<!-- Generated by graphviz version 7.0.2 (0)
 -->
<!-- Pages: 1 -->
<svg width="273pt" height="135pt"
 viewBox="0.00 0.00 273.00 135.00" xmlns="http://www.w3.org/2000/svg" xmlns:xlink="http://www.w3.org/1999/xlink">
<g id="graph0" class="graph" transform="scale(1 1) rotate(0) translate(4 131)">
<polygon fill="white" stroke="none" points="-4,4 -4,-131 269,-131 269,4 -4,4"/>
<!-- plutusScript -->
<g id="node1" class="node">
<title>plutusScript</title>
<polygon fill="none" stroke="black" points="79.5,-90.5 79.5,-126.5 185.5,-126.5 185.5,-90.5 79.5,-90.5"/>
<text text-anchor="middle" x="132.5" y="-104.8" font-family="Times,serif" font-size="14.00">PlutusScript</text>
</g>
<!-- committeeCertificateVerificationMintingPolicy -->
<g id="node2" class="node">
<title>committeeCertificateVerificationMintingPolicy</title>
<polygon fill="none" stroke="black" points="0,-0.5 0,-38.5 265,-38.5 265,-0.5 0,-0.5"/>
<text text-anchor="middle" x="132.5" y="-23.3" font-family="Times,serif" font-size="14.00">Committee Certificate Verification </text>
<text text-anchor="middle" x="132.5" y="-8.3" font-family="Times,serif" font-size="14.00">Minting Policy</text>
</g>
<!-- plutusScript&#45;&gt;committeeCertificateVerificationMintingPolicy -->
<g id="edge1" class="edge">
<title>plutusScript&#45;&gt;committeeCertificateVerificationMintingPolicy</title>
<path fill="none" stroke="black" stroke-dasharray="5,2" d="M132.5,-90.73C132.5,-79.12 132.5,-63.36 132.5,-49.71"/>
<polygon fill="black" stroke="black" points="136,-49.93 132.5,-39.93 129,-49.93 136,-49.93"/>
<text text-anchor="middle" x="196" y="-60.8" font-family="Times,serif" font-size="14.00">parameterized by</text>
</g>
</g>
</svg>
