<?xml version="1.0" encoding="UTF-8" standalone="no"?>
<!DOCTYPE svg PUBLIC "-//W3C//DTD SVG 1.1//EN"
 "http://www.w3.org/Graphics/SVG/1.1/DTD/svg11.dtd">
<!-- Generated by graphviz version 7.0.2 (0)
 -->
<!-- Pages: 1 -->
<svg width="790pt" height="357pt"
 viewBox="0.00 0.00 790.00 357.00" xmlns="http://www.w3.org/2000/svg" xmlns:xlink="http://www.w3.org/1999/xlink">
<g id="graph0" class="graph" transform="scale(1 1) rotate(0) translate(4 353)">
<polygon fill="white" stroke="none" points="-4,4 -4,-353 786,-353 786,4 -4,4"/>
<!-- currentCommittee -->
<g id="node1" class="node">
<title>currentCommittee</title>
<polygon fill="none" stroke="black" points="537,-295.5 537,-348.5 782,-348.5 782,-295.5 537,-295.5"/>
<text text-anchor="middle" x="659.5" y="-333.3" font-family="Times,serif" font-size="14.00">Aggregated committee </text>
<text text-anchor="middle" x="659.5" y="-318.3" font-family="Times,serif" font-size="14.00">members&#39; public keys</text>
<text text-anchor="middle" x="659.5" y="-303.3" font-family="Times,serif" font-size="14.00">with CommitteeHashPolicy NFT</text>
</g>
<!-- transaction -->
<g id="node4" class="node">
<title>transaction</title>
<polygon fill="none" stroke="black" points="176.5,-229 83.83,-211 176.5,-193 269.17,-211 176.5,-229"/>
<text text-anchor="middle" x="176.5" y="-207.3" font-family="Times,serif" font-size="14.00">Transaction</text>
</g>
<!-- currentCommittee&#45;&gt;transaction -->
<g id="edge3" class="edge">
<title>currentCommittee&#45;&gt;transaction</title>
<path fill="none" stroke="black" d="M560.83,-295.52C501.97,-280.65 425.66,-261.93 357.5,-247 316.45,-238.01 269.9,-229.03 234.29,-222.42"/>
<polygon fill="black" stroke="black" points="235.09,-219.01 224.62,-220.64 233.82,-225.9 235.09,-219.01"/>
<text text-anchor="middle" x="537" y="-265.8" font-family="Times,serif" font-size="14.00">reference input</text>
<text text-anchor="middle" x="537" y="-250.8" font-family="Times,serif" font-size="14.00">or input</text>
</g>
<!-- plutusScript -->
<g id="node2" class="node">
<title>plutusScript</title>
<polygon fill="none" stroke="black" points="335.5,-304 335.5,-340 443.5,-340 443.5,-304 335.5,-304"/>
<text text-anchor="middle" x="389.5" y="-318.3" font-family="Times,serif" font-size="14.00">Plutus script</text>
</g>
<!-- plutusScript&#45;&gt;transaction -->
<g id="edge1" class="edge">
<title>plutusScript&#45;&gt;transaction</title>
<path fill="none" stroke="black" d="M356.69,-304.21C317.26,-284.03 251.42,-250.34 211.19,-229.75"/>
<polygon fill="black" stroke="black" points="212.89,-226.69 202.4,-225.25 209.71,-232.92 212.89,-226.69"/>
<text text-anchor="middle" x="320.5" y="-258.3" font-family="Times,serif" font-size="14.00">input</text>
</g>
<!-- committeeCertificateVerificationMintingPolicy -->
<g id="node5" class="node">
<title>committeeCertificateVerificationMintingPolicy</title>
<polygon fill="none" stroke="black" points="326,-88.5 326,-141.5 501,-141.5 501,-88.5 326,-88.5"/>
<text text-anchor="middle" x="413.5" y="-126.3" font-family="Times,serif" font-size="14.00">Committee Certificate</text>
<text text-anchor="middle" x="413.5" y="-111.3" font-family="Times,serif" font-size="14.00">Verification Minting</text>
<text text-anchor="middle" x="413.5" y="-96.3" font-family="Times,serif" font-size="14.00">Policy</text>
</g>
<!-- plutusScript&#45;&gt;committeeCertificateVerificationMintingPolicy -->
<g id="edge4" class="edge">
<title>plutusScript&#45;&gt;committeeCertificateVerificationMintingPolicy</title>
<path fill="none" stroke="black" stroke-dasharray="5,2" d="M391.46,-304.22C395.33,-271.22 404,-197.17 409.24,-152.42"/>
<polygon fill="black" stroke="black" points="412.69,-153.02 410.38,-142.68 405.74,-152.2 412.69,-153.02"/>
<text text-anchor="middle" x="459.5" y="-214.8" font-family="Times,serif" font-size="14.00">checks if</text>
<text text-anchor="middle" x="459.5" y="-199.8" font-family="Times,serif" font-size="14.00">token is minted</text>
</g>
<!-- extraTxInputs -->
<g id="node3" class="node">
<title>extraTxInputs</title>
<polygon fill="none" stroke="black" points="114,-304 114,-340 239,-340 239,-304 114,-304"/>
<text text-anchor="middle" x="176.5" y="-318.3" font-family="Times,serif" font-size="14.00">Extra tx inputs</text>
</g>
<!-- extraTxInputs&#45;&gt;transaction -->
<g id="edge2" class="edge">
<title>extraTxInputs&#45;&gt;transaction</title>
<path fill="none" stroke="black" d="M176.5,-304.45C176.5,-287.6 176.5,-261.15 176.5,-240.85"/>
<polygon fill="black" stroke="black" points="180,-240.95 176.5,-230.95 173,-240.95 180,-240.95"/>
<text text-anchor="middle" x="195.5" y="-258.3" font-family="Times,serif" font-size="14.00">input</text>
</g>
<!-- transaction&#45;&gt;committeeCertificateVerificationMintingPolicy -->
<g id="edge6" class="edge">
<title>transaction&#45;&gt;committeeCertificateVerificationMintingPolicy</title>
<path fill="none" stroke="black" d="M206.04,-198.28C239.12,-185.16 294.01,-163.39 339.02,-145.54"/>
<polygon fill="black" stroke="black" points="340.23,-148.83 348.23,-141.89 337.64,-142.32 340.23,-148.83"/>
<text text-anchor="middle" x="322" y="-163.8" font-family="Times,serif" font-size="14.00">mints</text>
</g>
<!-- txOutputs -->
<g id="node6" class="node">
<title>txOutputs</title>
<polygon fill="none" stroke="black" points="119.5,-97 119.5,-133 253.5,-133 253.5,-97 119.5,-97"/>
<text text-anchor="middle" x="186.5" y="-111.3" font-family="Times,serif" font-size="14.00">Extra tx outputs</text>
</g>
<!-- transaction&#45;&gt;txOutputs -->
<g id="edge8" class="edge">
<title>transaction&#45;&gt;txOutputs</title>
<path fill="none" stroke="black" d="M178.29,-193.19C179.73,-179.64 181.79,-160.29 183.48,-144.35"/>
<polygon fill="black" stroke="black" points="186.96,-144.8 184.53,-134.48 180,-144.06 186.96,-144.8"/>
<text text-anchor="middle" x="206.5" y="-163.8" font-family="Times,serif" font-size="14.00">output</text>
</g>
<!-- burnAddress -->
<g id="node7" class="node">
<title>burnAddress</title>
<polygon fill="none" stroke="black" points="0,-0.5 0,-36.5 113,-36.5 113,-0.5 0,-0.5"/>
<text text-anchor="middle" x="56.5" y="-14.8" font-family="Times,serif" font-size="14.00">Burn address</text>
</g>
<!-- transaction&#45;&gt;burnAddress -->
<g id="edge9" class="edge">
<title>transaction&#45;&gt;burnAddress</title>
<path fill="none" stroke="black" d="M131.1,-201.37C98.32,-192.52 56.31,-175.14 35.5,-142 17.25,-112.93 29.79,-72.69 41.9,-46.38"/>
<polygon fill="black" stroke="black" points="44.88,-48.25 46.14,-37.72 38.6,-45.17 44.88,-48.25"/>
<text text-anchor="middle" x="59.5" y="-111.3" font-family="Times,serif" font-size="14.00">output</text>
</g>
<!-- committeeCertificateVerificationMintingPolicy&#45;&gt;currentCommittee -->
<g id="edge5" class="edge">
<title>committeeCertificateVerificationMintingPolicy&#45;&gt;currentCommittee</title>
<path fill="none" stroke="black" stroke-dasharray="5,2" d="M463.48,-141.38C506.07,-164.72 567.09,-202.42 610.5,-247 621.72,-258.52 631.94,-272.96 640.1,-286.01"/>
<polygon fill="black" stroke="black" points="636.98,-287.6 645.15,-294.35 642.97,-283.98 636.98,-287.6"/>
<text text-anchor="middle" x="633.5" y="-207.3" font-family="Times,serif" font-size="14.00">searches for</text>
</g>
<!-- committeeCertificateVerificationMintingPolicy&#45;&gt;burnAddress -->
<g id="edge7" class="edge">
<title>committeeCertificateVerificationMintingPolicy&#45;&gt;burnAddress</title>
<path fill="none" stroke="black" stroke-dasharray="5,2" d="M326.17,-90.88C263.85,-74.39 181.28,-52.53 123.99,-37.37"/>
<polygon fill="black" stroke="black" points="124.91,-33.99 114.35,-34.81 123.12,-40.76 124.91,-33.99"/>
<text text-anchor="middle" x="280" y="-58.8" font-family="Times,serif" font-size="14.00">is paid to</text>
</g>
</g>
</svg>
