<?xml version="1.0" encoding="UTF-8" standalone="no"?>
<!DOCTYPE svg PUBLIC "-//W3C//DTD SVG 1.1//EN"
 "http://www.w3.org/Graphics/SVG/1.1/DTD/svg11.dtd">
<!-- Generated by graphviz version 7.0.2 (0)
 -->
<!-- Pages: 1 -->
<svg width="930pt" height="642pt"
 viewBox="0.00 0.00 930.00 642.00" xmlns="http://www.w3.org/2000/svg" xmlns:xlink="http://www.w3.org/1999/xlink">
<g id="graph0" class="graph" transform="scale(1 1) rotate(0) translate(4 638)">
<polygon fill="white" stroke="none" points="-4,4 -4,-638 926,-638 926,4 -4,4"/>
<!-- currentCommittee -->
<g id="node1" class="node">
<title>currentCommittee</title>
<polygon fill="none" stroke="black" points="677,-580.5 677,-633.5 922,-633.5 922,-580.5 677,-580.5"/>
<text text-anchor="middle" x="799.5" y="-618.3" font-family="Times,serif" font-size="14.00">Aggregated committee </text>
<text text-anchor="middle" x="799.5" y="-603.3" font-family="Times,serif" font-size="14.00">members&#39; public keys</text>
<text text-anchor="middle" x="799.5" y="-588.3" font-family="Times,serif" font-size="14.00">with CommitteeHashPolicy NFT</text>
</g>
<!-- transaction -->
<g id="node3" class="node">
<title>transaction</title>
<polygon fill="none" stroke="black" points="462.5,-507 369.83,-489 462.5,-471 555.17,-489 462.5,-507"/>
<text text-anchor="middle" x="462.5" y="-485.3" font-family="Times,serif" font-size="14.00">Transaction</text>
</g>
<!-- currentCommittee&#45;&gt;transaction -->
<g id="edge2" class="edge">
<title>currentCommittee&#45;&gt;transaction</title>
<path fill="none" stroke="black" d="M725.54,-580.54C658.29,-557.4 561.34,-524.02 505.86,-504.92"/>
<polygon fill="black" stroke="black" points="507.03,-501.63 496.44,-501.68 504.75,-508.25 507.03,-501.63"/>
<text text-anchor="middle" x="554.86" y="-559.7" font-family="Times,serif" font-size="14.00">reference input</text>
<text text-anchor="middle" x="554.86" y="-544.7" font-family="Times,serif" font-size="14.00">or input</text>
</g>
<!-- extraTxInputs -->
<g id="node2" class="node">
<title>extraTxInputs</title>
<polygon fill="none" stroke="black" points="400,-589 400,-625 525,-625 525,-589 400,-589"/>
<text text-anchor="middle" x="462.5" y="-603.3" font-family="Times,serif" font-size="14.00">Extra tx inputs</text>
</g>
<!-- extraTxInputs&#45;&gt;transaction -->
<g id="edge1" class="edge">
<title>extraTxInputs&#45;&gt;transaction</title>
<path fill="none" stroke="black" d="M462.5,-589.38C462.5,-570.99 462.5,-541 462.5,-518.78"/>
<polygon fill="black" stroke="black" points="466,-518.86 462.5,-508.86 459,-518.86 466,-518.86"/>
<text text-anchor="middle" x="443.5" y="-552.21" font-family="Times,serif" font-size="14.00">input</text>
</g>
<!-- committeeCertificateVerificationMintingPolicy -->
<g id="node4" class="node">
<title>committeeCertificateVerificationMintingPolicy</title>
<polygon fill="none" stroke="black" points="349,-110.5 349,-163.5 524,-163.5 524,-110.5 349,-110.5"/>
<text text-anchor="middle" x="436.5" y="-148.3" font-family="Times,serif" font-size="14.00">Committee Certificate</text>
<text text-anchor="middle" x="436.5" y="-133.3" font-family="Times,serif" font-size="14.00">Verification Minting</text>
<text text-anchor="middle" x="436.5" y="-118.3" font-family="Times,serif" font-size="14.00">Policy</text>
</g>
<!-- transaction&#45;&gt;committeeCertificateVerificationMintingPolicy -->
<g id="edge5" class="edge">
<title>transaction&#45;&gt;committeeCertificateVerificationMintingPolicy</title>
<path fill="none" stroke="black" d="M461.66,-470.77C459.41,-426.04 452.79,-302.55 443.5,-200 442.76,-191.79 441.84,-182.98 440.91,-174.65"/>
<polygon fill="black" stroke="black" points="444.4,-174.35 439.79,-164.82 437.44,-175.15 444.4,-174.35"/>
<text text-anchor="middle" x="432.11" y="-320.91" font-family="Times,serif" font-size="14.00">mints</text>
</g>
<!-- plutusScript -->
<g id="node5" class="node">
<title>plutusScript</title>
<polygon fill="none" stroke="black" points="291.5,-237.5 291.5,-273.5 399.5,-273.5 399.5,-237.5 291.5,-237.5"/>
<text text-anchor="middle" x="345.5" y="-251.8" font-family="Times,serif" font-size="14.00">Plutus script</text>
</g>
<!-- transaction&#45;&gt;plutusScript -->
<g id="edge7" class="edge">
<title>transaction&#45;&gt;plutusScript</title>
<path fill="none" stroke="black" d="M401.88,-482.33C348.34,-473.74 273.24,-452.18 236.5,-398 207.11,-354.67 263.91,-306.94 305.98,-279.47"/>
<polygon fill="black" stroke="black" points="307.66,-282.55 314.22,-274.24 303.91,-276.64 307.66,-282.55"/>
<text text-anchor="middle" x="305.89" y="-466.59" font-family="Times,serif" font-size="14.00">mints</text>
</g>
<!-- burnAddress -->
<g id="node6" class="node">
<title>burnAddress</title>
<polygon fill="none" stroke="black" points="0,-0.5 0,-36.5 113,-36.5 113,-0.5 0,-0.5"/>
<text text-anchor="middle" x="56.5" y="-14.8" font-family="Times,serif" font-size="14.00">Burn address</text>
</g>
<!-- transaction&#45;&gt;burnAddress -->
<g id="edge11" class="edge">
<title>transaction&#45;&gt;burnAddress</title>
<path fill="none" stroke="black" d="M387.01,-485.2C260.05,-478.41 17.5,-455.61 17.5,-380.5 17.5,-380.5 17.5,-380.5 17.5,-136 17.5,-103.96 30.93,-69.41 42.02,-46.33"/>
<polygon fill="black" stroke="black" points="45.03,-48.14 46.38,-37.63 38.77,-45 45.03,-48.14"/>
<text text-anchor="middle" x="130.64" y="-462.27" font-family="Times,serif" font-size="14.00">output</text>
</g>
<!-- recipient -->
<g id="node7" class="node">
<title>recipient</title>
<polygon fill="none" stroke="black" points="273,-361.5 273,-397.5 418,-397.5 418,-361.5 273,-361.5"/>
<text text-anchor="middle" x="345.5" y="-375.8" font-family="Times,serif" font-size="14.00">Recipient address</text>
</g>
<!-- transaction&#45;&gt;recipient -->
<g id="edge9" class="edge">
<title>transaction&#45;&gt;recipient</title>
<path fill="none" stroke="black" d="M447.2,-473.95C428.2,-456.49 395.45,-426.4 372.26,-405.08"/>
<polygon fill="black" stroke="black" points="374.73,-402.6 365,-398.41 369.99,-407.76 374.73,-402.6"/>
<text text-anchor="middle" x="381.6" y="-439.52" font-family="Times,serif" font-size="14.00">output</text>
</g>
<!-- txOutputs -->
<g id="node8" class="node">
<title>txOutputs</title>
<polygon fill="none" stroke="black" points="636.5,-361.5 636.5,-397.5 770.5,-397.5 770.5,-361.5 636.5,-361.5"/>
<text text-anchor="middle" x="703.5" y="-375.8" font-family="Times,serif" font-size="14.00">Extra tx outputs</text>
</g>
<!-- transaction&#45;&gt;txOutputs -->
<g id="edge10" class="edge">
<title>transaction&#45;&gt;txOutputs</title>
<path fill="none" stroke="black" d="M489.69,-476.06C514.03,-465.35 550.68,-449.19 582.5,-435 606.75,-424.18 633.69,-412.06 655.98,-402"/>
<polygon fill="black" stroke="black" points="657.14,-405.32 664.81,-398.01 654.26,-398.94 657.14,-405.32"/>
<text text-anchor="middle" x="558.54" y="-438.78" font-family="Times,serif" font-size="14.00">output</text>
</g>
<!-- committeeCertificateVerificationMintingPolicy&#45;&gt;currentCommittee -->
<g id="edge4" class="edge">
<title>committeeCertificateVerificationMintingPolicy&#45;&gt;currentCommittee</title>
<path fill="none" stroke="black" stroke-dasharray="5,2" d="M523.76,-143.25C652.82,-153.43 879.5,-181.69 879.5,-254.5 879.5,-490 879.5,-490 879.5,-490 879.5,-521.96 858.66,-551.52 838.26,-572.79"/>
<polygon fill="black" stroke="black" points="835.89,-570.21 831.27,-579.75 840.83,-575.17 835.89,-570.21"/>
<text text-anchor="middle" x="706.03" y="-179.19" font-family="Times,serif" font-size="14.00">searches for</text>
</g>
<!-- committeeCertificateVerificationMintingPolicy&#45;&gt;burnAddress -->
<g id="edge6" class="edge">
<title>committeeCertificateVerificationMintingPolicy&#45;&gt;burnAddress</title>
<path fill="none" stroke="black" stroke-dasharray="5,2" d="M353.58,-110.58C284.32,-89.34 186.87,-59.47 122.74,-39.81"/>
<polygon fill="black" stroke="black" points="123.98,-36.53 113.4,-36.94 121.93,-43.22 123.98,-36.53"/>
<text text-anchor="middle" x="199.37" y="-77.37" font-family="Times,serif" font-size="14.00">is paid to</text>
</g>
<!-- plutusScript&#45;&gt;committeeCertificateVerificationMintingPolicy -->
<g id="edge3" class="edge">
<title>plutusScript&#45;&gt;committeeCertificateVerificationMintingPolicy</title>
<path fill="none" stroke="black" stroke-dasharray="5,2" d="M358.54,-237.81C371.87,-220.74 392.96,-193.75 409.84,-172.13"/>
<polygon fill="black" stroke="black" points="412.45,-174.47 415.85,-164.43 406.94,-170.16 412.45,-174.47"/>
<text text-anchor="middle" x="329.55" y="-219.46" font-family="Times,serif" font-size="14.00">checks if</text>
<text text-anchor="middle" x="329.55" y="-204.46" font-family="Times,serif" font-size="14.00"> token is minted</text>
</g>
<!-- recipient&#45;&gt;plutusScript -->
<g id="edge8" class="edge">
<title>recipient&#45;&gt;plutusScript</title>
<path fill="none" stroke="black" stroke-dasharray="5,2" d="M345.5,-350.06C345.5,-326.26 345.5,-293.1 345.5,-273.32"/>
<polygon fill="black" stroke="black" points="342,-350.02 345.5,-360.02 349,-350.02 342,-350.02"/>
<text text-anchor="middle" x="379" y="-313.8" font-family="Times,serif" font-size="14.00">is paid to</text>
</g>
</g>
</svg>
