<?xml version="1.0" encoding="UTF-8" standalone="no"?>
<!DOCTYPE svg PUBLIC "-//W3C//DTD SVG 1.1//EN"
 "http://www.w3.org/Graphics/SVG/1.1/DTD/svg11.dtd">
<!-- Generated by graphviz version 5.0.1 (0)
 -->
<!-- Pages: 1 -->
<svg width="658pt" height="357pt"
 viewBox="0.00 0.00 657.50 357.00" xmlns="http://www.w3.org/2000/svg" xmlns:xlink="http://www.w3.org/1999/xlink">
<g id="graph0" class="graph" transform="scale(1 1) rotate(0) translate(4 353)">
<polygon fill="white" stroke="none" points="-4,4 -4,-353 653.5,-353 653.5,4 -4,4"/>
<!-- currentCommittee -->
<g id="node1" class="node">
<title>currentCommittee</title>
<polygon fill="none" stroke="black" points="452.5,-295.5 452.5,-348.5 649.5,-348.5 649.5,-295.5 452.5,-295.5"/>
<text text-anchor="middle" x="551" y="-333.3" font-family="Times,serif" font-size="14.00">Aggregated committee </text>
<text text-anchor="middle" x="551" y="-318.3" font-family="Times,serif" font-size="14.00">members&#39; public keys</text>
<text text-anchor="middle" x="551" y="-303.3" font-family="Times,serif" font-size="14.00">with CommitteeHashPolicy NFT</text>
</g>
<!-- transaction -->
<g id="node4" class="node">
<title>transaction</title>
<polygon fill="none" stroke="black" points="122,-229 48.43,-211 122,-193 195.57,-211 122,-229"/>
<text text-anchor="middle" x="122" y="-207.3" font-family="Times,serif" font-size="14.00">Transaction</text>
</g>
<!-- currentCommittee&#45;&gt;transaction -->
<g id="edge3" class="edge">
<title>currentCommittee&#45;&gt;transaction</title>
<path fill="none" stroke="black" d="M462.22,-295.44C409.69,-280.63 341.75,-262 281,-247 243.86,-237.83 201.54,-228.57 169.91,-221.88"/>
<polygon fill="black" stroke="black" points="170.54,-218.44 160.03,-219.8 169.1,-225.29 170.54,-218.44"/>
<text text-anchor="middle" x="433" y="-265.8" font-family="Times,serif" font-size="14.00">reference input</text>
<text text-anchor="middle" x="433" y="-250.8" font-family="Times,serif" font-size="14.00">or input</text>
</g>
<!-- plutusScript -->
<g id="node2" class="node">
<title>plutusScript</title>
<polygon fill="none" stroke="black" points="270,-304 270,-340 354,-340 354,-304 270,-304"/>
<text text-anchor="middle" x="312" y="-318.3" font-family="Times,serif" font-size="14.00">Plutus script</text>
</g>
<!-- plutusScript&#45;&gt;transaction -->
<g id="edge1" class="edge">
<title>plutusScript&#45;&gt;transaction</title>
<path fill="none" stroke="black" d="M282.31,-303.97C246.77,-283.58 187.58,-249.62 151.93,-229.17"/>
<polygon fill="black" stroke="black" points="153.38,-225.97 142.97,-224.03 149.9,-232.04 153.38,-225.97"/>
<text text-anchor="middle" x="249" y="-258.3" font-family="Times,serif" font-size="14.00">input</text>
</g>
<!-- committeeCertificateVerificationMintingPolicy -->
<g id="node5" class="node">
<title>committeeCertificateVerificationMintingPolicy</title>
<polygon fill="none" stroke="black" points="270.5,-88.5 270.5,-141.5 409.5,-141.5 409.5,-88.5 270.5,-88.5"/>
<text text-anchor="middle" x="340" y="-126.3" font-family="Times,serif" font-size="14.00">Committee Certificate</text>
<text text-anchor="middle" x="340" y="-111.3" font-family="Times,serif" font-size="14.00">Verification Minting</text>
<text text-anchor="middle" x="340" y="-96.3" font-family="Times,serif" font-size="14.00">Policy</text>
</g>
<!-- plutusScript&#45;&gt;committeeCertificateVerificationMintingPolicy -->
<g id="edge4" class="edge">
<title>plutusScript&#45;&gt;committeeCertificateVerificationMintingPolicy</title>
<path fill="none" stroke="black" stroke-dasharray="5,2" d="M314.34,-303.87C318.89,-270.56 329.02,-196.38 335.1,-151.85"/>
<polygon fill="black" stroke="black" points="338.6,-152.13 336.48,-141.74 331.66,-151.18 338.6,-152.13"/>
<text text-anchor="middle" x="371.5" y="-214.8" font-family="Times,serif" font-size="14.00">checks if</text>
<text text-anchor="middle" x="371.5" y="-199.8" font-family="Times,serif" font-size="14.00">token is minted</text>
</g>
<!-- extraTxInputs -->
<g id="node3" class="node">
<title>extraTxInputs</title>
<polygon fill="none" stroke="black" points="73.5,-304 73.5,-340 170.5,-340 170.5,-304 73.5,-304"/>
<text text-anchor="middle" x="122" y="-318.3" font-family="Times,serif" font-size="14.00">Extra tx inputs</text>
</g>
<!-- extraTxInputs&#45;&gt;transaction -->
<g id="edge2" class="edge">
<title>extraTxInputs&#45;&gt;transaction</title>
<path fill="none" stroke="black" d="M122,-303.97C122,-286.71 122,-259.74 122,-239.46"/>
<polygon fill="black" stroke="black" points="125.5,-239.27 122,-229.27 118.5,-239.27 125.5,-239.27"/>
<text text-anchor="middle" x="136" y="-258.3" font-family="Times,serif" font-size="14.00">input</text>
</g>
<!-- transaction&#45;&gt;committeeCertificateVerificationMintingPolicy -->
<g id="edge6" class="edge">
<title>transaction&#45;&gt;committeeCertificateVerificationMintingPolicy</title>
<path fill="none" stroke="black" d="M147.43,-199.03C177.61,-186.02 229.14,-163.8 271.31,-145.62"/>
<polygon fill="black" stroke="black" points="272.91,-148.74 280.7,-141.57 270.14,-142.31 272.91,-148.74"/>
<text text-anchor="middle" x="252.5" y="-163.8" font-family="Times,serif" font-size="14.00">mints</text>
</g>
<!-- txOutputs -->
<g id="node6" class="node">
<title>txOutputs</title>
<polygon fill="none" stroke="black" points="94,-97 94,-133 198,-133 198,-97 94,-97"/>
<text text-anchor="middle" x="146" y="-111.3" font-family="Times,serif" font-size="14.00">Extra tx outputs</text>
</g>
<!-- transaction&#45;&gt;txOutputs -->
<g id="edge8" class="edge">
<title>transaction&#45;&gt;txOutputs</title>
<path fill="none" stroke="black" d="M126.18,-193.63C129.73,-179.73 134.89,-159.51 139.06,-143.19"/>
<polygon fill="black" stroke="black" points="142.54,-143.69 141.62,-133.14 135.76,-141.96 142.54,-143.69"/>
<text text-anchor="middle" x="152.5" y="-163.8" font-family="Times,serif" font-size="14.00">output</text>
</g>
<!-- burnAddress -->
<g id="node7" class="node">
<title>burnAddress</title>
<polygon fill="none" stroke="black" points="0,-0.5 0,-36.5 88,-36.5 88,-0.5 0,-0.5"/>
<text text-anchor="middle" x="44" y="-14.8" font-family="Times,serif" font-size="14.00">Burn address</text>
</g>
<!-- transaction&#45;&gt;burnAddress -->
<g id="edge9" class="edge">
<title>transaction&#45;&gt;burnAddress</title>
<path fill="none" stroke="black" d="M94.03,-199.54C70.32,-189.01 37.86,-170.23 23,-142 7.05,-111.69 18.95,-71.88 30.3,-45.99"/>
<polygon fill="black" stroke="black" points="33.53,-47.35 34.56,-36.8 27.18,-44.4 33.53,-47.35"/>
<text text-anchor="middle" x="40.5" y="-111.3" font-family="Times,serif" font-size="14.00">output</text>
</g>
<!-- committeeCertificateVerificationMintingPolicy&#45;&gt;currentCommittee -->
<g id="edge5" class="edge">
<title>committeeCertificateVerificationMintingPolicy&#45;&gt;currentCommittee</title>
<path fill="none" stroke="black" stroke-dasharray="5,2" d="M373.48,-141.52C405.51,-166.68 454.38,-207.06 492,-247 503.83,-259.56 515.88,-274.26 525.98,-287.24"/>
<polygon fill="black" stroke="black" points="523.45,-289.69 532.32,-295.48 529,-285.42 523.45,-289.69"/>
<text text-anchor="middle" x="505" y="-207.3" font-family="Times,serif" font-size="14.00">searches for</text>
</g>
<!-- committeeCertificateVerificationMintingPolicy&#45;&gt;burnAddress -->
<g id="edge7" class="edge">
<title>committeeCertificateVerificationMintingPolicy&#45;&gt;burnAddress</title>
<path fill="none" stroke="black" stroke-dasharray="5,2" d="M270.23,-91.72C217.46,-74.88 146.07,-52.09 97.71,-36.65"/>
<polygon fill="black" stroke="black" points="98.64,-33.27 88.05,-33.56 96.51,-39.94 98.64,-33.27"/>
<text text-anchor="middle" x="226.5" y="-58.8" font-family="Times,serif" font-size="14.00">is paid to</text>
</g>
</g>
</svg>
