<?xml version="1.0" encoding="UTF-8" standalone="no"?>
<!DOCTYPE svg PUBLIC "-//W3C//DTD SVG 1.1//EN"
 "http://www.w3.org/Graphics/SVG/1.1/DTD/svg11.dtd">
<!-- Generated by graphviz version 5.0.1 (0)
 -->
<!-- Pages: 1 -->
<svg width="217pt" height="135pt"
 viewBox="0.00 0.00 217.00 135.00" xmlns="http://www.w3.org/2000/svg" xmlns:xlink="http://www.w3.org/1999/xlink">
<g id="graph0" class="graph" transform="scale(1 1) rotate(0) translate(4 131)">
<polygon fill="white" stroke="none" points="-4,4 -4,-131 213,-131 213,4 -4,4"/>
<!-- plutusScript -->
<g id="node1" class="node">
<title>plutusScript</title>
<polygon fill="none" stroke="black" points="63,-90.5 63,-126.5 146,-126.5 146,-90.5 63,-90.5"/>
<text text-anchor="middle" x="104.5" y="-104.8" font-family="Times,serif" font-size="14.00">PlutusScript</text>
</g>
<!-- committeeCertificateVerificationMintingPolicy -->
<g id="node2" class="node">
<title>committeeCertificateVerificationMintingPolicy</title>
<polygon fill="none" stroke="black" points="0,-0.5 0,-38.5 209,-38.5 209,-0.5 0,-0.5"/>
<text text-anchor="middle" x="104.5" y="-23.3" font-family="Times,serif" font-size="14.00">Committee Certificate Verification </text>
<text text-anchor="middle" x="104.5" y="-8.3" font-family="Times,serif" font-size="14.00">Minting Policy</text>
</g>
<!-- plutusScript&#45;&gt;committeeCertificateVerificationMintingPolicy -->
<g id="edge1" class="edge">
<title>plutusScript&#45;&gt;committeeCertificateVerificationMintingPolicy</title>
<path fill="none" stroke="black" stroke-dasharray="5,2" d="M104.5,-90.31C104.5,-78.51 104.5,-62.57 104.5,-48.9"/>
<polygon fill="black" stroke="black" points="108,-48.55 104.5,-38.55 101,-48.55 108,-48.55"/>
<text text-anchor="middle" x="152" y="-60.8" font-family="Times,serif" font-size="14.00">parameterized by</text>
</g>
</g>
</svg>
