<?xml version="1.0" encoding="UTF-8" standalone="no"?>
<!DOCTYPE svg PUBLIC "-//W3C//DTD SVG 1.1//EN"
 "http://www.w3.org/Graphics/SVG/1.1/DTD/svg11.dtd">
<!-- Generated by graphviz version 5.0.1 (0)
 -->
<!-- Pages: 1 -->
<svg width="830pt" height="642pt"
 viewBox="0.00 0.00 829.50 642.00" xmlns="http://www.w3.org/2000/svg" xmlns:xlink="http://www.w3.org/1999/xlink">
<g id="graph0" class="graph" transform="scale(1 1) rotate(0) translate(4 638)">
<polygon fill="white" stroke="none" points="-4,4 -4,-638 825.5,-638 825.5,4 -4,4"/>
<!-- currentCommittee -->
<g id="node1" class="node">
<title>currentCommittee</title>
<polygon fill="none" stroke="black" points="624.5,-580.5 624.5,-633.5 821.5,-633.5 821.5,-580.5 624.5,-580.5"/>
<text text-anchor="middle" x="723" y="-618.3" font-family="Times,serif" font-size="14.00">Aggregated committee </text>
<text text-anchor="middle" x="723" y="-603.3" font-family="Times,serif" font-size="14.00">members&#39; public keys</text>
<text text-anchor="middle" x="723" y="-588.3" font-family="Times,serif" font-size="14.00">with CommitteeHashPolicy NFT</text>
</g>
<!-- transaction -->
<g id="node3" class="node">
<title>transaction</title>
<polygon fill="none" stroke="black" points="422,-507 348.43,-489 422,-471 495.57,-489 422,-507"/>
<text text-anchor="middle" x="422" y="-485.3" font-family="Times,serif" font-size="14.00">Transaction</text>
</g>
<!-- currentCommittee&#45;&gt;transaction -->
<g id="edge2" class="edge">
<title>currentCommittee&#45;&gt;transaction</title>
<path fill="none" stroke="black" d="M656.57,-580.4C595.67,-556.93 507.73,-523.04 458.65,-504.12"/>
<polygon fill="black" stroke="black" points="459.67,-500.77 449.08,-500.44 457.15,-507.3 459.67,-500.77"/>
<text text-anchor="middle" x="511.76" y="-559.19" font-family="Times,serif" font-size="14.00">reference input</text>
<text text-anchor="middle" x="511.76" y="-544.19" font-family="Times,serif" font-size="14.00">or input</text>
</g>
<!-- extraTxInputs -->
<g id="node2" class="node">
<title>extraTxInputs</title>
<polygon fill="none" stroke="black" points="373.5,-589 373.5,-625 470.5,-625 470.5,-589 373.5,-589"/>
<text text-anchor="middle" x="422" y="-603.3" font-family="Times,serif" font-size="14.00">Extra tx inputs</text>
</g>
<!-- extraTxInputs&#45;&gt;transaction -->
<g id="edge1" class="edge">
<title>extraTxInputs&#45;&gt;transaction</title>
<path fill="none" stroke="black" d="M422,-588.88C422,-570.04 422,-539.47 422,-517.3"/>
<polygon fill="black" stroke="black" points="425.5,-517.19 422,-507.19 418.5,-517.19 425.5,-517.19"/>
<text text-anchor="middle" x="408" y="-551.53" font-family="Times,serif" font-size="14.00">input</text>
</g>
<!-- committeeCertificateVerificationMintingPolicy -->
<g id="node4" class="node">
<title>committeeCertificateVerificationMintingPolicy</title>
<polygon fill="none" stroke="black" points="330.5,-110.5 330.5,-163.5 469.5,-163.5 469.5,-110.5 330.5,-110.5"/>
<text text-anchor="middle" x="400" y="-148.3" font-family="Times,serif" font-size="14.00">Committee Certificate</text>
<text text-anchor="middle" x="400" y="-133.3" font-family="Times,serif" font-size="14.00">Verification Minting</text>
<text text-anchor="middle" x="400" y="-118.3" font-family="Times,serif" font-size="14.00">Policy</text>
</g>
<!-- transaction&#45;&gt;committeeCertificateVerificationMintingPolicy -->
<g id="edge5" class="edge">
<title>transaction&#45;&gt;committeeCertificateVerificationMintingPolicy</title>
<path fill="none" stroke="black" d="M423.69,-470.98C424.56,-460.36 425.37,-446.39 425,-434 421.89,-329.86 423.23,-303.47 411,-200 409.99,-191.43 408.55,-182.26 407.05,-173.66"/>
<polygon fill="black" stroke="black" points="410.45,-172.76 405.22,-163.54 403.56,-174.01 410.45,-172.76"/>
<text text-anchor="middle" x="405.94" y="-320.93" font-family="Times,serif" font-size="14.00">mints</text>
</g>
<!-- plutusScript -->
<g id="node5" class="node">
<title>plutusScript</title>
<polygon fill="none" stroke="black" points="275,-237.5 275,-273.5 359,-273.5 359,-237.5 275,-237.5"/>
<text text-anchor="middle" x="317" y="-251.8" font-family="Times,serif" font-size="14.00">Plutus script</text>
</g>
<!-- transaction&#45;&gt;plutusScript -->
<g id="edge7" class="edge">
<title>transaction&#45;&gt;plutusScript</title>
<path fill="none" stroke="black" d="M377.52,-481.83C330.23,-472.63 257.73,-450.38 224,-398 197,-356.06 246.64,-307.56 283.19,-279.62"/>
<polygon fill="black" stroke="black" points="285.29,-282.42 291.22,-273.64 281.11,-276.8 285.29,-282.42"/>
<text text-anchor="middle" x="280.09" y="-459.87" font-family="Times,serif" font-size="14.00">mints</text>
</g>
<!-- burnAddress -->
<g id="node6" class="node">
<title>burnAddress</title>
<polygon fill="none" stroke="black" points="0,-0.5 0,-36.5 88,-36.5 88,-0.5 0,-0.5"/>
<text text-anchor="middle" x="44" y="-14.8" font-family="Times,serif" font-size="14.00">Burn address</text>
</g>
<!-- transaction&#45;&gt;burnAddress -->
<g id="edge11" class="edge">
<title>transaction&#45;&gt;burnAddress</title>
<path fill="none" stroke="black" d="M364.02,-485.13C249.44,-477.86 5,-453.77 5,-380.5 5,-380.5 5,-380.5 5,-136 5,-103.71 18.64,-68.88 29.78,-45.79"/>
<polygon fill="black" stroke="black" points="33.01,-47.17 34.36,-36.66 26.75,-44.03 33.01,-47.17"/>
<text text-anchor="middle" x="124.03" y="-461.36" font-family="Times,serif" font-size="14.00">output</text>
</g>
<!-- recipient -->
<g id="node7" class="node">
<title>recipient</title>
<polygon fill="none" stroke="black" points="260.5,-361.5 260.5,-397.5 373.5,-397.5 373.5,-361.5 260.5,-361.5"/>
<text text-anchor="middle" x="317" y="-375.8" font-family="Times,serif" font-size="14.00">Recipient address</text>
</g>
<!-- transaction&#45;&gt;recipient -->
<g id="edge9" class="edge">
<title>transaction&#45;&gt;recipient</title>
<path fill="none" stroke="black" d="M408.27,-473.95C391.24,-456.51 361.91,-426.48 341.1,-405.17"/>
<polygon fill="black" stroke="black" points="343.35,-402.47 333.86,-397.76 338.34,-407.36 343.35,-402.47"/>
<text text-anchor="middle" x="353.49" y="-439.58" font-family="Times,serif" font-size="14.00">output</text>
</g>
<!-- txOutputs -->
<g id="node8" class="node">
<title>txOutputs</title>
<polygon fill="none" stroke="black" points="592,-361.5 592,-397.5 696,-397.5 696,-361.5 592,-361.5"/>
<text text-anchor="middle" x="644" y="-375.8" font-family="Times,serif" font-size="14.00">Extra tx outputs</text>
</g>
<!-- transaction&#45;&gt;txOutputs -->
<g id="edge10" class="edge">
<title>transaction&#45;&gt;txOutputs</title>
<path fill="none" stroke="black" d="M447.05,-476.96C470.65,-466.46 506.92,-450.08 538,-435 559.54,-424.55 583.25,-412.42 602.78,-402.25"/>
<polygon fill="black" stroke="black" points="604.48,-405.32 611.72,-397.59 601.24,-399.11 604.48,-405.32"/>
<text text-anchor="middle" x="520.52" y="-438.79" font-family="Times,serif" font-size="14.00">output</text>
</g>
<!-- committeeCertificateVerificationMintingPolicy&#45;&gt;currentCommittee -->
<g id="edge4" class="edge">
<title>committeeCertificateVerificationMintingPolicy&#45;&gt;currentCommittee</title>
<path fill="none" stroke="black" stroke-dasharray="5,2" d="M469.62,-143.64C585.42,-154.97 805,-185.54 805,-254.5 805,-490 805,-490 805,-490 805,-522.21 783.66,-551.75 762.75,-572.95"/>
<polygon fill="black" stroke="black" points="760.13,-570.62 755.41,-580.1 765.02,-575.63 760.13,-570.62"/>
<text text-anchor="middle" x="647.74" y="-181.26" font-family="Times,serif" font-size="14.00">searches for</text>
</g>
<!-- committeeCertificateVerificationMintingPolicy&#45;&gt;burnAddress -->
<g id="edge6" class="edge">
<title>committeeCertificateVerificationMintingPolicy&#45;&gt;burnAddress</title>
<path fill="none" stroke="black" stroke-dasharray="5,2" d="M330.09,-113.12C261.95,-90.82 159.8,-57.4 97.78,-37.1"/>
<polygon fill="black" stroke="black" points="98.78,-33.74 88.18,-33.96 96.6,-40.4 98.78,-33.74"/>
<text text-anchor="middle" x="183.69" y="-77.36" font-family="Times,serif" font-size="14.00">is paid to</text>
</g>
<!-- plutusScript&#45;&gt;committeeCertificateVerificationMintingPolicy -->
<g id="edge3" class="edge">
<title>plutusScript&#45;&gt;committeeCertificateVerificationMintingPolicy</title>
<path fill="none" stroke="black" stroke-dasharray="5,2" d="M329.25,-237.31C341.43,-220.21 360.45,-193.51 375.71,-172.1"/>
<polygon fill="black" stroke="black" points="378.61,-174.06 381.56,-163.89 372.9,-170 378.61,-174.06"/>
<text text-anchor="middle" x="311.07" y="-219.16" font-family="Times,serif" font-size="14.00">checks if</text>
<text text-anchor="middle" x="311.07" y="-204.16" font-family="Times,serif" font-size="14.00"> token is minted</text>
</g>
<!-- recipient&#45;&gt;plutusScript -->
<g id="edge8" class="edge">
<title>recipient&#45;&gt;plutusScript</title>
<path fill="none" stroke="black" stroke-dasharray="5,2" d="M317,-351.15C317,-327.4 317,-293.76 317,-273.63"/>
<polygon fill="black" stroke="black" points="313.5,-351.28 317,-361.28 320.5,-351.28 313.5,-351.28"/>
<text text-anchor="middle" x="342.5" y="-313.8" font-family="Times,serif" font-size="14.00">is paid to</text>
</g>
</g>
</svg>
