<?xml version="1.0" encoding="UTF-8" standalone="no"?>
<!DOCTYPE svg PUBLIC "-//W3C//DTD SVG 1.1//EN"
 "http://www.w3.org/Graphics/SVG/1.1/DTD/svg11.dtd">
<!-- Generated by graphviz version 7.0.2 (0)
 -->
<!-- Pages: 1 -->
<svg width="892pt" height="416pt"
 viewBox="0.00 0.00 891.50 416.00" xmlns="http://www.w3.org/2000/svg" xmlns:xlink="http://www.w3.org/1999/xlink">
<g id="graph0" class="graph" transform="scale(1 1) rotate(0) translate(4 412)">
<polygon fill="white" stroke="none" points="-4,4 -4,-412 887.5,-412 887.5,4 -4,4"/>
<!-- committeeCertificateVerificationMintingPolicy -->
<g id="node1" class="node">
<title>committeeCertificateVerificationMintingPolicy</title>
<polygon fill="none" stroke="black" points="181.5,-280.5 181.5,-333.5 356.5,-333.5 356.5,-280.5 181.5,-280.5"/>
<text text-anchor="middle" x="269" y="-318.3" font-family="Times,serif" font-size="14.00">Committee Certificate</text>
<text text-anchor="middle" x="269" y="-303.3" font-family="Times,serif" font-size="14.00">Verification Minting</text>
<text text-anchor="middle" x="269" y="-288.3" font-family="Times,serif" font-size="14.00">Policy</text>
</g>
<!-- currentCommittee -->
<g id="node3" class="node">
<title>currentCommittee</title>
<polygon fill="none" stroke="black" points="294.5,-175.5 294.5,-228.5 539.5,-228.5 539.5,-175.5 294.5,-175.5"/>
<text text-anchor="middle" x="417" y="-213.3" font-family="Times,serif" font-size="14.00">Aggregated committee </text>
<text text-anchor="middle" x="417" y="-198.3" font-family="Times,serif" font-size="14.00">members&#39; public keys</text>
<text text-anchor="middle" x="417" y="-183.3" font-family="Times,serif" font-size="14.00">with CommitteeHashPolicy NFT</text>
</g>
<!-- committeeCertificateVerificationMintingPolicy&#45;&gt;currentCommittee -->
<g id="edge5" class="edge">
<title>committeeCertificateVerificationMintingPolicy&#45;&gt;currentCommittee</title>
<path fill="none" stroke="black" stroke-dasharray="5,2" d="M305.58,-280.54C325.4,-266.75 350.08,-249.57 371.17,-234.89"/>
<polygon fill="black" stroke="black" points="373.13,-237.8 379.34,-229.21 369.13,-232.05 373.13,-237.8"/>
<text text-anchor="middle" x="395" y="-250.8" font-family="Times,serif" font-size="14.00">searches for</text>
</g>
<!-- burnAddress -->
<g id="node7" class="node">
<title>burnAddress</title>
<polygon fill="none" stroke="black" points="64.5,-0.5 64.5,-36.5 177.5,-36.5 177.5,-0.5 64.5,-0.5"/>
<text text-anchor="middle" x="121" y="-14.8" font-family="Times,serif" font-size="14.00">Burn address</text>
</g>
<!-- committeeCertificateVerificationMintingPolicy&#45;&gt;burnAddress -->
<g id="edge7" class="edge">
<title>committeeCertificateVerificationMintingPolicy&#45;&gt;burnAddress</title>
<path fill="none" stroke="black" stroke-dasharray="5,2" d="M236.99,-280.86C180.03,-234.33 67,-142 67,-142 67,-142 92.6,-83.45 108.55,-46.98"/>
<polygon fill="black" stroke="black" points="111.74,-48.41 112.54,-37.84 105.33,-45.6 111.74,-48.41"/>
<text text-anchor="middle" x="33.5" y="-145.8" font-family="Times,serif" font-size="14.00">is paid to</text>
</g>
<!-- plutusScript -->
<g id="node2" class="node">
<title>plutusScript</title>
<polygon fill="none" stroke="black" points="479,-371.5 479,-407.5 587,-407.5 587,-371.5 479,-371.5"/>
<text text-anchor="middle" x="533" y="-385.8" font-family="Times,serif" font-size="14.00">Plutus script</text>
</g>
<!-- plutusScript&#45;&gt;committeeCertificateVerificationMintingPolicy -->
<g id="edge4" class="edge">
<title>plutusScript&#45;&gt;committeeCertificateVerificationMintingPolicy</title>
<path fill="none" stroke="black" stroke-dasharray="5,2" d="M479.26,-372.11C445.98,-361.96 402.31,-348.65 363.4,-336.78"/>
<polygon fill="black" stroke="black" points="364.6,-333.49 354.01,-333.92 362.56,-340.19 364.6,-333.49"/>
<text text-anchor="middle" x="332.33" y="-358.25" font-family="Times,serif" font-size="14.00">checks if token is minted</text>
</g>
<!-- transaction -->
<g id="node5" class="node">
<title>transaction</title>
<polygon fill="none" stroke="black" points="417,-124 324.33,-106 417,-88 509.67,-106 417,-124"/>
<text text-anchor="middle" x="417" y="-102.3" font-family="Times,serif" font-size="14.00">Transaction</text>
</g>
<!-- plutusScript&#45;&gt;transaction -->
<g id="edge1" class="edge">
<title>plutusScript&#45;&gt;transaction</title>
<path fill="none" stroke="black" d="M549.37,-371.5C581.35,-336.36 649,-262 649,-262 649,-262 510.34,-168.76 447.41,-126.45"/>
<polygon fill="black" stroke="black" points="449.51,-123.64 439.25,-120.96 445.6,-129.45 449.51,-123.64"/>
<text text-anchor="middle" x="668" y="-250.8" font-family="Times,serif" font-size="14.00">input</text>
</g>
<!-- currentCommittee&#45;&gt;transaction -->
<g id="edge3" class="edge">
<title>currentCommittee&#45;&gt;transaction</title>
<path fill="none" stroke="black" d="M417,-175.81C417,-163.45 417,-148.5 417,-135.69"/>
<polygon fill="black" stroke="black" points="420.5,-135.74 417,-125.74 413.5,-135.74 420.5,-135.74"/>
<text text-anchor="middle" x="436" y="-145.8" font-family="Times,serif" font-size="14.00">input</text>
</g>
<!-- extraTxInputs -->
<g id="node4" class="node">
<title>extraTxInputs</title>
<polygon fill="none" stroke="black" points="758.5,-184 758.5,-220 883.5,-220 883.5,-184 758.5,-184"/>
<text text-anchor="middle" x="821" y="-198.3" font-family="Times,serif" font-size="14.00">Extra tx inputs</text>
</g>
<!-- extraTxInputs&#45;&gt;transaction -->
<g id="edge2" class="edge">
<title>extraTxInputs&#45;&gt;transaction</title>
<path fill="none" stroke="black" d="M758.76,-186.52C679.18,-168 542.83,-136.28 468.69,-119.03"/>
<polygon fill="black" stroke="black" points="469.79,-115.69 459.26,-116.83 468.2,-122.51 469.79,-115.69"/>
<text text-anchor="middle" x="751" y="-145.8" font-family="Times,serif" font-size="14.00">input</text>
</g>
<!-- transaction&#45;&gt;committeeCertificateVerificationMintingPolicy -->
<g id="edge6" class="edge">
<title>transaction&#45;&gt;committeeCertificateVerificationMintingPolicy</title>
<path fill="none" stroke="black" d="M388.65,-118.87C334.56,-143.41 222,-194.5 222,-194.5 222,-194.5 239.99,-237.55 253.7,-270.39"/>
<polygon fill="black" stroke="black" points="250.31,-271.35 257.4,-279.23 256.77,-268.65 250.31,-271.35"/>
<text text-anchor="middle" x="201.5" y="-198.3" font-family="Times,serif" font-size="14.00">mints</text>
</g>
<!-- txOutputs -->
<g id="node6" class="node">
<title>txOutputs</title>
<polygon fill="none" stroke="black" points="370.5,-0.5 370.5,-36.5 463.5,-36.5 463.5,-0.5 370.5,-0.5"/>
<text text-anchor="middle" x="417" y="-14.8" font-family="Times,serif" font-size="14.00">Tx outputs</text>
</g>
<!-- transaction&#45;&gt;txOutputs -->
<g id="edge8" class="edge">
<title>transaction&#45;&gt;txOutputs</title>
<path fill="none" stroke="black" d="M417,-87.7C417,-76.27 417,-61.02 417,-47.84"/>
<polygon fill="black" stroke="black" points="420.5,-48 417,-38 413.5,-48 420.5,-48"/>
<text text-anchor="middle" x="441" y="-58.8" font-family="Times,serif" font-size="14.00">output</text>
</g>
<!-- transaction&#45;&gt;burnAddress -->
<g id="edge9" class="edge">
<title>transaction&#45;&gt;burnAddress</title>
<path fill="none" stroke="black" d="M381,-94.6C333.28,-80.82 248.15,-56.23 188.33,-38.95"/>
<polygon fill="black" stroke="black" points="189.51,-35.65 178.93,-36.23 187.57,-42.37 189.51,-35.65"/>
<text text-anchor="middle" x="319" y="-58.8" font-family="Times,serif" font-size="14.00">output</text>
</g>
</g>
</svg>
