<?xml version="1.0" encoding="UTF-8" standalone="no"?>
<!DOCTYPE svg PUBLIC "-//W3C//DTD SVG 1.1//EN"
 "http://www.w3.org/Graphics/SVG/1.1/DTD/svg11.dtd">
<!-- Generated by graphviz version 7.0.2 (0)
 -->
<!-- Pages: 1 -->
<svg width="250pt" height="223pt"
 viewBox="0.00 0.00 249.50 223.00" xmlns="http://www.w3.org/2000/svg" xmlns:xlink="http://www.w3.org/1999/xlink">
<g id="graph0" class="graph" transform="scale(1 1) rotate(0) translate(4 219)">
<polygon fill="white" stroke="none" points="-4,4 -4,-219 245.5,-219 245.5,4 -4,4"/>
<!-- burnTx -->
<g id="node1" class="node">
<title>burnTx</title>
<polygon fill="none" stroke="black" points="0,-176.5 0,-214.5 229,-214.5 229,-176.5 0,-176.5"/>
<text text-anchor="middle" x="31" y="-191.8" font-family="Times,serif" font-size="14.00">Burn Tx</text>
<polyline fill="none" stroke="black" points="62,-176.5 62,-214.5"/>
<text text-anchor="start" x="70" y="-199.3" font-family="Times,serif" font-size="14.00">redeemer: recipient address</text>
<text text-anchor="start" x="70" y="-184.3" font-family="Times,serif" font-size="14.00"> tx body: burnt tokens</text>
</g>
<!-- bridge -->
<g id="node2" class="node">
<title>bridge</title>
<polygon fill="none" stroke="black" points="9.5,-88.5 9.5,-124.5 219.5,-124.5 219.5,-88.5 9.5,-88.5"/>
<text text-anchor="middle" x="36" y="-102.8" font-family="Times,serif" font-size="14.00">Bridge</text>
<polyline fill="none" stroke="black" points="62.5,-88.5 62.5,-124.5"/>
<text text-anchor="middle" x="141" y="-102.8" font-family="Times,serif" font-size="14.00">mint sidechain equivalent</text>
</g>
<!-- burnTx&#45;&gt;bridge -->
<g id="edge1" class="edge">
<title>burnTx&#45;&gt;bridge</title>
<path fill="none" stroke="black" stroke-dasharray="1,5" d="M114.5,-176.89C114.5,-165.07 114.5,-149.22 114.5,-135.66"/>
<polygon fill="black" stroke="black" points="118,-136 114.5,-126 111,-136 118,-136"/>
<text text-anchor="middle" x="178" y="-146.8" font-family="Times,serif" font-size="14.00">observed by the Bridge</text>
</g>
<!-- sidechain -->
<g id="node3" class="node">
<title>sidechain</title>
<polygon fill="none" stroke="black" points="70.5,-0.5 70.5,-36.5 158.5,-36.5 158.5,-0.5 70.5,-0.5"/>
<text text-anchor="middle" x="114.5" y="-14.8" font-family="Times,serif" font-size="14.00">Sidechain Tx</text>
</g>
<!-- bridge&#45;&gt;sidechain -->
<g id="edge2" class="edge">
<title>bridge&#45;&gt;sidechain</title>
<path fill="none" stroke="black" d="M114.5,-88.51C114.5,-76.85 114.5,-61.1 114.5,-47.59"/>
<polygon fill="black" stroke="black" points="118,-47.97 114.5,-37.97 111,-47.97 118,-47.97"/>
<text text-anchor="middle" x="139" y="-58.8" font-family="Times,serif" font-size="14.00">triggered</text>
</g>
</g>
</svg>
