<?xml version="1.0" encoding="UTF-8" standalone="no"?>
<!DOCTYPE svg PUBLIC "-//W3C//DTD SVG 1.1//EN"
 "http://www.w3.org/Graphics/SVG/1.1/DTD/svg11.dtd">
<!-- Generated by graphviz version 5.0.1 (0)
 -->
<!-- Pages: 1 -->
<svg width="660pt" height="209pt"
 viewBox="0.00 0.00 660.00 209.00" xmlns="http://www.w3.org/2000/svg" xmlns:xlink="http://www.w3.org/1999/xlink">
<g id="graph0" class="graph" transform="scale(1 1) rotate(0) translate(4 205)">
<polygon fill="white" stroke="none" points="-4,4 -4,-205 656,-205 656,4 -4,4"/>
<!-- atmsVKey -->
<g id="node1" class="node">
<title>atmsVKey</title>
<polygon fill="none" stroke="black" points="0,-164.5 0,-200.5 390,-200.5 390,-164.5 0,-164.5"/>
<text text-anchor="middle" x="71.5" y="-178.8" font-family="Times,serif" font-size="14.00">UTxO with datum</text>
<polyline fill="none" stroke="black" points="143,-164.5 143,-200.5"/>
<text text-anchor="middle" x="266.5" y="-178.8" font-family="Times,serif" font-size="14.00">aggregate committee public key</text>
</g>
<!-- mintToken -->
<g id="node3" class="node">
<title>mintToken</title>
<polygon fill="none" stroke="black" points="156,-74.5 156,-112.5 568,-112.5 568,-74.5 156,-74.5"/>
<text text-anchor="middle" x="246" y="-89.8" font-family="Times,serif" font-size="14.00">Mint MerkleRootToken</text>
<polyline fill="none" stroke="black" points="336,-74.5 336,-112.5"/>
<text text-anchor="start" x="344" y="-97.3" font-family="Times,serif" font-size="14.00">redeemer: SignedMerkleRoot </text>
<text text-anchor="start" x="344" y="-82.3" font-family="Times,serif" font-size="14.00"> tx body: minted tokens</text>
</g>
<!-- atmsVKey&#45;&gt;mintToken -->
<g id="edge1" class="edge">
<title>atmsVKey&#45;&gt;mintToken</title>
<path fill="none" stroke="black" stroke-dasharray="5,2" d="M227.99,-164.31C253.9,-150.82 290.19,-131.91 318.47,-117.18"/>
<polygon fill="black" stroke="black" points="320.1,-120.28 327.35,-112.55 316.86,-114.07 320.1,-120.28"/>
<text text-anchor="middle" x="327" y="-134.8" font-family="Times,serif" font-size="14.00">references</text>
</g>
<!-- lastMerkleRoot -->
<g id="node2" class="node">
<title>lastMerkleRoot</title>
<polygon fill="none" stroke="black" points="408,-164.5 408,-200.5 652,-200.5 652,-164.5 408,-164.5"/>
<text text-anchor="middle" x="479.5" y="-178.8" font-family="Times,serif" font-size="14.00">UTxO with datum</text>
<polyline fill="none" stroke="black" points="551,-164.5 551,-200.5"/>
<text text-anchor="middle" x="601.5" y="-178.8" font-family="Times,serif" font-size="14.00">Merkle root</text>
</g>
<!-- lastMerkleRoot&#45;&gt;mintToken -->
<g id="edge2" class="edge">
<title>lastMerkleRoot&#45;&gt;mintToken</title>
<path fill="none" stroke="black" stroke-dasharray="5,2" d="M496.81,-164.31C470.75,-150.82 434.24,-131.91 405.79,-117.18"/>
<polygon fill="black" stroke="black" points="407.35,-114.04 396.86,-112.55 404.13,-120.26 407.35,-114.04"/>
<text text-anchor="middle" x="499" y="-134.8" font-family="Times,serif" font-size="14.00">references</text>
</g>
<!-- merkleRootAddr -->
<g id="node4" class="node">
<title>merkleRootAddr</title>
<polygon fill="none" stroke="black" points="258.5,-0.5 258.5,-36.5 465.5,-36.5 465.5,-0.5 258.5,-0.5"/>
<text text-anchor="middle" x="362" y="-14.8" font-family="Times,serif" font-size="14.00">Merkle root script address</text>
</g>
<!-- mintToken&#45;&gt;merkleRootAddr -->
<g id="edge3" class="edge">
<title>mintToken&#45;&gt;merkleRootAddr</title>
<path fill="none" stroke="black" d="M362,-74.46C362,-66.2 362,-56.24 362,-47.07"/>
<polygon fill="black" stroke="black" points="365.5,-46.83 362,-36.83 358.5,-46.83 365.5,-46.83"/>
</g>
</g>
</svg>
