<?xml version="1.0" encoding="UTF-8" standalone="no"?>
<!DOCTYPE svg PUBLIC "-//W3C//DTD SVG 1.1//EN"
 "http://www.w3.org/Graphics/SVG/1.1/DTD/svg11.dtd">
<!-- Generated by graphviz version 5.0.1 (0)
 -->
<!-- Pages: 1 -->
<svg width="446pt" height="209pt"
 viewBox="0.00 0.00 446.00 209.00" xmlns="http://www.w3.org/2000/svg" xmlns:xlink="http://www.w3.org/1999/xlink">
<g id="graph0" class="graph" transform="scale(1 1) rotate(0) translate(4 205)">
<polygon fill="white" stroke="none" points="-4,4 -4,-205 442,-205 442,4 -4,4"/>
<!-- atmsVKey -->
<g id="node1" class="node">
<title>atmsVKey</title>
<polygon fill="none" stroke="black" points="0,-164.5 0,-200.5 221,-200.5 221,-164.5 0,-164.5"/>
<text text-anchor="middle" x="58.5" y="-178.8" font-family="Times,serif" font-size="14.00">UTxO with datum</text>
<polyline fill="none" stroke="black" points="117,-164.5 117,-200.5"/>
<text text-anchor="middle" x="169" y="-178.8" font-family="Times,serif" font-size="14.00">committee hash</text>
</g>
<!-- mintToken -->
<g id="node3" class="node">
<title>mintToken</title>
<polygon fill="none" stroke="black" points="59.5,-74.5 59.5,-112.5 389.5,-112.5 389.5,-74.5 59.5,-74.5"/>
<text text-anchor="middle" x="133.5" y="-89.8" font-family="Times,serif" font-size="14.00">Mint MerkleRootToken</text>
<polyline fill="none" stroke="black" points="207.5,-74.5 207.5,-112.5"/>
<text text-anchor="start" x="215.5" y="-97.3" font-family="Times,serif" font-size="14.00">redeemer: SignedMerkleRoot </text>
<text text-anchor="start" x="215.5" y="-82.3" font-family="Times,serif" font-size="14.00"> tx body: minted tokens</text>
</g>
<!-- atmsVKey&#45;&gt;mintToken -->
<g id="edge1" class="edge">
<title>atmsVKey&#45;&gt;mintToken</title>
<path fill="none" stroke="black" stroke-dasharray="5,2" d="M133.02,-164.31C150.09,-151.28 173.77,-133.21 192.76,-118.72"/>
<polygon fill="black" stroke="black" points="195.02,-121.4 200.85,-112.55 190.77,-115.84 195.02,-121.4"/>
<text text-anchor="middle" x="202.5" y="-134.8" font-family="Times,serif" font-size="14.00">references</text>
</g>
<!-- lastMerkleRoot -->
<g id="node2" class="node">
<title>lastMerkleRoot</title>
<polygon fill="none" stroke="black" points="239,-164.5 239,-200.5 438,-200.5 438,-164.5 239,-164.5"/>
<text text-anchor="middle" x="297.5" y="-178.8" font-family="Times,serif" font-size="14.00">UTxO with datum</text>
<polyline fill="none" stroke="black" points="356,-164.5 356,-200.5"/>
<text text-anchor="middle" x="397" y="-178.8" font-family="Times,serif" font-size="14.00">Merkle root</text>
</g>
<!-- lastMerkleRoot&#45;&gt;mintToken -->
<g id="edge2" class="edge">
<title>lastMerkleRoot&#45;&gt;mintToken</title>
<path fill="none" stroke="black" stroke-dasharray="5,2" d="M315.98,-164.31C298.91,-151.28 275.23,-133.21 256.24,-118.72"/>
<polygon fill="black" stroke="black" points="258.23,-115.84 248.15,-112.55 253.98,-121.4 258.23,-115.84"/>
<text text-anchor="middle" x="319.5" y="-134.8" font-family="Times,serif" font-size="14.00">references</text>
</g>
<!-- merkleRootAddr -->
<g id="node4" class="node">
<title>merkleRootAddr</title>
<polygon fill="none" stroke="black" points="144.5,-0.5 144.5,-36.5 304.5,-36.5 304.5,-0.5 144.5,-0.5"/>
<text text-anchor="middle" x="224.5" y="-14.8" font-family="Times,serif" font-size="14.00">Merkle root script address</text>
</g>
<!-- mintToken&#45;&gt;merkleRootAddr -->
<g id="edge3" class="edge">
<title>mintToken&#45;&gt;merkleRootAddr</title>
<path fill="none" stroke="black" d="M224.5,-74.46C224.5,-66.2 224.5,-56.24 224.5,-47.07"/>
<polygon fill="black" stroke="black" points="228,-46.83 224.5,-36.83 221,-46.83 228,-46.83"/>
</g>
</g>
</svg>
