<?xml version="1.0" encoding="UTF-8" standalone="no"?>
<!DOCTYPE svg PUBLIC "-//W3C//DTD SVG 1.1//EN"
 "http://www.w3.org/Graphics/SVG/1.1/DTD/svg11.dtd">
<!-- Generated by graphviz version 7.0.2 (0)
 -->
<!-- Pages: 1 -->
<svg width="446pt" height="209pt"
 viewBox="0.00 0.00 446.00 209.00" xmlns="http://www.w3.org/2000/svg" xmlns:xlink="http://www.w3.org/1999/xlink">
<g id="graph0" class="graph" transform="scale(1 1) rotate(0) translate(4 205)">
<polygon fill="white" stroke="none" points="-4,4 -4,-205 442,-205 442,4 -4,4"/>
<!-- atmsVKey -->
<g id="node1" class="node">
<title>atmsVKey</title>
<polygon fill="none" stroke="black" points="0,-164.5 0,-200.5 221,-200.5 221,-164.5 0,-164.5"/>
<text text-anchor="middle" x="58.5" y="-178.8" font-family="Times,serif" font-size="14.00">UTxO with datum</text>
<polyline fill="none" stroke="black" points="117,-164.5 117,-200.5"/>
<text text-anchor="middle" x="169" y="-178.8" font-family="Times,serif" font-size="14.00">committee hash</text>
</g>
<!-- mintToken -->
<g id="node3" class="node">
<title>mintToken</title>
<polygon fill="none" stroke="black" points="65,-74.5 65,-112.5 384,-112.5 384,-74.5 65,-74.5"/>
<text text-anchor="middle" x="133.5" y="-89.8" font-family="Times,serif" font-size="14.00">Mint MPTRootToken</text>
<polyline fill="none" stroke="black" points="202,-74.5 202,-112.5"/>
<text text-anchor="start" x="210" y="-97.3" font-family="Times,serif" font-size="14.00">redeemer: SignedMerkleRoot </text>
<text text-anchor="start" x="210" y="-82.3" font-family="Times,serif" font-size="14.00"> tx body: minted tokens</text>
</g>
<!-- atmsVKey&#45;&gt;mintToken -->
<g id="edge1" class="edge">
<title>atmsVKey&#45;&gt;mintToken</title>
<path fill="none" stroke="black" stroke-dasharray="5,2" d="M132.75,-164.52C149.68,-151.6 173.22,-133.63 192.22,-119.14"/>
<polygon fill="black" stroke="black" points="194.1,-122.1 199.93,-113.25 189.85,-116.54 194.1,-122.1"/>
<text text-anchor="middle" x="202.5" y="-134.8" font-family="Times,serif" font-size="14.00">references</text>
</g>
<!-- lastMPTRoot -->
<g id="node2" class="node">
<title>lastMPTRoot</title>
<polygon fill="none" stroke="black" points="239,-164.5 239,-200.5 438,-200.5 438,-164.5 239,-164.5"/>
<text text-anchor="middle" x="297.5" y="-178.8" font-family="Times,serif" font-size="14.00">UTxO with datum</text>
<polyline fill="none" stroke="black" points="356,-164.5 356,-200.5"/>
<text text-anchor="middle" x="397" y="-178.8" font-family="Times,serif" font-size="14.00">Merkle root</text>
</g>
<!-- lastMPTRoot&#45;&gt;mintToken -->
<g id="edge2" class="edge">
<title>lastMPTRoot&#45;&gt;mintToken</title>
<path fill="none" stroke="black" stroke-dasharray="5,2" d="M316.25,-164.52C299.32,-151.6 275.78,-133.63 256.78,-119.14"/>
<polygon fill="black" stroke="black" points="259.15,-116.54 249.07,-113.25 254.9,-122.1 259.15,-116.54"/>
<text text-anchor="middle" x="319.5" y="-134.8" font-family="Times,serif" font-size="14.00">references</text>
</g>
<!-- mptRootAddr -->
<g id="node4" class="node">
<title>mptRootAddr</title>
<polygon fill="none" stroke="black" points="150.5,-0.5 150.5,-36.5 298.5,-36.5 298.5,-0.5 150.5,-0.5"/>
<text text-anchor="middle" x="224.5" y="-14.8" font-family="Times,serif" font-size="14.00">MPT root script address</text>
</g>
<!-- mintToken&#45;&gt;mptRootAddr -->
<g id="edge3" class="edge">
<title>mintToken&#45;&gt;mptRootAddr</title>
<path fill="none" stroke="black" d="M224.5,-74.83C224.5,-66.61 224.5,-56.65 224.5,-47.45"/>
<polygon fill="black" stroke="black" points="228,-47.52 224.5,-37.52 221,-47.52 228,-47.52"/>
</g>
</g>
</svg>
