<?xml version="1.0" encoding="UTF-8" standalone="no"?>
<!DOCTYPE svg PUBLIC "-//W3C//DTD SVG 1.1//EN"
 "http://www.w3.org/Graphics/SVG/1.1/DTD/svg11.dtd">
<!-- Generated by graphviz version 5.0.1 (0)
 -->
<!-- Pages: 1 -->
<svg width="1059pt" height="227pt"
 viewBox="0.00 0.00 1059.00 227.00" xmlns="http://www.w3.org/2000/svg" xmlns:xlink="http://www.w3.org/1999/xlink">
<g id="graph0" class="graph" transform="scale(1 1) rotate(0) translate(4 223)">
<polygon fill="white" stroke="none" points="-4,4 -4,-223 1055,-223 1055,4 -4,4"/>
<!-- mRoot1 -->
<g id="node1" class="node">
<title>mRoot1</title>
<polygon fill="none" stroke="black" points="0,-95.5 0,-171.5 220,-171.5 220,-95.5 0,-95.5"/>
<text text-anchor="middle" x="110" y="-156.3" font-family="Times,serif" font-size="14.00">Merkle root ins tx (SC ep. 1)</text>
<polyline fill="none" stroke="black" points="0,-148.5 220,-148.5"/>
<text text-anchor="start" x="8" y="-133.3" font-family="Times,serif" font-size="14.00">minted: MerkleRootToken</text>
<text text-anchor="start" x="8" y="-118.3" font-family="Times,serif" font-size="14.00"> redeemer: none</text>
<text text-anchor="start" x="8" y="-103.3" font-family="Times,serif" font-size="14.00"> refInput: none</text>
</g>
<!-- mRoot2 -->
<g id="node2" class="node">
<title>mRoot2</title>
<polygon fill="none" stroke="black" points="277,-95.5 277,-171.5 497,-171.5 497,-95.5 277,-95.5"/>
<text text-anchor="middle" x="387" y="-156.3" font-family="Times,serif" font-size="14.00">Merkle root ins tx (SC ep. 1)</text>
<polyline fill="none" stroke="black" points="277,-148.5 497,-148.5"/>
<text text-anchor="start" x="285" y="-133.3" font-family="Times,serif" font-size="14.00">minted: MerkleRootToken</text>
<text text-anchor="start" x="285" y="-118.3" font-family="Times,serif" font-size="14.00"> redeemer: last roothash</text>
<text text-anchor="start" x="285" y="-103.3" font-family="Times,serif" font-size="14.00"> refInput: last roothash utxo</text>
</g>
<!-- mRoot2&#45;&gt;mRoot1 -->
<g id="edge3" class="edge">
<title>mRoot2&#45;&gt;mRoot1</title>
<path fill="none" stroke="black" stroke-dasharray="1,5" d="M276.92,-133.5C261.66,-133.5 245.92,-133.5 230.49,-133.5"/>
<polygon fill="black" stroke="black" points="230.4,-130 220.4,-133.5 230.4,-137 230.4,-130"/>
<text text-anchor="middle" x="248.5" y="-137.3" font-family="Times,serif" font-size="14.00">ref</text>
</g>
<!-- cHashUpd1 -->
<g id="node3" class="node">
<title>cHashUpd1</title>
<polygon fill="none" stroke="black" points="555,-142.5 555,-218.5 773,-218.5 773,-142.5 555,-142.5"/>
<text text-anchor="start" x="563" y="-203.3" font-family="Times,serif" font-size="14.00">Update committee tx</text>
<text text-anchor="middle" x="664" y="-188.3" font-family="Times,serif" font-size="14.00"> (from SC ep. 1 to SC ep. 2)</text>
<polyline fill="none" stroke="black" points="555,-180.5 773,-180.5"/>
<text text-anchor="start" x="563" y="-165.3" font-family="Times,serif" font-size="14.00">redeemer: last roothash</text>
<text text-anchor="start" x="563" y="-150.3" font-family="Times,serif" font-size="14.00"> refInput: last roothash utxo</text>
</g>
<!-- cHashUpd1&#45;&gt;mRoot2 -->
<g id="edge4" class="edge">
<title>cHashUpd1&#45;&gt;mRoot2</title>
<path fill="none" stroke="black" stroke-dasharray="1,5" d="M554.71,-161.99C539.17,-159.34 523.12,-156.59 507.38,-153.9"/>
<polygon fill="black" stroke="black" points="507.54,-150.38 497.1,-152.15 506.36,-157.28 507.54,-150.38"/>
<text text-anchor="middle" x="525.5" y="-161.3" font-family="Times,serif" font-size="14.00">ref</text>
</g>
<!-- mRoot3 -->
<g id="node4" class="node">
<title>mRoot3</title>
<polygon fill="none" stroke="black" points="554,-47.5 554,-123.5 774,-123.5 774,-47.5 554,-47.5"/>
<text text-anchor="middle" x="664" y="-108.3" font-family="Times,serif" font-size="14.00">Merkle root ins tx (SC ep. 2)</text>
<polyline fill="none" stroke="black" points="554,-100.5 774,-100.5"/>
<text text-anchor="start" x="562" y="-85.3" font-family="Times,serif" font-size="14.00">minted: MerkleRootToken</text>
<text text-anchor="start" x="562" y="-70.3" font-family="Times,serif" font-size="14.00"> redeemer: last roothash</text>
<text text-anchor="start" x="562" y="-55.3" font-family="Times,serif" font-size="14.00"> refInput: last roothash utxo</text>
</g>
<!-- mRoot3&#45;&gt;mRoot2 -->
<g id="edge2" class="edge">
<title>mRoot3&#45;&gt;mRoot2</title>
<path fill="none" stroke="black" stroke-dasharray="1,5" d="M553.92,-104.54C538.66,-107.2 522.92,-109.95 507.49,-112.64"/>
<polygon fill="black" stroke="black" points="506.65,-109.24 497.4,-114.4 507.85,-116.13 506.65,-109.24"/>
<text text-anchor="middle" x="525.5" y="-114.3" font-family="Times,serif" font-size="14.00">ref</text>
</g>
<!-- cHashUpd2 -->
<g id="node5" class="node">
<title>cHashUpd2</title>
<polygon fill="none" stroke="black" points="832,-95.5 832,-171.5 1050,-171.5 1050,-95.5 832,-95.5"/>
<text text-anchor="start" x="840" y="-156.3" font-family="Times,serif" font-size="14.00">Update committee tx</text>
<text text-anchor="middle" x="941" y="-141.3" font-family="Times,serif" font-size="14.00"> (from SC ep. 2 to SC ep. 3)</text>
<polyline fill="none" stroke="black" points="832,-133.5 1050,-133.5"/>
<text text-anchor="start" x="840" y="-118.3" font-family="Times,serif" font-size="14.00">redeemer: last roothash</text>
<text text-anchor="start" x="840" y="-103.3" font-family="Times,serif" font-size="14.00"> refInput: last roothash utxo</text>
</g>
<!-- cHashUpd2&#45;&gt;mRoot3 -->
<g id="edge5" class="edge">
<title>cHashUpd2&#45;&gt;mRoot3</title>
<path fill="none" stroke="black" stroke-dasharray="1,5" d="M831.71,-114.6C816.17,-111.89 800.12,-109.08 784.38,-106.34"/>
<polygon fill="black" stroke="black" points="784.55,-102.81 774.1,-104.54 783.35,-109.71 784.55,-102.81"/>
<text text-anchor="middle" x="802.5" y="-114.3" font-family="Times,serif" font-size="14.00">ref</text>
</g>
<!-- mRoot4 -->
<g id="node6" class="node">
<title>mRoot4</title>
<polygon fill="none" stroke="black" points="831,-0.5 831,-76.5 1051,-76.5 1051,-0.5 831,-0.5"/>
<text text-anchor="middle" x="941" y="-61.3" font-family="Times,serif" font-size="14.00">Merkle root ins tx (SC ep. 3)</text>
<polyline fill="none" stroke="black" points="831,-53.5 1051,-53.5"/>
<text text-anchor="start" x="839" y="-38.3" font-family="Times,serif" font-size="14.00">minted: MerkleRootToken</text>
<text text-anchor="start" x="839" y="-23.3" font-family="Times,serif" font-size="14.00"> redeemer: last roothash</text>
<text text-anchor="start" x="839" y="-8.3" font-family="Times,serif" font-size="14.00"> refInput: last roothash utxo</text>
</g>
<!-- mRoot4&#45;&gt;mRoot3 -->
<g id="edge1" class="edge">
<title>mRoot4&#45;&gt;mRoot3</title>
<path fill="none" stroke="black" stroke-dasharray="1,5" d="M830.92,-57.14C815.66,-59.75 799.92,-62.44 784.49,-65.08"/>
<polygon fill="black" stroke="black" points="783.67,-61.67 774.4,-66.8 784.85,-68.57 783.67,-61.67"/>
<text text-anchor="middle" x="802.5" y="-66.3" font-family="Times,serif" font-size="14.00">ref</text>
</g>
</g>
</svg>
