<?xml version="1.0" encoding="UTF-8" standalone="no"?>
<!DOCTYPE svg PUBLIC "-//W3C//DTD SVG 1.1//EN"
 "http://www.w3.org/Graphics/SVG/1.1/DTD/svg11.dtd">
<!-- Generated by graphviz version 5.0.1 (0)
 -->
<!-- Pages: 1 -->
<svg width="868pt" height="227pt"
 viewBox="0.00 0.00 868.00 227.00" xmlns="http://www.w3.org/2000/svg" xmlns:xlink="http://www.w3.org/1999/xlink">
<g id="graph0" class="graph" transform="scale(1 1) rotate(0) translate(4 223)">
<polygon fill="white" stroke="none" points="-4,4 -4,-223 864,-223 864,4 -4,4"/>
<!-- mRoot1 -->
<g id="node1" class="node">
<title>mRoot1</title>
<polygon fill="none" stroke="black" points="0,-95.5 0,-171.5 176,-171.5 176,-95.5 0,-95.5"/>
<text text-anchor="middle" x="88" y="-156.3" font-family="Times,serif" font-size="14.00">Merkle root ins tx (SC ep. 1)</text>
<polyline fill="none" stroke="black" points="0,-148.5 176,-148.5"/>
<text text-anchor="start" x="8" y="-133.3" font-family="Times,serif" font-size="14.00">minted: MerkleRootToken</text>
<text text-anchor="start" x="8" y="-118.3" font-family="Times,serif" font-size="14.00"> redeemer: none</text>
<text text-anchor="start" x="8" y="-103.3" font-family="Times,serif" font-size="14.00"> refInput: none</text>
</g>
<!-- mRoot2 -->
<g id="node2" class="node">
<title>mRoot2</title>
<polygon fill="none" stroke="black" points="228,-95.5 228,-171.5 404,-171.5 404,-95.5 228,-95.5"/>
<text text-anchor="middle" x="316" y="-156.3" font-family="Times,serif" font-size="14.00">Merkle root ins tx (SC ep. 1)</text>
<polyline fill="none" stroke="black" points="228,-148.5 404,-148.5"/>
<text text-anchor="start" x="236" y="-133.3" font-family="Times,serif" font-size="14.00">minted: MerkleRootToken</text>
<text text-anchor="start" x="236" y="-118.3" font-family="Times,serif" font-size="14.00"> redeemer: last roothash</text>
<text text-anchor="start" x="236" y="-103.3" font-family="Times,serif" font-size="14.00"> refInput: last roothash utxo</text>
</g>
<!-- mRoot2&#45;&gt;mRoot1 -->
<g id="edge3" class="edge">
<title>mRoot2&#45;&gt;mRoot1</title>
<path fill="none" stroke="black" stroke-dasharray="1,5" d="M227.95,-133.5C214.24,-133.5 199.99,-133.5 186.07,-133.5"/>
<polygon fill="black" stroke="black" points="186.01,-130 176.01,-133.5 186.01,-137 186.01,-130"/>
<text text-anchor="middle" x="202" y="-137.3" font-family="Times,serif" font-size="14.00">ref</text>
</g>
<!-- cHashUpd1 -->
<g id="node3" class="node">
<title>cHashUpd1</title>
<polygon fill="none" stroke="black" points="457.5,-142.5 457.5,-218.5 630.5,-218.5 630.5,-142.5 457.5,-142.5"/>
<text text-anchor="start" x="465.5" y="-203.3" font-family="Times,serif" font-size="14.00">Update committee hash tx</text>
<text text-anchor="middle" x="544" y="-188.3" font-family="Times,serif" font-size="14.00"> (from SC ep. 1 to SC ep. 2)</text>
<polyline fill="none" stroke="black" points="457.5,-180.5 630.5,-180.5"/>
<text text-anchor="start" x="465.5" y="-165.3" font-family="Times,serif" font-size="14.00">redeemer: last roothash</text>
<text text-anchor="start" x="465.5" y="-150.3" font-family="Times,serif" font-size="14.00"> refInput: last roothash utxo</text>
</g>
<!-- cHashUpd1&#45;&gt;mRoot2 -->
<g id="edge4" class="edge">
<title>cHashUpd1&#45;&gt;mRoot2</title>
<path fill="none" stroke="black" stroke-dasharray="1,5" d="M457.24,-162.66C443.13,-159.73 428.43,-156.67 414.08,-153.69"/>
<polygon fill="black" stroke="black" points="414.71,-150.25 404.21,-151.64 413.28,-157.1 414.71,-150.25"/>
<text text-anchor="middle" x="430" y="-161.3" font-family="Times,serif" font-size="14.00">ref</text>
</g>
<!-- mRoot3 -->
<g id="node4" class="node">
<title>mRoot3</title>
<polygon fill="none" stroke="black" points="456,-47.5 456,-123.5 632,-123.5 632,-47.5 456,-47.5"/>
<text text-anchor="middle" x="544" y="-108.3" font-family="Times,serif" font-size="14.00">Merkle root ins tx (SC ep. 2)</text>
<polyline fill="none" stroke="black" points="456,-100.5 632,-100.5"/>
<text text-anchor="start" x="464" y="-85.3" font-family="Times,serif" font-size="14.00">minted: MerkleRootToken</text>
<text text-anchor="start" x="464" y="-70.3" font-family="Times,serif" font-size="14.00"> redeemer: last roothash</text>
<text text-anchor="start" x="464" y="-55.3" font-family="Times,serif" font-size="14.00"> refInput: last roothash utxo</text>
</g>
<!-- mRoot3&#45;&gt;mRoot2 -->
<g id="edge2" class="edge">
<title>mRoot3&#45;&gt;mRoot2</title>
<path fill="none" stroke="black" stroke-dasharray="1,5" d="M455.95,-103.99C442.24,-106.9 427.99,-109.93 414.07,-112.88"/>
<polygon fill="black" stroke="black" points="413.06,-109.52 404.01,-115.02 414.52,-116.37 413.06,-109.52"/>
<text text-anchor="middle" x="430" y="-114.3" font-family="Times,serif" font-size="14.00">ref</text>
</g>
<!-- cHashUpd2 -->
<g id="node5" class="node">
<title>cHashUpd2</title>
<polygon fill="none" stroke="black" points="685.5,-95.5 685.5,-171.5 858.5,-171.5 858.5,-95.5 685.5,-95.5"/>
<text text-anchor="start" x="693.5" y="-156.3" font-family="Times,serif" font-size="14.00">Update committee hash tx</text>
<text text-anchor="middle" x="772" y="-141.3" font-family="Times,serif" font-size="14.00"> (from SC ep. 2 to SC ep. 3)</text>
<polyline fill="none" stroke="black" points="685.5,-133.5 858.5,-133.5"/>
<text text-anchor="start" x="693.5" y="-118.3" font-family="Times,serif" font-size="14.00">redeemer: last roothash</text>
<text text-anchor="start" x="693.5" y="-103.3" font-family="Times,serif" font-size="14.00"> refInput: last roothash utxo</text>
</g>
<!-- cHashUpd2&#45;&gt;mRoot3 -->
<g id="edge5" class="edge">
<title>cHashUpd2&#45;&gt;mRoot3</title>
<path fill="none" stroke="black" stroke-dasharray="1,5" d="M685.24,-115.28C671.13,-112.29 656.43,-109.17 642.08,-106.12"/>
<polygon fill="black" stroke="black" points="642.71,-102.68 632.21,-104.02 641.26,-109.52 642.71,-102.68"/>
<text text-anchor="middle" x="658" y="-114.3" font-family="Times,serif" font-size="14.00">ref</text>
</g>
<!-- mRoot4 -->
<g id="node6" class="node">
<title>mRoot4</title>
<polygon fill="none" stroke="black" points="684,-0.5 684,-76.5 860,-76.5 860,-0.5 684,-0.5"/>
<text text-anchor="middle" x="772" y="-61.3" font-family="Times,serif" font-size="14.00">Merkle root ins tx (SC ep. 3)</text>
<polyline fill="none" stroke="black" points="684,-53.5 860,-53.5"/>
<text text-anchor="start" x="692" y="-38.3" font-family="Times,serif" font-size="14.00">minted: MerkleRootToken</text>
<text text-anchor="start" x="692" y="-23.3" font-family="Times,serif" font-size="14.00"> redeemer: last roothash</text>
<text text-anchor="start" x="692" y="-8.3" font-family="Times,serif" font-size="14.00"> refInput: last roothash utxo</text>
</g>
<!-- mRoot4&#45;&gt;mRoot3 -->
<g id="edge1" class="edge">
<title>mRoot4&#45;&gt;mRoot3</title>
<path fill="none" stroke="black" stroke-dasharray="1,5" d="M683.95,-56.6C670.24,-59.46 655.99,-62.42 642.07,-65.31"/>
<polygon fill="black" stroke="black" points="641.09,-61.94 632.01,-67.41 642.51,-68.8 641.09,-61.94"/>
<text text-anchor="middle" x="658" y="-66.3" font-family="Times,serif" font-size="14.00">ref</text>
</g>
</g>
</svg>
