<?xml version="1.0" encoding="UTF-8" standalone="no"?>
<!DOCTYPE svg PUBLIC "-//W3C//DTD SVG 1.1//EN"
 "http://www.w3.org/Graphics/SVG/1.1/DTD/svg11.dtd">
<!-- Generated by graphviz version 5.0.1 (0)
 -->
<!-- Pages: 1 -->
<svg width="505pt" height="275pt"
 viewBox="0.00 0.00 505.00 275.00" xmlns="http://www.w3.org/2000/svg" xmlns:xlink="http://www.w3.org/1999/xlink">
<g id="graph0" class="graph" transform="scale(1 1) rotate(0) translate(4 271)">
<polygon fill="white" stroke="none" points="-4,4 -4,-271 501,-271 501,4 -4,4"/>
<!-- mRoot1 -->
<g id="node1" class="node">
<title>mRoot1</title>
<polygon fill="none" stroke="black" points="0,-95.5 0,-171.5 220,-171.5 220,-95.5 0,-95.5"/>
<text text-anchor="middle" x="110" y="-156.3" font-family="Times,serif" font-size="14.00">Merkle root ins tx (SC ep. 1)</text>
<polyline fill="none" stroke="black" points="0,-148.5 220,-148.5"/>
<text text-anchor="start" x="8" y="-133.3" font-family="Times,serif" font-size="14.00">minted: MerkleRootToken</text>
<text text-anchor="start" x="8" y="-118.3" font-family="Times,serif" font-size="14.00"> redeemer: none</text>
<text text-anchor="start" x="8" y="-103.3" font-family="Times,serif" font-size="14.00"> refInput: none</text>
</g>
<!-- cHashUpd1 -->
<g id="node2" class="node">
<title>cHashUpd1</title>
<polygon fill="none" stroke="black" points="278,-190.5 278,-266.5 496,-266.5 496,-190.5 278,-190.5"/>
<text text-anchor="start" x="286" y="-251.3" font-family="Times,serif" font-size="14.00">Update committee tx</text>
<text text-anchor="middle" x="387" y="-236.3" font-family="Times,serif" font-size="14.00"> (from SC ep. 1 to SC ep. 2)</text>
<polyline fill="none" stroke="black" points="278,-228.5 496,-228.5"/>
<text text-anchor="start" x="286" y="-213.3" font-family="Times,serif" font-size="14.00">redeemer: last roothash</text>
<text text-anchor="start" x="286" y="-198.3" font-family="Times,serif" font-size="14.00"> refInput: last roothash utxo</text>
</g>
<!-- cHashUpd1&#45;&gt;mRoot1 -->
<g id="edge2" class="edge">
<title>cHashUpd1&#45;&gt;mRoot1</title>
<path fill="none" stroke="black" stroke-dasharray="1,5" d="M277.71,-191.09C262.02,-185.67 245.81,-180.07 229.93,-174.59"/>
<polygon fill="black" stroke="black" points="230.69,-171.14 220.1,-171.19 228.41,-177.76 230.69,-171.14"/>
<text text-anchor="middle" x="248.5" y="-187.3" font-family="Times,serif" font-size="14.00">ref</text>
</g>
<!-- cHashUpd2 -->
<g id="node3" class="node">
<title>cHashUpd2</title>
<polygon fill="none" stroke="black" points="278,-95.5 278,-171.5 496,-171.5 496,-95.5 278,-95.5"/>
<text text-anchor="start" x="286" y="-156.3" font-family="Times,serif" font-size="14.00">Update committee tx</text>
<text text-anchor="middle" x="387" y="-141.3" font-family="Times,serif" font-size="14.00"> (from SC ep. 2 to SC ep. 3)</text>
<polyline fill="none" stroke="black" points="278,-133.5 496,-133.5"/>
<text text-anchor="start" x="286" y="-118.3" font-family="Times,serif" font-size="14.00">redeemer: last roothash</text>
<text text-anchor="start" x="286" y="-103.3" font-family="Times,serif" font-size="14.00"> refInput: last roothash utxo</text>
</g>
<!-- cHashUpd2&#45;&gt;mRoot1 -->
<g id="edge3" class="edge">
<title>cHashUpd2&#45;&gt;mRoot1</title>
<path fill="none" stroke="black" stroke-dasharray="1,5" d="M277.71,-133.5C262.17,-133.5 246.12,-133.5 230.38,-133.5"/>
<polygon fill="black" stroke="black" points="230.1,-130 220.1,-133.5 230.1,-137 230.1,-130"/>
<text text-anchor="middle" x="248.5" y="-137.3" font-family="Times,serif" font-size="14.00">ref</text>
</g>
<!-- mRoot2 -->
<g id="node4" class="node">
<title>mRoot2</title>
<polygon fill="none" stroke="black" points="277,-0.5 277,-76.5 497,-76.5 497,-0.5 277,-0.5"/>
<text text-anchor="middle" x="387" y="-61.3" font-family="Times,serif" font-size="14.00">Merkle root ins tx (SC ep. 3)</text>
<polyline fill="none" stroke="black" points="277,-53.5 497,-53.5"/>
<text text-anchor="start" x="285" y="-38.3" font-family="Times,serif" font-size="14.00">minted: MerkleRootToken</text>
<text text-anchor="start" x="285" y="-23.3" font-family="Times,serif" font-size="14.00"> redeemer: last roothash</text>
<text text-anchor="start" x="285" y="-8.3" font-family="Times,serif" font-size="14.00"> refInput: last roothash utxo</text>
</g>
<!-- mRoot2&#45;&gt;mRoot1 -->
<g id="edge1" class="edge">
<title>mRoot2&#45;&gt;mRoot1</title>
<path fill="none" stroke="black" stroke-dasharray="1,5" d="M276.92,-76.18C261.52,-81.5 245.62,-86.99 230.05,-92.37"/>
<polygon fill="black" stroke="black" points="228.71,-89.13 220.4,-95.71 230.99,-95.75 228.71,-89.13"/>
<text text-anchor="middle" x="248.5" y="-92.3" font-family="Times,serif" font-size="14.00">ref</text>
</g>
</g>
</svg>
