<?xml version="1.0" encoding="UTF-8" standalone="no"?>
<!DOCTYPE svg PUBLIC "-//W3C//DTD SVG 1.1//EN"
 "http://www.w3.org/Graphics/SVG/1.1/DTD/svg11.dtd">
<!-- Generated by graphviz version 5.0.1 (0)
 -->
<!-- Pages: 1 -->
<svg width="412pt" height="275pt"
 viewBox="0.00 0.00 412.00 275.00" xmlns="http://www.w3.org/2000/svg" xmlns:xlink="http://www.w3.org/1999/xlink">
<g id="graph0" class="graph" transform="scale(1 1) rotate(0) translate(4 271)">
<polygon fill="white" stroke="none" points="-4,4 -4,-271 408,-271 408,4 -4,4"/>
<!-- mRoot1 -->
<g id="node1" class="node">
<title>mRoot1</title>
<polygon fill="none" stroke="black" points="0,-95.5 0,-171.5 176,-171.5 176,-95.5 0,-95.5"/>
<text text-anchor="middle" x="88" y="-156.3" font-family="Times,serif" font-size="14.00">Merkle root ins tx (SC ep. 1)</text>
<polyline fill="none" stroke="black" points="0,-148.5 176,-148.5"/>
<text text-anchor="start" x="8" y="-133.3" font-family="Times,serif" font-size="14.00">minted: MerkleRootToken</text>
<text text-anchor="start" x="8" y="-118.3" font-family="Times,serif" font-size="14.00"> redeemer: none</text>
<text text-anchor="start" x="8" y="-103.3" font-family="Times,serif" font-size="14.00"> refInput: none</text>
</g>
<!-- cHashUpd1 -->
<g id="node2" class="node">
<title>cHashUpd1</title>
<polygon fill="none" stroke="black" points="229.5,-190.5 229.5,-266.5 402.5,-266.5 402.5,-190.5 229.5,-190.5"/>
<text text-anchor="start" x="237.5" y="-251.3" font-family="Times,serif" font-size="14.00">Update committee hash tx</text>
<text text-anchor="middle" x="316" y="-236.3" font-family="Times,serif" font-size="14.00"> (from SC ep. 1 to SC ep. 2)</text>
<polyline fill="none" stroke="black" points="229.5,-228.5 402.5,-228.5"/>
<text text-anchor="start" x="237.5" y="-213.3" font-family="Times,serif" font-size="14.00">redeemer: last roothash</text>
<text text-anchor="start" x="237.5" y="-198.3" font-family="Times,serif" font-size="14.00"> refInput: last roothash utxo</text>
</g>
<!-- cHashUpd1&#45;&gt;mRoot1 -->
<g id="edge2" class="edge">
<title>cHashUpd1&#45;&gt;mRoot1</title>
<path fill="none" stroke="black" stroke-dasharray="1,5" d="M229.24,-192.45C215,-186.46 200.15,-180.22 185.66,-174.13"/>
<polygon fill="black" stroke="black" points="186.78,-170.81 176.21,-170.16 184.07,-177.26 186.78,-170.81"/>
<text text-anchor="middle" x="202" y="-187.3" font-family="Times,serif" font-size="14.00">ref</text>
</g>
<!-- cHashUpd2 -->
<g id="node3" class="node">
<title>cHashUpd2</title>
<polygon fill="none" stroke="black" points="229.5,-95.5 229.5,-171.5 402.5,-171.5 402.5,-95.5 229.5,-95.5"/>
<text text-anchor="start" x="237.5" y="-156.3" font-family="Times,serif" font-size="14.00">Update committee hash tx</text>
<text text-anchor="middle" x="316" y="-141.3" font-family="Times,serif" font-size="14.00"> (from SC ep. 2 to SC ep. 3)</text>
<polyline fill="none" stroke="black" points="229.5,-133.5 402.5,-133.5"/>
<text text-anchor="start" x="237.5" y="-118.3" font-family="Times,serif" font-size="14.00">redeemer: last roothash</text>
<text text-anchor="start" x="237.5" y="-103.3" font-family="Times,serif" font-size="14.00"> refInput: last roothash utxo</text>
</g>
<!-- cHashUpd2&#45;&gt;mRoot1 -->
<g id="edge3" class="edge">
<title>cHashUpd2&#45;&gt;mRoot1</title>
<path fill="none" stroke="black" stroke-dasharray="1,5" d="M229.24,-133.5C215.27,-133.5 200.71,-133.5 186.49,-133.5"/>
<polygon fill="black" stroke="black" points="186.21,-130 176.21,-133.5 186.21,-137 186.21,-130"/>
<text text-anchor="middle" x="202" y="-137.3" font-family="Times,serif" font-size="14.00">ref</text>
</g>
<!-- mRoot2 -->
<g id="node4" class="node">
<title>mRoot2</title>
<polygon fill="none" stroke="black" points="228,-0.5 228,-76.5 404,-76.5 404,-0.5 228,-0.5"/>
<text text-anchor="middle" x="316" y="-61.3" font-family="Times,serif" font-size="14.00">Merkle root ins tx (SC ep. 3)</text>
<polyline fill="none" stroke="black" points="228,-53.5 404,-53.5"/>
<text text-anchor="start" x="236" y="-38.3" font-family="Times,serif" font-size="14.00">minted: MerkleRootToken</text>
<text text-anchor="start" x="236" y="-23.3" font-family="Times,serif" font-size="14.00"> redeemer: last roothash</text>
<text text-anchor="start" x="236" y="-8.3" font-family="Times,serif" font-size="14.00"> refInput: last roothash utxo</text>
</g>
<!-- mRoot2&#45;&gt;mRoot1 -->
<g id="edge1" class="edge">
<title>mRoot2&#45;&gt;mRoot1</title>
<path fill="none" stroke="black" stroke-dasharray="1,5" d="M227.95,-75.09C213.97,-80.97 199.44,-87.08 185.26,-93.04"/>
<polygon fill="black" stroke="black" points="183.87,-89.82 176.01,-96.93 186.58,-96.28 183.87,-89.82"/>
<text text-anchor="middle" x="202" y="-92.3" font-family="Times,serif" font-size="14.00">ref</text>
</g>
</g>
</svg>
