<?xml version="1.0" encoding="UTF-8" standalone="no"?>
<!DOCTYPE svg PUBLIC "-//W3C//DTD SVG 1.1//EN"
 "http://www.w3.org/Graphics/SVG/1.1/DTD/svg11.dtd">
<!-- Generated by graphviz version 5.0.1 (0)
 -->
<!-- Pages: 1 -->
<svg width="782pt" height="227pt"
 viewBox="0.00 0.00 782.00 227.00" xmlns="http://www.w3.org/2000/svg" xmlns:xlink="http://www.w3.org/1999/xlink">
<g id="graph0" class="graph" transform="scale(1 1) rotate(0) translate(4 223)">
<polygon fill="white" stroke="none" points="-4,4 -4,-223 778,-223 778,4 -4,4"/>
<!-- mRoot1 -->
<g id="node1" class="node">
<title>mRoot1</title>
<polygon fill="none" stroke="black" points="0,-95.5 0,-171.5 220,-171.5 220,-95.5 0,-95.5"/>
<text text-anchor="middle" x="110" y="-156.3" font-family="Times,serif" font-size="14.00">Merkle root ins tx (SC ep. 1)</text>
<polyline fill="none" stroke="black" points="0,-148.5 220,-148.5"/>
<text text-anchor="start" x="8" y="-133.3" font-family="Times,serif" font-size="14.00">minted: MerkleRootToken</text>
<text text-anchor="start" x="8" y="-118.3" font-family="Times,serif" font-size="14.00"> redeemer: none</text>
<text text-anchor="start" x="8" y="-103.3" font-family="Times,serif" font-size="14.00"> refInput: none</text>
</g>
<!-- cHashUpd1 -->
<g id="node2" class="node">
<title>cHashUpd1</title>
<polygon fill="none" stroke="black" points="278,-142.5 278,-218.5 496,-218.5 496,-142.5 278,-142.5"/>
<text text-anchor="start" x="286" y="-203.3" font-family="Times,serif" font-size="14.00">Update committee tx</text>
<text text-anchor="middle" x="387" y="-188.3" font-family="Times,serif" font-size="14.00"> (from SC ep. 1 to SC ep. 2)</text>
<polyline fill="none" stroke="black" points="278,-180.5 496,-180.5"/>
<text text-anchor="start" x="286" y="-165.3" font-family="Times,serif" font-size="14.00">redeemer: last roothash</text>
<text text-anchor="start" x="286" y="-150.3" font-family="Times,serif" font-size="14.00"> refInput: last roothash utxo</text>
</g>
<!-- cHashUpd1&#45;&gt;mRoot1 -->
<g id="edge3" class="edge">
<title>cHashUpd1&#45;&gt;mRoot1</title>
<path fill="none" stroke="black" stroke-dasharray="1,5" d="M277.71,-161.99C262.17,-159.34 246.12,-156.59 230.38,-153.9"/>
<polygon fill="black" stroke="black" points="230.54,-150.38 220.1,-152.15 229.36,-157.28 230.54,-150.38"/>
<text text-anchor="middle" x="248.5" y="-161.3" font-family="Times,serif" font-size="14.00">ref</text>
</g>
<!-- mRoot2 -->
<g id="node3" class="node">
<title>mRoot2</title>
<polygon fill="none" stroke="black" points="277,-47.5 277,-123.5 497,-123.5 497,-47.5 277,-47.5"/>
<text text-anchor="middle" x="387" y="-108.3" font-family="Times,serif" font-size="14.00">Merkle root ins tx (SC ep. 2)</text>
<polyline fill="none" stroke="black" points="277,-100.5 497,-100.5"/>
<text text-anchor="start" x="285" y="-85.3" font-family="Times,serif" font-size="14.00">minted: MerkleRootToken</text>
<text text-anchor="start" x="285" y="-70.3" font-family="Times,serif" font-size="14.00"> redeemer: last roothash</text>
<text text-anchor="start" x="285" y="-55.3" font-family="Times,serif" font-size="14.00"> refInput: last roothash utxo</text>
</g>
<!-- mRoot2&#45;&gt;mRoot1 -->
<g id="edge2" class="edge">
<title>mRoot2&#45;&gt;mRoot1</title>
<path fill="none" stroke="black" stroke-dasharray="1,5" d="M276.92,-104.54C261.66,-107.2 245.92,-109.95 230.49,-112.64"/>
<polygon fill="black" stroke="black" points="229.65,-109.24 220.4,-114.4 230.85,-116.13 229.65,-109.24"/>
<text text-anchor="middle" x="248.5" y="-114.3" font-family="Times,serif" font-size="14.00">ref</text>
</g>
<!-- cHashUpd2 -->
<g id="node4" class="node">
<title>cHashUpd2</title>
<polygon fill="none" stroke="black" points="555,-95.5 555,-171.5 773,-171.5 773,-95.5 555,-95.5"/>
<text text-anchor="start" x="563" y="-156.3" font-family="Times,serif" font-size="14.00">Update committee tx</text>
<text text-anchor="middle" x="664" y="-141.3" font-family="Times,serif" font-size="14.00"> (from SC ep. 2 to SC ep. 3)</text>
<polyline fill="none" stroke="black" points="555,-133.5 773,-133.5"/>
<text text-anchor="start" x="563" y="-118.3" font-family="Times,serif" font-size="14.00">redeemer: last roothash</text>
<text text-anchor="start" x="563" y="-103.3" font-family="Times,serif" font-size="14.00"> refInput: last roothash utxo</text>
</g>
<!-- cHashUpd2&#45;&gt;mRoot2 -->
<g id="edge4" class="edge">
<title>cHashUpd2&#45;&gt;mRoot2</title>
<path fill="none" stroke="black" stroke-dasharray="1,5" d="M554.71,-114.6C539.17,-111.89 523.12,-109.08 507.38,-106.34"/>
<polygon fill="black" stroke="black" points="507.55,-102.81 497.1,-104.54 506.35,-109.71 507.55,-102.81"/>
<text text-anchor="middle" x="525.5" y="-114.3" font-family="Times,serif" font-size="14.00">ref</text>
</g>
<!-- mRoot3 -->
<g id="node5" class="node">
<title>mRoot3</title>
<polygon fill="none" stroke="black" points="554,-0.5 554,-76.5 774,-76.5 774,-0.5 554,-0.5"/>
<text text-anchor="middle" x="664" y="-61.3" font-family="Times,serif" font-size="14.00">Merkle root ins tx (SC ep. 3)</text>
<polyline fill="none" stroke="black" points="554,-53.5 774,-53.5"/>
<text text-anchor="start" x="562" y="-38.3" font-family="Times,serif" font-size="14.00">minted: MerkleRootToken</text>
<text text-anchor="start" x="562" y="-23.3" font-family="Times,serif" font-size="14.00"> redeemer: last roothash</text>
<text text-anchor="start" x="562" y="-8.3" font-family="Times,serif" font-size="14.00"> refInput: last roothash utxo</text>
</g>
<!-- mRoot3&#45;&gt;mRoot2 -->
<g id="edge1" class="edge">
<title>mRoot3&#45;&gt;mRoot2</title>
<path fill="none" stroke="black" stroke-dasharray="1,5" d="M553.92,-57.14C538.66,-59.75 522.92,-62.44 507.49,-65.08"/>
<polygon fill="black" stroke="black" points="506.67,-61.67 497.4,-66.8 507.85,-68.57 506.67,-61.67"/>
<text text-anchor="middle" x="525.5" y="-66.3" font-family="Times,serif" font-size="14.00">ref</text>
</g>
</g>
</svg>
