<?xml version="1.0" encoding="UTF-8" standalone="no"?>
<!DOCTYPE svg PUBLIC "-//W3C//DTD SVG 1.1//EN"
 "http://www.w3.org/Graphics/SVG/1.1/DTD/svg11.dtd">
<!-- Generated by graphviz version 7.0.2 (0)
 -->
<!-- Pages: 1 -->
<svg width="450pt" height="213pt"
 viewBox="0.00 0.00 449.50 213.00" xmlns="http://www.w3.org/2000/svg" xmlns:xlink="http://www.w3.org/1999/xlink">
<g id="graph0" class="graph" transform="scale(1 1) rotate(0) translate(4 209)">
<polygon fill="white" stroke="none" points="-4,4 -4,-209 445.5,-209 445.5,4 -4,4"/>
<!-- pubKey -->
<g id="node1" class="node">
<title>pubKey</title>
<polygon fill="none" stroke="black" points="0,-166.5 0,-204.5 224,-204.5 224,-166.5 0,-166.5"/>
<text text-anchor="middle" x="58.5" y="-181.8" font-family="Times,serif" font-size="14.00">UTxO with datum</text>
<polyline fill="none" stroke="black" points="117,-166.5 117,-204.5"/>
<text text-anchor="start" x="125" y="-189.3" font-family="Times,serif" font-size="14.00">committee hash</text>
<text text-anchor="start" x="125" y="-174.3" font-family="Times,serif" font-size="14.00"> sidechain epoch</text>
</g>
<!-- tx -->
<g id="node4" class="node">
<title>tx</title>
<polygon fill="none" stroke="black" points="32.5,-76.5 32.5,-114.5 421.5,-114.5 421.5,-76.5 32.5,-76.5"/>
<text text-anchor="middle" x="111.5" y="-91.8" font-family="Times,serif" font-size="14.00">Verification key update tx</text>
<polyline fill="none" stroke="black" points="190.5,-76.5 190.5,-114.5"/>
<text text-anchor="start" x="198.5" y="-99.3" font-family="Times,serif" font-size="14.00">redeemer: UpdateCommitteeRedeemer</text>
<text text-anchor="start" x="198.5" y="-84.3" font-family="Times,serif" font-size="14.00"> tx in: committee hash UTxO</text>
</g>
<!-- pubKey&#45;&gt;tx -->
<g id="edge2" class="edge">
<title>pubKey&#45;&gt;tx</title>
<path fill="none" stroke="black" d="M135.27,-166.69C152.34,-153.63 175.74,-135.73 194.63,-121.27"/>
<polygon fill="black" stroke="black" points="196.75,-124.06 202.56,-115.2 192.49,-118.5 196.75,-124.06"/>
<text text-anchor="middle" x="204.5" y="-136.8" font-family="Times,serif" font-size="14.00">consumes</text>
</g>
<!-- merkleRoot -->
<g id="node2" class="node">
<title>merkleRoot</title>
<polygon fill="none" stroke="black" points="242.5,-167.5 242.5,-203.5 441.5,-203.5 441.5,-167.5 242.5,-167.5"/>
<text text-anchor="middle" x="301" y="-181.8" font-family="Times,serif" font-size="14.00">UTxO with datum</text>
<polyline fill="none" stroke="black" points="359.5,-167.5 359.5,-203.5"/>
<text text-anchor="middle" x="400.5" y="-181.8" font-family="Times,serif" font-size="14.00">Merkle root</text>
</g>
<!-- merkleRoot&#45;&gt;tx -->
<g id="edge1" class="edge">
<title>merkleRoot&#45;&gt;tx</title>
<path fill="none" stroke="black" stroke-dasharray="5,2" d="M319.83,-167.53C302.66,-154.4 278.64,-136.02 259.34,-121.25"/>
<polygon fill="black" stroke="black" points="261.56,-118.54 251.49,-115.24 257.31,-124.1 261.56,-118.54"/>
<text text-anchor="middle" x="319" y="-136.8" font-family="Times,serif" font-size="14.00">references</text>
</g>
<!-- newPubKey -->
<g id="node3" class="node">
<title>newPubKey</title>
<polygon fill="none" stroke="black" points="115,-0.5 115,-38.5 339,-38.5 339,-0.5 115,-0.5"/>
<text text-anchor="middle" x="173.5" y="-15.8" font-family="Times,serif" font-size="14.00">UTxO with datum</text>
<polyline fill="none" stroke="black" points="232,-0.5 232,-38.5"/>
<text text-anchor="start" x="240" y="-23.3" font-family="Times,serif" font-size="14.00">committee hash</text>
<text text-anchor="start" x="240" y="-8.3" font-family="Times,serif" font-size="14.00"> sidechain epoch</text>
</g>
<!-- tx&#45;&gt;newPubKey -->
<g id="edge3" class="edge">
<title>tx&#45;&gt;newPubKey</title>
<path fill="none" stroke="black" d="M227,-76.59C227,-68.5 227,-58.73 227,-49.63"/>
<polygon fill="black" stroke="black" points="230.5,-49.76 227,-39.76 223.5,-49.76 230.5,-49.76"/>
</g>
</g>
</svg>
