<?xml version="1.0" encoding="UTF-8" standalone="no"?>
<!DOCTYPE svg PUBLIC "-//W3C//DTD SVG 1.1//EN"
 "http://www.w3.org/Graphics/SVG/1.1/DTD/svg11.dtd">
<!-- Generated by graphviz version 5.0.1 (0)
 -->
<!-- Pages: 1 -->
<svg width="668pt" height="213pt"
 viewBox="0.00 0.00 667.50 213.00" xmlns="http://www.w3.org/2000/svg" xmlns:xlink="http://www.w3.org/1999/xlink">
<g id="graph0" class="graph" transform="scale(1 1) rotate(0) translate(4 209)">
<polygon fill="white" stroke="none" points="-4,4 -4,-209 663.5,-209 663.5,4 -4,4"/>
<!-- pubKey -->
<g id="node1" class="node">
<title>pubKey</title>
<polygon fill="none" stroke="black" points="0,-166.5 0,-204.5 397,-204.5 397,-166.5 0,-166.5"/>
<text text-anchor="middle" x="71.5" y="-181.8" font-family="Times,serif" font-size="14.00">UTxO with datum</text>
<polyline fill="none" stroke="black" points="143,-166.5 143,-204.5"/>
<text text-anchor="start" x="151" y="-189.3" font-family="Times,serif" font-size="14.00">committee aggregate public keys</text>
<text text-anchor="start" x="151" y="-174.3" font-family="Times,serif" font-size="14.00"> sidechain epoch</text>
</g>
<!-- tx -->
<g id="node4" class="node">
<title>tx</title>
<polygon fill="none" stroke="black" points="118,-76.5 118,-114.5 617,-114.5 617,-76.5 118,-76.5"/>
<text text-anchor="middle" x="218" y="-91.8" font-family="Times,serif" font-size="14.00">Verification key update tx</text>
<polyline fill="none" stroke="black" points="318,-76.5 318,-114.5"/>
<text text-anchor="start" x="326" y="-99.3" font-family="Times,serif" font-size="14.00">redeemer: UpdateCommitteeRedeemer</text>
<text text-anchor="start" x="326" y="-84.3" font-family="Times,serif" font-size="14.00"> tx in: aggregate public keys UTxO</text>
</g>
<!-- pubKey&#45;&gt;tx -->
<g id="edge2" class="edge">
<title>pubKey&#45;&gt;tx</title>
<path fill="none" stroke="black" d="M233.11,-166.48C259.22,-152.88 295.24,-134.12 323.42,-119.45"/>
<polygon fill="black" stroke="black" points="325.4,-122.37 332.65,-114.65 322.16,-116.16 325.4,-122.37"/>
<text text-anchor="middle" x="329" y="-136.8" font-family="Times,serif" font-size="14.00">consumes</text>
</g>
<!-- merkleRoot -->
<g id="node2" class="node">
<title>merkleRoot</title>
<polygon fill="none" stroke="black" points="415.5,-167.5 415.5,-203.5 659.5,-203.5 659.5,-167.5 415.5,-167.5"/>
<text text-anchor="middle" x="487" y="-181.8" font-family="Times,serif" font-size="14.00">UTxO with datum</text>
<polyline fill="none" stroke="black" points="558.5,-167.5 558.5,-203.5"/>
<text text-anchor="middle" x="609" y="-181.8" font-family="Times,serif" font-size="14.00">Merkle root</text>
</g>
<!-- merkleRoot&#45;&gt;tx -->
<g id="edge1" class="edge">
<title>merkleRoot&#45;&gt;tx</title>
<path fill="none" stroke="black" stroke-dasharray="5,2" d="M504.32,-167.32C477.81,-153.6 440.44,-134.25 411.44,-119.25"/>
<polygon fill="black" stroke="black" points="412.84,-116.03 402.35,-114.54 409.62,-122.25 412.84,-116.03"/>
<text text-anchor="middle" x="500.5" y="-136.8" font-family="Times,serif" font-size="14.00">references</text>
</g>
<!-- newPubKey -->
<g id="node3" class="node">
<title>newPubKey</title>
<polygon fill="none" stroke="black" points="206.5,-0.5 206.5,-38.5 528.5,-38.5 528.5,-0.5 206.5,-0.5"/>
<text text-anchor="middle" x="278" y="-15.8" font-family="Times,serif" font-size="14.00">UTxO with datum</text>
<polyline fill="none" stroke="black" points="349.5,-0.5 349.5,-38.5"/>
<text text-anchor="start" x="357.5" y="-23.3" font-family="Times,serif" font-size="14.00">aggregate public keys </text>
<text text-anchor="start" x="357.5" y="-8.3" font-family="Times,serif" font-size="14.00"> sidechain epoch</text>
</g>
<!-- tx&#45;&gt;newPubKey -->
<g id="edge3" class="edge">
<title>tx&#45;&gt;newPubKey</title>
<path fill="none" stroke="black" d="M367.5,-76.21C367.5,-67.96 367.5,-58.04 367.5,-48.86"/>
<polygon fill="black" stroke="black" points="371,-48.58 367.5,-38.58 364,-48.58 371,-48.58"/>
</g>
</g>
</svg>
