<?xml version="1.0" encoding="UTF-8" standalone="no"?>
<!DOCTYPE svg PUBLIC "-//W3C//DTD SVG 1.1//EN"
 "http://www.w3.org/Graphics/SVG/1.1/DTD/svg11.dtd">
<!-- Generated by graphviz version 7.0.2 (0)
 -->
<!-- Pages: 1 -->
<svg width="274pt" height="211pt"
 viewBox="0.00 0.00 274.00 211.00" xmlns="http://www.w3.org/2000/svg" xmlns:xlink="http://www.w3.org/1999/xlink">
<g id="graph0" class="graph" transform="scale(1 1) rotate(0) translate(4 207)">
<polygon fill="white" stroke="none" points="-4,4 -4,-207 270,-207 270,4 -4,4"/>
<!-- merkleRoot -->
<g id="node1" class="node">
<title>merkleRoot</title>
<polygon fill="none" stroke="black" points="0,-164.5 0,-202.5 266,-202.5 266,-164.5 0,-164.5"/>
<text text-anchor="middle" x="58.5" y="-179.8" font-family="Times,serif" font-size="14.00">UTxO with datum</text>
<polyline fill="none" stroke="black" points="117,-164.5 117,-202.5"/>
<text text-anchor="start" x="125" y="-187.3" font-family="Times,serif" font-size="14.00">Merkle root</text>
<text text-anchor="start" x="125" y="-172.3" font-family="Times,serif" font-size="14.00"> Signature of committee</text>
</g>
<!-- burnTx -->
<g id="node2" class="node">
<title>burnTx</title>
<polygon fill="none" stroke="black" points="28,-74.5 28,-112.5 238,-112.5 238,-74.5 28,-74.5"/>
<text text-anchor="middle" x="59" y="-89.8" font-family="Times,serif" font-size="14.00">Mint Tx</text>
<polyline fill="none" stroke="black" points="90,-74.5 90,-112.5"/>
<text text-anchor="start" x="98" y="-97.3" font-family="Times,serif" font-size="14.00">redeemer: Merkle proof</text>
<text text-anchor="start" x="98" y="-82.3" font-family="Times,serif" font-size="14.00"> tx body: minted tokens</text>
</g>
<!-- merkleRoot&#45;&gt;burnTx -->
<g id="edge2" class="edge">
<title>merkleRoot&#45;&gt;burnTx</title>
<path fill="none" stroke="black" stroke-dasharray="5,2" d="M133,-164.69C133,-152.88 133,-137.12 133,-123.52"/>
<polygon fill="black" stroke="black" points="136.5,-123.8 133,-113.8 129.5,-123.8 136.5,-123.8"/>
<text text-anchor="middle" x="176.5" y="-134.8" font-family="Times,serif" font-size="14.00">Reference input</text>
</g>
<!-- wallet -->
<g id="node3" class="node">
<title>wallet</title>
<polygon fill="none" stroke="black" points="92.5,-0.5 92.5,-36.5 173.5,-36.5 173.5,-0.5 92.5,-0.5"/>
<text text-anchor="middle" x="133" y="-14.8" font-family="Times,serif" font-size="14.00">User Wallet</text>
</g>
<!-- burnTx&#45;&gt;wallet -->
<g id="edge1" class="edge">
<title>burnTx&#45;&gt;wallet</title>
<path fill="none" stroke="black" d="M133,-74.83C133,-66.61 133,-56.65 133,-47.45"/>
<polygon fill="black" stroke="black" points="136.5,-47.52 133,-37.52 129.5,-47.52 136.5,-47.52"/>
</g>
</g>
</svg>
