<?xml version="1.0" encoding="UTF-8" standalone="no"?>
<!DOCTYPE svg PUBLIC "-//W3C//DTD SVG 1.1//EN"
 "http://www.w3.org/Graphics/SVG/1.1/DTD/svg11.dtd">
<!-- Generated by graphviz version 5.0.1 (0)
 -->
<!-- Pages: 1 -->
<svg width="697pt" height="457pt"
 viewBox="0.00 0.00 697.00 457.00" xmlns="http://www.w3.org/2000/svg" xmlns:xlink="http://www.w3.org/1999/xlink">
<g id="graph0" class="graph" transform="scale(1 1) rotate(0) translate(4 453)">
<polygon fill="white" stroke="none" points="-4,4 -4,-453 693,-453 693,4 -4,4"/>
<g id="clust1" class="cluster">
<title>cluster_mainchain</title>
<polygon fill="none" stroke="black" stroke-dasharray="5,2" points="2,-214 2,-359 135,-359 135,-214 2,-214"/>
<text text-anchor="middle" x="68.5" y="-343.8" font-family="Times,serif" font-size="14.00">Mainchain only node</text>
</g>
<g id="clust2" class="cluster">
<title>cluster_sidechain_a</title>
<polygon fill="none" stroke="black" stroke-dasharray="5,2" points="156,-290 156,-441 478,-441 478,-290 156,-290"/>
<text text-anchor="middle" x="317" y="-425.8" font-family="Times,serif" font-size="14.00">Sidechain only node</text>
</g>
<g id="clust3" class="cluster">
<title>cluster_sidechain_b</title>
<polygon fill="none" stroke="black" stroke-dasharray="5,2" points="351,-8 351,-282 681,-282 681,-8 351,-8"/>
<text text-anchor="middle" x="516" y="-266.8" font-family="Times,serif" font-size="14.00">Cross verifier sidechain node</text>
</g>
<!-- M -->
<g id="node1" class="node">
<title>M</title>
<path fill="none" stroke="black" d="M109,-327.5C109,-327.5 28,-327.5 28,-327.5 22,-327.5 16,-321.5 16,-315.5 16,-315.5 16,-234.5 16,-234.5 16,-228.5 22,-222.5 28,-222.5 28,-222.5 109,-222.5 109,-222.5 115,-222.5 121,-228.5 121,-234.5 121,-234.5 121,-315.5 121,-315.5 121,-321.5 115,-327.5 109,-327.5"/>
<text text-anchor="middle" x="68.5" y="-271.3" font-family="Times,serif" font-size="14.00">Mainchain node</text>
</g>
<!-- A_M -->
<g id="node2" class="node">
<title>A_M</title>
<path fill="none" stroke="black" d="M257,-403.5C257,-403.5 176,-403.5 176,-403.5 170,-403.5 164,-397.5 164,-391.5 164,-391.5 164,-310.5 164,-310.5 164,-304.5 170,-298.5 176,-298.5 176,-298.5 257,-298.5 257,-298.5 263,-298.5 269,-304.5 269,-310.5 269,-310.5 269,-391.5 269,-391.5 269,-397.5 263,-403.5 257,-403.5"/>
<text text-anchor="middle" x="216.5" y="-347.3" font-family="Times,serif" font-size="14.00">Mainchain node</text>
</g>
<!-- M&#45;&gt;A_M -->
<g id="edge4" class="edge">
<title>M&#45;&gt;A_M</title>
<path fill="none" stroke="black" d="M130.56,-306.78C138.58,-310.96 146.81,-315.24 154.83,-319.42"/>
<polygon fill="black" stroke="black" points="131.87,-303.52 121.39,-302.01 128.64,-309.73 131.87,-303.52"/>
<polygon fill="black" stroke="black" points="153.3,-322.57 163.78,-324.08 156.53,-316.36 153.3,-322.57"/>
</g>
<!-- A_SA -->
<g id="node3" class="node">
<title>A_SA</title>
<path fill="none" stroke="black" d="M458,-409.5C458,-409.5 371,-409.5 371,-409.5 365,-409.5 359,-403.5 359,-397.5 359,-397.5 359,-310.5 359,-310.5 359,-304.5 365,-298.5 371,-298.5 371,-298.5 458,-298.5 458,-298.5 464,-298.5 470,-304.5 470,-310.5 470,-310.5 470,-397.5 470,-397.5 470,-403.5 464,-409.5 458,-409.5"/>
<text text-anchor="middle" x="414.5" y="-350.3" font-family="Times,serif" font-size="14.00">Sidechain A node</text>
</g>
<!-- A_M&#45;&gt;A_SA -->
<g id="edge1" class="edge">
<title>A_M&#45;&gt;A_SA</title>
<path fill="none" stroke="black" stroke-dasharray="5,2" d="M279.52,-351.95C304.94,-352.34 334.1,-352.78 358.71,-353.16"/>
<polygon fill="black" stroke="black" points="279.31,-348.45 269.25,-351.79 279.2,-355.44 279.31,-348.45"/>
<text text-anchor="middle" x="314" y="-355.8" font-family="Times,serif" font-size="14.00">observing</text>
</g>
<!-- B_M -->
<g id="node4" class="node">
<title>B_M</title>
<path fill="none" stroke="black" d="M455,-250.5C455,-250.5 374,-250.5 374,-250.5 368,-250.5 362,-244.5 362,-238.5 362,-238.5 362,-157.5 362,-157.5 362,-151.5 368,-145.5 374,-145.5 374,-145.5 455,-145.5 455,-145.5 461,-145.5 467,-151.5 467,-157.5 467,-157.5 467,-238.5 467,-238.5 467,-244.5 461,-250.5 455,-250.5"/>
<text text-anchor="middle" x="414.5" y="-194.3" font-family="Times,serif" font-size="14.00">Mainchain node</text>
</g>
<!-- A_M&#45;&gt;B_M -->
<g id="edge5" class="edge">
<title>A_M&#45;&gt;B_M</title>
<path fill="none" stroke="black" d="M277.46,-304.19C301.67,-285.29 329.55,-263.53 353.74,-244.65"/>
<polygon fill="black" stroke="black" points="274.98,-301.69 269.25,-310.6 279.29,-307.21 274.98,-301.69"/>
<polygon fill="black" stroke="black" points="356.07,-247.27 361.8,-238.36 351.76,-241.75 356.07,-247.27"/>
</g>
<!-- B_M&#45;&gt;M -->
<g id="edge6" class="edge">
<title>B_M&#45;&gt;M</title>
<path fill="none" stroke="black" d="M351.6,-212C288.96,-225.94 193.37,-247.21 130.9,-261.11"/>
<polygon fill="black" stroke="black" points="352.74,-215.33 361.74,-209.74 351.22,-208.5 352.74,-215.33"/>
<polygon fill="black" stroke="black" points="130.05,-257.72 121.05,-263.31 131.57,-264.55 130.05,-257.72"/>
</g>
<!-- B_SB -->
<g id="node6" class="node">
<title>B_SB</title>
<path fill="none" stroke="black" d="M661,-192.5C661,-192.5 572,-192.5 572,-192.5 566,-192.5 560,-186.5 560,-180.5 560,-180.5 560,-91.5 560,-91.5 560,-85.5 566,-79.5 572,-79.5 572,-79.5 661,-79.5 661,-79.5 667,-79.5 673,-85.5 673,-91.5 673,-91.5 673,-180.5 673,-180.5 673,-186.5 667,-192.5 661,-192.5"/>
<text text-anchor="middle" x="616.5" y="-132.3" font-family="Times,serif" font-size="14.00">Sidechain B node</text>
</g>
<!-- B_M&#45;&gt;B_SB -->
<g id="edge2" class="edge">
<title>B_M&#45;&gt;B_SB</title>
<path fill="none" stroke="black" stroke-dasharray="5,2" d="M476.58,-179.07C503.14,-170.83 534.05,-161.25 559.96,-153.22"/>
<polygon fill="black" stroke="black" points="475.52,-175.73 467,-182.03 477.59,-182.42 475.52,-175.73"/>
<text text-anchor="middle" x="515" y="-177.8" font-family="Times,serif" font-size="14.00">observing</text>
</g>
<!-- B_SA -->
<g id="node5" class="node">
<title>B_SA</title>
<path fill="none" stroke="black" d="M458,-127.5C458,-127.5 371,-127.5 371,-127.5 365,-127.5 359,-121.5 359,-115.5 359,-115.5 359,-28.5 359,-28.5 359,-22.5 365,-16.5 371,-16.5 371,-16.5 458,-16.5 458,-16.5 464,-16.5 470,-22.5 470,-28.5 470,-28.5 470,-115.5 470,-115.5 470,-121.5 464,-127.5 458,-127.5"/>
<text text-anchor="middle" x="414.5" y="-68.3" font-family="Times,serif" font-size="14.00">Sidechain A node</text>
</g>
<!-- B_SA&#45;&gt;B_SB -->
<g id="edge3" class="edge">
<title>B_SA&#45;&gt;B_SB</title>
<path fill="none" stroke="black" stroke-dasharray="5,2" d="M479.84,-92.59C505.62,-100.84 535.03,-110.25 559.87,-118.2"/>
<polygon fill="black" stroke="black" points="480.74,-89.2 470.15,-89.49 478.61,-95.87 480.74,-89.2"/>
<text text-anchor="middle" x="515" y="-114.8" font-family="Times,serif" font-size="14.00">observing</text>
</g>
</g>
</svg>
