<?xml version="1.0" encoding="UTF-8" standalone="no"?>
<!DOCTYPE svg PUBLIC "-//W3C//DTD SVG 1.1//EN"
 "http://www.w3.org/Graphics/SVG/1.1/DTD/svg11.dtd">
<!-- Generated by graphviz version 5.0.1 (0)
 -->
<!-- Pages: 1 -->
<svg width="686pt" height="475pt"
 viewBox="0.00 0.00 686.00 475.00" xmlns="http://www.w3.org/2000/svg" xmlns:xlink="http://www.w3.org/1999/xlink">
<g id="graph0" class="graph" transform="scale(1 1) rotate(0) translate(4 471)">
<polygon fill="white" stroke="none" points="-4,4 -4,-471 682,-471 682,4 -4,4"/>
<g id="clust1" class="cluster">
<title>cluster_sidechain_a</title>
<polygon fill="none" stroke="black" stroke-dasharray="5,2" points="8,-73 8,-459 263,-459 263,-73 8,-73"/>
<text text-anchor="middle" x="49.5" y="-443.8" font-family="Times,serif" font-size="14.00">Sidechain A</text>
</g>
<g id="clust2" class="cluster">
<title>cluster_version_oracle_a</title>
<polygon fill="none" stroke="black" points="16,-81 16,-428 255,-428 255,-81 16,-81"/>
<text text-anchor="middle" x="87.5" y="-412.8" font-family="Times,serif" font-size="14.00">VersionOracleValidator</text>
</g>
<g id="clust3" class="cluster">
<title>cluster_sidechain_b</title>
<polygon fill="none" stroke="black" stroke-dasharray="5,2" points="428,-8 428,-264 670,-264 670,-8 428,-8"/>
<text text-anchor="middle" x="469.5" y="-248.8" font-family="Times,serif" font-size="14.00">Sidechain B</text>
</g>
<g id="clust4" class="cluster">
<title>cluster_version_oracle_b</title>
<polygon fill="none" stroke="black" points="436,-16 436,-233 662,-233 662,-16 436,-16"/>
<text text-anchor="middle" x="507.5" y="-217.8" font-family="Times,serif" font-size="14.00">VersionOracleValidator</text>
</g>
<!-- a_version_oracle_1 -->
<g id="node1" class="node">
<title>a_version_oracle_1</title>
<path fill="none" stroke="black" d="M50.5,-350C50.5,-350 220.5,-350 220.5,-350 226.5,-350 232.5,-356 232.5,-362 232.5,-362 232.5,-384 232.5,-384 232.5,-390 226.5,-396 220.5,-396 220.5,-396 50.5,-396 50.5,-396 44.5,-396 38.5,-390 38.5,-384 38.5,-384 38.5,-362 38.5,-362 38.5,-356 44.5,-350 50.5,-350"/>
<text text-anchor="middle" x="135.5" y="-380.8" font-family="Times,serif" font-size="14.00">UTxO with VersionOracleToken</text>
<polyline fill="none" stroke="black" points="38.5,-373 232.5,-373"/>
<text text-anchor="middle" x="135.5" y="-357.8" font-family="Times,serif" font-size="14.00">1: FUELMintingPolicy</text>
</g>
<!-- a_version_oracle_2 -->
<g id="node2" class="node">
<title>a_version_oracle_2</title>
<path fill="none" stroke="black" d="M50.5,-285C50.5,-285 220.5,-285 220.5,-285 226.5,-285 232.5,-291 232.5,-297 232.5,-297 232.5,-319 232.5,-319 232.5,-325 226.5,-331 220.5,-331 220.5,-331 50.5,-331 50.5,-331 44.5,-331 38.5,-325 38.5,-319 38.5,-319 38.5,-297 38.5,-297 38.5,-291 44.5,-285 50.5,-285"/>
<text text-anchor="middle" x="135.5" y="-315.8" font-family="Times,serif" font-size="14.00">UTxO with VersionOracleToken</text>
<polyline fill="none" stroke="black" points="38.5,-308 232.5,-308"/>
<text text-anchor="middle" x="135.5" y="-292.8" font-family="Times,serif" font-size="14.00">2: MerkleRootTokenValidator</text>
</g>
<!-- a_version_oracle_3 -->
<g id="node3" class="node">
<title>a_version_oracle_3</title>
<path fill="none" stroke="black" d="M42.5,-220C42.5,-220 228.5,-220 228.5,-220 234.5,-220 240.5,-226 240.5,-232 240.5,-232 240.5,-254 240.5,-254 240.5,-260 234.5,-266 228.5,-266 228.5,-266 42.5,-266 42.5,-266 36.5,-266 30.5,-260 30.5,-254 30.5,-254 30.5,-232 30.5,-232 30.5,-226 36.5,-220 42.5,-220"/>
<text text-anchor="middle" x="135.5" y="-250.8" font-family="Times,serif" font-size="14.00">UTxO with VersionOracleToken</text>
<polyline fill="none" stroke="black" points="30.5,-243 240.5,-243"/>
<text text-anchor="middle" x="135.5" y="-227.8" font-family="Times,serif" font-size="14.00">3: MerkleRootTokenMintingPolicy</text>
</g>
<!-- a_version_oracle_100 -->
<g id="node4" class="node">
<title>a_version_oracle_100</title>
<path fill="none" stroke="black" d="M36,-155C36,-155 235,-155 235,-155 241,-155 247,-161 247,-167 247,-167 247,-189 247,-189 247,-195 241,-201 235,-201 235,-201 36,-201 36,-201 30,-201 24,-195 24,-189 24,-189 24,-167 24,-167 24,-161 30,-155 36,-155"/>
<text text-anchor="middle" x="135.5" y="-185.8" font-family="Times,serif" font-size="14.00">UTxO with VersionOracleToken</text>
<polyline fill="none" stroke="black" points="24,-178 247,-178"/>
<text text-anchor="middle" x="135.5" y="-162.8" font-family="Times,serif" font-size="14.00">100: ForeignVersionOracleValidatorA</text>
</g>
<!-- b_version_oracle_1 -->
<g id="node6" class="node">
<title>b_version_oracle_1</title>
<path fill="none" stroke="black" d="M464,-155C464,-155 634,-155 634,-155 640,-155 646,-161 646,-167 646,-167 646,-189 646,-189 646,-195 640,-201 634,-201 634,-201 464,-201 464,-201 458,-201 452,-195 452,-189 452,-189 452,-167 452,-167 452,-161 458,-155 464,-155"/>
<text text-anchor="middle" x="549" y="-185.8" font-family="Times,serif" font-size="14.00">UTxO with VersionOracleToken</text>
<polyline fill="none" stroke="black" points="452,-178 646,-178"/>
<text text-anchor="middle" x="549" y="-162.8" font-family="Times,serif" font-size="14.00">1: FUELMintingPolicy</text>
</g>
<!-- a_version_oracle_100&#45;&gt;b_version_oracle_1 -->
<g id="edge1" class="edge">
<title>a_version_oracle_100&#45;&gt;b_version_oracle_1</title>
<path fill="none" stroke="black" d="M259.21,-178C315.29,-178 381.28,-178 436,-178"/>
<polygon fill="none" stroke="black" points="259.05,-178 253.04,-182 247.05,-178 253.05,-174 259.05,-178"/>
<text text-anchor="middle" x="345.5" y="-181.8" font-family="Times,serif" font-size="14.00">reference to validator</text>
</g>
<!-- a_version_oracle_110 -->
<g id="node5" class="node">
<title>a_version_oracle_110</title>
<path fill="none" stroke="black" d="M43.5,-90C43.5,-90 227.5,-90 227.5,-90 233.5,-90 239.5,-96 239.5,-102 239.5,-102 239.5,-124 239.5,-124 239.5,-130 233.5,-136 227.5,-136 227.5,-136 43.5,-136 43.5,-136 37.5,-136 31.5,-130 31.5,-124 31.5,-124 31.5,-102 31.5,-102 31.5,-96 37.5,-90 43.5,-90"/>
<text text-anchor="middle" x="135.5" y="-120.8" font-family="Times,serif" font-size="14.00">UTxO with VersionOracleToken</text>
<polyline fill="none" stroke="black" points="31.5,-113 239.5,-113"/>
<text text-anchor="middle" x="135.5" y="-97.8" font-family="Times,serif" font-size="14.00">110: ForeignVersionOracleTokenA</text>
</g>
<!-- a_version_oracle_110&#45;&gt;b_version_oracle_1 -->
<g id="edge2" class="edge">
<title>a_version_oracle_110&#45;&gt;b_version_oracle_1</title>
<path fill="none" stroke="black" d="M251.56,-131.18C314.7,-141.15 392.08,-153.37 451.95,-162.83"/>
<polygon fill="none" stroke="black" points="251.4,-131.15 244.84,-134.16 239.54,-129.28 246.09,-126.26 251.4,-131.15"/>
</g>
<!-- b_version_oracle_2 -->
<g id="node7" class="node">
<title>b_version_oracle_2</title>
<path fill="none" stroke="black" d="M464,-90C464,-90 634,-90 634,-90 640,-90 646,-96 646,-102 646,-102 646,-124 646,-124 646,-130 640,-136 634,-136 634,-136 464,-136 464,-136 458,-136 452,-130 452,-124 452,-124 452,-102 452,-102 452,-96 458,-90 464,-90"/>
<text text-anchor="middle" x="549" y="-120.8" font-family="Times,serif" font-size="14.00">UTxO with VersionOracleToken</text>
<polyline fill="none" stroke="black" points="452,-113 646,-113"/>
<text text-anchor="middle" x="549" y="-97.8" font-family="Times,serif" font-size="14.00">2: MerkleRootTokenValidator</text>
</g>
<!-- a_version_oracle_110&#45;&gt;b_version_oracle_2 -->
<g id="edge3" class="edge">
<title>a_version_oracle_110&#45;&gt;b_version_oracle_2</title>
<path fill="none" stroke="black" d="M251.56,-113C314.7,-113 392.08,-113 451.95,-113"/>
<polygon fill="none" stroke="black" points="251.54,-113 245.54,-117 239.54,-113 245.54,-109 251.54,-113"/>
<text text-anchor="middle" x="345.5" y="-116.8" font-family="Times,serif" font-size="14.00">reference to minting policy</text>
</g>
<!-- b_version_oracle_3 -->
<g id="node8" class="node">
<title>b_version_oracle_3</title>
<path fill="none" stroke="black" d="M456,-25C456,-25 642,-25 642,-25 648,-25 654,-31 654,-37 654,-37 654,-59 654,-59 654,-65 648,-71 642,-71 642,-71 456,-71 456,-71 450,-71 444,-65 444,-59 444,-59 444,-37 444,-37 444,-31 450,-25 456,-25"/>
<text text-anchor="middle" x="549" y="-55.8" font-family="Times,serif" font-size="14.00">UTxO with VersionOracleToken</text>
<polyline fill="none" stroke="black" points="444,-48 654,-48"/>
<text text-anchor="middle" x="549" y="-32.8" font-family="Times,serif" font-size="14.00">3: MerkleRootTokenMintingPolicy</text>
</g>
<!-- a_version_oracle_110&#45;&gt;b_version_oracle_3 -->
<g id="edge4" class="edge">
<title>a_version_oracle_110&#45;&gt;b_version_oracle_3</title>
<path fill="none" stroke="black" d="M251.43,-94.85C311.76,-85.32 385.14,-73.73 443.8,-64.46"/>
<polygon fill="none" stroke="black" points="251.4,-94.85 246.09,-99.74 239.54,-96.72 244.84,-91.84 251.4,-94.85"/>
</g>
</g>
</svg>
