<?xml version="1.0" encoding="UTF-8" standalone="no"?>
<!DOCTYPE svg PUBLIC "-//W3C//DTD SVG 1.1//EN"
 "http://www.w3.org/Graphics/SVG/1.1/DTD/svg11.dtd">
<!-- Generated by graphviz version 5.0.1 (0)
 -->
<!-- Pages: 1 -->
<svg width="685pt" height="173pt"
 viewBox="0.00 0.00 685.00 173.00" xmlns="http://www.w3.org/2000/svg" xmlns:xlink="http://www.w3.org/1999/xlink">
<g id="graph0" class="graph" transform="scale(1 1) rotate(0) translate(4 169)">
<polygon fill="white" stroke="none" points="-4,4 -4,-169 681,-169 681,4 -4,4"/>
<g id="clust1" class="cluster">
<title>cluster_mainchain</title>
<polygon fill="none" stroke="black" points="135,-8 135,-157 540,-157 540,-8 135,-8"/>
<text text-anchor="middle" x="337.5" y="-141.8" font-family="Times,serif" font-size="14.00">Mainchain</text>
</g>
<g id="clust2" class="cluster">
<title>cluster_sidechain_a</title>
<polygon fill="none" stroke="black" points="7,-30 7,-135 90,-135 90,-30 7,-30"/>
<text text-anchor="middle" x="48.5" y="-119.8" font-family="Times,serif" font-size="14.00">Sidechain A</text>
</g>
<g id="clust3" class="cluster">
<title>cluster_sidechain_b</title>
<polygon fill="none" stroke="black" points="586,-29 586,-136 669,-136 669,-29 586,-29"/>
<text text-anchor="middle" x="627.5" y="-120.8" font-family="Times,serif" font-size="14.00">Sidechain B</text>
</g>
<!-- mt -->
<g id="node1" class="node">
<title>mt</title>
<path fill="none" stroke="black" d="M351,-90C351,-90 337,-90 337,-90 331,-90 325,-84 325,-78 325,-78 325,-64 325,-64 325,-58 331,-52 337,-52 337,-52 351,-52 351,-52 357,-52 363,-58 363,-64 363,-64 363,-78 363,-78 363,-84 357,-90 351,-90"/>
<text text-anchor="middle" x="344" y="-67.3" font-family="Times,serif" font-size="14.00">MT</text>
</g>
<!-- m_lb_b -->
<g id="node3" class="node">
<title>m_lb_b</title>
<polygon fill="none" stroke="black" points="532,-125.5 423,-125.5 423,-16.5 532,-16.5 532,-125.5"/>
<text text-anchor="middle" x="477.5" y="-74.8" font-family="Times,serif" font-size="14.00">LockBox</text>
<text text-anchor="middle" x="477.5" y="-59.8" font-family="Times,serif" font-size="14.00">(for sidechain B)</text>
</g>
<!-- mt&#45;&gt;m_lb_b -->
<g id="edge3" class="edge">
<title>mt&#45;&gt;m_lb_b</title>
<path fill="none" stroke="black" d="M363.01,-71C376.07,-71 394.57,-71 412.86,-71"/>
<polygon fill="black" stroke="black" points="412.96,-74.5 422.96,-71 412.96,-67.5 412.96,-74.5"/>
<text text-anchor="middle" x="393" y="-74.8" font-family="Times,serif" font-size="14.00">lock</text>
</g>
<!-- m_lb_a -->
<g id="node2" class="node">
<title>m_lb_a</title>
<polygon fill="none" stroke="black" points="252,-125.5 143,-125.5 143,-16.5 252,-16.5 252,-125.5"/>
<text text-anchor="middle" x="197.5" y="-74.8" font-family="Times,serif" font-size="14.00">LockBox</text>
<text text-anchor="middle" x="197.5" y="-59.8" font-family="Times,serif" font-size="14.00">(for sidechain A)</text>
</g>
<!-- m_lb_a&#45;&gt;mt -->
<g id="edge2" class="edge">
<title>m_lb_a&#45;&gt;mt</title>
<path fill="none" stroke="black" d="M252.31,-71C273.44,-71 296.82,-71 314.56,-71"/>
<polygon fill="black" stroke="black" points="314.8,-74.5 324.8,-71 314.8,-67.5 314.8,-74.5"/>
<text text-anchor="middle" x="288.5" y="-74.8" font-family="Times,serif" font-size="14.00">unlock</text>
</g>
<!-- wb_mt -->
<g id="node5" class="node">
<title>wb_mt</title>
<path fill="none" stroke="black" d="M649,-104.5C649,-104.5 606,-104.5 606,-104.5 600,-104.5 594,-98.5 594,-92.5 594,-92.5 594,-49.5 594,-49.5 594,-43.5 600,-37.5 606,-37.5 606,-37.5 649,-37.5 649,-37.5 655,-37.5 661,-43.5 661,-49.5 661,-49.5 661,-92.5 661,-92.5 661,-98.5 655,-104.5 649,-104.5"/>
<text text-anchor="middle" x="627.5" y="-67.3" font-family="Times,serif" font-size="14.00">Wb(MT)</text>
</g>
<!-- m_lb_b&#45;&gt;wb_mt -->
<g id="edge4" class="edge">
<title>m_lb_b&#45;&gt;wb_mt</title>
<path fill="none" stroke="black" stroke-dasharray="5,2" d="M532.35,-71C549.16,-71 567.48,-71 583.45,-71"/>
<polygon fill="black" stroke="black" points="583.57,-74.5 593.57,-71 583.57,-67.5 583.57,-74.5"/>
<text text-anchor="middle" x="563" y="-74.8" font-family="Times,serif" font-size="14.00">mint</text>
</g>
<!-- wa_mt -->
<g id="node4" class="node">
<title>wa_mt</title>
<path fill="none" stroke="black" d="M69,-103.5C69,-103.5 28,-103.5 28,-103.5 22,-103.5 16,-97.5 16,-91.5 16,-91.5 16,-50.5 16,-50.5 16,-44.5 22,-38.5 28,-38.5 28,-38.5 69,-38.5 69,-38.5 75,-38.5 81,-44.5 81,-50.5 81,-50.5 81,-91.5 81,-91.5 81,-97.5 75,-103.5 69,-103.5"/>
<text text-anchor="middle" x="48.5" y="-67.3" font-family="Times,serif" font-size="14.00">Wa(MT)</text>
</g>
<!-- wa_mt&#45;&gt;m_lb_a -->
<g id="edge1" class="edge">
<title>wa_mt&#45;&gt;m_lb_a</title>
<path fill="none" stroke="black" stroke-dasharray="5,2" d="M81.04,-71C96.06,-71 114.59,-71 132.39,-71"/>
<polygon fill="black" stroke="black" points="132.74,-74.5 142.74,-71 132.74,-67.5 132.74,-74.5"/>
<text text-anchor="middle" x="112.5" y="-74.8" font-family="Times,serif" font-size="14.00">burn</text>
</g>
</g>
</svg>
