<?xml version="1.0" encoding="UTF-8" standalone="no"?>
<!DOCTYPE svg PUBLIC "-//W3C//DTD SVG 1.1//EN"
 "http://www.w3.org/Graphics/SVG/1.1/DTD/svg11.dtd">
<!-- Generated by graphviz version 5.0.1 (0)
 -->
<!-- Pages: 1 -->
<svg width="671pt" height="173pt"
 viewBox="0.00 0.00 671.00 173.00" xmlns="http://www.w3.org/2000/svg" xmlns:xlink="http://www.w3.org/1999/xlink">
<g id="graph0" class="graph" transform="scale(1 1) rotate(0) translate(4 169)">
<polygon fill="white" stroke="none" points="-4,4 -4,-169 667,-169 667,4 -4,4"/>
<g id="clust1" class="cluster">
<title>cluster_mainchain</title>
<polygon fill="none" stroke="black" points="235,-8 235,-157 492,-157 492,-8 235,-8"/>
<text text-anchor="middle" x="363.5" y="-141.8" font-family="Times,serif" font-size="14.00">Mainchain</text>
</g>
<g id="clust2" class="cluster">
<title>cluster_sidechain_a</title>
<polygon fill="none" stroke="black" points="8,-29 8,-136 189,-136 189,-29 8,-29"/>
<text text-anchor="middle" x="98.5" y="-120.8" font-family="Times,serif" font-size="14.00">Sidechain A</text>
</g>
<g id="clust3" class="cluster">
<title>cluster_sidechain_b</title>
<polygon fill="none" stroke="black" points="538,-12 538,-153 655,-153 655,-12 538,-12"/>
<text text-anchor="middle" x="596.5" y="-137.8" font-family="Times,serif" font-size="14.00">Sidechain B</text>
</g>
<!-- wm_sat -->
<g id="node1" class="node">
<title>wm_sat</title>
<path fill="none" stroke="black" d="M303,-107C303,-107 255,-107 255,-107 249,-107 243,-101 243,-95 243,-95 243,-47 243,-47 243,-41 249,-35 255,-35 255,-35 303,-35 303,-35 309,-35 315,-41 315,-47 315,-47 315,-95 315,-95 315,-101 309,-107 303,-107"/>
<text text-anchor="middle" x="279" y="-67.3" font-family="Times,serif" font-size="14.00">Wm(SaT)</text>
</g>
<!-- m_lb_b -->
<g id="node2" class="node">
<title>m_lb_b</title>
<polygon fill="none" stroke="black" points="484,-125.5 375,-125.5 375,-16.5 484,-16.5 484,-125.5"/>
<text text-anchor="middle" x="429.5" y="-74.8" font-family="Times,serif" font-size="14.00">LockBox</text>
<text text-anchor="middle" x="429.5" y="-59.8" font-family="Times,serif" font-size="14.00">(for sidechain B)</text>
</g>
<!-- wm_sat&#45;&gt;m_lb_b -->
<g id="edge3" class="edge">
<title>wm_sat&#45;&gt;m_lb_b</title>
<path fill="none" stroke="black" d="M315.19,-71C329.97,-71 347.62,-71 364.55,-71"/>
<polygon fill="black" stroke="black" points="364.97,-74.5 374.97,-71 364.97,-67.5 364.97,-74.5"/>
<text text-anchor="middle" x="345" y="-74.8" font-family="Times,serif" font-size="14.00">lock</text>
</g>
<!-- wb_wm_sat -->
<g id="node5" class="node">
<title>wb_wm_sat</title>
<path fill="none" stroke="black" d="M635,-121.5C635,-121.5 558,-121.5 558,-121.5 552,-121.5 546,-115.5 546,-109.5 546,-109.5 546,-32.5 546,-32.5 546,-26.5 552,-20.5 558,-20.5 558,-20.5 635,-20.5 635,-20.5 641,-20.5 647,-26.5 647,-32.5 647,-32.5 647,-109.5 647,-109.5 647,-115.5 641,-121.5 635,-121.5"/>
<text text-anchor="middle" x="596.5" y="-67.3" font-family="Times,serif" font-size="14.00">Wb(Wm(SaT))</text>
</g>
<!-- m_lb_b&#45;&gt;wb_wm_sat -->
<g id="edge4" class="edge">
<title>m_lb_b&#45;&gt;wb_wm_sat</title>
<path fill="none" stroke="black" stroke-dasharray="5,2" d="M484.07,-71C500.51,-71 518.71,-71 535.55,-71"/>
<polygon fill="black" stroke="black" points="535.83,-74.5 545.83,-71 535.83,-67.5 535.83,-74.5"/>
<text text-anchor="middle" x="515" y="-74.8" font-family="Times,serif" font-size="14.00">mint</text>
</g>
<!-- sat -->
<g id="node3" class="node">
<title>sat</title>
<path fill="none" stroke="black" d="M42,-90C42,-90 28,-90 28,-90 22,-90 16,-84 16,-78 16,-78 16,-64 16,-64 16,-58 22,-52 28,-52 28,-52 42,-52 42,-52 48,-52 54,-58 54,-64 54,-64 54,-78 54,-78 54,-84 48,-90 42,-90"/>
<text text-anchor="middle" x="35" y="-67.3" font-family="Times,serif" font-size="14.00">SaT</text>
</g>
<!-- a_lb -->
<g id="node4" class="node">
<title>a_lb</title>
<polygon fill="none" stroke="black" points="181,-104.5 114,-104.5 114,-37.5 181,-37.5 181,-104.5"/>
<text text-anchor="middle" x="147.5" y="-67.3" font-family="Times,serif" font-size="14.00">LockBox</text>
</g>
<!-- sat&#45;&gt;a_lb -->
<g id="edge1" class="edge">
<title>sat&#45;&gt;a_lb</title>
<path fill="none" stroke="black" d="M54.25,-71C67.65,-71 86.43,-71 103.54,-71"/>
<polygon fill="black" stroke="black" points="103.93,-74.5 113.93,-71 103.93,-67.5 103.93,-74.5"/>
<text text-anchor="middle" x="84" y="-74.8" font-family="Times,serif" font-size="14.00">lock</text>
</g>
<!-- a_lb&#45;&gt;wm_sat -->
<g id="edge2" class="edge">
<title>a_lb&#45;&gt;wm_sat</title>
<path fill="none" stroke="black" stroke-dasharray="5,2" d="M181.18,-71C196.69,-71 215.49,-71 232.38,-71"/>
<polygon fill="black" stroke="black" points="232.6,-74.5 242.6,-71 232.6,-67.5 232.6,-74.5"/>
<text text-anchor="middle" x="212" y="-74.8" font-family="Times,serif" font-size="14.00">mint</text>
</g>
</g>
</svg>
