<?xml version="1.0" encoding="UTF-8" standalone="no"?>
<!DOCTYPE svg PUBLIC "-//W3C//DTD SVG 1.1//EN"
 "http://www.w3.org/Graphics/SVG/1.1/DTD/svg11.dtd">
<!-- Generated by graphviz version 5.0.1 (0)
 -->
<!-- Pages: 1 -->
<svg width="655pt" height="165pt"
 viewBox="0.00 0.00 655.00 165.00" xmlns="http://www.w3.org/2000/svg" xmlns:xlink="http://www.w3.org/1999/xlink">
<g id="graph0" class="graph" transform="scale(1 1) rotate(0) translate(4 161)">
<polygon fill="white" stroke="none" points="-4,4 -4,-161 651,-161 651,4 -4,4"/>
<g id="clust1" class="cluster">
<title>cluster_sidechain_a</title>
<polygon fill="none" stroke="black" points="8,-8 8,-149 125,-149 125,-8 8,-8"/>
<text text-anchor="middle" x="66.5" y="-133.8" font-family="Times,serif" font-size="14.00">Sidechain A</text>
</g>
<g id="clust2" class="cluster">
<title>cluster_mainchain</title>
<polygon fill="none" stroke="black" points="170,-22 170,-135 399,-135 399,-22 170,-22"/>
<text text-anchor="middle" x="284.5" y="-119.8" font-family="Times,serif" font-size="14.00">Mainchain</text>
</g>
<g id="clust3" class="cluster">
<title>cluster_sidechain_b</title>
<polygon fill="none" stroke="black" points="444,-25 444,-132 639,-132 639,-25 444,-25"/>
<text text-anchor="middle" x="541.5" y="-116.8" font-family="Times,serif" font-size="14.00">Sidechain B</text>
</g>
<!-- wa_wm_sbt -->
<g id="node1" class="node">
<title>wa_wm_sbt</title>
<path fill="none" stroke="black" d="M105,-117.5C105,-117.5 28,-117.5 28,-117.5 22,-117.5 16,-111.5 16,-105.5 16,-105.5 16,-28.5 16,-28.5 16,-22.5 22,-16.5 28,-16.5 28,-16.5 105,-16.5 105,-16.5 111,-16.5 117,-22.5 117,-28.5 117,-28.5 117,-105.5 117,-105.5 117,-111.5 111,-117.5 105,-117.5"/>
<text text-anchor="middle" x="66.5" y="-63.3" font-family="Times,serif" font-size="14.00">Wa(Wm(SbT))</text>
</g>
<!-- m_lb -->
<g id="node3" class="node">
<title>m_lb</title>
<polygon fill="none" stroke="black" points="245,-100.5 178,-100.5 178,-33.5 245,-33.5 245,-100.5"/>
<text text-anchor="middle" x="211.5" y="-63.3" font-family="Times,serif" font-size="14.00">LockBox</text>
</g>
<!-- wa_wm_sbt&#45;&gt;m_lb -->
<g id="edge1" class="edge">
<title>wa_wm_sbt&#45;&gt;m_lb</title>
<path fill="none" stroke="black" stroke-dasharray="5,2" d="M117.11,-67C133.52,-67 151.64,-67 167.51,-67"/>
<polygon fill="black" stroke="black" points="167.58,-70.5 177.58,-67 167.58,-63.5 167.58,-70.5"/>
<text text-anchor="middle" x="147.5" y="-70.8" font-family="Times,serif" font-size="14.00">burn</text>
</g>
<!-- wm_sbt -->
<g id="node2" class="node">
<title>wm_sbt</title>
<path fill="none" stroke="black" d="M379,-103.5C379,-103.5 330,-103.5 330,-103.5 324,-103.5 318,-97.5 318,-91.5 318,-91.5 318,-42.5 318,-42.5 318,-36.5 324,-30.5 330,-30.5 330,-30.5 379,-30.5 379,-30.5 385,-30.5 391,-36.5 391,-42.5 391,-42.5 391,-91.5 391,-91.5 391,-97.5 385,-103.5 379,-103.5"/>
<text text-anchor="middle" x="354.5" y="-63.3" font-family="Times,serif" font-size="14.00">Wm(SbT)</text>
</g>
<!-- b_lb -->
<g id="node5" class="node">
<title>b_lb</title>
<polygon fill="none" stroke="black" points="519,-100.5 452,-100.5 452,-33.5 519,-33.5 519,-100.5"/>
<text text-anchor="middle" x="485.5" y="-63.3" font-family="Times,serif" font-size="14.00">LockBox</text>
</g>
<!-- wm_sbt&#45;&gt;b_lb -->
<g id="edge3" class="edge">
<title>wm_sbt&#45;&gt;b_lb</title>
<path fill="none" stroke="black" stroke-dasharray="5,2" d="M391.09,-67C406.63,-67 424.99,-67 441.3,-67"/>
<polygon fill="black" stroke="black" points="441.68,-70.5 451.68,-67 441.68,-63.5 441.68,-70.5"/>
<text text-anchor="middle" x="421.5" y="-70.8" font-family="Times,serif" font-size="14.00">burn</text>
</g>
<!-- m_lb&#45;&gt;wm_sbt -->
<g id="edge2" class="edge">
<title>m_lb&#45;&gt;wm_sbt</title>
<path fill="none" stroke="black" d="M245.2,-67C263.78,-67 287.34,-67 307.73,-67"/>
<polygon fill="black" stroke="black" points="307.76,-70.5 317.76,-67 307.76,-63.5 307.76,-70.5"/>
<text text-anchor="middle" x="281.5" y="-70.8" font-family="Times,serif" font-size="14.00">unlock</text>
</g>
<!-- sbt -->
<g id="node4" class="node">
<title>sbt</title>
<path fill="none" stroke="black" d="M619,-86.5C619,-86.5 604,-86.5 604,-86.5 598,-86.5 592,-80.5 592,-74.5 592,-74.5 592,-59.5 592,-59.5 592,-53.5 598,-47.5 604,-47.5 604,-47.5 619,-47.5 619,-47.5 625,-47.5 631,-53.5 631,-59.5 631,-59.5 631,-74.5 631,-74.5 631,-80.5 625,-86.5 619,-86.5"/>
<text text-anchor="middle" x="611.5" y="-63.3" font-family="Times,serif" font-size="14.00">SbT</text>
</g>
<!-- b_lb&#45;&gt;sbt -->
<g id="edge4" class="edge">
<title>b_lb&#45;&gt;sbt</title>
<path fill="none" stroke="black" d="M519.08,-67C538.61,-67 563.2,-67 581.96,-67"/>
<polygon fill="black" stroke="black" points="581.98,-70.5 591.98,-67 581.98,-63.5 581.98,-70.5"/>
<text text-anchor="middle" x="555.5" y="-70.8" font-family="Times,serif" font-size="14.00">unlock</text>
</g>
</g>
</svg>
