<?xml version="1.0" encoding="UTF-8" standalone="no"?>
<!DOCTYPE svg PUBLIC "-//W3C//DTD SVG 1.1//EN"
 "http://www.w3.org/Graphics/SVG/1.1/DTD/svg11.dtd">
<!-- Generated by graphviz version 5.0.1 (0)
 -->
<!-- Pages: 1 -->
<svg width="194pt" height="244pt"
 viewBox="0.00 0.00 194.00 244.00" xmlns="http://www.w3.org/2000/svg" xmlns:xlink="http://www.w3.org/1999/xlink">
<g id="graph0" class="graph" transform="scale(1 1) rotate(0) translate(4 240)">
<polygon fill="white" stroke="none" points="-4,4 -4,-240 190,-240 190,4 -4,4"/>
<g id="clust1" class="cluster">
<title>cluster_mainchain</title>
<polygon fill="none" stroke="black" points="0,-80 0,-157 75,-157 75,-80 0,-80"/>
<text text-anchor="middle" x="37.5" y="-141.8" font-family="Times,serif" font-size="14.00">Mainchain</text>
</g>
<g id="clust2" class="cluster">
<title>cluster_sidechain_a</title>
<polygon fill="none" stroke="black" points="95,-123 95,-228 178,-228 178,-123 95,-123"/>
<text text-anchor="middle" x="136.5" y="-212.8" font-family="Times,serif" font-size="14.00">Sidechain A</text>
</g>
<g id="clust3" class="cluster">
<title>cluster_sidechain_b</title>
<polygon fill="none" stroke="black" points="95,-8 95,-115 178,-115 178,-8 95,-8"/>
<text text-anchor="middle" x="136.5" y="-99.8" font-family="Times,serif" font-size="14.00">Sidechain B</text>
</g>
<!-- mt -->
<g id="node1" class="node">
<title>mt</title>
<path fill="none" stroke="black" d="M44,-126C44,-126 30,-126 30,-126 24,-126 18,-120 18,-114 18,-114 18,-100 18,-100 18,-94 24,-88 30,-88 30,-88 44,-88 44,-88 50,-88 56,-94 56,-100 56,-100 56,-114 56,-114 56,-120 50,-126 44,-126"/>
<text text-anchor="middle" x="37" y="-103.3" font-family="Times,serif" font-size="14.00">MT</text>
</g>
<!-- wa_mt -->
<g id="node2" class="node">
<title>wa_mt</title>
<path fill="none" stroke="black" d="M157,-196.5C157,-196.5 116,-196.5 116,-196.5 110,-196.5 104,-190.5 104,-184.5 104,-184.5 104,-143.5 104,-143.5 104,-137.5 110,-131.5 116,-131.5 116,-131.5 157,-131.5 157,-131.5 163,-131.5 169,-137.5 169,-143.5 169,-143.5 169,-184.5 169,-184.5 169,-190.5 163,-196.5 157,-196.5"/>
<text text-anchor="middle" x="136.5" y="-160.3" font-family="Times,serif" font-size="14.00">Wa(MT)</text>
</g>
<!-- mt&#45;&gt;wa_mt -->
<g id="edge1" class="edge">
<title>mt&#45;&gt;wa_mt</title>
<path fill="none" stroke="black" d="M56.34,-123.13C67.19,-130.59 81.38,-139.3 94.74,-146.84"/>
<polygon fill="black" stroke="black" points="93.37,-150.08 103.81,-151.84 96.75,-143.95 93.37,-150.08"/>
</g>
<!-- wb_mt -->
<g id="node3" class="node">
<title>wb_mt</title>
<path fill="none" stroke="black" d="M158,-83.5C158,-83.5 115,-83.5 115,-83.5 109,-83.5 103,-77.5 103,-71.5 103,-71.5 103,-28.5 103,-28.5 103,-22.5 109,-16.5 115,-16.5 115,-16.5 158,-16.5 158,-16.5 164,-16.5 170,-22.5 170,-28.5 170,-28.5 170,-71.5 170,-71.5 170,-77.5 164,-83.5 158,-83.5"/>
<text text-anchor="middle" x="136.5" y="-46.3" font-family="Times,serif" font-size="14.00">Wb(MT)</text>
</g>
<!-- mt&#45;&gt;wb_mt -->
<g id="edge3" class="edge">
<title>mt&#45;&gt;wb_mt</title>
<path fill="none" stroke="black" d="M56.34,-101.69C66.92,-96.59 80.67,-88.97 93.75,-81.1"/>
<polygon fill="black" stroke="black" points="95.95,-83.85 102.64,-75.63 92.29,-77.89 95.95,-83.85"/>
</g>
<!-- wa_mt&#45;&gt;mt -->
<g id="edge2" class="edge">
<title>wa_mt&#45;&gt;mt</title>
<path fill="none" stroke="black" d="M103.81,-139.11C91.42,-131.28 77.34,-123.13 65.39,-116.87"/>
<polygon fill="black" stroke="black" points="66.84,-113.69 56.34,-112.31 63.69,-119.94 66.84,-113.69"/>
</g>
<!-- wb_mt&#45;&gt;mt -->
<g id="edge4" class="edge">
<title>wb_mt&#45;&gt;mt</title>
<path fill="none" stroke="black" d="M102.64,-62.79C90.33,-69.46 76.5,-77.65 64.81,-85.23"/>
<polygon fill="black" stroke="black" points="62.72,-82.41 56.34,-90.87 66.6,-88.24 62.72,-82.41"/>
</g>
</g>
</svg>
