<?xml version="1.0" encoding="UTF-8" standalone="no"?>
<!DOCTYPE svg PUBLIC "-//W3C//DTD SVG 1.1//EN"
 "http://www.w3.org/Graphics/SVG/1.1/DTD/svg11.dtd">
<!-- Generated by graphviz version 5.0.1 (0)
 -->
<!-- Pages: 1 -->
<svg width="339pt" height="165pt"
 viewBox="0.00 0.00 339.00 165.00" xmlns="http://www.w3.org/2000/svg" xmlns:xlink="http://www.w3.org/1999/xlink">
<g id="graph0" class="graph" transform="scale(1 1) rotate(0) translate(4 161)">
<polygon fill="white" stroke="none" points="-4,4 -4,-161 335,-161 335,4 -4,4"/>
<g id="clust1" class="cluster">
<title>cluster_mainchain</title>
<polygon fill="none" stroke="black" points="8,-8 8,-149 125,-149 125,-8 8,-8"/>
<text text-anchor="middle" x="66.5" y="-133.8" font-family="Times,serif" font-size="14.00">Mainchain</text>
</g>
<g id="clust2" class="cluster">
<title>cluster_sidechain_a</title>
<polygon fill="none" stroke="black" points="145,-25 145,-132 228,-132 228,-25 145,-25"/>
<text text-anchor="middle" x="186.5" y="-116.8" font-family="Times,serif" font-size="14.00">Sidechain A</text>
</g>
<g id="clust3" class="cluster">
<title>cluster_sidechain_b</title>
<polygon fill="none" stroke="black" points="248,-39 248,-118 331,-118 331,-39 248,-39"/>
<text text-anchor="middle" x="289.5" y="-102.8" font-family="Times,serif" font-size="14.00">Sidechain B</text>
</g>
<!-- wm_wa_sbt -->
<g id="node1" class="node">
<title>wm_wa_sbt</title>
<path fill="none" stroke="black" d="M105,-117.5C105,-117.5 28,-117.5 28,-117.5 22,-117.5 16,-111.5 16,-105.5 16,-105.5 16,-28.5 16,-28.5 16,-22.5 22,-16.5 28,-16.5 28,-16.5 105,-16.5 105,-16.5 111,-16.5 117,-22.5 117,-28.5 117,-28.5 117,-105.5 117,-105.5 117,-111.5 111,-117.5 105,-117.5"/>
<text text-anchor="middle" x="66.5" y="-70.8" font-family="Times,serif" font-size="14.00">Wm(Wa(SbT))</text>
<text text-anchor="middle" x="66.5" y="-55.8" font-family="Times,serif" font-size="14.00">(discouraged)</text>
</g>
<!-- wa_sbt -->
<g id="node2" class="node">
<title>wa_sbt</title>
<path fill="none" stroke="black" d="M208,-100.5C208,-100.5 165,-100.5 165,-100.5 159,-100.5 153,-94.5 153,-88.5 153,-88.5 153,-45.5 153,-45.5 153,-39.5 159,-33.5 165,-33.5 165,-33.5 208,-33.5 208,-33.5 214,-33.5 220,-39.5 220,-45.5 220,-45.5 220,-88.5 220,-88.5 220,-94.5 214,-100.5 208,-100.5"/>
<text text-anchor="middle" x="186.5" y="-63.3" font-family="Times,serif" font-size="14.00">Wa(SbT)</text>
</g>
<!-- wm_wa_sbt&#45;&gt;wa_sbt -->
<g id="edge1" class="edge">
<title>wm_wa_sbt&#45;&gt;wa_sbt</title>
<path fill="none" stroke="black" d="M117.2,-73.67C125.7,-73.81 134.47,-73.76 142.77,-73.52"/>
<polygon fill="black" stroke="black" points="143.13,-77 152.98,-73.11 142.85,-70.01 143.13,-77"/>
</g>
<!-- wa_sbt&#45;&gt;wm_wa_sbt -->
<g id="edge4" class="edge">
<title>wa_sbt&#45;&gt;wm_wa_sbt</title>
<path fill="none" stroke="black" d="M152.98,-60.89C145.03,-60.48 136.27,-60.27 127.48,-60.25"/>
<polygon fill="black" stroke="black" points="127.18,-56.75 117.2,-60.33 127.23,-63.75 127.18,-56.75"/>
</g>
<!-- sbt -->
<g id="node3" class="node">
<title>sbt</title>
<path fill="none" stroke="black" d="M297,-86.5C297,-86.5 282,-86.5 282,-86.5 276,-86.5 270,-80.5 270,-74.5 270,-74.5 270,-59.5 270,-59.5 270,-53.5 276,-47.5 282,-47.5 282,-47.5 297,-47.5 297,-47.5 303,-47.5 309,-53.5 309,-59.5 309,-59.5 309,-74.5 309,-74.5 309,-80.5 303,-86.5 297,-86.5"/>
<text text-anchor="middle" x="289.5" y="-63.3" font-family="Times,serif" font-size="14.00">SbT</text>
</g>
<!-- wa_sbt&#45;&gt;sbt -->
<g id="edge2" class="edge">
<title>wa_sbt&#45;&gt;sbt</title>
<path fill="none" stroke="black" d="M220.01,-73.35C232.77,-73.94 247.29,-73.88 259.66,-73.16"/>
<polygon fill="black" stroke="black" points="260.19,-76.63 269.89,-72.37 259.65,-69.66 260.19,-76.63"/>
</g>
<!-- sbt&#45;&gt;wa_sbt -->
<g id="edge3" class="edge">
<title>sbt&#45;&gt;wa_sbt</title>
<path fill="none" stroke="black" d="M269.89,-61.63C258.78,-60.5 244.18,-60.07 230.36,-60.32"/>
<polygon fill="black" stroke="black" points="229.9,-56.83 220.01,-60.65 230.12,-63.83 229.9,-56.83"/>
</g>
</g>
</svg>
