<?xml version="1.0" encoding="UTF-8" standalone="no"?>
<!DOCTYPE svg PUBLIC "-//W3C//DTD SVG 1.1//EN"
 "http://www.w3.org/Graphics/SVG/1.1/DTD/svg11.dtd">
<!-- Generated by graphviz version 5.0.1 (0)
 -->
<!-- Pages: 1 -->
<svg width="325pt" height="159pt"
 viewBox="0.00 0.00 325.00 159.00" xmlns="http://www.w3.org/2000/svg" xmlns:xlink="http://www.w3.org/1999/xlink">
<g id="graph0" class="graph" transform="scale(1 1) rotate(0) translate(4 155)">
<polygon fill="white" stroke="none" points="-4,4 -4,-155 321,-155 321,4 -4,4"/>
<g id="clust1" class="cluster">
<title>cluster_mainchain</title>
<polygon fill="none" stroke="black" points="0,-37 0,-114 75,-114 75,-37 0,-37"/>
<text text-anchor="middle" x="37.5" y="-98.8" font-family="Times,serif" font-size="14.00">Mainchain</text>
</g>
<g id="clust2" class="cluster">
<title>cluster_sidechain_a</title>
<polygon fill="none" stroke="black" points="95,-23 95,-128 178,-128 178,-23 95,-23"/>
<text text-anchor="middle" x="136.5" y="-112.8" font-family="Times,serif" font-size="14.00">Sidechain A</text>
</g>
<g id="clust3" class="cluster">
<title>cluster_sidechain_b</title>
<polygon fill="none" stroke="black" points="198,-8 198,-143 309,-143 309,-8 198,-8"/>
<text text-anchor="middle" x="253.5" y="-127.8" font-family="Times,serif" font-size="14.00">Sidechain B</text>
</g>
<!-- mt -->
<g id="node1" class="node">
<title>mt</title>
<path fill="none" stroke="black" d="M44,-83C44,-83 30,-83 30,-83 24,-83 18,-77 18,-71 18,-71 18,-57 18,-57 18,-51 24,-45 30,-45 30,-45 44,-45 44,-45 50,-45 56,-51 56,-57 56,-57 56,-71 56,-71 56,-77 50,-83 44,-83"/>
<text text-anchor="middle" x="37" y="-60.3" font-family="Times,serif" font-size="14.00">MT</text>
</g>
<!-- wa_mt -->
<g id="node2" class="node">
<title>wa_mt</title>
<path fill="none" stroke="black" d="M157,-96.5C157,-96.5 116,-96.5 116,-96.5 110,-96.5 104,-90.5 104,-84.5 104,-84.5 104,-43.5 104,-43.5 104,-37.5 110,-31.5 116,-31.5 116,-31.5 157,-31.5 157,-31.5 163,-31.5 169,-37.5 169,-43.5 169,-43.5 169,-84.5 169,-84.5 169,-90.5 163,-96.5 157,-96.5"/>
<text text-anchor="middle" x="136.5" y="-60.3" font-family="Times,serif" font-size="14.00">Wa(MT)</text>
</g>
<!-- mt&#45;&gt;wa_mt -->
<g id="edge1" class="edge">
<title>mt&#45;&gt;wa_mt</title>
<path fill="none" stroke="black" d="M56.34,-69.41C66.87,-70.49 80.56,-70.92 93.58,-70.69"/>
<polygon fill="black" stroke="black" points="93.93,-74.18 103.81,-70.37 93.71,-67.19 93.93,-74.18"/>
</g>
<!-- wa_mt&#45;&gt;mt -->
<g id="edge4" class="edge">
<title>wa_mt&#45;&gt;mt</title>
<path fill="none" stroke="black" d="M103.81,-57.63C91.79,-57.07 78.17,-57.13 66.46,-57.8"/>
<polygon fill="black" stroke="black" points="66.04,-54.32 56.34,-58.59 66.58,-61.3 66.04,-54.32"/>
</g>
<!-- wb_wa_mt -->
<g id="node3" class="node">
<title>wb_wa_mt</title>
<path fill="none" stroke="black" d="M289,-111.5C289,-111.5 218,-111.5 218,-111.5 212,-111.5 206,-105.5 206,-99.5 206,-99.5 206,-28.5 206,-28.5 206,-22.5 212,-16.5 218,-16.5 218,-16.5 289,-16.5 289,-16.5 295,-16.5 301,-22.5 301,-28.5 301,-28.5 301,-99.5 301,-99.5 301,-105.5 295,-111.5 289,-111.5"/>
<text text-anchor="middle" x="253.5" y="-60.3" font-family="Times,serif" font-size="14.00">Wb(Wa(MT))</text>
</g>
<!-- wa_mt&#45;&gt;wb_wa_mt -->
<g id="edge2" class="edge">
<title>wa_mt&#45;&gt;wb_wa_mt</title>
<path fill="none" stroke="black" d="M169.23,-70.11C177.44,-70.55 186.54,-70.76 195.61,-70.75"/>
<polygon fill="black" stroke="black" points="195.84,-74.25 205.8,-70.64 195.77,-67.25 195.84,-74.25"/>
</g>
<!-- wb_wa_mt&#45;&gt;wa_mt -->
<g id="edge3" class="edge">
<title>wb_wa_mt&#45;&gt;wa_mt</title>
<path fill="none" stroke="black" d="M205.8,-57.36C197.06,-57.18 187.98,-57.22 179.39,-57.48"/>
<polygon fill="black" stroke="black" points="179.08,-53.99 169.23,-57.89 179.36,-60.98 179.08,-53.99"/>
</g>
</g>
</svg>
