<?xml version="1.0" encoding="UTF-8" standalone="no"?>
<!DOCTYPE svg PUBLIC "-//W3C//DTD SVG 1.1//EN"
 "http://www.w3.org/Graphics/SVG/1.1/DTD/svg11.dtd">
<!-- Generated by graphviz version 5.0.1 (0)
 -->
<!-- Pages: 1 -->
<svg width="319pt" height="135pt"
 viewBox="0.00 0.00 319.00 135.00" xmlns="http://www.w3.org/2000/svg" xmlns:xlink="http://www.w3.org/1999/xlink">
<g id="graph0" class="graph" transform="scale(1 1) rotate(0) translate(4 131)">
<polygon fill="white" stroke="none" points="-4,4 -4,-131 315,-131 315,4 -4,4"/>
<g id="clust1" class="cluster">
<title>cluster_mainchain</title>
<polygon fill="none" stroke="black" points="8,-8 8,-119 96,-119 96,-8 8,-8"/>
<text text-anchor="middle" x="52" y="-103.8" font-family="Times,serif" font-size="14.00">Mainchain</text>
</g>
<g id="clust2" class="cluster">
<title>cluster_sidechain_a</title>
<polygon fill="none" stroke="black" points="116,-25 116,-102 199,-102 199,-25 116,-25"/>
<text text-anchor="middle" x="157.5" y="-86.8" font-family="Times,serif" font-size="14.00">Sidechain A</text>
</g>
<g id="clust3" class="cluster">
<title>cluster_sidechain_b</title>
<polygon fill="none" stroke="black" points="219,-10 219,-117 303,-117 303,-10 219,-10"/>
<text text-anchor="middle" x="261" y="-101.8" font-family="Times,serif" font-size="14.00">Sidechain B</text>
</g>
<!-- wm_sat -->
<g id="node1" class="node">
<title>wm_sat</title>
<path fill="none" stroke="black" d="M76,-88C76,-88 28,-88 28,-88 22,-88 16,-82 16,-76 16,-76 16,-28 16,-28 16,-22 22,-16 28,-16 28,-16 76,-16 76,-16 82,-16 88,-22 88,-28 88,-28 88,-76 88,-76 88,-82 82,-88 76,-88"/>
<text text-anchor="middle" x="52" y="-48.3" font-family="Times,serif" font-size="14.00">Wm(SaT)</text>
</g>
<!-- sat -->
<g id="node2" class="node">
<title>sat</title>
<path fill="none" stroke="black" d="M164,-71C164,-71 150,-71 150,-71 144,-71 138,-65 138,-59 138,-59 138,-45 138,-45 138,-39 144,-33 150,-33 150,-33 164,-33 164,-33 170,-33 176,-39 176,-45 176,-45 176,-59 176,-59 176,-65 170,-71 164,-71"/>
<text text-anchor="middle" x="157" y="-48.3" font-family="Times,serif" font-size="14.00">SaT</text>
</g>
<!-- wm_sat&#45;&gt;sat -->
<g id="edge1" class="edge">
<title>wm_sat&#45;&gt;sat</title>
<path fill="none" stroke="black" d="M88.16,-58.44C101.05,-58.95 115.47,-58.83 127.68,-58.1"/>
<polygon fill="black" stroke="black" points="128.07,-61.58 137.76,-57.3 127.51,-54.6 128.07,-61.58"/>
</g>
<!-- sat&#45;&gt;wm_sat -->
<g id="edge4" class="edge">
<title>sat&#45;&gt;wm_sat</title>
<path fill="none" stroke="black" d="M137.76,-46.7C126.72,-45.56 112.12,-45.09 98.16,-45.3"/>
<polygon fill="black" stroke="black" points="98.06,-41.8 88.16,-45.56 98.25,-48.79 98.06,-41.8"/>
</g>
<!-- wb_sat -->
<g id="node3" class="node">
<title>wb_sat</title>
<path fill="none" stroke="black" d="M283,-86C283,-86 239,-86 239,-86 233,-86 227,-80 227,-74 227,-74 227,-30 227,-30 227,-24 233,-18 239,-18 239,-18 283,-18 283,-18 289,-18 295,-24 295,-30 295,-30 295,-74 295,-74 295,-80 289,-86 283,-86"/>
<text text-anchor="middle" x="261" y="-48.3" font-family="Times,serif" font-size="14.00">Wb(SaT)</text>
</g>
<!-- sat&#45;&gt;wb_sat -->
<g id="edge2" class="edge">
<title>sat&#45;&gt;wb_sat</title>
<path fill="none" stroke="black" d="M176.24,-57.32C187.49,-58.48 202.43,-58.93 216.57,-58.68"/>
<polygon fill="black" stroke="black" points="216.78,-62.18 226.67,-58.38 216.57,-55.18 216.78,-62.18"/>
</g>
<!-- wb_sat&#45;&gt;sat -->
<g id="edge3" class="edge">
<title>wb_sat&#45;&gt;sat</title>
<path fill="none" stroke="black" d="M226.67,-45.62C213.7,-45.05 198.99,-45.14 186.52,-45.87"/>
<polygon fill="black" stroke="black" points="185.93,-42.41 176.24,-46.68 186.48,-49.38 185.93,-42.41"/>
</g>
</g>
</svg>
