<?xml version="1.0" encoding="UTF-8" standalone="no"?>
<!DOCTYPE svg PUBLIC "-//W3C//DTD SVG 1.1//EN"
 "http://www.w3.org/Graphics/SVG/1.1/DTD/svg11.dtd">
<!-- Generated by graphviz version 5.0.1 (0)
 -->
<!-- Pages: 1 -->
<svg width="325pt" height="159pt"
 viewBox="0.00 0.00 325.00 159.00" xmlns="http://www.w3.org/2000/svg" xmlns:xlink="http://www.w3.org/1999/xlink">
<g id="graph0" class="graph" transform="scale(1 1) rotate(0) translate(4 155)">
<polygon fill="white" stroke="none" points="-4,4 -4,-155 321,-155 321,4 -4,4"/>
<g id="clust1" class="cluster">
<title>cluster_mainchain</title>
<polygon fill="none" stroke="black" points="0,-14 0,-91 75,-91 75,-14 0,-14"/>
<text text-anchor="middle" x="37.5" y="-75.8" font-family="Times,serif" font-size="14.00">Mainchain</text>
</g>
<g id="clust2" class="cluster">
<title>cluster_sidechain_a</title>
<polygon fill="none" stroke="black" points="95,-30 95,-135 178,-135 178,-30 95,-30"/>
<text text-anchor="middle" x="136.5" y="-119.8" font-family="Times,serif" font-size="14.00">Sidechain A</text>
</g>
<g id="clust3" class="cluster">
<title>cluster_sidechain_b</title>
<polygon fill="none" stroke="black" points="198,-8 198,-143 309,-143 309,-8 198,-8"/>
<text text-anchor="middle" x="253.5" y="-127.8" font-family="Times,serif" font-size="14.00">Sidechain B</text>
</g>
<!-- mt -->
<g id="node1" class="node">
<title>mt</title>
<path fill="none" stroke="black" d="M44,-60C44,-60 30,-60 30,-60 24,-60 18,-54 18,-48 18,-48 18,-34 18,-34 18,-28 24,-22 30,-22 30,-22 44,-22 44,-22 50,-22 56,-28 56,-34 56,-34 56,-48 56,-48 56,-54 50,-60 44,-60"/>
<text text-anchor="middle" x="37" y="-37.3" font-family="Times,serif" font-size="14.00">MT</text>
</g>
<!-- wa_mt -->
<g id="node2" class="node">
<title>wa_mt</title>
<path fill="none" stroke="black" d="M157,-103.5C157,-103.5 116,-103.5 116,-103.5 110,-103.5 104,-97.5 104,-91.5 104,-91.5 104,-50.5 104,-50.5 104,-44.5 110,-38.5 116,-38.5 116,-38.5 157,-38.5 157,-38.5 163,-38.5 169,-44.5 169,-50.5 169,-50.5 169,-91.5 169,-91.5 169,-97.5 163,-103.5 157,-103.5"/>
<text text-anchor="middle" x="136.5" y="-67.3" font-family="Times,serif" font-size="14.00">Wa(MT)</text>
</g>
<!-- mt&#45;&gt;wa_mt -->
<g id="edge1" class="edge">
<title>mt&#45;&gt;wa_mt</title>
<path fill="none" stroke="black" d="M56.34,-46.64C66.98,-49.92 80.83,-54.18 93.97,-58.22"/>
<polygon fill="black" stroke="black" points="93.23,-61.65 103.81,-61.25 95.28,-54.96 93.23,-61.65"/>
</g>
<!-- wb_wa_mt -->
<g id="node3" class="node">
<title>wb_wa_mt</title>
<path fill="none" stroke="black" d="M289,-111.5C289,-111.5 218,-111.5 218,-111.5 212,-111.5 206,-105.5 206,-99.5 206,-99.5 206,-28.5 206,-28.5 206,-22.5 212,-16.5 218,-16.5 218,-16.5 289,-16.5 289,-16.5 295,-16.5 301,-22.5 301,-28.5 301,-28.5 301,-99.5 301,-99.5 301,-105.5 295,-111.5 289,-111.5"/>
<text text-anchor="middle" x="253.5" y="-60.3" font-family="Times,serif" font-size="14.00">Wb(Wa(MT))</text>
</g>
<!-- wa_mt&#45;&gt;wb_wa_mt -->
<g id="edge2" class="edge">
<title>wa_mt&#45;&gt;wb_wa_mt</title>
<path fill="none" stroke="black" d="M169.23,-69.07C177.44,-68.57 186.54,-68.02 195.61,-67.46"/>
<polygon fill="black" stroke="black" points="196.03,-70.94 205.8,-66.84 195.61,-63.96 196.03,-70.94"/>
</g>
<!-- wb_wa_mt&#45;&gt;mt -->
<g id="edge3" class="edge">
<title>wb_wa_mt&#45;&gt;mt</title>
<path fill="none" stroke="black" d="M205.7,-35.98C196.78,-31.85 187.32,-28.24 178,-26 142.13,-17.38 131.58,-21.27 95,-26 85.41,-27.24 75.14,-29.61 66,-32.1"/>
<polygon fill="black" stroke="black" points="64.88,-28.78 56.24,-34.92 66.82,-35.5 64.88,-28.78"/>
</g>
</g>
</svg>
