<?xml version="1.0" encoding="UTF-8" standalone="no"?>
<!DOCTYPE svg PUBLIC "-//W3C//DTD SVG 1.1//EN"
 "http://www.w3.org/Graphics/SVG/1.1/DTD/svg11.dtd">
<!-- Generated by graphviz version 5.0.1 (0)
 -->
<!-- Pages: 1 -->
<svg width="402pt" height="247pt"
 viewBox="0.00 0.00 402.00 247.00" xmlns="http://www.w3.org/2000/svg" xmlns:xlink="http://www.w3.org/1999/xlink">
<g id="graph0" class="graph" transform="scale(1 1) rotate(0) translate(4 243)">
<polygon fill="white" stroke="none" points="-4,4 -4,-243 398,-243 398,4 -4,4"/>
<g id="clust1" class="cluster">
<title>cluster_mainchain</title>
<polygon fill="none" stroke="black" points="8,-8 8,-231 152,-231 152,-8 8,-8"/>
<text text-anchor="middle" x="80" y="-215.8" font-family="Times,serif" font-size="14.00">Mainchain</text>
</g>
<g id="clust2" class="cluster">
<title>cluster_sidechain_a</title>
<polygon fill="none" stroke="black" points="172,-108 172,-213 255,-213 255,-108 172,-108"/>
<text text-anchor="middle" x="213.5" y="-197.8" font-family="Times,serif" font-size="14.00">Sidechain A</text>
</g>
<g id="clust3" class="cluster">
<title>cluster_sidechain_b</title>
<polygon fill="none" stroke="black" points="275,-60 275,-195 386,-195 386,-60 275,-60"/>
<text text-anchor="middle" x="330.5" y="-179.8" font-family="Times,serif" font-size="14.00">Sidechain B</text>
</g>
<!-- mt -->
<g id="node1" class="node">
<title>mt</title>
<path fill="none" stroke="black" d="M87,-200C87,-200 73,-200 73,-200 67,-200 61,-194 61,-188 61,-188 61,-174 61,-174 61,-168 67,-162 73,-162 73,-162 87,-162 87,-162 93,-162 99,-168 99,-174 99,-174 99,-188 99,-188 99,-194 93,-200 87,-200"/>
<text text-anchor="middle" x="80" y="-177.3" font-family="Times,serif" font-size="14.00">MT</text>
</g>
<!-- wa_mt -->
<g id="node3" class="node">
<title>wa_mt</title>
<path fill="none" stroke="black" d="M234,-181.5C234,-181.5 193,-181.5 193,-181.5 187,-181.5 181,-175.5 181,-169.5 181,-169.5 181,-128.5 181,-128.5 181,-122.5 187,-116.5 193,-116.5 193,-116.5 234,-116.5 234,-116.5 240,-116.5 246,-122.5 246,-128.5 246,-128.5 246,-169.5 246,-169.5 246,-175.5 240,-181.5 234,-181.5"/>
<text text-anchor="middle" x="213.5" y="-145.3" font-family="Times,serif" font-size="14.00">Wa(MT)</text>
</g>
<!-- mt&#45;&gt;wa_mt -->
<g id="edge1" class="edge">
<title>mt&#45;&gt;wa_mt</title>
<path fill="none" stroke="black" d="M99.01,-176.62C117.41,-172.14 146.64,-165.03 170.83,-159.14"/>
<polygon fill="black" stroke="black" points="171.95,-162.47 180.84,-156.71 170.29,-155.67 171.95,-162.47"/>
</g>
<!-- wm_wb_wa_mt -->
<g id="node2" class="node">
<title>wm_wb_wa_mt</title>
<path fill="none" stroke="black" d="M132,-144C132,-144 28,-144 28,-144 22,-144 16,-138 16,-132 16,-132 16,-28 16,-28 16,-22 22,-16 28,-16 28,-16 132,-16 132,-16 138,-16 144,-22 144,-28 144,-28 144,-132 144,-132 144,-138 138,-144 132,-144"/>
<text text-anchor="middle" x="80" y="-76.3" font-family="Times,serif" font-size="14.00">Wm(Wb(Wa(MT)))</text>
</g>
<!-- wb_wa_mt -->
<g id="node4" class="node">
<title>wb_wa_mt</title>
<path fill="none" stroke="black" d="M366,-163.5C366,-163.5 295,-163.5 295,-163.5 289,-163.5 283,-157.5 283,-151.5 283,-151.5 283,-80.5 283,-80.5 283,-74.5 289,-68.5 295,-68.5 295,-68.5 366,-68.5 366,-68.5 372,-68.5 378,-74.5 378,-80.5 378,-80.5 378,-151.5 378,-151.5 378,-157.5 372,-163.5 366,-163.5"/>
<text text-anchor="middle" x="330.5" y="-112.3" font-family="Times,serif" font-size="14.00">Wb(Wa(MT))</text>
</g>
<!-- wa_mt&#45;&gt;wb_wa_mt -->
<g id="edge2" class="edge">
<title>wa_mt&#45;&gt;wb_wa_mt</title>
<path fill="none" stroke="black" d="M246.23,-139.9C254.53,-137.51 263.73,-134.87 272.9,-132.24"/>
<polygon fill="black" stroke="black" points="274.15,-135.52 282.8,-129.4 272.22,-128.79 274.15,-135.52"/>
</g>
<!-- wb_wa_mt&#45;&gt;wm_wb_wa_mt -->
<g id="edge3" class="edge">
<title>wb_wa_mt&#45;&gt;wm_wb_wa_mt</title>
<path fill="none" stroke="black" d="M282.63,-108.28C273.47,-106.82 263.94,-105.34 255,-104 222.08,-99.08 185.6,-93.99 154.57,-89.77"/>
<polygon fill="black" stroke="black" points="154.66,-86.25 144.28,-88.38 153.72,-93.19 154.66,-86.25"/>
</g>
</g>
</svg>
