<?xml version="1.0" encoding="UTF-8" standalone="no"?>
<!DOCTYPE svg PUBLIC "-//W3C//DTD SVG 1.1//EN"
 "http://www.w3.org/Graphics/SVG/1.1/DTD/svg11.dtd">
<!-- Generated by graphviz version 5.0.1 (0)
 -->
<!-- Pages: 1 -->
<svg width="1035pt" height="224pt"
 viewBox="0.00 0.00 1035.00 224.00" xmlns="http://www.w3.org/2000/svg" xmlns:xlink="http://www.w3.org/1999/xlink">
<g id="graph0" class="graph" transform="scale(1 1) rotate(0) translate(4 220)">
<polygon fill="white" stroke="none" points="-4,4 -4,-220 1031,-220 1031,4 -4,4"/>
<!-- LockBoxValidator1 -->
<g id="node1" class="node">
<title>LockBoxValidator1</title>
<polygon fill="none" stroke="black" points="0,-177.5 0,-215.5 283,-215.5 283,-177.5 0,-177.5"/>
<text text-anchor="middle" x="141.5" y="-200.3" font-family="Times,serif" font-size="14.00">LockBoxValidator with 3 `MCToken`s</text>
<text text-anchor="middle" x="141.5" y="-185.3" font-family="Times,serif" font-size="14.00"> with token name `&quot;&quot;`</text>
</g>
<!-- Transaction -->
<g id="node4" class="node">
<title>Transaction</title>
<polygon fill="none" stroke="black" points="442.5,-126 349.83,-108 442.5,-90 535.17,-108 442.5,-126"/>
<text text-anchor="middle" x="442.5" y="-104.3" font-family="Times,serif" font-size="14.00">Transaction</text>
</g>
<!-- LockBoxValidator1&#45;&gt;Transaction -->
<g id="edge1" class="edge">
<title>LockBoxValidator1&#45;&gt;Transaction</title>
<path fill="none" stroke="black" d="M204.23,-177.47C261.9,-160.9 345.99,-136.74 397.31,-121.99"/>
<polygon fill="black" stroke="black" points="398.48,-125.29 407.12,-119.17 396.55,-118.56 398.48,-125.29"/>
<text text-anchor="middle" x="338.5" y="-147.8" font-family="Times,serif" font-size="14.00">input</text>
</g>
<!-- LockBoxValidator2 -->
<g id="node2" class="node">
<title>LockBoxValidator2</title>
<polygon fill="none" stroke="black" points="301,-177.5 301,-215.5 584,-215.5 584,-177.5 301,-177.5"/>
<text text-anchor="middle" x="442.5" y="-200.3" font-family="Times,serif" font-size="14.00">LockBoxValidator with 8 `MCToken`s</text>
<text text-anchor="middle" x="442.5" y="-185.3" font-family="Times,serif" font-size="14.00"> with token name `&quot;&quot;`</text>
</g>
<!-- LockBoxValidator2&#45;&gt;Transaction -->
<g id="edge2" class="edge">
<title>LockBoxValidator2&#45;&gt;Transaction</title>
<path fill="none" stroke="black" d="M442.5,-177.16C442.5,-165.26 442.5,-149.55 442.5,-136.21"/>
<polygon fill="black" stroke="black" points="446,-136.14 442.5,-126.14 439,-136.14 446,-136.14"/>
<text text-anchor="middle" x="461.5" y="-147.8" font-family="Times,serif" font-size="14.00">input</text>
</g>
<!-- UserWallet1 -->
<g id="node3" class="node">
<title>UserWallet1</title>
<polygon fill="none" stroke="black" points="602,-177.5 602,-215.5 1027,-215.5 1027,-177.5 602,-177.5"/>
<text text-anchor="middle" x="814.5" y="-200.3" font-family="Times,serif" font-size="14.00">User wallet with 10 UnlockMintingPolicy tokens</text>
<text text-anchor="middle" x="814.5" y="-185.3" font-family="Times,serif" font-size="14.00">with token name `blake2b(serialiseData((MCToken, &quot;&quot;)))`</text>
</g>
<!-- UserWallet1&#45;&gt;Transaction -->
<g id="edge3" class="edge">
<title>UserWallet1&#45;&gt;Transaction</title>
<path fill="none" stroke="black" d="M736.97,-177.47C663.55,-160.4 555.47,-135.27 492.71,-120.67"/>
<polygon fill="black" stroke="black" points="493.19,-117.19 482.66,-118.34 491.61,-124.01 493.19,-117.19"/>
<text text-anchor="middle" x="670.5" y="-147.8" font-family="Times,serif" font-size="14.00">input</text>
</g>
<!-- LockBoxValidator3 -->
<g id="node5" class="node">
<title>LockBoxValidator3</title>
<polygon fill="none" stroke="black" points="18,-0.5 18,-38.5 301,-38.5 301,-0.5 18,-0.5"/>
<text text-anchor="middle" x="159.5" y="-23.3" font-family="Times,serif" font-size="14.00">LockBoxValidator with 1 `MCToken`s</text>
<text text-anchor="middle" x="159.5" y="-8.3" font-family="Times,serif" font-size="14.00">with token name `&quot;&quot;`</text>
</g>
<!-- Transaction&#45;&gt;LockBoxValidator3 -->
<g id="edge4" class="edge">
<title>Transaction&#45;&gt;LockBoxValidator3</title>
<path fill="none" stroke="black" d="M408.36,-96.57C363.89,-82.97 285.1,-58.89 228.06,-41.46"/>
<polygon fill="black" stroke="black" points="228.98,-38.08 218.4,-38.5 226.94,-44.77 228.98,-38.08"/>
<text text-anchor="middle" x="350.5" y="-60.8" font-family="Times,serif" font-size="14.00">output</text>
</g>
<!-- UserWallet2 -->
<g id="node6" class="node">
<title>UserWallet2</title>
<polygon fill="none" stroke="black" points="319,-0.5 319,-38.5 566,-38.5 566,-0.5 319,-0.5"/>
<text text-anchor="middle" x="442.5" y="-23.3" font-family="Times,serif" font-size="14.00">UserWallet with 10 `MCToken`s</text>
<text text-anchor="middle" x="442.5" y="-8.3" font-family="Times,serif" font-size="14.00">with token name `&quot;&quot;`</text>
</g>
<!-- Transaction&#45;&gt;UserWallet2 -->
<g id="edge5" class="edge">
<title>Transaction&#45;&gt;UserWallet2</title>
<path fill="none" stroke="black" d="M442.5,-89.91C442.5,-78.26 442.5,-62.54 442.5,-49.01"/>
<polygon fill="black" stroke="black" points="446,-48.75 442.5,-38.75 439,-48.75 446,-48.75"/>
<text text-anchor="middle" x="466.5" y="-60.8" font-family="Times,serif" font-size="14.00">output</text>
</g>
<!-- UnlockMintingPolicy -->
<g id="node7" class="node">
<title>UnlockMintingPolicy</title>
<polygon fill="none" stroke="black" points="584.5,-1.5 584.5,-37.5 748.5,-37.5 748.5,-1.5 584.5,-1.5"/>
<text text-anchor="middle" x="666.5" y="-15.8" font-family="Times,serif" font-size="14.00">UnlockMintingPolicy</text>
</g>
<!-- Transaction&#45;&gt;UnlockMintingPolicy -->
<g id="edge6" class="edge">
<title>Transaction&#45;&gt;UnlockMintingPolicy</title>
<path fill="none" stroke="black" d="M472.25,-95.51C508.06,-81.68 568.88,-58.2 612.93,-41.18"/>
<polygon fill="black" stroke="black" points="614.28,-44.42 622.35,-37.55 611.76,-37.89 614.28,-44.42"/>
<text text-anchor="middle" x="589.5" y="-60.8" font-family="Times,serif" font-size="14.00">burns</text>
</g>
</g>
</svg>
