<?xml version="1.0" encoding="UTF-8" standalone="no"?>
<!DOCTYPE svg PUBLIC "-//W3C//DTD SVG 1.1//EN"
 "http://www.w3.org/Graphics/SVG/1.1/DTD/svg11.dtd">
<!-- Generated by graphviz version 5.0.1 (0)
 -->
<!-- Pages: 1 -->
<svg width="971pt" height="219pt"
 viewBox="0.00 0.00 971.00 219.00" xmlns="http://www.w3.org/2000/svg" xmlns:xlink="http://www.w3.org/1999/xlink">
<g id="graph0" class="graph" transform="scale(1 1) rotate(0) translate(4 215)">
<polygon fill="white" stroke="none" points="-4,4 -4,-215 967,-215 967,4 -4,4"/>
<!-- Transaction -->
<g id="node1" class="node">
<title>Transaction</title>
<polygon fill="none" stroke="black" points="397.5,-211 304.83,-193 397.5,-175 490.17,-193 397.5,-211"/>
<text text-anchor="middle" x="397.5" y="-189.3" font-family="Times,serif" font-size="14.00">Transaction</text>
</g>
<!-- LockBoxOracleMintingPolicy -->
<g id="node2" class="node">
<title>LockBoxOracleMintingPolicy</title>
<ellipse fill="none" stroke="black" cx="502.5" cy="-106" rx="143.77" ry="18"/>
<text text-anchor="middle" x="502.5" y="-102.3" font-family="Times,serif" font-size="14.00">LockBoxOracleMintingPolicy</text>
</g>
<!-- Transaction&#45;&gt;LockBoxOracleMintingPolicy -->
<g id="edge1" class="edge">
<title>Transaction&#45;&gt;LockBoxOracleMintingPolicy</title>
<path fill="none" stroke="black" d="M414.84,-177.96C430.77,-165.07 454.7,-145.7 473.53,-130.45"/>
<polygon fill="black" stroke="black" points="475.95,-133 481.52,-123.99 471.54,-127.56 475.95,-133"/>
<text text-anchor="middle" x="476" y="-145.8" font-family="Times,serif" font-size="14.00">mints</text>
</g>
<!-- LockBoxValidator1 -->
<g id="node3" class="node">
<title>LockBoxValidator1</title>
<polygon fill="none" stroke="black" points="0,-0.5 0,-36.5 309,-36.5 309,-0.5 0,-0.5"/>
<text text-anchor="middle" x="154.5" y="-14.8" font-family="Times,serif" font-size="14.00">LockBoxValidator with datum `McToken`</text>
</g>
<!-- Transaction&#45;&gt;LockBoxValidator1 -->
<g id="edge5" class="edge">
<title>Transaction&#45;&gt;LockBoxValidator1</title>
<path fill="none" stroke="black" d="M360.84,-182.08C326.89,-171.61 276.26,-152.62 239.5,-124 210.99,-101.81 185.94,-68.34 170.55,-45.29"/>
<polygon fill="black" stroke="black" points="173.34,-43.17 164.94,-36.71 167.48,-47 173.34,-43.17"/>
<text text-anchor="middle" x="263.5" y="-102.3" font-family="Times,serif" font-size="14.00">output</text>
</g>
<!-- LockBoxValidator2 -->
<g id="node4" class="node">
<title>LockBoxValidator2</title>
<polygon fill="none" stroke="black" points="654,-0.5 654,-36.5 963,-36.5 963,-0.5 654,-0.5"/>
<text text-anchor="middle" x="808.5" y="-14.8" font-family="Times,serif" font-size="14.00">LockBoxValidator with datum `McToken`</text>
</g>
<!-- Transaction&#45;&gt;LockBoxValidator2 -->
<g id="edge6" class="edge">
<title>Transaction&#45;&gt;LockBoxValidator2</title>
<path fill="none" stroke="black" d="M467.21,-188.48C553.05,-180.48 698.19,-154.42 785.5,-70 792.17,-63.55 797.08,-54.81 800.6,-46.41"/>
<polygon fill="black" stroke="black" points="803.95,-47.46 804.13,-36.86 797.38,-45.03 803.95,-47.46"/>
<text text-anchor="middle" x="786.5" y="-102.3" font-family="Times,serif" font-size="14.00">output</text>
</g>
<!-- LockBoxValidator3 -->
<g id="node5" class="node">
<title>LockBoxValidator3</title>
<polygon fill="none" stroke="black" points="327,-0.5 327,-36.5 636,-36.5 636,-0.5 327,-0.5"/>
<text text-anchor="middle" x="481.5" y="-14.8" font-family="Times,serif" font-size="14.00">LockBoxValidator with datum `McToken`</text>
</g>
<!-- Transaction&#45;&gt;LockBoxValidator3 -->
<g id="edge7" class="edge">
<title>Transaction&#45;&gt;LockBoxValidator3</title>
<path fill="none" stroke="black" d="M368.53,-180.46C345.71,-169.63 315.48,-151.03 301.5,-124 287.38,-96.69 285.31,-77.28 306.5,-55 312.42,-48.78 323.96,-43.59 338.42,-39.28"/>
<polygon fill="black" stroke="black" points="339.59,-42.59 348.31,-36.57 337.74,-35.83 339.59,-42.59"/>
<text text-anchor="middle" x="325.5" y="-102.3" font-family="Times,serif" font-size="14.00">output</text>
</g>
<!-- LockBoxOracleMintingPolicy&#45;&gt;LockBoxValidator1 -->
<g id="edge2" class="edge">
<title>LockBoxOracleMintingPolicy&#45;&gt;LockBoxValidator1</title>
<path fill="none" stroke="black" stroke-dasharray="5,2" d="M440.28,-89.71C382.57,-75.53 296.4,-54.36 233.78,-38.98"/>
<polygon fill="black" stroke="black" points="234.49,-35.55 223.94,-36.56 232.82,-42.35 234.49,-35.55"/>
<text text-anchor="middle" x="414" y="-58.8" font-family="Times,serif" font-size="14.00">pays a token to</text>
</g>
<!-- LockBoxOracleMintingPolicy&#45;&gt;LockBoxValidator2 -->
<g id="edge3" class="edge">
<title>LockBoxOracleMintingPolicy&#45;&gt;LockBoxValidator2</title>
<path fill="none" stroke="black" stroke-dasharray="5,2" d="M556.51,-89.22C590.83,-79.26 636.23,-66.2 676.5,-55 695.29,-49.77 715.62,-44.25 734.56,-39.15"/>
<polygon fill="black" stroke="black" points="735.57,-42.5 744.32,-36.52 733.76,-35.74 735.57,-42.5"/>
<text text-anchor="middle" x="731" y="-58.8" font-family="Times,serif" font-size="14.00">pays a token to</text>
</g>
<!-- LockBoxOracleMintingPolicy&#45;&gt;LockBoxValidator3 -->
<g id="edge4" class="edge">
<title>LockBoxOracleMintingPolicy&#45;&gt;LockBoxValidator3</title>
<path fill="none" stroke="black" stroke-dasharray="5,2" d="M498.25,-87.7C495.35,-75.88 491.44,-59.98 488.13,-46.5"/>
<polygon fill="black" stroke="black" points="491.53,-45.65 485.74,-36.78 484.73,-47.32 491.53,-45.65"/>
<text text-anchor="middle" x="548" y="-58.8" font-family="Times,serif" font-size="14.00">pays a token to</text>
</g>
</g>
</svg>
