<?xml version="1.0" encoding="UTF-8" standalone="no"?>
<!DOCTYPE svg PUBLIC "-//W3C//DTD SVG 1.1//EN"
 "http://www.w3.org/Graphics/SVG/1.1/DTD/svg11.dtd">
<!-- Generated by graphviz version 5.0.1 (0)
 -->
<!-- Pages: 1 -->
<svg width="1651pt" height="420pt"
 viewBox="0.00 0.00 1650.50 420.00" xmlns="http://www.w3.org/2000/svg" xmlns:xlink="http://www.w3.org/1999/xlink">
<g id="graph0" class="graph" transform="scale(1 1) rotate(0) translate(4 416)">
<polygon fill="white" stroke="none" points="-4,4 -4,-416 1646.5,-416 1646.5,4 -4,4"/>
<!-- DistributedSetNode -->
<g id="node1" class="node">
<title>DistributedSetNode</title>
<polygon fill="none" stroke="black" points="495.5,-374.5 495.5,-410.5 659.5,-410.5 659.5,-374.5 495.5,-374.5"/>
<text text-anchor="middle" x="577.5" y="-388.8" font-family="Times,serif" font-size="14.00">Distributed set node</text>
</g>
<!-- Transaction -->
<g id="node4" class="node">
<title>Transaction</title>
<polygon fill="none" stroke="black" points="830.5,-286 737.83,-268 830.5,-250 923.17,-268 830.5,-286"/>
<text text-anchor="middle" x="830.5" y="-264.3" font-family="Times,serif" font-size="14.00">Transaction</text>
</g>
<!-- DistributedSetNode&#45;&gt;Transaction -->
<g id="edge4" class="edge">
<title>DistributedSetNode&#45;&gt;Transaction</title>
<path fill="none" stroke="black" d="M612.68,-374.47C661.18,-350.98 748.02,-308.94 796.1,-285.66"/>
<polygon fill="black" stroke="black" points="797.7,-288.77 805.18,-281.26 794.65,-282.47 797.7,-288.77"/>
<text text-anchor="middle" x="738.5" y="-325.8" font-family="Times,serif" font-size="14.00">input</text>
</g>
<!-- MerkleRoot -->
<g id="node2" class="node">
<title>MerkleRoot</title>
<polygon fill="none" stroke="black" points="732,-374.5 732,-410.5 999,-410.5 999,-374.5 732,-374.5"/>
<text text-anchor="middle" x="865.5" y="-388.8" font-family="Times,serif" font-size="14.00">Merkle root of `MerkleTreeEntry`s</text>
</g>
<!-- MerkleRoot&#45;&gt;Transaction -->
<g id="edge5" class="edge">
<title>MerkleRoot&#45;&gt;Transaction</title>
<path fill="none" stroke="black" d="M860.63,-374.47C854.74,-353.85 844.76,-318.92 837.91,-294.95"/>
<polygon fill="black" stroke="black" points="841.22,-293.76 835.1,-285.11 834.48,-295.69 841.22,-293.76"/>
<text text-anchor="middle" x="904" y="-325.8" font-family="Times,serif" font-size="14.00">reference input</text>
</g>
<!-- LockBoxValidator1 -->
<g id="node3" class="node">
<title>LockBoxValidator1</title>
<polygon fill="none" stroke="black" points="1207,-373.5 1207,-411.5 1616,-411.5 1616,-373.5 1207,-373.5"/>
<text text-anchor="middle" x="1411.5" y="-396.3" font-family="Times,serif" font-size="14.00">LockBoxValidator with `ki` `MCToken`s</text>
<text text-anchor="middle" x="1411.5" y="-381.3" font-family="Times,serif" font-size="14.00">uniquely identified with `LockBoxOracleMintingPolicy`</text>
</g>
<!-- LockBoxValidator1&#45;&gt;Transaction -->
<g id="edge1" class="edge">
<title>LockBoxValidator1&#45;&gt;Transaction</title>
<path fill="none" stroke="black" d="M1326.08,-373.49C1203.95,-347.74 983.11,-301.18 882.71,-280.01"/>
<polygon fill="black" stroke="black" points="883.31,-276.56 872.8,-277.92 881.86,-283.41 883.31,-276.56"/>
<text text-anchor="middle" x="1156.5" y="-325.8" font-family="Times,serif" font-size="14.00">input</text>
</g>
<!-- Recipient -->
<g id="node7" class="node">
<title>Recipient</title>
<polygon fill="none" stroke="black" points="1212.5,-0.5 1212.5,-36.5 1296.5,-36.5 1296.5,-0.5 1212.5,-0.5"/>
<text text-anchor="middle" x="1254.5" y="-14.8" font-family="Times,serif" font-size="14.00">Recipient</text>
</g>
<!-- LockBoxValidator1&#45;&gt;Recipient -->
<g id="edge2" class="edge">
<title>LockBoxValidator1&#45;&gt;Recipient</title>
<path fill="none" stroke="black" stroke-dasharray="5,2" d="M1411.49,-373.32C1410.9,-329.13 1406.02,-213.18 1372.5,-124 1363,-98.73 1358.71,-91.97 1339.5,-73 1327.27,-60.93 1311.86,-50.22 1297.53,-41.62"/>
<polygon fill="black" stroke="black" points="1299.2,-38.53 1288.79,-36.54 1295.68,-44.59 1299.2,-38.53"/>
<text text-anchor="middle" x="1519" y="-202.8" font-family="Times,serif" font-size="14.00">`k` `MCToken`s are transferred to</text>
</g>
<!-- UnlockMintingPolicy -->
<g id="node5" class="node">
<title>UnlockMintingPolicy</title>
<polygon fill="none" stroke="black" points="1172.5,-125.5 1172.5,-161.5 1336.5,-161.5 1336.5,-125.5 1172.5,-125.5"/>
<text text-anchor="middle" x="1254.5" y="-139.8" font-family="Times,serif" font-size="14.00">UnlockMintingPolicy</text>
</g>
<!-- Transaction&#45;&gt;UnlockMintingPolicy -->
<g id="edge8" class="edge">
<title>Transaction&#45;&gt;UnlockMintingPolicy</title>
<path fill="none" stroke="black" d="M865.92,-256.77C936.21,-236.46 1094.39,-190.76 1185.78,-164.35"/>
<polygon fill="black" stroke="black" points="1186.86,-167.68 1195.5,-161.55 1184.92,-160.96 1186.86,-167.68"/>
<text text-anchor="middle" x="1114" y="-202.8" font-family="Times,serif" font-size="14.00">mints `k` tokens</text>
</g>
<!-- LockBoxValidator2 -->
<g id="node6" class="node">
<title>LockBoxValidator2</title>
<polygon fill="none" stroke="black" points="0,-124.5 0,-162.5 409,-162.5 409,-124.5 0,-124.5"/>
<text text-anchor="middle" x="204.5" y="-147.3" font-family="Times,serif" font-size="14.00">LockBoxValidator with `ki &#45; k` `MCToken`s</text>
<text text-anchor="middle" x="204.5" y="-132.3" font-family="Times,serif" font-size="14.00">uniquely identified with `LockBoxOracleMintingPolicy`</text>
</g>
<!-- Transaction&#45;&gt;LockBoxValidator2 -->
<g id="edge3" class="edge">
<title>Transaction&#45;&gt;LockBoxValidator2</title>
<path fill="none" stroke="black" d="M771.81,-261.33C696.78,-253.51 563.11,-237.65 450.5,-214 388.4,-200.96 318.94,-180.81 269.71,-165.56"/>
<polygon fill="black" stroke="black" points="270.73,-162.21 260.14,-162.58 268.64,-168.89 270.73,-162.21"/>
<text text-anchor="middle" x="474.5" y="-202.8" font-family="Times,serif" font-size="14.00">output</text>
</g>
<!-- Transaction&#45;&gt;Recipient -->
<g id="edge9" class="edge">
<title>Transaction&#45;&gt;Recipient</title>
<path fill="none" stroke="black" d="M785.32,-258.69C700.02,-241.11 529.12,-195.8 590.5,-124 669.47,-31.62 1059.49,-20.39 1202.13,-19.41"/>
<polygon fill="black" stroke="black" points="1202.39,-22.91 1212.37,-19.36 1202.35,-15.91 1202.39,-22.91"/>
<text text-anchor="middle" x="614.5" y="-139.8" font-family="Times,serif" font-size="14.00">output</text>
</g>
<!-- DistributedSetNode1 -->
<g id="node8" class="node">
<title>DistributedSetNode1</title>
<polygon fill="none" stroke="black" points="674,-125.5 674,-161.5 851,-161.5 851,-125.5 674,-125.5"/>
<text text-anchor="middle" x="762.5" y="-139.8" font-family="Times,serif" font-size="14.00">Distributed set node 1</text>
</g>
<!-- Transaction&#45;&gt;DistributedSetNode1 -->
<g id="edge6" class="edge">
<title>Transaction&#45;&gt;DistributedSetNode1</title>
<path fill="none" stroke="black" d="M821.89,-251.49C810.61,-231.16 790.66,-195.23 777.02,-170.66"/>
<polygon fill="black" stroke="black" points="780.05,-168.9 772.14,-161.86 773.93,-172.3 780.05,-168.9"/>
<text text-anchor="middle" x="824.5" y="-202.8" font-family="Times,serif" font-size="14.00">output</text>
</g>
<!-- DistributedSetNode2 -->
<g id="node9" class="node">
<title>DistributedSetNode2</title>
<polygon fill="none" stroke="black" points="923,-125.5 923,-161.5 1100,-161.5 1100,-125.5 923,-125.5"/>
<text text-anchor="middle" x="1011.5" y="-139.8" font-family="Times,serif" font-size="14.00">Distributed set node 2</text>
</g>
<!-- Transaction&#45;&gt;DistributedSetNode2 -->
<g id="edge7" class="edge">
<title>Transaction&#45;&gt;DistributedSetNode2</title>
<path fill="none" stroke="black" d="M850.21,-253.66C880.84,-232.93 940.2,-192.75 977.74,-167.35"/>
<polygon fill="black" stroke="black" points="980,-170.05 986.32,-161.54 976.08,-164.25 980,-170.05"/>
<text text-anchor="middle" x="949.5" y="-202.8" font-family="Times,serif" font-size="14.00">output</text>
</g>
<!-- UnlockMintingPolicy&#45;&gt;Recipient -->
<g id="edge10" class="edge">
<title>UnlockMintingPolicy&#45;&gt;Recipient</title>
<path fill="none" stroke="black" stroke-dasharray="5,2" d="M1254.5,-125.4C1254.5,-105.13 1254.5,-71.1 1254.5,-47.09"/>
<polygon fill="black" stroke="black" points="1258,-46.85 1254.5,-36.85 1251,-46.85 1258,-46.85"/>
<text text-anchor="middle" x="1288" y="-76.8" font-family="Times,serif" font-size="14.00">is paid to</text>
</g>
</g>
</svg>
