<?xml version="1.0" encoding="UTF-8" standalone="no"?>
<!DOCTYPE svg PUBLIC "-//W3C//DTD SVG 1.1//EN"
 "http://www.w3.org/Graphics/SVG/1.1/DTD/svg11.dtd">
<!-- Generated by graphviz version 5.0.1 (0)
 -->
<!-- Pages: 1 -->
<svg width="395pt" height="402pt"
 viewBox="0.00 0.00 394.83 402.00" xmlns="http://www.w3.org/2000/svg" xmlns:xlink="http://www.w3.org/1999/xlink">
<g id="graph0" class="graph" transform="scale(1 1) rotate(0) translate(4 398)">
<polygon fill="white" stroke="none" points="-4,4 -4,-398 390.83,-398 390.83,4 -4,4"/>
<!-- DistinguishedUTxO -->
<g id="node1" class="node">
<title>DistinguishedUTxO</title>
<polygon fill="none" stroke="black" points="113.33,-357.5 113.33,-393.5 274.33,-393.5 274.33,-357.5 113.33,-357.5"/>
<text text-anchor="middle" x="193.83" y="-371.8" font-family="Times,serif" font-size="14.00">Distinguished UTxO</text>
</g>
<!-- Transaction -->
<g id="node2" class="node">
<title>Transaction</title>
<polygon fill="none" stroke="black" points="92.83,-270 0.16,-252 92.83,-234 185.5,-252 92.83,-270"/>
<text text-anchor="middle" x="92.83" y="-248.3" font-family="Times,serif" font-size="14.00">Transaction</text>
</g>
<!-- DistinguishedUTxO&#45;&gt;Transaction -->
<g id="edge1" class="edge">
<title>DistinguishedUTxO&#45;&gt;Transaction</title>
<path fill="none" stroke="black" d="M179.58,-357.35C161.78,-335.93 131.27,-299.24 111.59,-275.56"/>
<polygon fill="black" stroke="black" points="114.2,-273.23 105.12,-267.78 108.82,-277.7 114.2,-273.23"/>
<text text-anchor="middle" x="165.83" y="-309.8" font-family="Times,serif" font-size="14.00">input</text>
</g>
<!-- LockConfigOraclePolicy -->
<g id="node3" class="node">
<title>LockConfigOraclePolicy</title>
<polygon fill="none" stroke="black" points="202.83,-110.5 202.83,-146.5 386.83,-146.5 386.83,-110.5 202.83,-110.5"/>
<text text-anchor="middle" x="294.83" y="-124.8" font-family="Times,serif" font-size="14.00">LockConfigOraclePolicy</text>
</g>
<!-- DistinguishedUTxO&#45;&gt;LockConfigOraclePolicy -->
<g id="edge5" class="edge">
<title>DistinguishedUTxO&#45;&gt;LockConfigOraclePolicy</title>
<path fill="none" stroke="black" stroke-dasharray="5,2" d="M204.76,-347.99C225.58,-297.51 270.36,-188.86 287.74,-146.71"/>
<polygon fill="black" stroke="black" points="201.51,-346.69 200.94,-357.27 207.98,-349.36 201.51,-346.69"/>
<text text-anchor="middle" x="297.85" y="-255.75" font-family="Times,serif" font-size="14.00">checks if spent</text>
</g>
<!-- Transaction&#45;&gt;LockConfigOraclePolicy -->
<g id="edge2" class="edge">
<title>Transaction&#45;&gt;LockConfigOraclePolicy</title>
<path fill="none" stroke="black" d="M112.92,-237.59C134.07,-223.59 168.44,-201.19 198.83,-183 216.65,-172.33 236.67,-161.07 253.8,-151.64"/>
<polygon fill="black" stroke="black" points="255.9,-154.48 262.99,-146.6 252.54,-148.34 255.9,-154.48"/>
<text text-anchor="middle" x="219.33" y="-186.8" font-family="Times,serif" font-size="14.00">mints</text>
</g>
<!-- LockConfigValidator -->
<g id="node4" class="node">
<title>LockConfigValidator</title>
<polygon fill="none" stroke="black" points="41.83,-0.5 41.83,-36.5 201.83,-36.5 201.83,-0.5 41.83,-0.5"/>
<text text-anchor="middle" x="121.83" y="-14.8" font-family="Times,serif" font-size="14.00">LockConfigValidator</text>
</g>
<!-- Transaction&#45;&gt;LockConfigValidator -->
<g id="edge3" class="edge">
<title>Transaction&#45;&gt;LockConfigValidator</title>
<path fill="none" stroke="black" d="M94.92,-234.35C99.87,-194.83 112.37,-95.08 118.43,-46.67"/>
<polygon fill="black" stroke="black" points="121.92,-46.98 119.69,-36.62 114.97,-46.11 121.92,-46.98"/>
<text text-anchor="middle" x="134.83" y="-124.8" font-family="Times,serif" font-size="14.00">output</text>
</g>
<!-- LockConfigOraclePolicy&#45;&gt;LockConfigValidator -->
<g id="edge4" class="edge">
<title>LockConfigOraclePolicy&#45;&gt;LockConfigValidator</title>
<path fill="none" stroke="black" stroke-dasharray="5,2" d="M267.42,-110.39C237.81,-91.9 190.51,-62.37 157.9,-42.01"/>
<polygon fill="black" stroke="black" points="159.46,-38.86 149.12,-36.53 155.75,-44.8 159.46,-38.86"/>
<text text-anchor="middle" x="174.77" y="-77.26" font-family="Times,serif" font-size="14.00">is paid to</text>
</g>
</g>
</svg>
