<?xml version="1.0" encoding="UTF-8" standalone="no"?>
<!DOCTYPE svg PUBLIC "-//W3C//DTD SVG 1.1//EN"
 "http://www.w3.org/Graphics/SVG/1.1/DTD/svg11.dtd">
<!-- Generated by graphviz version 5.0.1 (0)
 -->
<!-- Pages: 1 -->
<svg width="344pt" height="222pt"
 viewBox="0.00 0.00 343.83 222.00" xmlns="http://www.w3.org/2000/svg" xmlns:xlink="http://www.w3.org/1999/xlink">
<g id="graph0" class="graph" transform="scale(1 1) rotate(0) translate(4 218)">
<polygon fill="white" stroke="none" points="-4,4 -4,-218 339.83,-218 339.83,4 -4,4"/>
<!-- UserWallet -->
<g id="node1" class="node">
<title>UserWallet</title>
<polygon fill="none" stroke="black" points="75.33,-145.5 75.33,-213.5 230.33,-213.5 230.33,-145.5 75.33,-145.5"/>
<text text-anchor="middle" x="152.83" y="-198.3" font-family="Times,serif" font-size="14.00">Participant&#39;s wallet</text>
<text text-anchor="middle" x="152.83" y="-183.3" font-family="Times,serif" font-size="14.00">with MCToken</text>
<text text-anchor="middle" x="152.83" y="-168.3" font-family="Times,serif" font-size="14.00">with token name</text>
<text text-anchor="middle" x="152.83" y="-153.3" font-family="Times,serif" font-size="14.00">tn</text>
</g>
<!-- Transaction -->
<g id="node2" class="node">
<title>Transaction</title>
<polygon fill="none" stroke="black" points="92.83,-109 0.16,-91 92.83,-73 185.5,-91 92.83,-109"/>
<text text-anchor="middle" x="92.83" y="-87.3" font-family="Times,serif" font-size="14.00">Transaction</text>
</g>
<!-- UserWallet&#45;&gt;Transaction -->
<g id="edge1" class="edge">
<title>UserWallet&#45;&gt;Transaction</title>
<path fill="none" stroke="black" d="M129.81,-145.3C122.9,-135.34 115.46,-124.62 109.08,-115.43"/>
<polygon fill="black" stroke="black" points="111.92,-113.38 103.35,-107.15 106.17,-117.37 111.92,-113.38"/>
<text text-anchor="middle" x="97.46" y="-129.86" font-family="Times,serif" font-size="14.00">input</text>
</g>
<!-- LockBoxValidator -->
<g id="node3" class="node">
<title>LockBoxValidator</title>
<polygon fill="none" stroke="black" points="82.33,-0.5 82.33,-36.5 223.33,-36.5 223.33,-0.5 82.33,-0.5"/>
<text text-anchor="middle" x="152.83" y="-14.8" font-family="Times,serif" font-size="14.00">LockBoxValidator</text>
</g>
<!-- UserWallet&#45;&gt;LockBoxValidator -->
<g id="edge3" class="edge">
<title>UserWallet&#45;&gt;LockBoxValidator</title>
<path fill="none" stroke="black" stroke-dasharray="5,2" d="M179.13,-145.06C192.08,-124.46 203.27,-97.41 194.83,-73 191.31,-62.79 184.93,-53.04 178.2,-44.73"/>
<polygon fill="black" stroke="black" points="180.64,-42.2 171.44,-36.94 175.35,-46.79 180.64,-42.2"/>
<text text-anchor="middle" x="265.33" y="-91.79" font-family="Times,serif" font-size="14.00">pays MCToken with</text>
<text text-anchor="middle" x="265.33" y="-76.79" font-family="Times,serif" font-size="14.00">token name tn to</text>
</g>
<!-- Transaction&#45;&gt;LockBoxValidator -->
<g id="edge2" class="edge">
<title>Transaction&#45;&gt;LockBoxValidator</title>
<path fill="none" stroke="black" d="M105.27,-75.39C112.93,-66.39 122.94,-54.62 131.81,-44.21"/>
<polygon fill="black" stroke="black" points="134.49,-46.46 138.31,-36.57 129.16,-41.92 134.49,-46.46"/>
<text text-anchor="middle" x="97.97" y="-59.57" font-family="Times,serif" font-size="14.00">output</text>
</g>
</g>
</svg>
