<?xml version="1.0" encoding="UTF-8" standalone="no"?>
<!DOCTYPE svg PUBLIC "-//W3C//DTD SVG 1.1//EN"
 "http://www.w3.org/Graphics/SVG/1.1/DTD/svg11.dtd">
<!-- Generated by graphviz version 5.0.1 (0)
 -->
<!-- Pages: 1 -->
<svg width="357pt" height="224pt"
 viewBox="0.00 0.00 356.83 224.00" xmlns="http://www.w3.org/2000/svg" xmlns:xlink="http://www.w3.org/1999/xlink">
<g id="graph0" class="graph" transform="scale(1 1) rotate(0) translate(4 220)">
<polygon fill="white" stroke="none" points="-4,4 -4,-220 352.83,-220 352.83,4 -4,4"/>
<!-- UserWallet -->
<g id="node1" class="node">
<title>UserWallet</title>
<polygon fill="none" stroke="black" points="75.33,-147.5 75.33,-215.5 230.33,-215.5 230.33,-147.5 75.33,-147.5"/>
<text text-anchor="middle" x="152.83" y="-200.3" font-family="Times,serif" font-size="14.00">Participant&#39;s wallet</text>
<text text-anchor="middle" x="152.83" y="-185.3" font-family="Times,serif" font-size="14.00">with `MCToken`</text>
<text text-anchor="middle" x="152.83" y="-170.3" font-family="Times,serif" font-size="14.00">with token name</text>
<text text-anchor="middle" x="152.83" y="-155.3" font-family="Times,serif" font-size="14.00">`tn`</text>
</g>
<!-- Transaction -->
<g id="node2" class="node">
<title>Transaction</title>
<polygon fill="none" stroke="black" points="92.83,-111 0.16,-93 92.83,-75 185.5,-93 92.83,-111"/>
<text text-anchor="middle" x="92.83" y="-89.3" font-family="Times,serif" font-size="14.00">Transaction</text>
</g>
<!-- UserWallet&#45;&gt;Transaction -->
<g id="edge1" class="edge">
<title>UserWallet&#45;&gt;Transaction</title>
<path fill="none" stroke="black" d="M129.81,-147.3C122.9,-137.34 115.46,-126.62 109.08,-117.43"/>
<polygon fill="black" stroke="black" points="111.92,-115.38 103.35,-109.15 106.17,-119.37 111.92,-115.38"/>
<text text-anchor="middle" x="97.46" y="-131.86" font-family="Times,serif" font-size="14.00">input</text>
</g>
<!-- LockBoxValidator -->
<g id="node3" class="node">
<title>LockBoxValidator</title>
<polygon fill="none" stroke="black" points="15.33,-0.5 15.33,-38.5 290.33,-38.5 290.33,-0.5 15.33,-0.5"/>
<text text-anchor="middle" x="152.83" y="-23.3" font-family="Times,serif" font-size="14.00">LockBoxValidator with datum as the</text>
<text text-anchor="middle" x="152.83" y="-8.3" font-family="Times,serif" font-size="14.00">sidechain recipient</text>
</g>
<!-- UserWallet&#45;&gt;LockBoxValidator -->
<g id="edge3" class="edge">
<title>UserWallet&#45;&gt;LockBoxValidator</title>
<path fill="none" stroke="black" stroke-dasharray="5,2" d="M179.05,-147.09C191.97,-126.5 203.16,-99.45 194.83,-75 191.37,-64.82 185.15,-55.07 178.54,-46.69"/>
<polygon fill="black" stroke="black" points="181.01,-44.2 171.89,-38.81 175.66,-48.71 181.01,-44.2"/>
<text text-anchor="middle" x="271.83" y="-93.79" font-family="Times,serif" font-size="14.00">pays `MCToken` with</text>
<text text-anchor="middle" x="271.83" y="-78.79" font-family="Times,serif" font-size="14.00">token name `tn` to</text>
</g>
<!-- Transaction&#45;&gt;LockBoxValidator -->
<g id="edge2" class="edge">
<title>Transaction&#45;&gt;LockBoxValidator</title>
<path fill="none" stroke="black" d="M105.27,-77.19C112.69,-68.34 122.32,-56.86 130.98,-46.54"/>
<polygon fill="black" stroke="black" points="133.9,-48.5 137.65,-38.59 128.54,-44 133.9,-48.5"/>
<text text-anchor="middle" x="97.42" y="-61.74" font-family="Times,serif" font-size="14.00">output</text>
</g>
</g>
</svg>
