<?xml version="1.0" encoding="UTF-8" standalone="no"?>
<!DOCTYPE svg PUBLIC "-//W3C//DTD SVG 1.1//EN"
 "http://www.w3.org/Graphics/SVG/1.1/DTD/svg11.dtd">
<!-- Generated by graphviz version 5.0.1 (0)
 -->
<!-- Pages: 1 -->
<svg width="1611pt" height="420pt"
 viewBox="0.00 0.00 1610.50 420.00" xmlns="http://www.w3.org/2000/svg" xmlns:xlink="http://www.w3.org/1999/xlink">
<g id="graph0" class="graph" transform="scale(1 1) rotate(0) translate(4 416)">
<polygon fill="white" stroke="none" points="-4,4 -4,-416 1606.5,-416 1606.5,4 -4,4"/>
<!-- DistributedSetNode -->
<g id="node1" class="node">
<title>DistributedSetNode</title>
<polygon fill="none" stroke="black" points="472.5,-374.5 472.5,-410.5 636.5,-410.5 636.5,-374.5 472.5,-374.5"/>
<text text-anchor="middle" x="554.5" y="-388.8" font-family="Times,serif" font-size="14.00">Distributed set node</text>
</g>
<!-- Transaction -->
<g id="node4" class="node">
<title>Transaction</title>
<polygon fill="none" stroke="black" points="815.5,-286 722.83,-268 815.5,-250 908.17,-268 815.5,-286"/>
<text text-anchor="middle" x="815.5" y="-264.3" font-family="Times,serif" font-size="14.00">Transaction</text>
</g>
<!-- DistributedSetNode&#45;&gt;Transaction -->
<g id="edge4" class="edge">
<title>DistributedSetNode&#45;&gt;Transaction</title>
<path fill="none" stroke="black" d="M590.79,-374.47C640.95,-350.92 730.88,-308.72 780.4,-285.47"/>
<polygon fill="black" stroke="black" points="782.18,-288.51 789.75,-281.09 779.21,-282.17 782.18,-288.51"/>
<text text-anchor="middle" x="720.5" y="-325.8" font-family="Times,serif" font-size="14.00">input</text>
</g>
<!-- MerkleRoot -->
<g id="node2" class="node">
<title>MerkleRoot</title>
<polygon fill="none" stroke="black" points="709,-374.5 709,-410.5 976,-410.5 976,-374.5 709,-374.5"/>
<text text-anchor="middle" x="842.5" y="-388.8" font-family="Times,serif" font-size="14.00">Merkle root of `MerkleTreeEntry`s</text>
</g>
<!-- MerkleRoot&#45;&gt;Transaction -->
<g id="edge5" class="edge">
<title>MerkleRoot&#45;&gt;Transaction</title>
<path fill="none" stroke="black" d="M838.75,-374.47C834.23,-353.97 826.59,-319.31 821.31,-295.35"/>
<polygon fill="black" stroke="black" points="824.71,-294.51 819.14,-285.5 817.87,-296.02 824.71,-294.51"/>
<text text-anchor="middle" x="885" y="-325.8" font-family="Times,serif" font-size="14.00">reference input</text>
</g>
<!-- LockBoxValidator1 -->
<g id="node3" class="node">
<title>LockBoxValidator1</title>
<polygon fill="none" stroke="black" points="1153,-373.5 1153,-411.5 1562,-411.5 1562,-373.5 1153,-373.5"/>
<text text-anchor="middle" x="1357.5" y="-396.3" font-family="Times,serif" font-size="14.00">LockBoxValidator with `ki` `MCToken`s</text>
<text text-anchor="middle" x="1357.5" y="-381.3" font-family="Times,serif" font-size="14.00">uniquely identified with `LockBoxOracleMintingPolicy`</text>
</g>
<!-- LockBoxValidator1&#45;&gt;Transaction -->
<g id="edge1" class="edge">
<title>LockBoxValidator1&#45;&gt;Transaction</title>
<path fill="none" stroke="black" d="M1277.82,-373.49C1164.54,-347.89 960.24,-301.71 865.83,-280.38"/>
<polygon fill="black" stroke="black" points="866.49,-276.94 855.96,-278.14 864.94,-283.76 866.49,-276.94"/>
<text text-anchor="middle" x="1121.5" y="-325.8" font-family="Times,serif" font-size="14.00">input</text>
</g>
<!-- Recipient -->
<g id="node7" class="node">
<title>Recipient</title>
<polygon fill="none" stroke="black" points="1181.5,-0.5 1181.5,-36.5 1265.5,-36.5 1265.5,-0.5 1181.5,-0.5"/>
<text text-anchor="middle" x="1223.5" y="-14.8" font-family="Times,serif" font-size="14.00">Recipient</text>
</g>
<!-- LockBoxValidator1&#45;&gt;Recipient -->
<g id="edge2" class="edge">
<title>LockBoxValidator1&#45;&gt;Recipient</title>
<path fill="none" stroke="black" stroke-dasharray="5,2" d="M1359.6,-373.49C1364.68,-321.9 1372.81,-170.98 1308.5,-73 1300.1,-60.21 1287.48,-49.9 1274.51,-41.88"/>
<polygon fill="black" stroke="black" points="1275.93,-38.66 1265.52,-36.68 1272.43,-44.72 1275.93,-38.66"/>
<text text-anchor="middle" x="1479" y="-202.8" font-family="Times,serif" font-size="14.00">`k` `MCToken`s are transferred to</text>
</g>
<!-- SCToken -->
<g id="node5" class="node">
<title>SCToken</title>
<ellipse fill="none" stroke="black" cx="1223.5" cy="-143.5" rx="51.19" ry="18"/>
<text text-anchor="middle" x="1223.5" y="-139.8" font-family="Times,serif" font-size="14.00">SCToken</text>
</g>
<!-- Transaction&#45;&gt;SCToken -->
<g id="edge8" class="edge">
<title>Transaction&#45;&gt;SCToken</title>
<path fill="none" stroke="black" d="M849.93,-256.66C922.86,-234.77 1092.97,-183.69 1176.09,-158.74"/>
<polygon fill="black" stroke="black" points="1177.21,-162.05 1185.78,-155.82 1175.2,-155.35 1177.21,-162.05"/>
<text text-anchor="middle" x="1091" y="-202.8" font-family="Times,serif" font-size="14.00">mints `k` tokens</text>
</g>
<!-- LockBoxValidator2 -->
<g id="node6" class="node">
<title>LockBoxValidator2</title>
<polygon fill="none" stroke="black" points="0,-124.5 0,-162.5 409,-162.5 409,-124.5 0,-124.5"/>
<text text-anchor="middle" x="204.5" y="-147.3" font-family="Times,serif" font-size="14.00">LockBoxValidator with `ki &#45; k` `MCToken`s</text>
<text text-anchor="middle" x="204.5" y="-132.3" font-family="Times,serif" font-size="14.00">uniquely identified with `LockBoxOracleMintingPolicy`</text>
</g>
<!-- Transaction&#45;&gt;LockBoxValidator2 -->
<g id="edge3" class="edge">
<title>Transaction&#45;&gt;LockBoxValidator2</title>
<path fill="none" stroke="black" d="M758.5,-261.07C686.33,-253.02 558.38,-236.97 450.5,-214 388.64,-200.83 319.43,-180.79 270.21,-165.6"/>
<polygon fill="black" stroke="black" points="271.23,-162.26 260.64,-162.64 269.16,-168.94 271.23,-162.26"/>
<text text-anchor="middle" x="474.5" y="-202.8" font-family="Times,serif" font-size="14.00">output</text>
</g>
<!-- Transaction&#45;&gt;Recipient -->
<g id="edge10" class="edge">
<title>Transaction&#45;&gt;Recipient</title>
<path fill="none" stroke="black" d="M773.01,-258.16C692.81,-239.65 532.18,-192.73 590.5,-124 665.03,-36.15 1032.43,-22.04 1170.72,-19.86"/>
<polygon fill="black" stroke="black" points="1171.11,-23.36 1181.06,-19.72 1171.01,-16.36 1171.11,-23.36"/>
<text text-anchor="middle" x="614.5" y="-139.8" font-family="Times,serif" font-size="14.00">output</text>
</g>
<!-- DistributedSetNode1 -->
<g id="node8" class="node">
<title>DistributedSetNode1</title>
<polygon fill="none" stroke="black" points="674,-125.5 674,-161.5 851,-161.5 851,-125.5 674,-125.5"/>
<text text-anchor="middle" x="762.5" y="-139.8" font-family="Times,serif" font-size="14.00">Distributed set node 1</text>
</g>
<!-- Transaction&#45;&gt;DistributedSetNode1 -->
<g id="edge6" class="edge">
<title>Transaction&#45;&gt;DistributedSetNode1</title>
<path fill="none" stroke="black" d="M808.68,-251.24C799.93,-231.02 784.63,-195.65 774.05,-171.2"/>
<polygon fill="black" stroke="black" points="777.16,-169.57 769.98,-161.78 770.74,-172.35 777.16,-169.57"/>
<text text-anchor="middle" x="815.5" y="-202.8" font-family="Times,serif" font-size="14.00">output</text>
</g>
<!-- DistributedSetNode2 -->
<g id="node9" class="node">
<title>DistributedSetNode2</title>
<polygon fill="none" stroke="black" points="923,-125.5 923,-161.5 1100,-161.5 1100,-125.5 923,-125.5"/>
<text text-anchor="middle" x="1011.5" y="-139.8" font-family="Times,serif" font-size="14.00">Distributed set node 2</text>
</g>
<!-- Transaction&#45;&gt;DistributedSetNode2 -->
<g id="edge7" class="edge">
<title>Transaction&#45;&gt;DistributedSetNode2</title>
<path fill="none" stroke="black" d="M836.48,-253.89C869.69,-233.13 934.79,-192.44 975.55,-166.97"/>
<polygon fill="black" stroke="black" points="977.49,-169.89 984.11,-161.62 973.78,-163.95 977.49,-169.89"/>
<text text-anchor="middle" x="942.5" y="-202.8" font-family="Times,serif" font-size="14.00">output</text>
</g>
<!-- SCToken&#45;&gt;Recipient -->
<g id="edge9" class="edge">
<title>SCToken&#45;&gt;Recipient</title>
<path fill="none" stroke="black" stroke-dasharray="5,2" d="M1223.5,-125.4C1223.5,-105.13 1223.5,-71.1 1223.5,-47.09"/>
<polygon fill="black" stroke="black" points="1227,-46.85 1223.5,-36.85 1220,-46.85 1227,-46.85"/>
<text text-anchor="middle" x="1257" y="-76.8" font-family="Times,serif" font-size="14.00">is paid to</text>
</g>
</g>
</svg>
