<?xml version="1.0" encoding="UTF-8" standalone="no"?>
<!DOCTYPE svg PUBLIC "-//W3C//DTD SVG 1.1//EN"
 "http://www.w3.org/Graphics/SVG/1.1/DTD/svg11.dtd">
<!-- Generated by graphviz version 5.0.1 (0)
 -->
<!-- Pages: 1 -->
<svg width="880pt" height="296pt"
 viewBox="0.00 0.00 879.50 296.00" xmlns="http://www.w3.org/2000/svg" xmlns:xlink="http://www.w3.org/1999/xlink">
<g id="graph0" class="graph" transform="scale(1 1) rotate(0) translate(4 292)">
<polygon fill="white" stroke="none" points="-4,4 -4,-292 875.5,-292 875.5,4 -4,4"/>
<!-- LockBoxValidator1 -->
<g id="node1" class="node">
<title>LockBoxValidator1</title>
<polygon fill="none" stroke="black" points="0,-249.5 0,-287.5 409,-287.5 409,-249.5 0,-249.5"/>
<text text-anchor="middle" x="204.5" y="-272.3" font-family="Times,serif" font-size="14.00">LockBoxValidator with `k` `MCToken`s</text>
<text text-anchor="middle" x="204.5" y="-257.3" font-family="Times,serif" font-size="14.00">uniquely identified with `LockBoxOracleMintingPolicy`</text>
</g>
<!-- Transaction -->
<g id="node3" class="node">
<title>Transaction</title>
<polygon fill="none" stroke="black" points="575.5,-162 482.83,-144 575.5,-126 668.17,-144 575.5,-162"/>
<text text-anchor="middle" x="575.5" y="-140.3" font-family="Times,serif" font-size="14.00">Transaction</text>
</g>
<!-- LockBoxValidator1&#45;&gt;Transaction -->
<g id="edge1" class="edge">
<title>LockBoxValidator1&#45;&gt;Transaction</title>
<path fill="none" stroke="black" d="M259.24,-249.42C333.63,-224.86 465.1,-181.45 532.71,-159.13"/>
<polygon fill="black" stroke="black" points="534.2,-162.32 542.6,-155.86 532,-155.68 534.2,-162.32"/>
<text text-anchor="middle" x="431.5" y="-201.8" font-family="Times,serif" font-size="14.00">input</text>
</g>
<!-- LockBoxValidator2 -->
<g id="node4" class="node">
<title>LockBoxValidator2</title>
<polygon fill="none" stroke="black" points="371,-0.5 371,-38.5 780,-38.5 780,-0.5 371,-0.5"/>
<text text-anchor="middle" x="575.5" y="-23.3" font-family="Times,serif" font-size="14.00">LockBoxValidator with `n + k` `MCToken`s</text>
<text text-anchor="middle" x="575.5" y="-8.3" font-family="Times,serif" font-size="14.00">uniquely identified with `LockBoxOracleMintingPolicy`</text>
</g>
<!-- LockBoxValidator1&#45;&gt;LockBoxValidator2 -->
<g id="edge4" class="edge">
<title>LockBoxValidator1&#45;&gt;LockBoxValidator2</title>
<path fill="none" stroke="black" stroke-dasharray="5,2" d="M191.71,-249.41C172.91,-220.38 142.97,-162.93 171.5,-126 203.1,-85.09 324.89,-57.02 426.56,-40.18"/>
<polygon fill="black" stroke="black" points="427.34,-43.59 436.65,-38.53 426.22,-36.69 427.34,-43.59"/>
<text text-anchor="middle" x="309" y="-140.3" font-family="Times,serif" font-size="14.00">pays `LockBoxOracleMintingPolicy` to</text>
</g>
<!-- UserWallet -->
<g id="node2" class="node">
<title>UserWallet</title>
<polygon fill="none" stroke="black" points="617.5,-250.5 617.5,-286.5 871.5,-286.5 871.5,-250.5 617.5,-250.5"/>
<text text-anchor="middle" x="744.5" y="-264.8" font-family="Times,serif" font-size="14.00">User wallet with `n` `MCToken`s</text>
</g>
<!-- UserWallet&#45;&gt;Transaction -->
<g id="edge2" class="edge">
<title>UserWallet&#45;&gt;Transaction</title>
<path fill="none" stroke="black" d="M721,-250.47C689.86,-227.9 635.06,-188.17 602.33,-164.45"/>
<polygon fill="black" stroke="black" points="604.27,-161.53 594.12,-158.5 600.16,-167.2 604.27,-161.53"/>
<text text-anchor="middle" x="683.5" y="-201.8" font-family="Times,serif" font-size="14.00">input</text>
</g>
<!-- UserWallet&#45;&gt;LockBoxValidator2 -->
<g id="edge5" class="edge">
<title>UserWallet&#45;&gt;LockBoxValidator2</title>
<path fill="none" stroke="black" stroke-dasharray="5,2" d="M743,-250.45C739.85,-222.41 730.54,-165.71 704.5,-126 681.93,-91.58 644.6,-62.83 615.89,-44.08"/>
<polygon fill="black" stroke="black" points="617.59,-41.02 607.28,-38.59 613.83,-46.92 617.59,-41.02"/>
<text text-anchor="middle" x="794" y="-140.3" font-family="Times,serif" font-size="14.00">pays `MCToken`s to</text>
</g>
<!-- Transaction&#45;&gt;LockBoxValidator2 -->
<g id="edge3" class="edge">
<title>Transaction&#45;&gt;LockBoxValidator2</title>
<path fill="none" stroke="black" d="M575.5,-125.97C575.5,-106.01 575.5,-72.65 575.5,-48.8"/>
<polygon fill="black" stroke="black" points="579,-48.58 575.5,-38.58 572,-48.58 579,-48.58"/>
<text text-anchor="middle" x="599.5" y="-78.8" font-family="Times,serif" font-size="14.00">output</text>
</g>
</g>
</svg>
