<?xml version="1.0" encoding="UTF-8" standalone="no"?>
<!DOCTYPE svg PUBLIC "-//W3C//DTD SVG 1.1//EN"
 "http://www.w3.org/Graphics/SVG/1.1/DTD/svg11.dtd">
<!-- Generated by graphviz version 5.0.1 (0)
 -->
<!-- Pages: 1 -->
<svg width="357pt" height="224pt"
 viewBox="0.00 0.00 356.83 224.00" xmlns="http://www.w3.org/2000/svg" xmlns:xlink="http://www.w3.org/1999/xlink">
<g id="graph0" class="graph" transform="scale(1 1) rotate(0) translate(4 220)">
<polygon fill="white" stroke="none" points="-4,4 -4,-220 352.83,-220 352.83,4 -4,4"/>
<!-- UserWallet -->
<g id="node1" class="node">
<title>UserWallet</title>
<polygon fill="none" stroke="black" points="117.5,-147.5 117.5,-215.5 272.5,-215.5 272.5,-147.5 117.5,-147.5"/>
<text text-anchor="middle" x="195" y="-200.3" font-family="Times,serif" font-size="14.00">Participant&#39;s wallet</text>
<text text-anchor="middle" x="195" y="-185.3" font-family="Times,serif" font-size="14.00">with `MCToken`</text>
<text text-anchor="middle" x="195" y="-170.3" font-family="Times,serif" font-size="14.00">with token name</text>
<text text-anchor="middle" x="195" y="-155.3" font-family="Times,serif" font-size="14.00">`tn`</text>
</g>
<!-- LockBoxValidator -->
<g id="node2" class="node">
<title>LockBoxValidator</title>
<polygon fill="none" stroke="black" points="57.5,-0.5 57.5,-38.5 332.5,-38.5 332.5,-0.5 57.5,-0.5"/>
<text text-anchor="middle" x="195" y="-23.3" font-family="Times,serif" font-size="14.00">LockBoxValidator with datum as the</text>
<text text-anchor="middle" x="195" y="-8.3" font-family="Times,serif" font-size="14.00">sidechain recipient</text>
</g>
<!-- UserWallet&#45;&gt;LockBoxValidator -->
<g id="edge3" class="edge">
<title>UserWallet&#45;&gt;LockBoxValidator</title>
<path fill="none" stroke="black" stroke-dasharray="5,2" d="M169.38,-147.07C156.76,-126.47 145.84,-99.42 154,-75 157.37,-64.89 163.44,-55.16 169.89,-46.78"/>
<polygon fill="black" stroke="black" points="172.73,-48.84 176.39,-38.89 167.33,-44.39 172.73,-48.84"/>
<text text-anchor="middle" x="77" y="-93.79" font-family="Times,serif" font-size="14.00">pays `MCToken` with</text>
<text text-anchor="middle" x="77" y="-78.79" font-family="Times,serif" font-size="14.00">token name `tn` to</text>
</g>
<!-- Transaction -->
<g id="node3" class="node">
<title>Transaction</title>
<polygon fill="none" stroke="black" points="256,-111 163.32,-93 256,-75 348.67,-93 256,-111"/>
<text text-anchor="middle" x="256" y="-89.3" font-family="Times,serif" font-size="14.00">Transaction</text>
</g>
<!-- UserWallet&#45;&gt;Transaction -->
<g id="edge1" class="edge">
<title>UserWallet&#45;&gt;Transaction</title>
<path fill="none" stroke="black" d="M218.4,-147.3C225.43,-137.34 232.99,-126.62 239.47,-117.43"/>
<polygon fill="black" stroke="black" points="242.41,-119.34 245.31,-109.15 236.69,-115.31 242.41,-119.34"/>
<text text-anchor="middle" x="212.98" y="-131.86" font-family="Times,serif" font-size="14.00">input</text>
</g>
<!-- Transaction&#45;&gt;LockBoxValidator -->
<g id="edge2" class="edge">
<title>Transaction&#45;&gt;LockBoxValidator</title>
<path fill="none" stroke="black" d="M243.36,-77.19C235.74,-68.25 225.82,-56.63 216.95,-46.24"/>
<polygon fill="black" stroke="black" points="219.58,-43.93 210.43,-38.59 214.26,-48.47 219.58,-43.93"/>
<text text-anchor="middle" x="202.76" y="-61.54" font-family="Times,serif" font-size="14.00">output</text>
</g>
</g>
</svg>
