<?xml version="1.0" encoding="UTF-8" standalone="no"?>
<!DOCTYPE svg PUBLIC "-//W3C//DTD SVG 1.1//EN"
 "http://www.w3.org/Graphics/SVG/1.1/DTD/svg11.dtd">
<!-- Generated by graphviz version 5.0.1 (0)
 -->
<!-- Pages: 1 -->
<svg width="816pt" height="224pt"
 viewBox="0.00 0.00 815.50 224.00" xmlns="http://www.w3.org/2000/svg" xmlns:xlink="http://www.w3.org/1999/xlink">
<g id="graph0" class="graph" transform="scale(1 1) rotate(0) translate(4 220)">
<polygon fill="white" stroke="none" points="-4,4 -4,-220 811.5,-220 811.5,4 -4,4"/>
<!-- UserWallet -->
<g id="node1" class="node">
<title>UserWallet</title>
<polygon fill="none" stroke="black" points="0,-178.5 0,-214.5 293,-214.5 293,-178.5 0,-178.5"/>
<text text-anchor="middle" x="146.5" y="-192.8" font-family="Times,serif" font-size="14.00">Participant&#39;s wallet with k `McToken`s</text>
</g>
<!-- Transaction -->
<g id="node3" class="node">
<title>Transaction</title>
<polygon fill="none" stroke="black" points="417.5,-126 324.83,-108 417.5,-90 510.17,-108 417.5,-126"/>
<text text-anchor="middle" x="417.5" y="-104.3" font-family="Times,serif" font-size="14.00">Transaction</text>
</g>
<!-- UserWallet&#45;&gt;Transaction -->
<g id="edge1" class="edge">
<title>UserWallet&#45;&gt;Transaction</title>
<path fill="none" stroke="black" d="M200.04,-178.41C251.16,-162.09 327.22,-137.82 374.51,-122.72"/>
<polygon fill="black" stroke="black" points="375.68,-126.02 384.14,-119.65 373.55,-119.35 375.68,-126.02"/>
<text text-anchor="middle" x="325.5" y="-147.8" font-family="Times,serif" font-size="14.00">input</text>
</g>
<!-- LockBoxValidator2 -->
<g id="node4" class="node">
<title>LockBoxValidator2</title>
<polygon fill="none" stroke="black" points="203.5,-0.5 203.5,-38.5 631.5,-38.5 631.5,-0.5 203.5,-0.5"/>
<text text-anchor="middle" x="417.5" y="-23.3" font-family="Times,serif" font-size="14.00">LockBoxValidator with datum `McToken`</text>
<text text-anchor="middle" x="417.5" y="-8.3" font-family="Times,serif" font-size="14.00">with `LockBoxOracleMintingPolicy` and k+ki `McToken`s</text>
</g>
<!-- UserWallet&#45;&gt;LockBoxValidator2 -->
<g id="edge4" class="edge">
<title>UserWallet&#45;&gt;LockBoxValidator2</title>
<path fill="none" stroke="black" stroke-dasharray="5,2" d="M140.24,-178.49C133.08,-155.78 124.71,-115.46 144.5,-90 161.7,-67.87 218.23,-51.62 275.41,-40.43"/>
<polygon fill="black" stroke="black" points="276.17,-43.85 285.34,-38.54 274.86,-36.97 276.17,-43.85"/>
<text text-anchor="middle" x="230" y="-104.3" font-family="Times,serif" font-size="14.00">pays `k` `MCToken`s to</text>
</g>
<!-- LockBoxValidator1 -->
<g id="node2" class="node">
<title>LockBoxValidator1</title>
<polygon fill="none" stroke="black" points="332.5,-177.5 332.5,-215.5 740.5,-215.5 740.5,-177.5 332.5,-177.5"/>
<text text-anchor="middle" x="536.5" y="-200.3" font-family="Times,serif" font-size="14.00">LockBoxValidator with datum `McToken`</text>
<text text-anchor="middle" x="536.5" y="-185.3" font-family="Times,serif" font-size="14.00">with `LockBoxOracleMintingPolicy` and ki `McToken`s</text>
</g>
<!-- LockBoxValidator1&#45;&gt;Transaction -->
<g id="edge2" class="edge">
<title>LockBoxValidator1&#45;&gt;Transaction</title>
<path fill="none" stroke="black" d="M511.55,-177.37C491.87,-163.06 464.48,-143.15 444.33,-128.5"/>
<polygon fill="black" stroke="black" points="446.33,-125.63 436.18,-122.58 442.21,-131.29 446.33,-125.63"/>
<text text-anchor="middle" x="502.5" y="-147.8" font-family="Times,serif" font-size="14.00">input</text>
</g>
<!-- LockBoxValidator1&#45;&gt;LockBoxValidator2 -->
<g id="edge5" class="edge">
<title>LockBoxValidator1&#45;&gt;LockBoxValidator2</title>
<path fill="none" stroke="black" stroke-dasharray="5,2" d="M537.75,-177.19C538.39,-154.85 536.52,-116.77 519.5,-90 506.99,-70.32 486.68,-54.81 467.47,-43.48"/>
<polygon fill="black" stroke="black" points="469.18,-40.43 458.75,-38.57 465.74,-46.53 469.18,-40.43"/>
<text text-anchor="middle" x="670" y="-104.3" font-family="Times,serif" font-size="14.00">pays `LockBoxOracleMintingPolicy` to</text>
</g>
<!-- Transaction&#45;&gt;LockBoxValidator2 -->
<g id="edge3" class="edge">
<title>Transaction&#45;&gt;LockBoxValidator2</title>
<path fill="none" stroke="black" d="M417.5,-89.91C417.5,-78.26 417.5,-62.54 417.5,-49.01"/>
<polygon fill="black" stroke="black" points="421,-48.75 417.5,-38.75 414,-48.75 421,-48.75"/>
<text text-anchor="middle" x="441.5" y="-60.8" font-family="Times,serif" font-size="14.00">output</text>
</g>
</g>
</svg>
