<?xml version="1.0" encoding="UTF-8" standalone="no"?>
<!DOCTYPE svg PUBLIC "-//W3C//DTD SVG 1.1//EN"
 "http://www.w3.org/Graphics/SVG/1.1/DTD/svg11.dtd">
<!-- Generated by graphviz version 5.0.1 (0)
 -->
<!-- Pages: 1 -->
<svg width="2049pt" height="420pt"
 viewBox="0.00 0.00 2048.50 420.00" xmlns="http://www.w3.org/2000/svg" xmlns:xlink="http://www.w3.org/1999/xlink">
<g id="graph0" class="graph" transform="scale(1 1) rotate(0) translate(4 416)">
<polygon fill="white" stroke="none" points="-4,4 -4,-416 2044.5,-416 2044.5,4 -4,4"/>
<!-- DistributedSetNode -->
<g id="node1" class="node">
<title>DistributedSetNode</title>
<polygon fill="none" stroke="black" points="1070.5,-374.5 1070.5,-410.5 1234.5,-410.5 1234.5,-374.5 1070.5,-374.5"/>
<text text-anchor="middle" x="1152.5" y="-388.8" font-family="Times,serif" font-size="14.00">Distributed set node</text>
</g>
<!-- Transaction -->
<g id="node9" class="node">
<title>Transaction</title>
<polygon fill="none" stroke="black" points="1038.5,-286 945.83,-268 1038.5,-250 1131.17,-268 1038.5,-286"/>
<text text-anchor="middle" x="1038.5" y="-264.3" font-family="Times,serif" font-size="14.00">Transaction</text>
</g>
<!-- DistributedSetNode&#45;&gt;Transaction -->
<g id="edge2" class="edge">
<title>DistributedSetNode&#45;&gt;Transaction</title>
<path fill="none" stroke="black" d="M1130.47,-374.4C1117.88,-364.16 1102.13,-350.54 1089.5,-337 1076.62,-323.19 1063.87,-306.19 1054.34,-292.65"/>
<polygon fill="black" stroke="black" points="1057.15,-290.55 1048.58,-284.32 1051.39,-294.53 1057.15,-290.55"/>
<text text-anchor="middle" x="1108.5" y="-325.8" font-family="Times,serif" font-size="14.00">input</text>
</g>
<!-- MerkleRoot -->
<g id="node2" class="node">
<title>MerkleRoot</title>
<polygon fill="none" stroke="black" points="731,-374.5 731,-410.5 998,-410.5 998,-374.5 731,-374.5"/>
<text text-anchor="middle" x="864.5" y="-388.8" font-family="Times,serif" font-size="14.00">Merkle root of `MerkleTreeEntry`s</text>
</g>
<!-- MerkleRoot&#45;&gt;Transaction -->
<g id="edge1" class="edge">
<title>MerkleRoot&#45;&gt;Transaction</title>
<path fill="none" stroke="black" d="M883.21,-374.25C899.57,-359.56 924.28,-338.31 947.5,-322 966.1,-308.94 988.1,-296.06 1005.81,-286.27"/>
<polygon fill="black" stroke="black" points="1007.54,-289.32 1014.63,-281.45 1004.18,-283.17 1007.54,-289.32"/>
<text text-anchor="middle" x="1003" y="-325.8" font-family="Times,serif" font-size="14.00">reference input</text>
</g>
<!-- InputLockBoxValidator1 -->
<g id="node3" class="node">
<title>InputLockBoxValidator1</title>
<polygon fill="none" stroke="black" points="268,-373.5 268,-411.5 659,-411.5 659,-373.5 268,-373.5"/>
<text text-anchor="middle" x="463.5" y="-396.3" font-family="Times,serif" font-size="14.00">LockBoxValidator with datum `McToken`</text>
<text text-anchor="middle" x="463.5" y="-381.3" font-family="Times,serif" font-size="14.00">with `LockBoxOracleMintingPolicy` and `McToken`s</text>
</g>
<!-- OutputLockBoxValidator1 -->
<g id="node5" class="node">
<title>OutputLockBoxValidator1</title>
<polygon fill="none" stroke="black" points="0,-124.5 0,-162.5 391,-162.5 391,-124.5 0,-124.5"/>
<text text-anchor="middle" x="195.5" y="-147.3" font-family="Times,serif" font-size="14.00">LockBoxValidator with datum `McToken`</text>
<text text-anchor="middle" x="195.5" y="-132.3" font-family="Times,serif" font-size="14.00">with `LockBoxOracleMintingPolicy` and `McToken`s</text>
</g>
<!-- InputLockBoxValidator1&#45;&gt;OutputLockBoxValidator1 -->
<g id="edge5" class="edge">
<title>InputLockBoxValidator1&#45;&gt;OutputLockBoxValidator1</title>
<path fill="none" stroke="black" stroke-dasharray="5,2" d="M350.59,-373.46C297.88,-358.94 239.41,-332.84 205.5,-286 181.6,-252.99 184.42,-203.53 189.4,-172.68"/>
<polygon fill="black" stroke="black" points="192.89,-173.06 191.22,-162.6 186,-171.82 192.89,-173.06"/>
<text text-anchor="middle" x="400.5" y="-264.3" font-family="Times,serif" font-size="14.00">`LockBoxOracleMintingPolicy`/`McToken`s are paid to</text>
</g>
<!-- InputLockBoxValidator1&#45;&gt;Transaction -->
<g id="edge3" class="edge">
<title>InputLockBoxValidator1&#45;&gt;Transaction</title>
<path fill="none" stroke="black" d="M550.19,-373.46C600.76,-362.91 665.76,-349.28 723.5,-337 816.55,-317.2 924.96,-293.71 987.27,-280.16"/>
<polygon fill="black" stroke="black" points="988.21,-283.53 997.24,-277.99 986.72,-276.69 988.21,-283.53"/>
<text text-anchor="middle" x="812.5" y="-325.8" font-family="Times,serif" font-size="14.00">input</text>
</g>
<!-- Recipient -->
<g id="node12" class="node">
<title>Recipient</title>
<polygon fill="none" stroke="black" points="758,-125.5 758,-161.5 1027,-161.5 1027,-125.5 758,-125.5"/>
<text text-anchor="middle" x="892.5" y="-139.8" font-family="Times,serif" font-size="14.00">Recipient receives their `McToken`</text>
</g>
<!-- InputLockBoxValidator1&#45;&gt;Recipient -->
<g id="edge9" class="edge">
<title>InputLockBoxValidator1&#45;&gt;Recipient</title>
<path fill="none" stroke="black" stroke-dasharray="5,2" d="M495.05,-373.34C572.24,-328.89 770.46,-214.76 854.22,-166.54"/>
<polygon fill="black" stroke="black" points="855.99,-169.56 862.91,-161.53 852.5,-163.49 855.99,-169.56"/>
<text text-anchor="middle" x="791" y="-264.3" font-family="Times,serif" font-size="14.00">`McToken`s are paid to</text>
</g>
<!-- InputLockBoxValidator2 -->
<g id="node4" class="node">
<title>InputLockBoxValidator2</title>
<polygon fill="none" stroke="black" points="1307,-373.5 1307,-411.5 1698,-411.5 1698,-373.5 1307,-373.5"/>
<text text-anchor="middle" x="1502.5" y="-396.3" font-family="Times,serif" font-size="14.00">LockBoxValidator with datum `McToken`</text>
<text text-anchor="middle" x="1502.5" y="-381.3" font-family="Times,serif" font-size="14.00">with `LockBoxOracleMintingPolicy` and `McToken`s</text>
</g>
<!-- OutputLockBoxValidator2 -->
<g id="node6" class="node">
<title>OutputLockBoxValidator2</title>
<polygon fill="none" stroke="black" points="1570,-124.5 1570,-162.5 1961,-162.5 1961,-124.5 1570,-124.5"/>
<text text-anchor="middle" x="1765.5" y="-147.3" font-family="Times,serif" font-size="14.00">LockBoxValidator with datum `McToken`</text>
<text text-anchor="middle" x="1765.5" y="-132.3" font-family="Times,serif" font-size="14.00">with `LockBoxOracleMintingPolicy` and `McToken`s</text>
</g>
<!-- InputLockBoxValidator2&#45;&gt;OutputLockBoxValidator2 -->
<g id="edge6" class="edge">
<title>InputLockBoxValidator2&#45;&gt;OutputLockBoxValidator2</title>
<path fill="none" stroke="black" stroke-dasharray="5,2" d="M1521.84,-373.34C1568.2,-329.8 1685.73,-219.41 1738.79,-169.59"/>
<polygon fill="black" stroke="black" points="1741.24,-172.09 1746.13,-162.69 1736.45,-166.98 1741.24,-172.09"/>
<text text-anchor="middle" x="1845.5" y="-264.3" font-family="Times,serif" font-size="14.00">`LockBoxOracleMintingPolicy`/`McToken`s are paid to</text>
</g>
<!-- InputLockBoxValidator2&#45;&gt;Transaction -->
<g id="edge4" class="edge">
<title>InputLockBoxValidator2&#45;&gt;Transaction</title>
<path fill="none" stroke="black" d="M1370.94,-373.49C1318.58,-364.76 1258.13,-352.7 1204.5,-337 1157.57,-323.26 1105.77,-300.8 1072.72,-285.48"/>
<polygon fill="black" stroke="black" points="1074.05,-282.23 1063.51,-281.17 1071.08,-288.57 1074.05,-282.23"/>
<text text-anchor="middle" x="1223.5" y="-325.8" font-family="Times,serif" font-size="14.00">input</text>
</g>
<!-- InputLockBoxValidator2&#45;&gt;Recipient -->
<g id="edge10" class="edge">
<title>InputLockBoxValidator2&#45;&gt;Recipient</title>
<path fill="none" stroke="black" stroke-dasharray="5,2" d="M1477.54,-373.21C1423.85,-334.79 1292.26,-245.43 1168.5,-199 1126.2,-183.13 1078.43,-171.61 1034.67,-163.38"/>
<polygon fill="black" stroke="black" points="1035.28,-159.93 1024.81,-161.56 1034.02,-166.81 1035.28,-159.93"/>
<text text-anchor="middle" x="1424" y="-264.3" font-family="Times,serif" font-size="14.00">`McToken`s are paid to</text>
</g>
<!-- ReleaseToken -->
<g id="node7" class="node">
<title>ReleaseToken</title>
<ellipse fill="none" stroke="black" cx="1173.5" cy="-143.5" rx="74.19" ry="18"/>
<text text-anchor="middle" x="1173.5" y="-139.8" font-family="Times,serif" font-size="14.00">ReleaseToken</text>
</g>
<!-- BurnAddress -->
<g id="node8" class="node">
<title>BurnAddress</title>
<polygon fill="none" stroke="black" points="1118.5,-0.5 1118.5,-36.5 1228.5,-36.5 1228.5,-0.5 1118.5,-0.5"/>
<text text-anchor="middle" x="1173.5" y="-14.8" font-family="Times,serif" font-size="14.00">BurnAddress</text>
</g>
<!-- ReleaseToken&#45;&gt;BurnAddress -->
<g id="edge15" class="edge">
<title>ReleaseToken&#45;&gt;BurnAddress</title>
<path fill="none" stroke="black" stroke-dasharray="5,2" d="M1173.5,-125.4C1173.5,-105.13 1173.5,-71.1 1173.5,-47.09"/>
<polygon fill="black" stroke="black" points="1177,-46.85 1173.5,-36.85 1170,-46.85 1177,-46.85"/>
<text text-anchor="middle" x="1207" y="-76.8" font-family="Times,serif" font-size="14.00">is paid to</text>
</g>
<!-- Transaction&#45;&gt;OutputLockBoxValidator1 -->
<g id="edge7" class="edge">
<title>Transaction&#45;&gt;OutputLockBoxValidator1</title>
<path fill="none" stroke="black" d="M988.29,-259.7C860.67,-241.16 520.47,-191.72 329.8,-164.02"/>
<polygon fill="black" stroke="black" points="330.11,-160.52 319.71,-162.55 329.1,-167.45 330.11,-160.52"/>
<text text-anchor="middle" x="691.5" y="-202.8" font-family="Times,serif" font-size="14.00">output</text>
</g>
<!-- Transaction&#45;&gt;OutputLockBoxValidator2 -->
<g id="edge8" class="edge">
<title>Transaction&#45;&gt;OutputLockBoxValidator2</title>
<path fill="none" stroke="black" d="M1085.64,-259.06C1198.29,-240.08 1485.8,-191.63 1648.56,-164.2"/>
<polygon fill="black" stroke="black" points="1649.34,-167.62 1658.62,-162.51 1648.17,-160.72 1649.34,-167.62"/>
<text text-anchor="middle" x="1447.5" y="-202.8" font-family="Times,serif" font-size="14.00">output</text>
</g>
<!-- Transaction&#45;&gt;ReleaseToken -->
<g id="edge14" class="edge">
<title>Transaction&#45;&gt;ReleaseToken</title>
<path fill="none" stroke="black" stroke-dasharray="5,2" d="M1053.99,-252.95C1076.81,-232.24 1119.75,-193.28 1147.46,-168.13"/>
<polygon fill="black" stroke="black" points="1150.14,-170.42 1155.19,-161.11 1145.43,-165.24 1150.14,-170.42"/>
<text text-anchor="middle" x="1130" y="-202.8" font-family="Times,serif" font-size="14.00">mints</text>
</g>
<!-- DistributedSetNode1 -->
<g id="node10" class="node">
<title>DistributedSetNode1</title>
<polygon fill="none" stroke="black" points="1321,-125.5 1321,-161.5 1498,-161.5 1498,-125.5 1321,-125.5"/>
<text text-anchor="middle" x="1409.5" y="-139.8" font-family="Times,serif" font-size="14.00">Distributed set node 1</text>
</g>
<!-- Transaction&#45;&gt;DistributedSetNode1 -->
<g id="edge12" class="edge">
<title>Transaction&#45;&gt;DistributedSetNode1</title>
<path fill="none" stroke="black" d="M1071.1,-256.24C1132.99,-235.8 1268.42,-191.08 1347.91,-164.84"/>
<polygon fill="black" stroke="black" points="1349.39,-168.03 1357.79,-161.57 1347.2,-161.39 1349.39,-168.03"/>
<text text-anchor="middle" x="1258.5" y="-202.8" font-family="Times,serif" font-size="14.00">output</text>
</g>
<!-- DistributedSetNode2 -->
<g id="node11" class="node">
<title>DistributedSetNode2</title>
<polygon fill="none" stroke="black" points="507,-125.5 507,-161.5 684,-161.5 684,-125.5 507,-125.5"/>
<text text-anchor="middle" x="595.5" y="-139.8" font-family="Times,serif" font-size="14.00">Distributed set node 2</text>
</g>
<!-- Transaction&#45;&gt;DistributedSetNode2 -->
<g id="edge13" class="edge">
<title>Transaction&#45;&gt;DistributedSetNode2</title>
<path fill="none" stroke="black" d="M1002.25,-256.98C929.1,-236.75 762.68,-190.73 666.92,-164.25"/>
<polygon fill="black" stroke="black" points="667.6,-160.81 657.03,-161.51 665.73,-167.55 667.6,-160.81"/>
<text text-anchor="middle" x="868.5" y="-202.8" font-family="Times,serif" font-size="14.00">output</text>
</g>
<!-- Transaction&#45;&gt;Recipient -->
<g id="edge11" class="edge">
<title>Transaction&#45;&gt;Recipient</title>
<path fill="none" stroke="black" d="M1022.04,-253.19C997.5,-232.6 950.99,-193.58 920.89,-168.32"/>
<polygon fill="black" stroke="black" points="922.78,-165.34 912.87,-161.59 918.28,-170.7 922.78,-165.34"/>
<text text-anchor="middle" x="997.5" y="-202.8" font-family="Times,serif" font-size="14.00">output</text>
</g>
</g>
</svg>
