<?xml version="1.0" encoding="UTF-8" standalone="no"?>
<!DOCTYPE svg PUBLIC "-//W3C//DTD SVG 1.1//EN"
 "http://www.w3.org/Graphics/SVG/1.1/DTD/svg11.dtd">
<!-- Generated by graphviz version 5.0.1 (0)
 -->
<!-- Pages: 1 -->
<svg width="2203pt" height="416pt"
 viewBox="0.00 0.00 2203.00 416.00" xmlns="http://www.w3.org/2000/svg" xmlns:xlink="http://www.w3.org/1999/xlink">
<g id="graph0" class="graph" transform="scale(1 1) rotate(0) translate(4 412)">
<polygon fill="white" stroke="none" points="-4,4 -4,-412 2199,-412 2199,4 -4,4"/>
<!-- DistributedSetNode -->
<g id="node1" class="node">
<title>DistributedSetNode</title>
<polygon fill="none" stroke="black" points="519.5,-371.5 519.5,-407.5 683.5,-407.5 683.5,-371.5 519.5,-371.5"/>
<text text-anchor="middle" x="601.5" y="-385.8" font-family="Times,serif" font-size="14.00">Distributed set node</text>
</g>
<!-- Transaction -->
<g id="node11" class="node">
<title>Transaction</title>
<polygon fill="none" stroke="black" points="1249.5,-284 1156.83,-266 1249.5,-248 1342.17,-266 1249.5,-284"/>
<text text-anchor="middle" x="1249.5" y="-262.3" font-family="Times,serif" font-size="14.00">Transaction</text>
</g>
<!-- DistributedSetNode&#45;&gt;Transaction -->
<g id="edge2" class="edge">
<title>DistributedSetNode&#45;&gt;Transaction</title>
<path fill="none" stroke="black" d="M683.57,-373.11C817.95,-347.92 1081.34,-298.53 1195.07,-277.21"/>
<polygon fill="black" stroke="black" points="1195.77,-280.64 1204.95,-275.35 1194.48,-273.76 1195.77,-280.64"/>
<text text-anchor="middle" x="983.5" y="-323.8" font-family="Times,serif" font-size="14.00">input</text>
</g>
<!-- MerkleRoot -->
<g id="node2" class="node">
<title>MerkleRoot</title>
<polygon fill="none" stroke="black" points="756,-371.5 756,-407.5 1023,-407.5 1023,-371.5 756,-371.5"/>
<text text-anchor="middle" x="889.5" y="-385.8" font-family="Times,serif" font-size="14.00">Merkle root of `MerkleTreeEntry`s</text>
</g>
<!-- MerkleRoot&#45;&gt;Transaction -->
<g id="edge1" class="edge">
<title>MerkleRoot&#45;&gt;Transaction</title>
<path fill="none" stroke="black" d="M939.94,-371.48C1011.54,-347.31 1141.32,-303.51 1207.8,-281.07"/>
<polygon fill="black" stroke="black" points="1209.16,-284.31 1217.52,-277.79 1206.93,-277.67 1209.16,-284.31"/>
<text text-anchor="middle" x="1147" y="-323.8" font-family="Times,serif" font-size="14.00">reference input</text>
</g>
<!-- InputLockBoxValidator1 -->
<g id="node3" class="node">
<title>InputLockBoxValidator1</title>
<polygon fill="none" stroke="black" points="1095,-371.5 1095,-407.5 1404,-407.5 1404,-371.5 1095,-371.5"/>
<text text-anchor="middle" x="1249.5" y="-385.8" font-family="Times,serif" font-size="14.00">LockBoxValidator with datum `McToken`</text>
</g>
<!-- InputLockBoxValidator1&#45;&gt;Transaction -->
<g id="edge3" class="edge">
<title>InputLockBoxValidator1&#45;&gt;Transaction</title>
<path fill="none" stroke="black" d="M1249.5,-371.35C1249.5,-351.27 1249.5,-317.75 1249.5,-294.14"/>
<polygon fill="black" stroke="black" points="1253,-294.06 1249.5,-284.06 1246,-294.06 1253,-294.06"/>
<text text-anchor="middle" x="1268.5" y="-323.8" font-family="Times,serif" font-size="14.00">input</text>
</g>
<!-- InputLockBoxValidator2 -->
<g id="node4" class="node">
<title>InputLockBoxValidator2</title>
<polygon fill="none" stroke="black" points="1476,-371.5 1476,-407.5 1785,-407.5 1785,-371.5 1476,-371.5"/>
<text text-anchor="middle" x="1630.5" y="-385.8" font-family="Times,serif" font-size="14.00">LockBoxValidator with datum `McToken`</text>
</g>
<!-- InputLockBoxValidator2&#45;&gt;Transaction -->
<g id="edge4" class="edge">
<title>InputLockBoxValidator2&#45;&gt;Transaction</title>
<path fill="none" stroke="black" d="M1577.12,-371.48C1501,-347.2 1362.72,-303.11 1292.66,-280.76"/>
<polygon fill="black" stroke="black" points="1293.43,-277.33 1282.84,-277.63 1291.3,-284 1293.43,-277.33"/>
<text text-anchor="middle" x="1470.5" y="-323.8" font-family="Times,serif" font-size="14.00">input</text>
</g>
<!-- InputLockBoxValidator3 -->
<g id="node5" class="node">
<title>InputLockBoxValidator3</title>
<polygon fill="none" stroke="black" points="1857,-371.5 1857,-407.5 2166,-407.5 2166,-371.5 1857,-371.5"/>
<text text-anchor="middle" x="2011.5" y="-385.8" font-family="Times,serif" font-size="14.00">LockBoxValidator with datum `McToken`</text>
</g>
<!-- InputLockBoxValidator3&#45;&gt;Transaction -->
<g id="edge5" class="edge">
<title>InputLockBoxValidator3&#45;&gt;Transaction</title>
<path fill="none" stroke="black" d="M1904.74,-371.48C1741.44,-345.44 1435.13,-296.6 1307.57,-276.26"/>
<polygon fill="black" stroke="black" points="1308.03,-272.79 1297.6,-274.67 1306.93,-279.7 1308.03,-272.79"/>
<text text-anchor="middle" x="1671.5" y="-323.8" font-family="Times,serif" font-size="14.00">input</text>
</g>
<!-- OutputLockBoxValidator1 -->
<g id="node6" class="node">
<title>OutputLockBoxValidator1</title>
<polygon fill="none" stroke="black" points="0,-124.5 0,-160.5 309,-160.5 309,-124.5 0,-124.5"/>
<text text-anchor="middle" x="154.5" y="-138.8" font-family="Times,serif" font-size="14.00">LockBoxValidator with datum `McToken`</text>
</g>
<!-- OutputLockBoxValidator2 -->
<g id="node7" class="node">
<title>OutputLockBoxValidator2</title>
<polygon fill="none" stroke="black" points="381,-124.5 381,-160.5 690,-160.5 690,-124.5 381,-124.5"/>
<text text-anchor="middle" x="535.5" y="-138.8" font-family="Times,serif" font-size="14.00">LockBoxValidator with datum `McToken`</text>
</g>
<!-- OutputLockBoxValidator3 -->
<g id="node8" class="node">
<title>OutputLockBoxValidator3</title>
<polygon fill="none" stroke="black" points="762,-124.5 762,-160.5 1071,-160.5 1071,-124.5 762,-124.5"/>
<text text-anchor="middle" x="916.5" y="-138.8" font-family="Times,serif" font-size="14.00">LockBoxValidator with datum `McToken`</text>
</g>
<!-- UnlockMintingPolicy -->
<g id="node9" class="node">
<title>UnlockMintingPolicy</title>
<ellipse fill="none" stroke="black" cx="1249.5" cy="-142.5" rx="106.68" ry="18"/>
<text text-anchor="middle" x="1249.5" y="-138.8" font-family="Times,serif" font-size="14.00">UnlockMintingPolicy</text>
</g>
<!-- BurnAddress -->
<g id="node10" class="node">
<title>BurnAddress</title>
<polygon fill="none" stroke="black" points="1194.5,-0.5 1194.5,-36.5 1304.5,-36.5 1304.5,-0.5 1194.5,-0.5"/>
<text text-anchor="middle" x="1249.5" y="-14.8" font-family="Times,serif" font-size="14.00">BurnAddress</text>
</g>
<!-- UnlockMintingPolicy&#45;&gt;BurnAddress -->
<g id="edge13" class="edge">
<title>UnlockMintingPolicy&#45;&gt;BurnAddress</title>
<path fill="none" stroke="black" stroke-dasharray="5,2" d="M1249.5,-124.28C1249.5,-104.12 1249.5,-70.46 1249.5,-46.75"/>
<polygon fill="black" stroke="black" points="1253,-46.63 1249.5,-36.63 1246,-46.63 1253,-46.63"/>
<text text-anchor="middle" x="1283" y="-76.8" font-family="Times,serif" font-size="14.00">is paid to</text>
</g>
<!-- Transaction&#45;&gt;OutputLockBoxValidator1 -->
<g id="edge6" class="edge">
<title>Transaction&#45;&gt;OutputLockBoxValidator1</title>
<path fill="none" stroke="black" d="M1193.69,-258.81C1033.57,-241.04 568.13,-189.4 318.02,-161.64"/>
<polygon fill="black" stroke="black" points="318.07,-158.13 307.74,-160.5 317.29,-165.09 318.07,-158.13"/>
<text text-anchor="middle" x="792.5" y="-200.8" font-family="Times,serif" font-size="14.00">output</text>
</g>
<!-- Transaction&#45;&gt;OutputLockBoxValidator2 -->
<g id="edge7" class="edge">
<title>Transaction&#45;&gt;OutputLockBoxValidator2</title>
<path fill="none" stroke="black" d="M1202.65,-257.03C1090.56,-237.95 804.42,-189.26 645.71,-162.25"/>
<polygon fill="black" stroke="black" points="645.89,-158.74 635.45,-160.51 644.72,-165.64 645.89,-158.74"/>
<text text-anchor="middle" x="959.5" y="-200.8" font-family="Times,serif" font-size="14.00">output</text>
</g>
<!-- Transaction&#45;&gt;OutputLockBoxValidator3 -->
<g id="edge8" class="edge">
<title>Transaction&#45;&gt;OutputLockBoxValidator3</title>
<path fill="none" stroke="black" d="M1219.07,-253.9C1163.33,-233.56 1044.06,-190.04 973.05,-164.13"/>
<polygon fill="black" stroke="black" points="973.96,-160.74 963.36,-160.6 971.56,-167.31 973.96,-160.74"/>
<text text-anchor="middle" x="1127.5" y="-200.8" font-family="Times,serif" font-size="14.00">output</text>
</g>
<!-- Transaction&#45;&gt;UnlockMintingPolicy -->
<g id="edge12" class="edge">
<title>Transaction&#45;&gt;UnlockMintingPolicy</title>
<path fill="none" stroke="black" stroke-dasharray="5,2" d="M1249.5,-247.85C1249.5,-227.77 1249.5,-194.25 1249.5,-170.64"/>
<polygon fill="black" stroke="black" points="1253,-170.56 1249.5,-160.56 1246,-170.56 1253,-170.56"/>
<text text-anchor="middle" x="1270" y="-200.8" font-family="Times,serif" font-size="14.00">mints</text>
</g>
<!-- DistributedSetNode1 -->
<g id="node12" class="node">
<title>DistributedSetNode1</title>
<polygon fill="none" stroke="black" points="1428,-124.5 1428,-160.5 1605,-160.5 1605,-124.5 1428,-124.5"/>
<text text-anchor="middle" x="1516.5" y="-138.8" font-family="Times,serif" font-size="14.00">Distributed set node 1</text>
</g>
<!-- Transaction&#45;&gt;DistributedSetNode1 -->
<g id="edge9" class="edge">
<title>Transaction&#45;&gt;DistributedSetNode1</title>
<path fill="none" stroke="black" d="M1276.08,-252.91C1321.21,-232.37 1413.42,-190.41 1469.6,-164.84"/>
<polygon fill="black" stroke="black" points="1471.33,-167.9 1478.98,-160.57 1468.43,-161.53 1471.33,-167.9"/>
<text text-anchor="middle" x="1415.5" y="-200.8" font-family="Times,serif" font-size="14.00">output</text>
</g>
<!-- DistributedSetNode2 -->
<g id="node13" class="node">
<title>DistributedSetNode2</title>
<polygon fill="none" stroke="black" points="1677,-124.5 1677,-160.5 1854,-160.5 1854,-124.5 1677,-124.5"/>
<text text-anchor="middle" x="1765.5" y="-138.8" font-family="Times,serif" font-size="14.00">Distributed set node 2</text>
</g>
<!-- Transaction&#45;&gt;DistributedSetNode2 -->
<g id="edge10" class="edge">
<title>Transaction&#45;&gt;DistributedSetNode2</title>
<path fill="none" stroke="black" d="M1289.13,-255.67C1373.09,-235.9 1570.37,-189.45 1682.95,-162.94"/>
<polygon fill="black" stroke="black" points="1683.98,-166.29 1692.91,-160.59 1682.37,-159.48 1683.98,-166.29"/>
<text text-anchor="middle" x="1546.5" y="-200.8" font-family="Times,serif" font-size="14.00">output</text>
</g>
<!-- Recipient -->
<g id="node14" class="node">
<title>Recipient</title>
<polygon fill="none" stroke="black" points="1926,-124.5 1926,-160.5 2195,-160.5 2195,-124.5 1926,-124.5"/>
<text text-anchor="middle" x="2060.5" y="-138.8" font-family="Times,serif" font-size="14.00">Recipient receives their `McToken`</text>
</g>
<!-- Transaction&#45;&gt;Recipient -->
<g id="edge11" class="edge">
<title>Transaction&#45;&gt;Recipient</title>
<path fill="none" stroke="black" d="M1299.01,-257.58C1423.98,-238.86 1755.13,-189.25 1936.85,-162.02"/>
<polygon fill="black" stroke="black" points="1937.63,-165.45 1947,-160.5 1936.59,-158.52 1937.63,-165.45"/>
<text text-anchor="middle" x="1702.5" y="-200.8" font-family="Times,serif" font-size="14.00">output</text>
</g>
</g>
</svg>
