<?xml version="1.0" encoding="UTF-8" standalone="no"?>
<!DOCTYPE svg PUBLIC "-//W3C//DTD SVG 1.1//EN"
 "http://www.w3.org/Graphics/SVG/1.1/DTD/svg11.dtd">
<!-- Generated by graphviz version 5.0.1 (0)
 -->
<!-- Pages: 1 -->
<svg width="765pt" height="416pt"
 viewBox="0.00 0.00 765.00 416.00" xmlns="http://www.w3.org/2000/svg" xmlns:xlink="http://www.w3.org/1999/xlink">
<g id="graph0" class="graph" transform="scale(1 1) rotate(0) translate(4 412)">
<polygon fill="white" stroke="none" points="-4,4 -4,-412 761,-412 761,4 -4,4"/>
<!-- DistributedSetNode -->
<g id="node1" class="node">
<title>DistributedSetNode</title>
<polygon fill="none" stroke="black" points="223,-371.5 223,-407.5 387,-407.5 387,-371.5 223,-371.5"/>
<text text-anchor="middle" x="305" y="-385.8" font-family="Times,serif" font-size="14.00">Distributed set node</text>
</g>
<!-- Transaction -->
<g id="node3" class="node">
<title>Transaction</title>
<polygon fill="none" stroke="black" points="449,-284 356.33,-266 449,-248 541.67,-266 449,-284"/>
<text text-anchor="middle" x="449" y="-262.3" font-family="Times,serif" font-size="14.00">Transaction</text>
</g>
<!-- DistributedSetNode&#45;&gt;Transaction -->
<g id="edge1" class="edge">
<title>DistributedSetNode&#45;&gt;Transaction</title>
<path fill="none" stroke="black" d="M325.33,-371.35C351.43,-349.32 396.7,-311.13 424.63,-287.56"/>
<polygon fill="black" stroke="black" points="426.97,-290.17 432.36,-281.04 422.46,-284.82 426.97,-290.17"/>
<text text-anchor="middle" x="405" y="-323.8" font-family="Times,serif" font-size="14.00">input</text>
</g>
<!-- MerkleRoot -->
<g id="node2" class="node">
<title>MerkleRoot</title>
<polygon fill="none" stroke="black" points="459.5,-371.5 459.5,-407.5 726.5,-407.5 726.5,-371.5 459.5,-371.5"/>
<text text-anchor="middle" x="593" y="-385.8" font-family="Times,serif" font-size="14.00">Merkle root of `MerkleTreeEntry`s</text>
</g>
<!-- MerkleRoot&#45;&gt;Transaction -->
<g id="edge2" class="edge">
<title>MerkleRoot&#45;&gt;Transaction</title>
<path fill="none" stroke="black" d="M572.67,-371.35C546.57,-349.32 501.3,-311.13 473.37,-287.56"/>
<polygon fill="black" stroke="black" points="475.54,-284.82 465.64,-281.04 471.03,-290.17 475.54,-284.82"/>
<text text-anchor="middle" x="580.5" y="-323.8" font-family="Times,serif" font-size="14.00">reference input</text>
</g>
<!-- UnlockMintingPolicy -->
<g id="node4" class="node">
<title>UnlockMintingPolicy</title>
<polygon fill="none" stroke="black" points="0,-124.5 0,-160.5 164,-160.5 164,-124.5 0,-124.5"/>
<text text-anchor="middle" x="82" y="-138.8" font-family="Times,serif" font-size="14.00">UnlockMintingPolicy</text>
</g>
<!-- Transaction&#45;&gt;UnlockMintingPolicy -->
<g id="edge5" class="edge">
<title>Transaction&#45;&gt;UnlockMintingPolicy</title>
<path fill="none" stroke="black" d="M416.43,-254.22C355.11,-233.92 221.64,-189.73 143.12,-163.73"/>
<polygon fill="black" stroke="black" points="143.95,-160.32 133.35,-160.5 141.75,-166.97 143.95,-160.32"/>
<text text-anchor="middle" x="308.5" y="-200.8" font-family="Times,serif" font-size="14.00">mints</text>
</g>
<!-- DistributedSetNode1 -->
<g id="node5" class="node">
<title>DistributedSetNode1</title>
<polygon fill="none" stroke="black" points="236.5,-124.5 236.5,-160.5 413.5,-160.5 413.5,-124.5 236.5,-124.5"/>
<text text-anchor="middle" x="325" y="-138.8" font-family="Times,serif" font-size="14.00">Distributed set node 1</text>
</g>
<!-- Transaction&#45;&gt;DistributedSetNode1 -->
<g id="edge3" class="edge">
<title>Transaction&#45;&gt;DistributedSetNode1</title>
<path fill="none" stroke="black" d="M434.29,-250.59C413.48,-230.19 375.16,-192.64 349.87,-167.87"/>
<polygon fill="black" stroke="black" points="352.07,-165.13 342.48,-160.63 347.17,-170.13 352.07,-165.13"/>
<text text-anchor="middle" x="419" y="-200.8" font-family="Times,serif" font-size="14.00">output</text>
</g>
<!-- DistributedSetNode2 -->
<g id="node6" class="node">
<title>DistributedSetNode2</title>
<polygon fill="none" stroke="black" points="485.5,-124.5 485.5,-160.5 662.5,-160.5 662.5,-124.5 485.5,-124.5"/>
<text text-anchor="middle" x="574" y="-138.8" font-family="Times,serif" font-size="14.00">Distributed set node 2</text>
</g>
<!-- Transaction&#45;&gt;DistributedSetNode2 -->
<g id="edge4" class="edge">
<title>Transaction&#45;&gt;DistributedSetNode2</title>
<path fill="none" stroke="black" d="M463.83,-250.59C484.81,-230.19 523.44,-192.64 548.93,-167.87"/>
<polygon fill="black" stroke="black" points="551.65,-170.11 556.38,-160.63 546.77,-165.09 551.65,-170.11"/>
<text text-anchor="middle" x="539" y="-200.8" font-family="Times,serif" font-size="14.00">output</text>
</g>
<!-- Recipient -->
<g id="node7" class="node">
<title>Recipient</title>
<polygon fill="none" stroke="black" points="402,-0.5 402,-36.5 486,-36.5 486,-0.5 402,-0.5"/>
<text text-anchor="middle" x="444" y="-14.8" font-family="Times,serif" font-size="14.00">Recipient</text>
</g>
<!-- Transaction&#45;&gt;Recipient -->
<g id="edge6" class="edge">
<title>Transaction&#45;&gt;Recipient</title>
<path fill="none" stroke="black" d="M499.08,-257.69C586.33,-242.73 752.1,-203.14 699,-124 653.9,-56.77 557.01,-32.76 496.5,-24.21"/>
<polygon fill="black" stroke="black" points="496.75,-20.71 486.38,-22.87 495.84,-27.65 496.75,-20.71"/>
<text text-anchor="middle" x="733" y="-138.8" font-family="Times,serif" font-size="14.00">output</text>
</g>
<!-- UnlockMintingPolicy&#45;&gt;Recipient -->
<g id="edge7" class="edge">
<title>UnlockMintingPolicy&#45;&gt;Recipient</title>
<path fill="none" stroke="black" stroke-dasharray="5,2" d="M132.72,-124.41C201.24,-101.31 322.78,-60.35 391.98,-37.03"/>
<polygon fill="black" stroke="black" points="393.43,-40.24 401.79,-33.72 391.2,-33.6 393.43,-40.24"/>
<text text-anchor="middle" x="318.5" y="-76.8" font-family="Times,serif" font-size="14.00">is paid to</text>
</g>
</g>
</svg>
