<?xml version="1.0" encoding="UTF-8" standalone="no"?>
<!DOCTYPE svg PUBLIC "-//W3C//DTD SVG 1.1//EN"
 "http://www.w3.org/Graphics/SVG/1.1/DTD/svg11.dtd">
<!-- Generated by graphviz version 5.0.1 (0)
 -->
<!-- Pages: 1 -->
<svg width="846pt" height="254pt"
 viewBox="0.00 0.00 846.00 254.00" xmlns="http://www.w3.org/2000/svg" xmlns:xlink="http://www.w3.org/1999/xlink">
<g id="graph0" class="graph" transform="scale(1 1) rotate(0) translate(4 250)">
<polygon fill="white" stroke="none" points="-4,4 -4,-250 842,-250 842,4 -4,4"/>
<!-- UserWallet -->
<g id="node1" class="node">
<title>UserWallet</title>
<polygon fill="none" stroke="black" points="0,-200 0,-238 296,-238 296,-200 0,-200"/>
<text text-anchor="middle" x="148" y="-222.8" font-family="Times,serif" font-size="14.00">Participant&#39;s wallet with k `MCToken`s</text>
<text text-anchor="middle" x="148" y="-207.8" font-family="Times,serif" font-size="14.00">with token name `tn`</text>
</g>
<!-- Transaction -->
<g id="node3" class="node">
<title>Transaction</title>
<polygon fill="none" stroke="black" points="445,-141 352.33,-123 445,-105 537.67,-123 445,-141"/>
<text text-anchor="middle" x="445" y="-119.3" font-family="Times,serif" font-size="14.00">Transaction</text>
</g>
<!-- UserWallet&#45;&gt;Transaction -->
<g id="edge1" class="edge">
<title>UserWallet&#45;&gt;Transaction</title>
<path fill="none" stroke="black" d="M204.91,-199.99C262.35,-181.81 349.79,-154.13 401.78,-137.68"/>
<polygon fill="black" stroke="black" points="402.89,-141 411.37,-134.64 400.78,-134.32 402.89,-141"/>
<text text-anchor="middle" x="351" y="-162.8" font-family="Times,serif" font-size="14.00">input</text>
</g>
<!-- LockBoxValidator2 -->
<g id="node4" class="node">
<title>LockBoxValidator2</title>
<polygon fill="none" stroke="black" points="183,-0.5 183,-53.5 707,-53.5 707,-0.5 183,-0.5"/>
<text text-anchor="middle" x="445" y="-38.3" font-family="Times,serif" font-size="14.00">LockBoxValidator uniquely identified by `LockBoxOracleMintingPolicy`</text>
<text text-anchor="middle" x="445" y="-23.3" font-family="Times,serif" font-size="14.00">with datum the currency symbol of `MCToken` and token name `tn`,</text>
<text text-anchor="middle" x="445" y="-8.3" font-family="Times,serif" font-size="14.00">and `k + ki` `MCToken`s with token name `tn`</text>
</g>
<!-- UserWallet&#45;&gt;LockBoxValidator2 -->
<g id="edge4" class="edge">
<title>UserWallet&#45;&gt;LockBoxValidator2</title>
<path fill="none" stroke="black" stroke-dasharray="5,2" d="M144.63,-199.91C141.16,-175.34 139.08,-131.44 162,-105 179.43,-84.9 229.78,-68.38 283.27,-55.86"/>
<polygon fill="black" stroke="black" points="284.32,-59.21 293.29,-53.57 282.76,-52.39 284.32,-59.21"/>
<text text-anchor="middle" x="252.5" y="-126.8" font-family="Times,serif" font-size="14.00">pays `k` `MCToken` with</text>
<text text-anchor="middle" x="252.5" y="-111.8" font-family="Times,serif" font-size="14.00">token name `tn` to</text>
</g>
<!-- LockBoxValidator1 -->
<g id="node2" class="node">
<title>LockBoxValidator1</title>
<polygon fill="none" stroke="black" points="314,-192.5 314,-245.5 838,-245.5 838,-192.5 314,-192.5"/>
<text text-anchor="middle" x="576" y="-230.3" font-family="Times,serif" font-size="14.00">LockBoxValidator uniquely identified by `LockBoxOracleMintingPolicy`</text>
<text text-anchor="middle" x="576" y="-215.3" font-family="Times,serif" font-size="14.00">with datum the currency symbol of `MCToken` and token name `tn`,</text>
<text text-anchor="middle" x="576" y="-200.3" font-family="Times,serif" font-size="14.00">and `ki` `MCToken`s with token name `tn`</text>
</g>
<!-- LockBoxValidator1&#45;&gt;Transaction -->
<g id="edge2" class="edge">
<title>LockBoxValidator1&#45;&gt;Transaction</title>
<path fill="none" stroke="black" d="M540.2,-192.31C518.69,-176.88 491.75,-157.55 472.03,-143.39"/>
<polygon fill="black" stroke="black" points="473.95,-140.47 463.79,-137.48 469.87,-146.15 473.95,-140.47"/>
<text text-anchor="middle" x="533" y="-162.8" font-family="Times,serif" font-size="14.00">input</text>
</g>
<!-- LockBoxValidator1&#45;&gt;LockBoxValidator2 -->
<g id="edge5" class="edge">
<title>LockBoxValidator1&#45;&gt;LockBoxValidator2</title>
<path fill="none" stroke="black" stroke-dasharray="5,2" d="M574.25,-192.25C571.54,-167.97 564.63,-131.46 547,-105 535,-86.99 517.34,-71.53 500.07,-59.28"/>
<polygon fill="black" stroke="black" points="501.88,-56.28 491.65,-53.53 497.93,-62.06 501.88,-56.28"/>
<text text-anchor="middle" x="700.5" y="-119.3" font-family="Times,serif" font-size="14.00">pays `LockBoxOracleMintingPolicy` to</text>
</g>
<!-- Transaction&#45;&gt;LockBoxValidator2 -->
<g id="edge3" class="edge">
<title>Transaction&#45;&gt;LockBoxValidator2</title>
<path fill="none" stroke="black" d="M445,-104.76C445,-93.36 445,-77.98 445,-63.99"/>
<polygon fill="black" stroke="black" points="448.5,-63.64 445,-53.64 441.5,-63.64 448.5,-63.64"/>
<text text-anchor="middle" x="469" y="-75.8" font-family="Times,serif" font-size="14.00">output</text>
</g>
</g>
</svg>
