<?xml version="1.0" encoding="UTF-8" standalone="no"?>
<!DOCTYPE svg PUBLIC "-//W3C//DTD SVG 1.1//EN"
 "http://www.w3.org/Graphics/SVG/1.1/DTD/svg11.dtd">
<!-- Generated by graphviz version 5.0.1 (0)
 -->
<!-- Pages: 1 -->
<svg width="1003pt" height="254pt"
 viewBox="0.00 0.00 1002.50 254.00" xmlns="http://www.w3.org/2000/svg" xmlns:xlink="http://www.w3.org/1999/xlink">
<g id="graph0" class="graph" transform="scale(1 1) rotate(0) translate(4 250)">
<polygon fill="white" stroke="none" points="-4,4 -4,-250 998.5,-250 998.5,4 -4,4"/>
<!-- UserWallet -->
<g id="node1" class="node">
<title>UserWallet</title>
<polygon fill="none" stroke="black" points="0,-200 0,-238 296,-238 296,-200 0,-200"/>
<text text-anchor="middle" x="148" y="-222.8" font-family="Times,serif" font-size="14.00">Participant&#39;s wallet with k `MCToken`s</text>
<text text-anchor="middle" x="148" y="-207.8" font-family="Times,serif" font-size="14.00">with token name `tn`</text>
</g>
<!-- Transaction -->
<g id="node3" class="node">
<title>Transaction</title>
<polygon fill="none" stroke="black" points="505,-141 412.33,-123 505,-105 597.67,-123 505,-141"/>
<text text-anchor="middle" x="505" y="-119.3" font-family="Times,serif" font-size="14.00">Transaction</text>
</g>
<!-- UserWallet&#45;&gt;Transaction -->
<g id="edge1" class="edge">
<title>UserWallet&#45;&gt;Transaction</title>
<path fill="none" stroke="black" d="M216.41,-199.99C287.18,-181.35 395.83,-152.75 457.65,-136.47"/>
<polygon fill="black" stroke="black" points="458.74,-139.8 467.52,-133.87 456.96,-133.03 458.74,-139.8"/>
<text text-anchor="middle" x="388" y="-162.8" font-family="Times,serif" font-size="14.00">input</text>
</g>
<!-- LockBoxValidator2 -->
<g id="node4" class="node">
<title>LockBoxValidator2</title>
<polygon fill="none" stroke="black" points="164.5,-0.5 164.5,-53.5 845.5,-53.5 845.5,-0.5 164.5,-0.5"/>
<text text-anchor="middle" x="505" y="-38.3" font-family="Times,serif" font-size="14.00">LockBoxValidator parameterized by the currency symbol of `MCToken` and token name `tn`,</text>
<text text-anchor="middle" x="505" y="-23.3" font-family="Times,serif" font-size="14.00">uniquely identified by `LockBoxOracleMintingPolicy`,</text>
<text text-anchor="middle" x="505" y="-8.3" font-family="Times,serif" font-size="14.00">with `k + ki` `MCToken`s with token name `tn`</text>
</g>
<!-- UserWallet&#45;&gt;LockBoxValidator2 -->
<g id="edge4" class="edge">
<title>UserWallet&#45;&gt;LockBoxValidator2</title>
<path fill="none" stroke="black" stroke-dasharray="5,2" d="M153.85,-199.74C162.88,-174.55 182.62,-129.49 215,-105 243.58,-83.39 277.73,-67.83 312.41,-56.63"/>
<polygon fill="black" stroke="black" points="313.69,-59.9 322.2,-53.59 311.61,-53.21 313.69,-59.9"/>
<text text-anchor="middle" x="309" y="-126.8" font-family="Times,serif" font-size="14.00">pays `k` `MCToken`s with</text>
<text text-anchor="middle" x="309" y="-111.8" font-family="Times,serif" font-size="14.00">token name `tn` to</text>
</g>
<!-- LockBoxValidator1 -->
<g id="node2" class="node">
<title>LockBoxValidator1</title>
<polygon fill="none" stroke="black" points="313.5,-192.5 313.5,-245.5 994.5,-245.5 994.5,-192.5 313.5,-192.5"/>
<text text-anchor="middle" x="654" y="-230.3" font-family="Times,serif" font-size="14.00">LockBoxValidator parameterized by the currency symbol of `MCToken` and token name `tn`,</text>
<text text-anchor="middle" x="654" y="-215.3" font-family="Times,serif" font-size="14.00">uniquely identified by `LockBoxOracleMintingPolicy`,</text>
<text text-anchor="middle" x="654" y="-200.3" font-family="Times,serif" font-size="14.00">with `ki` `MCToken`s with token name `tn`</text>
</g>
<!-- LockBoxValidator1&#45;&gt;Transaction -->
<g id="edge2" class="edge">
<title>LockBoxValidator1&#45;&gt;Transaction</title>
<path fill="none" stroke="black" d="M613.29,-192.31C588.34,-176.57 556.97,-156.79 534.43,-142.57"/>
<polygon fill="black" stroke="black" points="536.28,-139.59 525.95,-137.22 532.54,-145.51 536.28,-139.59"/>
<text text-anchor="middle" x="602" y="-162.8" font-family="Times,serif" font-size="14.00">input</text>
</g>
<!-- LockBoxValidator1&#45;&gt;LockBoxValidator2 -->
<g id="edge5" class="edge">
<title>LockBoxValidator1&#45;&gt;LockBoxValidator2</title>
<path fill="none" stroke="black" stroke-dasharray="5,2" d="M647.52,-192.2C640.48,-167.9 627.43,-131.37 607,-105 593.45,-87.52 574.99,-71.97 557.49,-59.51"/>
<polygon fill="black" stroke="black" points="559.22,-56.45 549.01,-53.64 555.24,-62.21 559.22,-56.45"/>
<text text-anchor="middle" x="764.5" y="-119.3" font-family="Times,serif" font-size="14.00">pays `LockBoxOracleMintingPolicy` to</text>
</g>
<!-- Transaction&#45;&gt;LockBoxValidator2 -->
<g id="edge3" class="edge">
<title>Transaction&#45;&gt;LockBoxValidator2</title>
<path fill="none" stroke="black" d="M505,-104.76C505,-93.36 505,-77.98 505,-63.99"/>
<polygon fill="black" stroke="black" points="508.5,-63.64 505,-53.64 501.5,-63.64 508.5,-63.64"/>
<text text-anchor="middle" x="529" y="-75.8" font-family="Times,serif" font-size="14.00">output</text>
</g>
</g>
</svg>
