<?xml version="1.0" encoding="UTF-8" standalone="no"?>
<!DOCTYPE svg PUBLIC "-//W3C//DTD SVG 1.1//EN"
 "http://www.w3.org/Graphics/SVG/1.1/DTD/svg11.dtd">
<!-- Generated by graphviz version 5.0.1 (0)
 -->
<!-- Pages: 1 -->
<svg width="1657pt" height="450pt"
 viewBox="0.00 0.00 1656.50 450.00" xmlns="http://www.w3.org/2000/svg" xmlns:xlink="http://www.w3.org/1999/xlink">
<g id="graph0" class="graph" transform="scale(1 1) rotate(0) translate(4 446)">
<polygon fill="white" stroke="none" points="-4,4 -4,-446 1652.5,-446 1652.5,4 -4,4"/>
<!-- DistributedSetNode -->
<g id="node1" class="node">
<title>DistributedSetNode</title>
<polygon fill="none" stroke="black" points="437.5,-397 437.5,-433 601.5,-433 601.5,-397 437.5,-397"/>
<text text-anchor="middle" x="519.5" y="-411.3" font-family="Times,serif" font-size="14.00">Distributed set node</text>
</g>
<!-- Transaction -->
<g id="node4" class="node">
<title>Transaction</title>
<polygon fill="none" stroke="black" points="663.5,-301 570.83,-283 663.5,-265 756.17,-283 663.5,-301"/>
<text text-anchor="middle" x="663.5" y="-279.3" font-family="Times,serif" font-size="14.00">Transaction</text>
</g>
<!-- DistributedSetNode&#45;&gt;Transaction -->
<g id="edge2" class="edge">
<title>DistributedSetNode&#45;&gt;Transaction</title>
<path fill="none" stroke="black" d="M538.62,-396.74C564.92,-373 612.18,-330.33 640.41,-304.84"/>
<polygon fill="black" stroke="black" points="642.76,-307.44 647.84,-298.14 638.07,-302.24 642.76,-307.44"/>
<text text-anchor="middle" x="623.5" y="-340.8" font-family="Times,serif" font-size="14.00">input</text>
</g>
<!-- MerkleRoot -->
<g id="node2" class="node">
<title>MerkleRoot</title>
<polygon fill="none" stroke="black" points="674,-397 674,-433 941,-433 941,-397 674,-397"/>
<text text-anchor="middle" x="807.5" y="-411.3" font-family="Times,serif" font-size="14.00">Merkle root of `MerkleTreeEntry`s</text>
</g>
<!-- MerkleRoot&#45;&gt;Transaction -->
<g id="edge3" class="edge">
<title>MerkleRoot&#45;&gt;Transaction</title>
<path fill="none" stroke="black" d="M788.38,-396.74C762.08,-373 714.82,-330.33 686.59,-304.84"/>
<polygon fill="black" stroke="black" points="688.93,-302.24 679.16,-298.14 684.24,-307.44 688.93,-302.24"/>
<text text-anchor="middle" x="791" y="-340.8" font-family="Times,serif" font-size="14.00">reference input</text>
</g>
<!-- LockBoxValidator1 -->
<g id="node3" class="node">
<title>LockBoxValidator1</title>
<polygon fill="none" stroke="black" points="1124.5,-388.5 1124.5,-441.5 1648.5,-441.5 1648.5,-388.5 1124.5,-388.5"/>
<text text-anchor="middle" x="1386.5" y="-426.3" font-family="Times,serif" font-size="14.00">LockBoxValidator uniquely identified by `LockBoxOracleMintingPolicy`</text>
<text text-anchor="middle" x="1386.5" y="-411.3" font-family="Times,serif" font-size="14.00">with datum the currency symbol of `MCToken` and token name `tn`,</text>
<text text-anchor="middle" x="1386.5" y="-396.3" font-family="Times,serif" font-size="14.00">and `ki` `MCToken`s with token name `tn`</text>
</g>
<!-- LockBoxValidator1&#45;&gt;Transaction -->
<g id="edge1" class="edge">
<title>LockBoxValidator1&#45;&gt;Transaction</title>
<path fill="none" stroke="black" d="M1244.52,-388.47C1084.01,-359.61 830.56,-314.04 719.16,-294.01"/>
<polygon fill="black" stroke="black" points="719.61,-290.53 709.15,-292.21 718.37,-297.42 719.61,-290.53"/>
<text text-anchor="middle" x="1043.5" y="-340.8" font-family="Times,serif" font-size="14.00">input</text>
</g>
<!-- Recipient -->
<g id="node9" class="node">
<title>Recipient</title>
<polygon fill="none" stroke="black" points="702.5,-0.5 702.5,-36.5 786.5,-36.5 786.5,-0.5 702.5,-0.5"/>
<text text-anchor="middle" x="744.5" y="-14.8" font-family="Times,serif" font-size="14.00">Recipient</text>
</g>
<!-- LockBoxValidator1&#45;&gt;Recipient -->
<g id="edge10" class="edge">
<title>LockBoxValidator1&#45;&gt;Recipient</title>
<path fill="none" stroke="black" stroke-dasharray="5,2" d="M1401.32,-388.26C1431.14,-332.72 1490.14,-200.49 1424.5,-124 1343.31,-29.38 942.29,-19.59 797.09,-19.2"/>
<polygon fill="black" stroke="black" points="796.69,-15.7 786.68,-19.18 796.68,-22.7 796.69,-15.7"/>
<text text-anchor="middle" x="1539" y="-217.8" font-family="Times,serif" font-size="14.00">pays `k` `MCToken`s to</text>
</g>
<!-- LockBoxValidator2 -->
<g id="node5" class="node">
<title>LockBoxValidator2</title>
<polygon fill="none" stroke="black" points="864.5,-124.5 864.5,-177.5 1388.5,-177.5 1388.5,-124.5 864.5,-124.5"/>
<text text-anchor="middle" x="1126.5" y="-162.3" font-family="Times,serif" font-size="14.00">LockBoxValidator uniquely identified by `LockBoxOracleMintingPolicy`</text>
<text text-anchor="middle" x="1126.5" y="-147.3" font-family="Times,serif" font-size="14.00">with datum the currency symbol of `MCToken` and token name `tn`,</text>
<text text-anchor="middle" x="1126.5" y="-132.3" font-family="Times,serif" font-size="14.00">and `ki &#45; k` `MCToken`s with token name `tn`</text>
</g>
<!-- Transaction&#45;&gt;LockBoxValidator2 -->
<g id="edge7" class="edge">
<title>Transaction&#45;&gt;LockBoxValidator2</title>
<path fill="none" stroke="black" d="M699.45,-271.91C768.71,-252.46 922.89,-209.17 1025.78,-180.28"/>
<polygon fill="black" stroke="black" points="1026.89,-183.6 1035.57,-177.53 1025,-176.86 1026.89,-183.6"/>
<text text-anchor="middle" x="918.5" y="-217.8" font-family="Times,serif" font-size="14.00">output</text>
</g>
<!-- DistributedSetNode1 -->
<g id="node6" class="node">
<title>DistributedSetNode1</title>
<polygon fill="none" stroke="black" points="0,-133 0,-169 177,-169 177,-133 0,-133"/>
<text text-anchor="middle" x="88.5" y="-147.3" font-family="Times,serif" font-size="14.00">Distributed set node 1</text>
</g>
<!-- Transaction&#45;&gt;DistributedSetNode1 -->
<g id="edge4" class="edge">
<title>Transaction&#45;&gt;DistributedSetNode1</title>
<path fill="none" stroke="black" d="M618.53,-273.6C565.88,-263.63 476.14,-246.17 399.5,-229 318.61,-210.88 226.51,-187.76 163.66,-171.6"/>
<polygon fill="black" stroke="black" points="164.38,-168.18 153.83,-169.07 162.64,-174.96 164.38,-168.18"/>
<text text-anchor="middle" x="423.5" y="-217.8" font-family="Times,serif" font-size="14.00">output</text>
</g>
<!-- DistributedSetNode2 -->
<g id="node7" class="node">
<title>DistributedSetNode2</title>
<polygon fill="none" stroke="black" points="249,-133 249,-169 426,-169 426,-133 249,-133"/>
<text text-anchor="middle" x="337.5" y="-147.3" font-family="Times,serif" font-size="14.00">Distributed set node 2</text>
</g>
<!-- Transaction&#45;&gt;DistributedSetNode2 -->
<g id="edge5" class="edge">
<title>Transaction&#45;&gt;DistributedSetNode2</title>
<path fill="none" stroke="black" d="M626.81,-272C592.62,-262.3 540.44,-246.51 496.5,-229 455.27,-212.57 409.84,-190.11 378.14,-173.69"/>
<polygon fill="black" stroke="black" points="379.66,-170.53 369.17,-169.01 376.42,-176.74 379.66,-170.53"/>
<text text-anchor="middle" x="520.5" y="-217.8" font-family="Times,serif" font-size="14.00">output</text>
</g>
<!-- SCToken -->
<g id="node8" class="node">
<title>SCToken</title>
<ellipse fill="none" stroke="black" cx="549.5" cy="-151" rx="51.19" ry="18"/>
<text text-anchor="middle" x="549.5" y="-147.3" font-family="Times,serif" font-size="14.00">SCToken</text>
</g>
<!-- Transaction&#45;&gt;SCToken -->
<g id="edge6" class="edge">
<title>Transaction&#45;&gt;SCToken</title>
<path fill="none" stroke="black" d="M631.56,-271.15C611.27,-262.68 585.99,-248.97 570.5,-229 559.53,-214.85 554.29,-195.38 551.78,-179.55"/>
<polygon fill="black" stroke="black" points="555.21,-178.75 550.45,-169.29 548.26,-179.66 555.21,-178.75"/>
<text text-anchor="middle" x="630" y="-217.8" font-family="Times,serif" font-size="14.00">mints `k` tokens</text>
</g>
<!-- Transaction&#45;&gt;Recipient -->
<g id="edge8" class="edge">
<title>Transaction&#45;&gt;Recipient</title>
<path fill="none" stroke="black" d="M677.41,-267.42C686.22,-257.38 697.11,-243.32 703.5,-229 730.96,-167.49 740.1,-87.72 743.08,-46.62"/>
<polygon fill="black" stroke="black" points="746.58,-46.78 743.75,-36.57 739.6,-46.32 746.58,-46.78"/>
<text text-anchor="middle" x="756.5" y="-147.3" font-family="Times,serif" font-size="14.00">output</text>
</g>
<!-- SCToken&#45;&gt;Recipient -->
<g id="edge9" class="edge">
<title>SCToken&#45;&gt;Recipient</title>
<path fill="none" stroke="black" stroke-dasharray="5,2" d="M561.92,-133.42C575.34,-116.44 598.09,-90.16 622.5,-73 643.86,-57.99 670.1,-45.81 692.77,-36.89"/>
<polygon fill="black" stroke="black" points="694.15,-40.11 702.24,-33.27 691.65,-33.57 694.15,-40.11"/>
<text text-anchor="middle" x="656" y="-76.8" font-family="Times,serif" font-size="14.00">is paid to</text>
</g>
</g>
</svg>
