<?xml version="1.0" encoding="UTF-8" standalone="no"?>
<!DOCTYPE svg PUBLIC "-//W3C//DTD SVG 1.1//EN"
 "http://www.w3.org/Graphics/SVG/1.1/DTD/svg11.dtd">
<!-- Generated by graphviz version 5.0.1 (0)
 -->
<!-- Pages: 1 -->
<svg width="1659pt" height="482pt"
 viewBox="0.00 0.00 1659.00 482.00" xmlns="http://www.w3.org/2000/svg" xmlns:xlink="http://www.w3.org/1999/xlink">
<g id="graph0" class="graph" transform="scale(1 1) rotate(0) translate(4 478)">
<polygon fill="white" stroke="none" points="-4,4 -4,-478 1655,-478 1655,4 -4,4"/>
<g id="clust1" class="cluster">
<title>cluster_tx1</title>
<polygon fill="none" stroke="black" points="8,-8 8,-466 1643,-466 1643,-8 8,-8"/>
</g>
<!-- DistributedSetNode -->
<g id="node1" class="node">
<title>DistributedSetNode</title>
<polygon fill="none" stroke="black" points="1108,-413 1108,-449 1272,-449 1272,-413 1108,-413"/>
<text text-anchor="middle" x="1190" y="-427.3" font-family="Times,serif" font-size="14.00">Distributed set node</text>
</g>
<!-- Transaction -->
<g id="node4" class="node">
<title>Transaction</title>
<polygon fill="none" stroke="black" points="703,-317 610.33,-299 703,-281 795.67,-299 703,-317"/>
<text text-anchor="middle" x="703" y="-295.3" font-family="Times,serif" font-size="14.00">Transaction</text>
</g>
<!-- DistributedSetNode&#45;&gt;Transaction -->
<g id="edge2" class="edge">
<title>DistributedSetNode&#45;&gt;Transaction</title>
<path fill="none" stroke="black" d="M1136.2,-412.97C1084,-396.69 1002.43,-371.9 931,-353 870.79,-337.07 800.96,-321.22 754.6,-311.06"/>
<polygon fill="black" stroke="black" points="755.31,-307.63 744.79,-308.92 753.82,-314.47 755.31,-307.63"/>
<text text-anchor="middle" x="999" y="-356.8" font-family="Times,serif" font-size="14.00">input</text>
</g>
<!-- MerkleRoot -->
<g id="node2" class="node">
<title>MerkleRoot</title>
<polygon fill="none" stroke="black" points="768.5,-413 768.5,-449 1035.5,-449 1035.5,-413 768.5,-413"/>
<text text-anchor="middle" x="902" y="-427.3" font-family="Times,serif" font-size="14.00">Merkle root of `MerkleTreeEntry`s</text>
</g>
<!-- MerkleRoot&#45;&gt;Transaction -->
<g id="edge3" class="edge">
<title>MerkleRoot&#45;&gt;Transaction</title>
<path fill="none" stroke="black" d="M875.57,-412.74C838.28,-388.38 770.47,-344.07 731.89,-318.87"/>
<polygon fill="black" stroke="black" points="733.49,-315.74 723.2,-313.2 729.66,-321.6 733.49,-315.74"/>
<text text-anchor="middle" x="857.5" y="-356.8" font-family="Times,serif" font-size="14.00">reference input</text>
</g>
<!-- LockBoxValidator1 -->
<g id="node3" class="node">
<title>LockBoxValidator1</title>
<polygon fill="none" stroke="black" points="15.5,-404.5 15.5,-457.5 696.5,-457.5 696.5,-404.5 15.5,-404.5"/>
<text text-anchor="middle" x="356" y="-442.3" font-family="Times,serif" font-size="14.00">LockBoxValidator parameterized by the currency symbol of `MCToken` and token name `tn`,</text>
<text text-anchor="middle" x="356" y="-427.3" font-family="Times,serif" font-size="14.00">uniquely identified by `LockBoxOracleMintingPolicy`,</text>
<text text-anchor="middle" x="356" y="-412.3" font-family="Times,serif" font-size="14.00">with `ki` `MCToken`s with token name `tn`</text>
</g>
<!-- LockBoxValidator1&#45;&gt;Transaction -->
<g id="edge1" class="edge">
<title>LockBoxValidator1&#45;&gt;Transaction</title>
<path fill="none" stroke="black" d="M424.14,-404.47C495.42,-377.77 604.87,-336.76 663.19,-314.92"/>
<polygon fill="black" stroke="black" points="664.64,-318.11 672.78,-311.32 662.19,-311.55 664.64,-318.11"/>
<text text-anchor="middle" x="579" y="-356.8" font-family="Times,serif" font-size="14.00">input</text>
</g>
<!-- Recipient -->
<g id="node9" class="node">
<title>Recipient</title>
<polygon fill="none" stroke="black" points="598,-16.5 598,-52.5 682,-52.5 682,-16.5 598,-16.5"/>
<text text-anchor="middle" x="640" y="-30.8" font-family="Times,serif" font-size="14.00">Recipient</text>
</g>
<!-- LockBoxValidator1&#45;&gt;Recipient -->
<g id="edge10" class="edge">
<title>LockBoxValidator1&#45;&gt;Recipient</title>
<path fill="none" stroke="black" stroke-dasharray="5,2" d="M291.32,-404.34C178.48,-355.97 -34.2,-246.55 55,-140 122.87,-58.94 457.02,-40.69 587.58,-36.64"/>
<polygon fill="black" stroke="black" points="587.84,-40.13 597.74,-36.34 587.64,-33.14 587.84,-40.13"/>
<text text-anchor="middle" x="135.5" y="-233.8" font-family="Times,serif" font-size="14.00">pays `k` `MCToken`s to</text>
</g>
<!-- LockBoxValidator2 -->
<g id="node5" class="node">
<title>LockBoxValidator2</title>
<polygon fill="none" stroke="black" points="954.5,-140.5 954.5,-193.5 1635.5,-193.5 1635.5,-140.5 954.5,-140.5"/>
<text text-anchor="middle" x="1295" y="-178.3" font-family="Times,serif" font-size="14.00">LockBoxValidator parameterized by the currency symbol of `MCToken` and token name `tn`,</text>
<text text-anchor="middle" x="1295" y="-163.3" font-family="Times,serif" font-size="14.00">uniquely identified by `LockBoxOracleMintingPolicy`,</text>
<text text-anchor="middle" x="1295" y="-148.3" font-family="Times,serif" font-size="14.00">with `ki &#45; k` `MCToken`s with token name `tn`</text>
</g>
<!-- Transaction&#45;&gt;LockBoxValidator2 -->
<g id="edge7" class="edge">
<title>Transaction&#45;&gt;LockBoxValidator2</title>
<path fill="none" stroke="black" d="M744.16,-288.96C830.75,-269.95 1034.8,-225.14 1168.76,-195.72"/>
<polygon fill="black" stroke="black" points="1169.67,-199.11 1178.68,-193.54 1168.17,-192.27 1169.67,-199.11"/>
<text text-anchor="middle" x="1023" y="-233.8" font-family="Times,serif" font-size="14.00">output</text>
</g>
<!-- DistributedSetNode1 -->
<g id="node6" class="node">
<title>DistributedSetNode1</title>
<polygon fill="none" stroke="black" points="90.5,-149 90.5,-185 267.5,-185 267.5,-149 90.5,-149"/>
<text text-anchor="middle" x="179" y="-163.3" font-family="Times,serif" font-size="14.00">Distributed set node 1</text>
</g>
<!-- Transaction&#45;&gt;DistributedSetNode1 -->
<g id="edge4" class="edge">
<title>Transaction&#45;&gt;DistributedSetNode1</title>
<path fill="none" stroke="black" d="M664.47,-288.44C578.92,-267.22 371.71,-215.81 257.61,-187.5"/>
<polygon fill="black" stroke="black" points="258.42,-184.1 247.87,-185.09 256.73,-190.89 258.42,-184.1"/>
<text text-anchor="middle" x="511" y="-233.8" font-family="Times,serif" font-size="14.00">output</text>
</g>
<!-- DistributedSetNode2 -->
<g id="node7" class="node">
<title>DistributedSetNode2</title>
<polygon fill="none" stroke="black" points="339.5,-149 339.5,-185 516.5,-185 516.5,-149 339.5,-149"/>
<text text-anchor="middle" x="428" y="-163.3" font-family="Times,serif" font-size="14.00">Distributed set node 2</text>
</g>
<!-- Transaction&#45;&gt;DistributedSetNode2 -->
<g id="edge5" class="edge">
<title>Transaction&#45;&gt;DistributedSetNode2</title>
<path fill="none" stroke="black" d="M677.13,-285.77C630.52,-263.74 531.89,-217.11 473.69,-189.6"/>
<polygon fill="black" stroke="black" points="474.89,-186.3 464.36,-185.19 471.9,-192.63 474.89,-186.3"/>
<text text-anchor="middle" x="614" y="-233.8" font-family="Times,serif" font-size="14.00">output</text>
</g>
<!-- SCToken -->
<g id="node8" class="node">
<title>SCToken</title>
<ellipse fill="none" stroke="black" cx="640" cy="-167" rx="51.19" ry="18"/>
<text text-anchor="middle" x="640" y="-163.3" font-family="Times,serif" font-size="14.00">SCToken</text>
</g>
<!-- Transaction&#45;&gt;SCToken -->
<g id="edge6" class="edge">
<title>Transaction&#45;&gt;SCToken</title>
<path fill="none" stroke="black" d="M695.4,-282.32C684.79,-260.43 665.41,-220.43 652.61,-194.02"/>
<polygon fill="black" stroke="black" points="655.74,-192.44 648.23,-184.97 649.44,-195.5 655.74,-192.44"/>
<text text-anchor="middle" x="736.5" y="-233.8" font-family="Times,serif" font-size="14.00">mints `k` tokens</text>
</g>
<!-- Transaction&#45;&gt;Recipient -->
<g id="edge8" class="edge">
<title>Transaction&#45;&gt;Recipient</title>
<path fill="none" stroke="black" d="M748.14,-289.7C782.89,-280.67 823.51,-262.89 814,-230 793.41,-158.81 777.43,-141.37 725,-89 712.94,-76.96 697.71,-66.32 683.47,-57.76"/>
<polygon fill="black" stroke="black" points="685.18,-54.7 674.78,-52.7 681.67,-60.75 685.18,-54.7"/>
<text text-anchor="middle" x="825" y="-163.3" font-family="Times,serif" font-size="14.00">output</text>
</g>
<!-- SCToken&#45;&gt;Recipient -->
<g id="edge9" class="edge">
<title>SCToken&#45;&gt;Recipient</title>
<path fill="none" stroke="black" stroke-dasharray="5,2" d="M640,-148.94C640,-127.06 640,-88.83 640,-62.86"/>
<polygon fill="black" stroke="black" points="643.5,-62.56 640,-52.56 636.5,-62.56 643.5,-62.56"/>
<text text-anchor="middle" x="673.5" y="-92.8" font-family="Times,serif" font-size="14.00">is paid to</text>
</g>
</g>
</svg>
