<?xml version="1.0" encoding="UTF-8" standalone="no"?>
<!DOCTYPE svg PUBLIC "-//W3C//DTD SVG 1.1//EN"
 "http://www.w3.org/Graphics/SVG/1.1/DTD/svg11.dtd">
<!-- Generated by graphviz version 5.0.1 (0)
 -->
<!-- Pages: 1 -->
<svg width="819pt" height="222pt"
 viewBox="0.00 0.00 818.50 222.00" xmlns="http://www.w3.org/2000/svg" xmlns:xlink="http://www.w3.org/1999/xlink">
<g id="graph0" class="graph" transform="scale(1 1) rotate(0) translate(4 218)">
<polygon fill="white" stroke="none" points="-4,4 -4,-218 814.5,-218 814.5,4 -4,4"/>
<!-- UserWallet -->
<g id="node1" class="node">
<title>UserWallet</title>
<polygon fill="none" stroke="black" points="153.5,-0.5 153.5,-36.5 252.5,-36.5 252.5,-0.5 153.5,-0.5"/>
<text text-anchor="middle" x="203" y="-14.8" font-family="Times,serif" font-size="14.00">User wallet</text>
</g>
<!-- InputLockBox -->
<g id="node2" class="node">
<title>InputLockBox</title>
<polygon fill="none" stroke="black" points="0,-175.5 0,-213.5 374,-213.5 374,-175.5 0,-175.5"/>
<text text-anchor="middle" x="187" y="-198.3" font-family="Times,serif" font-size="14.00">Lock box with tokens and</text>
<text text-anchor="middle" x="187" y="-183.3" font-family="Times,serif" font-size="14.00">the user&#39;s wallet&#39;s address as the reclaim address</text>
</g>
<!-- InputLockBox&#45;&gt;UserWallet -->
<g id="edge3" class="edge">
<title>InputLockBox&#45;&gt;UserWallet</title>
<path fill="none" stroke="black" stroke-dasharray="5,2" d="M188.47,-175.19C190.18,-154.15 193.13,-118.56 196,-88 197.27,-74.47 198.79,-59.44 200.09,-46.92"/>
<polygon fill="black" stroke="black" points="203.61,-46.97 201.17,-36.66 196.64,-46.25 203.61,-46.97"/>
<text text-anchor="middle" x="248" y="-102.3" font-family="Times,serif" font-size="14.00">pays tokens to</text>
</g>
<!-- Transaction -->
<g id="node4" class="node">
<title>Transaction</title>
<polygon fill="none" stroke="black" points="402,-124 309.33,-106 402,-88 494.67,-106 402,-124"/>
<text text-anchor="middle" x="402" y="-102.3" font-family="Times,serif" font-size="14.00">Transaction</text>
</g>
<!-- InputLockBox&#45;&gt;Transaction -->
<g id="edge2" class="edge">
<title>InputLockBox&#45;&gt;Transaction</title>
<path fill="none" stroke="black" d="M231.81,-175.47C270.9,-159.75 326.98,-137.18 363.94,-122.31"/>
<polygon fill="black" stroke="black" points="365.39,-125.5 373.36,-118.52 362.77,-119.01 365.39,-125.5"/>
<text text-anchor="middle" x="333" y="-145.8" font-family="Times,serif" font-size="14.00">input</text>
</g>
<!-- InputCommitteeUTxO -->
<g id="node3" class="node">
<title>InputCommitteeUTxO</title>
<polygon fill="none" stroke="black" points="391.5,-175.5 391.5,-213.5 810.5,-213.5 810.5,-175.5 391.5,-175.5"/>
<text text-anchor="middle" x="601" y="-198.3" font-family="Times,serif" font-size="14.00">Committee UTxO identified by `CommitteeOraclePolicy`</text>
<text text-anchor="middle" x="601" y="-183.3" font-family="Times,serif" font-size="14.00">with `GarbageAggregatePubKeys` as the committee.</text>
</g>
<!-- InputCommitteeUTxO&#45;&gt;Transaction -->
<g id="edge1" class="edge">
<title>InputCommitteeUTxO&#45;&gt;Transaction</title>
<path fill="none" stroke="black" d="M559.28,-175.37C523.7,-159.9 473.04,-137.88 438.91,-123.04"/>
<polygon fill="black" stroke="black" points="439.89,-119.65 429.32,-118.87 437.09,-126.07 439.89,-119.65"/>
<text text-anchor="middle" x="569.5" y="-145.8" font-family="Times,serif" font-size="14.00">reference input</text>
</g>
<!-- Transaction&#45;&gt;UserWallet -->
<g id="edge4" class="edge">
<title>Transaction&#45;&gt;UserWallet</title>
<path fill="none" stroke="black" d="M374.75,-93.29C343.25,-79.76 290.79,-57.22 252.12,-40.6"/>
<polygon fill="black" stroke="black" points="253.17,-37.25 242.61,-36.52 250.41,-43.68 253.17,-37.25"/>
<text text-anchor="middle" x="345" y="-58.8" font-family="Times,serif" font-size="14.00">output</text>
</g>
</g>
</svg>
