<?xml version="1.0" encoding="UTF-8" standalone="no"?>
<!DOCTYPE svg PUBLIC "-//W3C//DTD SVG 1.1//EN"
 "http://www.w3.org/Graphics/SVG/1.1/DTD/svg11.dtd">
<!-- Generated by graphviz version 7.0.2 (0)
 -->
<!-- Pages: 1 -->
<svg width="885pt" height="118pt"
 viewBox="0.00 0.00 884.76 117.50" xmlns="http://www.w3.org/2000/svg" xmlns:xlink="http://www.w3.org/1999/xlink">
<g id="graph0" class="graph" transform="scale(1 1) rotate(0) translate(4 113.5)">
<polygon fill="white" stroke="none" points="-4,4 -4,-113.5 880.76,-113.5 880.76,4 -4,4"/>
<!-- fuelOracleOld -->
<g id="node1" class="node">
<title>fuelOracleOld</title>
<polygon fill="none" stroke="black" points="30.5,-56 30.5,-109 266.5,-109 266.5,-56 30.5,-56"/>
<text text-anchor="middle" x="148.5" y="-93.8" font-family="Times,serif" font-size="14.00">UTxO with</text>
<text text-anchor="middle" x="148.5" y="-78.8" font-family="Times,serif" font-size="14.00">previous FUELOracleDatum</text>
<text text-anchor="middle" x="148.5" y="-63.8" font-family="Times,serif" font-size="14.00">at FuelOracle validator</text>
</g>
<!-- tx -->
<g id="node4" class="node">
<title>tx</title>
<polygon fill="none" stroke="black" points="497.38,-68.5 388.12,-50.5 497.38,-32.5 606.64,-50.5 497.38,-68.5"/>
<text text-anchor="middle" x="497.38" y="-46.8" font-family="Times,serif" font-size="14.00">Update transaction</text>
</g>
<!-- fuelOracleOld&#45;&gt;tx -->
<g id="edge2" class="edge">
<title>fuelOracleOld&#45;&gt;tx</title>
<path fill="none" stroke="black" d="M266.45,-71.71C314.85,-67.25 369.84,-62.17 413.91,-58.11"/>
<polygon fill="black" stroke="black" points="414.01,-61.61 423.65,-57.21 413.37,-54.64 414.01,-61.61"/>
<text text-anchor="middle" x="342.5" y="-70.3" font-family="Times,serif" font-size="14.00">consumes</text>
</g>
<!-- fuelOracleNew -->
<g id="node2" class="node">
<title>fuelOracleNew</title>
<polygon fill="none" stroke="black" points="643.76,-24 643.76,-77 876.76,-77 876.76,-24 643.76,-24"/>
<text text-anchor="middle" x="760.26" y="-61.8" font-family="Times,serif" font-size="14.00">UTxO with</text>
<text text-anchor="middle" x="760.26" y="-46.8" font-family="Times,serif" font-size="14.00">updated FUELOracleDatum</text>
<text text-anchor="middle" x="760.26" y="-31.8" font-family="Times,serif" font-size="14.00">at FuelOracle validator</text>
</g>
<!-- fuelMintPolicy -->
<g id="node3" class="node">
<title>fuelMintPolicy</title>
<polygon fill="none" stroke="black" points="0,-0.5 0,-36.5 297,-36.5 297,-0.5 0,-0.5"/>
<text text-anchor="middle" x="148.5" y="-14.8" font-family="Times,serif" font-size="14.00">Datum: signed message containing FuelMintPolicy</text>
</g>
<!-- fuelMintPolicy&#45;&gt;tx -->
<g id="edge1" class="edge">
<title>fuelMintPolicy&#45;&gt;tx</title>
<path fill="none" stroke="black" d="M296.86,-32.09C336.99,-35.8 379.02,-39.67 414.1,-42.91"/>
<polygon fill="black" stroke="black" points="413.45,-46.36 423.73,-43.8 414.09,-39.39 413.45,-46.36"/>
</g>
<!-- tx&#45;&gt;fuelOracleNew -->
<g id="edge3" class="edge">
<title>tx&#45;&gt;fuelOracleNew</title>
<path fill="none" stroke="black" d="M609.39,-50.5C617.13,-50.5 624.95,-50.5 632.76,-50.5"/>
<polygon fill="black" stroke="black" points="632.66,-54 642.66,-50.5 632.66,-47 632.66,-54"/>
</g>
</g>
</svg>
