<?xml version="1.0" encoding="UTF-8" standalone="no"?>
<!DOCTYPE svg PUBLIC "-//W3C//DTD SVG 1.1//EN"
 "http://www.w3.org/Graphics/SVG/1.1/DTD/svg11.dtd">
<!-- Generated by graphviz version 5.0.1 (0)
 -->
<!-- Pages: 1 -->
<svg width="544pt" height="468pt"
 viewBox="0.00 0.00 543.50 468.00" xmlns="http://www.w3.org/2000/svg" xmlns:xlink="http://www.w3.org/1999/xlink">
<g id="graph0" class="graph" transform="scale(1 1) rotate(0) translate(4 464)">
<polygon fill="white" stroke="none" points="-4,4 -4,-464 539.5,-464 539.5,4 -4,4"/>
<!-- wallet -->
<g id="node1" class="node">
<title>wallet</title>
<polygon fill="none" stroke="black" points="0,-246.5 0,-282.5 79,-282.5 79,-246.5 0,-246.5"/>
<text text-anchor="middle" x="39.5" y="-260.8" font-family="Times,serif" font-size="14.00">User wallet</text>
</g>
<!-- tx -->
<g id="node6" class="node">
<title>tx</title>
<polygon fill="none" stroke="black" points="309.5,-194 164.5,-141 309.5,-88 454.5,-141 309.5,-194"/>
<text text-anchor="middle" x="309.5" y="-152.3" font-family="Times,serif" font-size="14.00">Burn transaction</text>
<text text-anchor="middle" x="309.5" y="-137.3" font-family="Times,serif" font-size="14.00">minting burn token and</text>
<text text-anchor="middle" x="309.5" y="-122.3" font-family="Times,serif" font-size="14.00">burning proxy tokens</text>
</g>
<!-- wallet&#45;&gt;tx -->
<g id="edge5" class="edge">
<title>wallet&#45;&gt;tx</title>
<path fill="none" stroke="black" d="M77.33,-246.48C118.38,-228 184.95,-198.05 236.3,-174.94"/>
<polygon fill="black" stroke="black" points="238.02,-178 245.7,-170.71 235.15,-171.62 238.02,-178"/>
<text text-anchor="middle" x="184" y="-215.8" font-family="Times,serif" font-size="14.00">Proxy token</text>
</g>
<!-- burnAddress -->
<g id="node2" class="node">
<title>burnAddress</title>
<polygon fill="none" stroke="black" points="265.5,-0.5 265.5,-36.5 353.5,-36.5 353.5,-0.5 265.5,-0.5"/>
<text text-anchor="middle" x="309.5" y="-14.8" font-family="Times,serif" font-size="14.00">Burn address</text>
</g>
<!-- fuelOracle -->
<g id="node3" class="node">
<title>fuelOracle</title>
<polygon fill="none" stroke="black" points="349.5,-335.5 349.5,-371.5 477.5,-371.5 477.5,-335.5 349.5,-335.5"/>
<text text-anchor="middle" x="413.5" y="-349.8" font-family="Times,serif" font-size="14.00">FuelOracle validator</text>
</g>
<!-- fuelProxy -->
<g id="node4" class="node">
<title>fuelProxy</title>
<polygon fill="none" stroke="black" stroke-dasharray="5,2" points="97.5,-245.5 97.5,-283.5 521.5,-283.5 521.5,-245.5 97.5,-245.5"/>
<text text-anchor="middle" x="151" y="-260.8" font-family="Times,serif" font-size="14.00">FuelProxyPolicy</text>
<polyline fill="none" stroke="black" stroke-dasharray="5,2" points="204.5,-245.5 204.5,-283.5"/>
<text text-anchor="start" x="212.5" y="-268.3" font-family="Times,serif" font-size="14.00">gets FuelBurnPolicy currency symbol from FuelOracle</text>
<text text-anchor="start" x="212.5" y="-253.3" font-family="Times,serif" font-size="14.00"> can burn n tokens if FuelBurnPolicy mints n tokens</text>
</g>
<!-- fuelOracle&#45;&gt;fuelProxy -->
<g id="edge1" class="edge">
<title>fuelOracle&#45;&gt;fuelProxy</title>
<path fill="none" stroke="black" stroke-dasharray="5,2" d="M392.95,-335.31C377.59,-322.46 356.36,-304.7 339.16,-290.31"/>
<polygon fill="black" stroke="black" points="340.99,-287.28 331.08,-283.55 336.5,-292.65 340.99,-287.28"/>
<text text-anchor="middle" x="399.5" y="-305.8" font-family="Times,serif" font-size="14.00">references</text>
</g>
<!-- fuelProxy&#45;&gt;tx -->
<g id="edge4" class="edge">
<title>fuelProxy&#45;&gt;tx</title>
<path fill="none" stroke="black" d="M309.5,-245.31C309.5,-234.28 309.5,-219.5 309.5,-204.57"/>
<polygon fill="black" stroke="black" points="313,-204.25 309.5,-194.25 306,-204.25 313,-204.25"/>
</g>
<!-- fuelMintPolicy -->
<g id="node5" class="node">
<title>fuelMintPolicy</title>
<polygon fill="none" stroke="black" stroke-dasharray="5,2" points="430.5,-423.5 430.5,-459.5 532.5,-459.5 532.5,-423.5 430.5,-423.5"/>
<text text-anchor="middle" x="481.5" y="-437.8" font-family="Times,serif" font-size="14.00">FuelMintPolicy</text>
</g>
<!-- fuelMintPolicy&#45;&gt;fuelOracle -->
<g id="edge2" class="edge">
<title>fuelMintPolicy&#45;&gt;fuelOracle</title>
<path fill="none" stroke="black" d="M467.74,-423.1C458.28,-411.13 445.52,-395 434.76,-381.39"/>
<polygon fill="none" stroke="black" points="434.45,-381 427.59,-378.77 427.01,-371.58 433.87,-373.81 434.45,-381"/>
<text text-anchor="middle" x="492.5" y="-393.8" font-family="Times,serif" font-size="14.00">stores reference</text>
</g>
<!-- fuelMintPolicy&#45;&gt;tx -->
<g id="edge3" class="edge">
<title>fuelMintPolicy&#45;&gt;tx</title>
<path fill="none" stroke="black" d="M471,-423.15C445.42,-378.46 379.09,-262.58 339.85,-194.03"/>
<polygon fill="black" stroke="black" points="342.74,-192.03 334.74,-185.09 336.67,-195.51 342.74,-192.03"/>
</g>
<!-- tx&#45;&gt;burnAddress -->
<g id="edge6" class="edge">
<title>tx&#45;&gt;burnAddress</title>
<path fill="none" stroke="black" d="M309.5,-87.85C309.5,-73.73 309.5,-59 309.5,-46.85"/>
<polygon fill="black" stroke="black" points="313,-46.5 309.5,-36.5 306,-46.5 313,-46.5"/>
<text text-anchor="middle" x="353" y="-58.8" font-family="Times,serif" font-size="14.00">Fuel burn token</text>
</g>
</g>
</svg>
