<?xml version="1.0" encoding="UTF-8" standalone="no"?>
<!DOCTYPE svg PUBLIC "-//W3C//DTD SVG 1.1//EN"
 "http://www.w3.org/Graphics/SVG/1.1/DTD/svg11.dtd">
<!-- Generated by graphviz version 7.0.2 (0)
 -->
<!-- Pages: 1 -->
<svg width="544pt" height="468pt"
 viewBox="0.00 0.00 543.50 468.00" xmlns="http://www.w3.org/2000/svg" xmlns:xlink="http://www.w3.org/1999/xlink">
<g id="graph0" class="graph" transform="scale(1 1) rotate(0) translate(4 464)">
<polygon fill="white" stroke="none" points="-4,4 -4,-464 539.5,-464 539.5,4 -4,4"/>
<!-- wallet -->
<g id="node1" class="node">
<title>wallet</title>
<polygon fill="none" stroke="black" points="0,-246.5 0,-282.5 79,-282.5 79,-246.5 0,-246.5"/>
<text text-anchor="middle" x="39.5" y="-260.8" font-family="Times,serif" font-size="14.00">User wallet</text>
</g>
<!-- tx -->
<g id="node6" class="node">
<title>tx</title>
<polygon fill="none" stroke="black" points="309.5,-194 164.5,-141 309.5,-88 454.5,-141 309.5,-194"/>
<text text-anchor="middle" x="309.5" y="-152.3" font-family="Times,serif" font-size="14.00">Burn transaction</text>
<text text-anchor="middle" x="309.5" y="-137.3" font-family="Times,serif" font-size="14.00">minting burn token and</text>
<text text-anchor="middle" x="309.5" y="-122.3" font-family="Times,serif" font-size="14.00">burning proxy tokens</text>
</g>
<!-- wallet&#45;&gt;tx -->
<g id="edge5" class="edge">
<title>wallet&#45;&gt;tx</title>
<path fill="none" stroke="black" d="M77.04,-246.61C117.71,-228.31 183.64,-198.64 234.92,-175.56"/>
<polygon fill="black" stroke="black" points="236.24,-178.81 243.92,-171.51 233.36,-172.42 236.24,-178.81"/>
<text text-anchor="middle" x="184" y="-215.8" font-family="Times,serif" font-size="14.00">Proxy token</text>
</g>
<!-- burnAddress -->
<g id="node2" class="node">
<title>burnAddress</title>
<polygon fill="none" stroke="black" points="265.5,-0.5 265.5,-36.5 353.5,-36.5 353.5,-0.5 265.5,-0.5"/>
<text text-anchor="middle" x="309.5" y="-14.8" font-family="Times,serif" font-size="14.00">Burn address</text>
</g>
<!-- fuelOracle -->
<g id="node3" class="node">
<title>fuelOracle</title>
<polygon fill="none" stroke="black" points="349.5,-335.5 349.5,-371.5 477.5,-371.5 477.5,-335.5 349.5,-335.5"/>
<text text-anchor="middle" x="413.5" y="-349.8" font-family="Times,serif" font-size="14.00">FuelOracle validator</text>
</g>
<!-- fuelProxy -->
<g id="node4" class="node">
<title>fuelProxy</title>
<polygon fill="none" stroke="black" stroke-dasharray="5,2" points="97.5,-245.5 97.5,-283.5 521.5,-283.5 521.5,-245.5 97.5,-245.5"/>
<text text-anchor="middle" x="151" y="-260.8" font-family="Times,serif" font-size="14.00">FuelProxyPolicy</text>
<polyline fill="none" stroke="black" stroke-dasharray="5,2" points="204.5,-245.5 204.5,-283.5"/>
<text text-anchor="start" x="212.5" y="-268.3" font-family="Times,serif" font-size="14.00">gets FuelBurnPolicy currency symbol from FuelOracle</text>
<text text-anchor="start" x="212.5" y="-253.3" font-family="Times,serif" font-size="14.00"> can burn n tokens if FuelBurnPolicy mints n tokens</text>
</g>
<!-- fuelOracle&#45;&gt;fuelProxy -->
<g id="edge1" class="edge">
<title>fuelOracle&#45;&gt;fuelProxy</title>
<path fill="none" stroke="black" stroke-dasharray="5,2" d="M393.45,-335.73C378.17,-322.94 356.88,-305.13 339.56,-290.65"/>
<polygon fill="black" stroke="black" points="342,-288.12 332.08,-284.39 337.51,-293.49 342,-288.12"/>
<text text-anchor="middle" x="399.5" y="-305.8" font-family="Times,serif" font-size="14.00">references</text>
</g>
<!-- fuelProxy&#45;&gt;tx -->
<g id="edge4" class="edge">
<title>fuelProxy&#45;&gt;tx</title>
<path fill="none" stroke="black" d="M309.5,-245.57C309.5,-234.79 309.5,-220.34 309.5,-205.67"/>
<polygon fill="black" stroke="black" points="313,-205.97 309.5,-195.97 306,-205.97 313,-205.97"/>
</g>
<!-- fuelMintPolicy -->
<g id="node5" class="node">
<title>fuelMintPolicy</title>
<polygon fill="none" stroke="black" stroke-dasharray="5,2" points="430.5,-423.5 430.5,-459.5 532.5,-459.5 532.5,-423.5 430.5,-423.5"/>
<text text-anchor="middle" x="481.5" y="-437.8" font-family="Times,serif" font-size="14.00">FuelMintPolicy</text>
</g>
<!-- fuelMintPolicy&#45;&gt;fuelOracle -->
<g id="edge2" class="edge">
<title>fuelMintPolicy&#45;&gt;fuelOracle</title>
<path fill="none" stroke="black" d="M468.07,-423.51C458.57,-411.49 445.63,-395.14 434.75,-381.37"/>
<polygon fill="none" stroke="black" points="434.91,-381.58 428.05,-379.35 427.47,-372.16 434.32,-374.39 434.91,-381.58"/>
<text text-anchor="middle" x="492.5" y="-393.8" font-family="Times,serif" font-size="14.00">stores reference</text>
</g>
<!-- fuelMintPolicy&#45;&gt;tx -->
<g id="edge3" class="edge">
<title>fuelMintPolicy&#45;&gt;tx</title>
<path fill="none" stroke="black" d="M471.26,-423.6C445.96,-379.4 379.73,-263.69 340.3,-194.81"/>
<polygon fill="black" stroke="black" points="343.44,-193.26 335.44,-186.32 337.37,-196.73 343.44,-193.26"/>
</g>
<!-- tx&#45;&gt;burnAddress -->
<g id="edge6" class="edge">
<title>tx&#45;&gt;burnAddress</title>
<path fill="none" stroke="black" d="M309.5,-87.5C309.5,-73.85 309.5,-59.66 309.5,-47.79"/>
<polygon fill="black" stroke="black" points="313,-47.91 309.5,-37.91 306,-47.91 313,-47.91"/>
<text text-anchor="middle" x="353" y="-58.8" font-family="Times,serif" font-size="14.00">Fuel burn token</text>
</g>
</g>
</svg>
