<?xml version="1.0" encoding="UTF-8" standalone="no"?>
<!DOCTYPE svg PUBLIC "-//W3C//DTD SVG 1.1//EN"
 "http://www.w3.org/Graphics/SVG/1.1/DTD/svg11.dtd">
<!-- Generated by graphviz version 5.0.1 (0)
 -->
<!-- Pages: 1 -->
<svg width="822pt" height="118pt"
 viewBox="0.00 0.00 821.76 117.50" xmlns="http://www.w3.org/2000/svg" xmlns:xlink="http://www.w3.org/1999/xlink">
<g id="graph0" class="graph" transform="scale(1 1) rotate(0) translate(4 113.5)">
<polygon fill="white" stroke="none" points="-4,4 -4,-113.5 817.76,-113.5 817.76,4 -4,4"/>
<!-- fuelOracleOld -->
<g id="node1" class="node">
<title>fuelOracleOld</title>
<polygon fill="none" stroke="black" points="61.5,-56 61.5,-109 235.5,-109 235.5,-56 61.5,-56"/>
<text text-anchor="middle" x="148.5" y="-93.8" font-family="Times,serif" font-size="14.00">UTxO with</text>
<text text-anchor="middle" x="148.5" y="-78.8" font-family="Times,serif" font-size="14.00">previous FUELOracleDatum</text>
<text text-anchor="middle" x="148.5" y="-63.8" font-family="Times,serif" font-size="14.00">at FuelOracle validator</text>
</g>
<!-- tx -->
<g id="node4" class="node">
<title>tx</title>
<polygon fill="none" stroke="black" points="497.38,-68.5 388.12,-50.5 497.38,-32.5 606.64,-50.5 497.38,-68.5"/>
<text text-anchor="middle" x="497.38" y="-46.8" font-family="Times,serif" font-size="14.00">Update transaction</text>
</g>
<!-- fuelOracleOld&#45;&gt;tx -->
<g id="edge2" class="edge">
<title>fuelOracleOld&#45;&gt;tx</title>
<path fill="none" stroke="black" d="M235.69,-74.55C291.11,-69.44 362.6,-62.84 416.69,-57.85"/>
<polygon fill="black" stroke="black" points="417.29,-61.31 426.93,-56.91 416.65,-54.34 417.29,-61.31"/>
<text text-anchor="middle" x="342.5" y="-70.3" font-family="Times,serif" font-size="14.00">consumes</text>
</g>
<!-- fuelOracleNew -->
<g id="node2" class="node">
<title>fuelOracleNew</title>
<polygon fill="none" stroke="black" points="643.76,-24 643.76,-77 813.76,-77 813.76,-24 643.76,-24"/>
<text text-anchor="middle" x="728.76" y="-61.8" font-family="Times,serif" font-size="14.00">UTxO with</text>
<text text-anchor="middle" x="728.76" y="-46.8" font-family="Times,serif" font-size="14.00">updated FUELOracleDatum</text>
<text text-anchor="middle" x="728.76" y="-31.8" font-family="Times,serif" font-size="14.00">at FuelOracle validator</text>
</g>
<!-- fuelMintPolicy -->
<g id="node3" class="node">
<title>fuelMintPolicy</title>
<polygon fill="none" stroke="black" points="0,-0.5 0,-36.5 297,-36.5 297,-0.5 0,-0.5"/>
<text text-anchor="middle" x="148.5" y="-14.8" font-family="Times,serif" font-size="14.00">Datum: signed message containing FuelMintPolicy</text>
</g>
<!-- fuelMintPolicy&#45;&gt;tx -->
<g id="edge1" class="edge">
<title>fuelMintPolicy&#45;&gt;tx</title>
<path fill="none" stroke="black" d="M297.11,-32.12C338.06,-35.9 380.98,-39.85 416.45,-43.13"/>
<polygon fill="black" stroke="black" points="416.45,-46.64 426.73,-44.07 417.09,-39.67 416.45,-46.64"/>
</g>
<!-- tx&#45;&gt;fuelOracleNew -->
<g id="edge3" class="edge">
<title>tx&#45;&gt;fuelOracleNew</title>
<path fill="none" stroke="black" d="M606.69,-50.5C615.61,-50.5 624.58,-50.5 633.39,-50.5"/>
<polygon fill="black" stroke="black" points="633.64,-54 643.64,-50.5 633.64,-47 633.64,-54"/>
</g>
</g>
</svg>
