<?xml version="1.0" encoding="UTF-8" standalone="no"?>
<!DOCTYPE svg PUBLIC "-//W3C//DTD SVG 1.1//EN"
 "http://www.w3.org/Graphics/SVG/1.1/DTD/svg11.dtd">
<!-- Generated by graphviz version 5.0.1 (0)
 -->
<!-- Pages: 1 -->
<svg width="466pt" height="424pt"
 viewBox="0.00 0.00 466.00 424.00" xmlns="http://www.w3.org/2000/svg" xmlns:xlink="http://www.w3.org/1999/xlink">
<g id="graph0" class="graph" transform="scale(1 1) rotate(0) translate(4 420)">
<polygon fill="white" stroke="none" points="-4,4 -4,-420 462,-420 462,4 -4,4"/>
<!-- wallet -->
<g id="node1" class="node">
<title>wallet</title>
<polygon fill="none" stroke="black" points="241.5,-0.5 241.5,-36.5 320.5,-36.5 320.5,-0.5 241.5,-0.5"/>
<text text-anchor="middle" x="281" y="-14.8" font-family="Times,serif" font-size="14.00">User wallet</text>
</g>
<!-- burnAddress -->
<g id="node2" class="node">
<title>burnAddress</title>
<polygon fill="none" stroke="black" points="339,-0.5 339,-36.5 427,-36.5 427,-0.5 339,-0.5"/>
<text text-anchor="middle" x="383" y="-14.8" font-family="Times,serif" font-size="14.00">Burn address</text>
</g>
<!-- fuelOracle -->
<g id="node3" class="node">
<title>fuelOracle</title>
<polygon fill="none" stroke="black" points="235,-291.5 235,-327.5 363,-327.5 363,-291.5 235,-291.5"/>
<text text-anchor="middle" x="299" y="-305.8" font-family="Times,serif" font-size="14.00">FuelOracle validator</text>
</g>
<!-- fuelProxy -->
<g id="node4" class="node">
<title>fuelProxy</title>
<polygon fill="none" stroke="black" stroke-dasharray="5,2" points="0,-201.5 0,-239.5 424,-239.5 424,-201.5 0,-201.5"/>
<text text-anchor="middle" x="53.5" y="-216.8" font-family="Times,serif" font-size="14.00">FuelProxyPolicy</text>
<polyline fill="none" stroke="black" stroke-dasharray="5,2" points="107,-201.5 107,-239.5"/>
<text text-anchor="start" x="115" y="-224.3" font-family="Times,serif" font-size="14.00">gets FuelMintPolicy currency symbol from FuelOracle</text>
<text text-anchor="start" x="115" y="-209.3" font-family="Times,serif" font-size="14.00"> can mint n tokens if FuelMintPolicy mints n tokens</text>
</g>
<!-- fuelOracle&#45;&gt;fuelProxy -->
<g id="edge1" class="edge">
<title>fuelOracle&#45;&gt;fuelProxy</title>
<path fill="none" stroke="black" stroke-dasharray="5,2" d="M281.81,-291.31C269.08,-278.58 251.52,-261.02 237.2,-246.7"/>
<polygon fill="black" stroke="black" points="239.6,-244.15 230.05,-239.55 234.65,-249.1 239.6,-244.15"/>
<text text-anchor="middle" x="292" y="-261.8" font-family="Times,serif" font-size="14.00">references</text>
</g>
<!-- tx -->
<g id="node6" class="node">
<title>tx</title>
<polygon fill="none" stroke="black" points="332,-164 206,-126 332,-88 458,-126 332,-164"/>
<text text-anchor="middle" x="332" y="-129.8" font-family="Times,serif" font-size="14.00">Claim transaction</text>
<text text-anchor="middle" x="332" y="-114.8" font-family="Times,serif" font-size="14.00">minting both tokens</text>
</g>
<!-- fuelProxy&#45;&gt;tx -->
<g id="edge4" class="edge">
<title>fuelProxy&#45;&gt;tx</title>
<path fill="none" stroke="black" d="M235.42,-201.45C250.68,-189.68 271.05,-173.98 289.14,-160.04"/>
<polygon fill="black" stroke="black" points="291.49,-162.65 297.27,-153.77 287.21,-157.1 291.49,-162.65"/>
</g>
<!-- fuelMintPolicy -->
<g id="node5" class="node">
<title>fuelMintPolicy</title>
<polygon fill="none" stroke="black" stroke-dasharray="5,2" points="333,-379.5 333,-415.5 435,-415.5 435,-379.5 333,-379.5"/>
<text text-anchor="middle" x="384" y="-393.8" font-family="Times,serif" font-size="14.00">FuelMintPolicy</text>
</g>
<!-- fuelMintPolicy&#45;&gt;fuelOracle -->
<g id="edge2" class="edge">
<title>fuelMintPolicy&#45;&gt;fuelOracle</title>
<path fill="none" stroke="black" d="M366.8,-379.1C354.62,-366.78 338.09,-350.05 324.4,-336.2"/>
<polygon fill="none" stroke="black" points="324.32,-336.12 317.26,-334.66 315.89,-327.58 322.95,-329.04 324.32,-336.12"/>
<text text-anchor="middle" x="390" y="-349.8" font-family="Times,serif" font-size="14.00">stores reference</text>
</g>
<!-- fuelMintPolicy&#45;&gt;tx -->
<g id="edge3" class="edge">
<title>fuelMintPolicy&#45;&gt;tx</title>
<path fill="none" stroke="black" d="M380.51,-379.26C372.48,-337.34 352.5,-233.05 340.84,-172.17"/>
<polygon fill="black" stroke="black" points="344.22,-171.22 338.91,-162.06 337.35,-172.54 344.22,-171.22"/>
</g>
<!-- tx&#45;&gt;wallet -->
<g id="edge5" class="edge">
<title>tx&#45;&gt;wallet</title>
<path fill="none" stroke="black" d="M316.28,-92.49C309.05,-77.53 300.59,-60.02 293.76,-45.9"/>
<polygon fill="black" stroke="black" points="296.84,-44.22 289.33,-36.74 290.53,-47.26 296.84,-44.22"/>
<text text-anchor="middle" x="327.5" y="-58.8" font-family="Times,serif" font-size="14.00">Proxy token</text>
</g>
<!-- tx&#45;&gt;burnAddress -->
<g id="edge6" class="edge">
<title>tx&#45;&gt;burnAddress</title>
<path fill="none" stroke="black" d="M347.72,-92.49C354.95,-77.53 363.41,-60.02 370.24,-45.9"/>
<polygon fill="black" stroke="black" points="373.47,-47.26 374.67,-36.74 367.16,-44.22 373.47,-47.26"/>
<text text-anchor="middle" x="411" y="-58.8" font-family="Times,serif" font-size="14.00">Fuel mint token</text>
</g>
</g>
</svg>
