<?xml version="1.0" encoding="UTF-8" standalone="no"?>
<!DOCTYPE svg PUBLIC "-//W3C//DTD SVG 1.1//EN"
 "http://www.w3.org/Graphics/SVG/1.1/DTD/svg11.dtd">
<!-- Generated by graphviz version 5.0.1 (0)
 -->
<!-- Pages: 1 -->
<svg width="446pt" height="295pt"
 viewBox="0.00 0.00 445.50 295.00" xmlns="http://www.w3.org/2000/svg" xmlns:xlink="http://www.w3.org/1999/xlink">
<g id="graph0" class="graph" transform="scale(1 1) rotate(0) translate(4 291)">
<polygon fill="white" stroke="none" points="-4,4 -4,-291 441.5,-291 441.5,4 -4,4"/>
<!-- versionOracle -->
<g id="node1" class="node">
<title>versionOracle</title>
<polygon fill="none" stroke="black" points="145.5,-162.5 145.5,-198.5 291.5,-198.5 291.5,-162.5 145.5,-162.5"/>
<text text-anchor="middle" x="218.5" y="-176.8" font-family="Times,serif" font-size="14.00">VersionOracle validator</text>
</g>
<!-- scriptA2_ -->
<g id="node5" class="node">
<title>scriptA2_</title>
<polygon fill="none" stroke="black" stroke-dasharray="5,2" points="0,-74.5 0,-110.5 133,-110.5 133,-74.5 0,-74.5"/>
<text text-anchor="middle" x="66.5" y="-88.8" font-family="Times,serif" font-size="14.00">Validator/Policy A v2</text>
</g>
<!-- versionOracle&#45;&gt;scriptA2_ -->
<g id="edge4" class="edge">
<title>versionOracle&#45;&gt;scriptA2_</title>
<path fill="none" stroke="black" stroke-dasharray="5,2" d="M188.11,-162.3C164.31,-148.84 131.06,-130.03 105.34,-115.47"/>
<polygon fill="black" stroke="black" points="107.01,-112.4 96.58,-110.52 103.56,-118.49 107.01,-112.4"/>
<text text-anchor="middle" x="180.5" y="-132.8" font-family="Times,serif" font-size="14.00">references</text>
</g>
<!-- scriptB1_ -->
<g id="node6" class="node">
<title>scriptB1_</title>
<polygon fill="none" stroke="black" stroke-dasharray="5,2" points="151.5,-74.5 151.5,-110.5 285.5,-110.5 285.5,-74.5 151.5,-74.5"/>
<text text-anchor="middle" x="218.5" y="-88.8" font-family="Times,serif" font-size="14.00">Validator/Policy B v1</text>
</g>
<!-- versionOracle&#45;&gt;scriptB1_ -->
<g id="edge5" class="edge">
<title>versionOracle&#45;&gt;scriptB1_</title>
<path fill="none" stroke="black" stroke-dasharray="5,2" d="M218.5,-162.1C218.5,-150.25 218.5,-134.32 218.5,-120.79"/>
<polygon fill="black" stroke="black" points="222,-120.58 218.5,-110.58 215,-120.58 222,-120.58"/>
</g>
<!-- scriptB2_ -->
<g id="node7" class="node">
<title>scriptB2_</title>
<polygon fill="none" stroke="black" stroke-dasharray="5,2" points="303.5,-74.5 303.5,-110.5 437.5,-110.5 437.5,-74.5 303.5,-74.5"/>
<text text-anchor="middle" x="370.5" y="-88.8" font-family="Times,serif" font-size="14.00">Validator/Policy B v2</text>
</g>
<!-- versionOracle&#45;&gt;scriptB2_ -->
<g id="edge6" class="edge">
<title>versionOracle&#45;&gt;scriptB2_</title>
<path fill="none" stroke="black" stroke-dasharray="5,2" d="M248.89,-162.3C272.69,-148.84 305.94,-130.03 331.66,-115.47"/>
<polygon fill="black" stroke="black" points="333.44,-118.49 340.42,-110.52 329.99,-112.4 333.44,-118.49"/>
</g>
<!-- scriptA2 -->
<g id="node2" class="node">
<title>scriptA2</title>
<polygon fill="none" stroke="black" stroke-dasharray="5,2" points="0,-250.5 0,-286.5 133,-286.5 133,-250.5 0,-250.5"/>
<text text-anchor="middle" x="66.5" y="-264.8" font-family="Times,serif" font-size="14.00">Validator/Policy A v2</text>
</g>
<!-- scriptA2&#45;&gt;versionOracle -->
<g id="edge1" class="edge">
<title>scriptA2&#45;&gt;versionOracle</title>
<path fill="none" stroke="black" d="M96.89,-250.3C120.17,-237.14 152.49,-218.85 177.97,-204.43"/>
<polygon fill="none" stroke="black" points="177.97,-204.43 181.23,-197.99 188.42,-198.52 185.17,-204.96 177.97,-204.43"/>
<text text-anchor="middle" x="181.5" y="-220.8" font-family="Times,serif" font-size="14.00">stores script</text>
</g>
<!-- scriptB1 -->
<g id="node3" class="node">
<title>scriptB1</title>
<polygon fill="none" stroke="black" stroke-dasharray="5,2" points="151.5,-250.5 151.5,-286.5 285.5,-286.5 285.5,-250.5 151.5,-250.5"/>
<text text-anchor="middle" x="218.5" y="-264.8" font-family="Times,serif" font-size="14.00">Validator/Policy B v1</text>
</g>
<!-- scriptB1&#45;&gt;versionOracle -->
<g id="edge2" class="edge">
<title>scriptB1&#45;&gt;versionOracle</title>
<path fill="none" stroke="black" d="M218.5,-250.1C218.5,-238.83 218.5,-223.88 218.5,-210.82"/>
<polygon fill="none" stroke="black" points="218.5,-210.58 214.5,-204.58 218.5,-198.58 222.5,-204.58 218.5,-210.58"/>
</g>
<!-- scriptB2 -->
<g id="node4" class="node">
<title>scriptB2</title>
<polygon fill="none" stroke="black" stroke-dasharray="5,2" points="303.5,-250.5 303.5,-286.5 437.5,-286.5 437.5,-250.5 303.5,-250.5"/>
<text text-anchor="middle" x="370.5" y="-264.8" font-family="Times,serif" font-size="14.00">Validator/Policy B v2</text>
</g>
<!-- scriptB2&#45;&gt;versionOracle -->
<g id="edge3" class="edge">
<title>scriptB2&#45;&gt;versionOracle</title>
<path fill="none" stroke="black" d="M340.11,-250.3C316.83,-237.14 284.51,-218.85 259.03,-204.43"/>
<polygon fill="none" stroke="black" points="259.03,-204.43 251.83,-204.96 248.58,-198.52 255.77,-197.99 259.03,-204.43"/>
</g>
<!-- tx -->
<g id="node8" class="node">
<title>tx</title>
<polygon fill="none" stroke="black" points="59,-0.5 59,-36.5 376,-36.5 376,-0.5 59,-0.5"/>
<text text-anchor="middle" x="99" y="-14.8" font-family="Times,serif" font-size="14.00">Transaction</text>
<polyline fill="none" stroke="black" points="139,-0.5 139,-36.5"/>
<text text-anchor="middle" x="257.5" y="-14.8" font-family="Times,serif" font-size="14.00">only same versions can be used together</text>
</g>
<!-- scriptA2_&#45;&gt;tx -->
<g id="edge7" class="edge">
<title>scriptA2_&#45;&gt;tx</title>
<path fill="none" stroke="black" d="M102.28,-74.44C123.27,-64.43 149.98,-51.7 172.4,-41.01"/>
<polygon fill="black" stroke="black" points="174.19,-44.03 181.71,-36.57 171.18,-37.71 174.19,-44.03"/>
</g>
<!-- scriptB2_&#45;&gt;tx -->
<g id="edge8" class="edge">
<title>scriptB2_&#45;&gt;tx</title>
<path fill="none" stroke="black" d="M334.24,-74.44C312.88,-64.39 285.67,-51.58 262.9,-40.86"/>
<polygon fill="black" stroke="black" points="264.3,-37.66 253.76,-36.57 261.32,-43.99 264.3,-37.66"/>
</g>
</g>
</svg>
