<?xml version="1.0" encoding="UTF-8" standalone="no"?>
<!DOCTYPE svg PUBLIC "-//W3C//DTD SVG 1.1//EN"
 "http://www.w3.org/Graphics/SVG/1.1/DTD/svg11.dtd">
<!-- Generated by graphviz version 7.0.2 (0)
 -->
<!-- Pages: 1 -->
<svg width="466pt" height="424pt"
 viewBox="0.00 0.00 466.00 424.00" xmlns="http://www.w3.org/2000/svg" xmlns:xlink="http://www.w3.org/1999/xlink">
<g id="graph0" class="graph" transform="scale(1 1) rotate(0) translate(4 420)">
<polygon fill="white" stroke="none" points="-4,4 -4,-420 462,-420 462,4 -4,4"/>
<!-- wallet -->
<g id="node1" class="node">
<title>wallet</title>
<polygon fill="none" stroke="black" points="241.5,-0.5 241.5,-36.5 320.5,-36.5 320.5,-0.5 241.5,-0.5"/>
<text text-anchor="middle" x="281" y="-14.8" font-family="Times,serif" font-size="14.00">User wallet</text>
</g>
<!-- burnAddress -->
<g id="node2" class="node">
<title>burnAddress</title>
<polygon fill="none" stroke="black" points="339,-0.5 339,-36.5 427,-36.5 427,-0.5 339,-0.5"/>
<text text-anchor="middle" x="383" y="-14.8" font-family="Times,serif" font-size="14.00">Burn address</text>
</g>
<!-- fuelOracle -->
<g id="node3" class="node">
<title>fuelOracle</title>
<polygon fill="none" stroke="black" points="235,-291.5 235,-327.5 363,-327.5 363,-291.5 235,-291.5"/>
<text text-anchor="middle" x="299" y="-305.8" font-family="Times,serif" font-size="14.00">FuelOracle validator</text>
</g>
<!-- fuelProxy -->
<g id="node4" class="node">
<title>fuelProxy</title>
<polygon fill="none" stroke="black" stroke-dasharray="5,2" points="0,-201.5 0,-239.5 424,-239.5 424,-201.5 0,-201.5"/>
<text text-anchor="middle" x="53.5" y="-216.8" font-family="Times,serif" font-size="14.00">FuelProxyPolicy</text>
<polyline fill="none" stroke="black" stroke-dasharray="5,2" points="107,-201.5 107,-239.5"/>
<text text-anchor="start" x="115" y="-224.3" font-family="Times,serif" font-size="14.00">gets FuelMintPolicy currency symbol from FuelOracle</text>
<text text-anchor="start" x="115" y="-209.3" font-family="Times,serif" font-size="14.00"> can mint n tokens if FuelMintPolicy mints n tokens</text>
</g>
<!-- fuelOracle&#45;&gt;fuelProxy -->
<g id="edge1" class="edge">
<title>fuelOracle&#45;&gt;fuelProxy</title>
<path fill="none" stroke="black" stroke-dasharray="5,2" d="M282.23,-291.73C269.68,-279.18 252.29,-261.79 237.95,-247.45"/>
<polygon fill="black" stroke="black" points="240.54,-245.09 230.99,-240.49 235.59,-250.04 240.54,-245.09"/>
<text text-anchor="middle" x="292" y="-261.8" font-family="Times,serif" font-size="14.00">references</text>
</g>
<!-- tx -->
<g id="node6" class="node">
<title>tx</title>
<polygon fill="none" stroke="black" points="332,-164 206,-126 332,-88 458,-126 332,-164"/>
<text text-anchor="middle" x="332" y="-129.8" font-family="Times,serif" font-size="14.00">Claim transaction</text>
<text text-anchor="middle" x="332" y="-114.8" font-family="Times,serif" font-size="14.00">minting both tokens</text>
</g>
<!-- fuelProxy&#45;&gt;tx -->
<g id="edge4" class="edge">
<title>fuelProxy&#45;&gt;tx</title>
<path fill="none" stroke="black" d="M235.14,-201.67C250.24,-190.03 270.42,-174.46 288.46,-160.56"/>
<polygon fill="black" stroke="black" points="290.13,-163.7 295.91,-154.82 285.85,-158.15 290.13,-163.7"/>
</g>
<!-- fuelMintPolicy -->
<g id="node5" class="node">
<title>fuelMintPolicy</title>
<polygon fill="none" stroke="black" stroke-dasharray="5,2" points="333,-379.5 333,-415.5 435,-415.5 435,-379.5 333,-379.5"/>
<text text-anchor="middle" x="384" y="-393.8" font-family="Times,serif" font-size="14.00">FuelMintPolicy</text>
</g>
<!-- fuelMintPolicy&#45;&gt;fuelOracle -->
<g id="edge2" class="edge">
<title>fuelMintPolicy&#45;&gt;fuelOracle</title>
<path fill="none" stroke="black" d="M367.21,-379.51C355.1,-367.26 338.53,-350.5 324.76,-336.56"/>
<polygon fill="none" stroke="black" points="324.83,-336.63 317.76,-335.18 316.39,-328.1 323.45,-329.55 324.83,-336.63"/>
<text text-anchor="middle" x="390" y="-349.8" font-family="Times,serif" font-size="14.00">stores reference</text>
</g>
<!-- fuelMintPolicy&#45;&gt;tx -->
<g id="edge3" class="edge">
<title>fuelMintPolicy&#45;&gt;tx</title>
<path fill="none" stroke="black" d="M380.59,-379.69C372.67,-338.35 352.83,-234.76 341.1,-173.5"/>
<polygon fill="black" stroke="black" points="344.54,-172.86 339.22,-163.7 337.66,-174.18 344.54,-172.86"/>
</g>
<!-- tx&#45;&gt;wallet -->
<g id="edge5" class="edge">
<title>tx&#45;&gt;wallet</title>
<path fill="none" stroke="black" d="M316.28,-92.49C309.15,-77.72 300.8,-60.47 294.02,-46.44"/>
<polygon fill="black" stroke="black" points="297.35,-45.28 289.85,-37.8 291.05,-48.33 297.35,-45.28"/>
<text text-anchor="middle" x="327.5" y="-58.8" font-family="Times,serif" font-size="14.00">Proxy token</text>
</g>
<!-- tx&#45;&gt;burnAddress -->
<g id="edge6" class="edge">
<title>tx&#45;&gt;burnAddress</title>
<path fill="none" stroke="black" d="M347.72,-92.49C354.85,-77.72 363.2,-60.47 369.98,-46.44"/>
<polygon fill="black" stroke="black" points="372.95,-48.33 374.15,-37.8 366.65,-45.28 372.95,-48.33"/>
<text text-anchor="middle" x="411" y="-58.8" font-family="Times,serif" font-size="14.00">Fuel mint token</text>
</g>
</g>
</svg>
