<?xml version="1.0" encoding="UTF-8" standalone="no"?>
<!DOCTYPE svg PUBLIC "-//W3C//DTD SVG 1.1//EN"
 "http://www.w3.org/Graphics/SVG/1.1/DTD/svg11.dtd">
<!-- Generated by graphviz version 7.0.2 (0)
 -->
<!-- Pages: 1 -->
<svg width="446pt" height="295pt"
 viewBox="0.00 0.00 445.50 295.00" xmlns="http://www.w3.org/2000/svg" xmlns:xlink="http://www.w3.org/1999/xlink">
<g id="graph0" class="graph" transform="scale(1 1) rotate(0) translate(4 291)">
<polygon fill="white" stroke="none" points="-4,4 -4,-291 441.5,-291 441.5,4 -4,4"/>
<!-- versionOracle -->
<g id="node1" class="node">
<title>versionOracle</title>
<polygon fill="none" stroke="black" points="145.5,-162.5 145.5,-198.5 291.5,-198.5 291.5,-162.5 145.5,-162.5"/>
<text text-anchor="middle" x="218.5" y="-176.8" font-family="Times,serif" font-size="14.00">VersionOracle validator</text>
</g>
<!-- scriptA2_ -->
<g id="node5" class="node">
<title>scriptA2_</title>
<polygon fill="none" stroke="black" stroke-dasharray="5,2" points="0,-74.5 0,-110.5 133,-110.5 133,-74.5 0,-74.5"/>
<text text-anchor="middle" x="66.5" y="-88.8" font-family="Times,serif" font-size="14.00">Validator/Policy A v2</text>
</g>
<!-- versionOracle&#45;&gt;scriptA2_ -->
<g id="edge4" class="edge">
<title>versionOracle&#45;&gt;scriptA2_</title>
<path fill="none" stroke="black" stroke-dasharray="5,2" d="M188.47,-162.51C164.94,-149.2 132.01,-130.56 106.29,-116.01"/>
<polygon fill="black" stroke="black" points="108.21,-113.08 97.79,-111.2 104.77,-119.17 108.21,-113.08"/>
<text text-anchor="middle" x="180.5" y="-132.8" font-family="Times,serif" font-size="14.00">references</text>
</g>
<!-- scriptB1_ -->
<g id="node6" class="node">
<title>scriptB1_</title>
<polygon fill="none" stroke="black" stroke-dasharray="5,2" points="151.5,-74.5 151.5,-110.5 285.5,-110.5 285.5,-74.5 151.5,-74.5"/>
<text text-anchor="middle" x="218.5" y="-88.8" font-family="Times,serif" font-size="14.00">Validator/Policy B v1</text>
</g>
<!-- versionOracle&#45;&gt;scriptB1_ -->
<g id="edge5" class="edge">
<title>versionOracle&#45;&gt;scriptB1_</title>
<path fill="none" stroke="black" stroke-dasharray="5,2" d="M218.5,-162.51C218.5,-150.85 218.5,-135.1 218.5,-121.59"/>
<polygon fill="black" stroke="black" points="222,-121.97 218.5,-111.97 215,-121.97 222,-121.97"/>
</g>
<!-- scriptB2_ -->
<g id="node7" class="node">
<title>scriptB2_</title>
<polygon fill="none" stroke="black" stroke-dasharray="5,2" points="303.5,-74.5 303.5,-110.5 437.5,-110.5 437.5,-74.5 303.5,-74.5"/>
<text text-anchor="middle" x="370.5" y="-88.8" font-family="Times,serif" font-size="14.00">Validator/Policy B v2</text>
</g>
<!-- versionOracle&#45;&gt;scriptB2_ -->
<g id="edge6" class="edge">
<title>versionOracle&#45;&gt;scriptB2_</title>
<path fill="none" stroke="black" stroke-dasharray="5,2" d="M248.53,-162.51C272.06,-149.2 304.99,-130.56 330.71,-116.01"/>
<polygon fill="black" stroke="black" points="332.23,-119.17 339.21,-111.2 328.79,-113.08 332.23,-119.17"/>
</g>
<!-- scriptA2 -->
<g id="node2" class="node">
<title>scriptA2</title>
<polygon fill="none" stroke="black" stroke-dasharray="5,2" points="0,-250.5 0,-286.5 133,-286.5 133,-250.5 0,-250.5"/>
<text text-anchor="middle" x="66.5" y="-264.8" font-family="Times,serif" font-size="14.00">Validator/Policy A v2</text>
</g>
<!-- scriptA2&#45;&gt;versionOracle -->
<g id="edge1" class="edge">
<title>scriptA2&#45;&gt;versionOracle</title>
<path fill="none" stroke="black" d="M96.53,-250.51C119.64,-237.43 151.83,-219.22 177.34,-204.79"/>
<polygon fill="none" stroke="black" points="177.3,-204.81 180.56,-198.37 187.75,-198.9 184.5,-205.34 177.3,-204.81"/>
<text text-anchor="middle" x="181.5" y="-220.8" font-family="Times,serif" font-size="14.00">stores script</text>
</g>
<!-- scriptB1 -->
<g id="node3" class="node">
<title>scriptB1</title>
<polygon fill="none" stroke="black" stroke-dasharray="5,2" points="151.5,-250.5 151.5,-286.5 285.5,-286.5 285.5,-250.5 151.5,-250.5"/>
<text text-anchor="middle" x="218.5" y="-264.8" font-family="Times,serif" font-size="14.00">Validator/Policy B v1</text>
</g>
<!-- scriptB1&#45;&gt;versionOracle -->
<g id="edge2" class="edge">
<title>scriptB1&#45;&gt;versionOracle</title>
<path fill="none" stroke="black" d="M218.5,-250.51C218.5,-239.32 218.5,-224.37 218.5,-211.24"/>
<polygon fill="none" stroke="black" points="218.5,-211.36 214.5,-205.36 218.5,-199.36 222.5,-205.36 218.5,-211.36"/>
</g>
<!-- scriptB2 -->
<g id="node4" class="node">
<title>scriptB2</title>
<polygon fill="none" stroke="black" stroke-dasharray="5,2" points="303.5,-250.5 303.5,-286.5 437.5,-286.5 437.5,-250.5 303.5,-250.5"/>
<text text-anchor="middle" x="370.5" y="-264.8" font-family="Times,serif" font-size="14.00">Validator/Policy B v2</text>
</g>
<!-- scriptB2&#45;&gt;versionOracle -->
<g id="edge3" class="edge">
<title>scriptB2&#45;&gt;versionOracle</title>
<path fill="none" stroke="black" d="M340.47,-250.51C317.36,-237.43 285.17,-219.22 259.66,-204.79"/>
<polygon fill="none" stroke="black" points="259.7,-204.81 252.5,-205.34 249.25,-198.9 256.44,-198.37 259.7,-204.81"/>
</g>
<!-- tx -->
<g id="node8" class="node">
<title>tx</title>
<polygon fill="none" stroke="black" points="59,-0.5 59,-36.5 376,-36.5 376,-0.5 59,-0.5"/>
<text text-anchor="middle" x="99" y="-14.8" font-family="Times,serif" font-size="14.00">Transaction</text>
<polyline fill="none" stroke="black" points="139,-0.5 139,-36.5"/>
<text text-anchor="middle" x="257.5" y="-14.8" font-family="Times,serif" font-size="14.00">only same versions can be used together</text>
</g>
<!-- scriptA2_&#45;&gt;tx -->
<g id="edge7" class="edge">
<title>scriptA2_&#45;&gt;tx</title>
<path fill="none" stroke="black" d="M101.9,-74.62C122.75,-64.68 149.34,-52 171.76,-41.31"/>
<polygon fill="black" stroke="black" points="173.17,-44.51 180.69,-37.05 170.16,-38.2 173.17,-44.51"/>
</g>
<!-- scriptB2_&#45;&gt;tx -->
<g id="edge8" class="edge">
<title>scriptB2_&#45;&gt;tx</title>
<path fill="none" stroke="black" d="M334.63,-74.62C313.41,-64.63 286.32,-51.89 263.54,-41.17"/>
<polygon fill="black" stroke="black" points="265.32,-38.14 254.78,-37.04 262.34,-44.47 265.32,-38.14"/>
</g>
</g>
</svg>
