<?xml version="1.0" encoding="UTF-8" standalone="no"?>
<!DOCTYPE svg PUBLIC "-//W3C//DTD SVG 1.1//EN"
 "http://www.w3.org/Graphics/SVG/1.1/DTD/svg11.dtd">
<!-- Generated by graphviz version 5.0.1 (0)
 -->
<!-- Pages: 1 -->
<svg width="1111pt" height="329pt"
 viewBox="0.00 0.00 1110.54 329.00" xmlns="http://www.w3.org/2000/svg" xmlns:xlink="http://www.w3.org/1999/xlink">
<g id="graph0" class="graph" transform="scale(1 1) rotate(0) translate(4 325)">
<polygon fill="white" stroke="none" points="-4,4 -4,-325 1106.54,-325 1106.54,4 -4,4"/>
<!-- currentCommittee -->
<g id="node1" class="node">
<title>currentCommittee</title>
<polygon fill="none" stroke="black" points="747,-267.5 747,-320.5 1086,-320.5 1086,-267.5 747,-267.5"/>
<text text-anchor="middle" x="916.5" y="-305.3" font-family="Times,serif" font-size="14.00">UpdateCommitteeValidator with the</text>
<text text-anchor="middle" x="916.5" y="-290.3" font-family="Times,serif" font-size="14.00"> CommitteeHashPolicy NFT with datum</text>
<text text-anchor="middle" x="916.5" y="-275.3" font-family="Times,serif" font-size="14.00"> UpdateCommitteeDatum aggregatePubKeys</text>
</g>
<!-- transaction -->
<g id="node2" class="node">
<title>transaction</title>
<polygon fill="none" stroke="black" points="439.5,-230 346.83,-212 439.5,-194 532.17,-212 439.5,-230"/>
<text text-anchor="middle" x="439.5" y="-208.3" font-family="Times,serif" font-size="14.00">Transaction</text>
</g>
<!-- currentCommittee&#45;&gt;transaction -->
<g id="edge1" class="edge">
<title>currentCommittee&#45;&gt;transaction</title>
<path fill="none" stroke="black" d="M764.26,-267.47C673.16,-252.19 562.66,-233.66 496.87,-222.62"/>
<polygon fill="black" stroke="black" points="497.15,-219.12 486.71,-220.92 495.99,-226.02 497.15,-219.12"/>
<text text-anchor="middle" x="602.04" y="-247.25" font-family="Times,serif" font-size="14.00">input</text>
</g>
<!-- committeeCertificateVerificationMintingPolicy -->
<g id="node3" class="node">
<title>committeeCertificateVerificationMintingPolicy</title>
<polygon fill="none" stroke="black" points="815,-74.5 815,-127.5 990,-127.5 990,-74.5 815,-74.5"/>
<text text-anchor="middle" x="902.5" y="-112.3" font-family="Times,serif" font-size="14.00">Committee Certificate</text>
<text text-anchor="middle" x="902.5" y="-97.3" font-family="Times,serif" font-size="14.00">Verification Minting</text>
<text text-anchor="middle" x="902.5" y="-82.3" font-family="Times,serif" font-size="14.00">Policy</text>
</g>
<!-- currentCommittee&#45;&gt;committeeCertificateVerificationMintingPolicy -->
<g id="edge2" class="edge">
<title>currentCommittee&#45;&gt;committeeCertificateVerificationMintingPolicy</title>
<path fill="none" stroke="black" stroke-dasharray="5,2" d="M914.61,-267.24C912.16,-233.83 907.88,-175.37 905.12,-137.69"/>
<polygon fill="black" stroke="black" points="908.6,-137.37 904.38,-127.66 901.62,-137.88 908.6,-137.37"/>
<text text-anchor="middle" x="853.5" y="-216.25" font-family="Times,serif" font-size="14.00">checks if</text>
<text text-anchor="middle" x="853.5" y="-201.25" font-family="Times,serif" font-size="14.00">token is minted</text>
</g>
<!-- transaction&#45;&gt;committeeCertificateVerificationMintingPolicy -->
<g id="edge4" class="edge">
<title>transaction&#45;&gt;committeeCertificateVerificationMintingPolicy</title>
<path fill="none" stroke="black" d="M519.58,-209.55C615.07,-206.8 768.33,-198.85 820.5,-176 841.29,-166.89 860.39,-150.39 874.91,-135.27"/>
<polygon fill="black" stroke="black" points="877.84,-137.25 882.07,-127.54 872.71,-132.5 877.84,-137.25"/>
<text text-anchor="middle" x="683.54" y="-202.39" font-family="Times,serif" font-size="14.00">mints</text>
</g>
<!-- fanoutToken -->
<g id="node4" class="node">
<title>fanoutToken</title>
<polygon fill="none" stroke="black" points="596.5,-83 596.5,-119 704.5,-119 704.5,-83 596.5,-83"/>
<text text-anchor="middle" x="650.5" y="-97.3" font-family="Times,serif" font-size="14.00">FanoutToken</text>
</g>
<!-- transaction&#45;&gt;fanoutToken -->
<g id="edge8" class="edge">
<title>transaction&#45;&gt;fanoutToken</title>
<path fill="none" stroke="black" d="M429.98,-195.74C422.29,-181.24 414.54,-159.69 426.5,-146 446.12,-123.54 530.31,-134.11 559.5,-128 568.36,-126.15 577.62,-123.89 586.69,-121.48"/>
<polygon fill="black" stroke="black" points="587.71,-124.83 596.44,-118.83 585.88,-118.08 587.71,-124.83"/>
<text text-anchor="middle" x="616.5" y="-164.8" font-family="Times,serif" font-size="14.00">mints only if sufficient time has passed and</text>
<text text-anchor="middle" x="616.5" y="-149.8" font-family="Times,serif" font-size="14.00"> its token name matches the fundReclaimMerkleRoot</text>
</g>
<!-- burnAddress -->
<g id="node5" class="node">
<title>burnAddress</title>
<polygon fill="none" stroke="black" points="0,-0.5 0,-36.5 113,-36.5 113,-0.5 0,-0.5"/>
<text text-anchor="middle" x="56.5" y="-14.8" font-family="Times,serif" font-size="14.00">Burn address</text>
</g>
<!-- transaction&#45;&gt;burnAddress -->
<g id="edge7" class="edge">
<title>transaction&#45;&gt;burnAddress</title>
<path fill="none" stroke="black" d="M384.64,-204.59C297.46,-193.34 132.81,-167.44 90.5,-128 67.99,-107.01 60.28,-71.34 57.7,-46.66"/>
<polygon fill="black" stroke="black" points="61.18,-46.18 56.86,-36.5 54.2,-46.76 61.18,-46.18"/>
<text text-anchor="middle" x="184.08" y="-177.76" font-family="Times,serif" font-size="14.00">output</text>
</g>
<!-- newCommittee -->
<g id="node6" class="node">
<title>newCommittee</title>
<polygon fill="none" stroke="black" points="127,-74.5 127,-127.5 524,-127.5 524,-74.5 127,-74.5"/>
<text text-anchor="middle" x="325.5" y="-112.3" font-family="Times,serif" font-size="14.00">New committee address with the</text>
<text text-anchor="middle" x="325.5" y="-97.3" font-family="Times,serif" font-size="14.00"> CommitteeHashPolicy NFT with datum</text>
<text text-anchor="middle" x="325.5" y="-82.3" font-family="Times,serif" font-size="14.00">UpdateCommitteeDatum GarbageAggregatePubKeys</text>
</g>
<!-- transaction&#45;&gt;newCommittee -->
<g id="edge6" class="edge">
<title>transaction&#45;&gt;newCommittee</title>
<path fill="none" stroke="black" d="M406.7,-200.33C393.08,-194.7 377.85,-186.7 366.5,-176 354.95,-165.11 345.85,-150.23 339.18,-136.67"/>
<polygon fill="black" stroke="black" points="342.34,-135.15 334.96,-127.55 335.99,-138.1 342.34,-135.15"/>
<text text-anchor="middle" x="338.54" y="-175.82" font-family="Times,serif" font-size="14.00">output</text>
</g>
<!-- committeeCertificateVerificationMintingPolicy&#45;&gt;currentCommittee -->
<g id="edge3" class="edge">
<title>committeeCertificateVerificationMintingPolicy:ne&#45;&gt;currentCommittee:se</title>
<path fill="none" stroke="black" stroke-dasharray="5,2" d="M990.5,-128C1041,-178.5 1130.32,-210.66 1093.23,-259.36"/>
<polygon fill="black" stroke="black" points="1090.49,-257.18 1086.5,-267 1095.74,-261.81 1090.49,-257.18"/>
<text text-anchor="middle" x="1030.71" y="-198.16" font-family="Times,serif" font-size="14.00">searches for</text>
</g>
<!-- committeeCertificateVerificationMintingPolicy&#45;&gt;burnAddress -->
<g id="edge5" class="edge">
<title>committeeCertificateVerificationMintingPolicy&#45;&gt;burnAddress</title>
<path fill="none" stroke="black" stroke-dasharray="5,2" d="M814.82,-84.62C790.78,-80.76 764.68,-76.9 740.5,-74 515.01,-46.97 246.04,-29.97 123.4,-23.06"/>
<polygon fill="black" stroke="black" points="123.58,-19.56 113.4,-22.5 123.19,-26.55 123.58,-19.56"/>
<text text-anchor="middle" x="431.13" y="-50.47" font-family="Times,serif" font-size="14.00">is paid to</text>
</g>
</g>
</svg>
