<?xml version="1.0" encoding="UTF-8" standalone="no"?>
<!DOCTYPE svg PUBLIC "-//W3C//DTD SVG 1.1//EN"
 "http://www.w3.org/Graphics/SVG/1.1/DTD/svg11.dtd">
<!-- Generated by graphviz version 5.0.1 (0)
 -->
<!-- Pages: 1 -->
<svg width="427pt" height="294pt"
 viewBox="0.00 0.00 427.00 294.00" xmlns="http://www.w3.org/2000/svg" xmlns:xlink="http://www.w3.org/1999/xlink">
<g id="graph0" class="graph" transform="scale(1 1) rotate(0) translate(4 290)">
<polygon fill="white" stroke="none" points="-4,4 -4,-290 423,-290 423,4 -4,4"/>
<!-- InputCommitteeUTxO -->
<g id="node1" class="node">
<title>InputCommitteeUTxO</title>
<polygon fill="none" stroke="black" points="0,-249.5 0,-285.5 419,-285.5 419,-249.5 0,-249.5"/>
<text text-anchor="middle" x="209.5" y="-263.8" font-family="Times,serif" font-size="14.00">Committee UTxO identified by `CommitteeOraclePolicy`</text>
</g>
<!-- Transaction -->
<g id="node2" class="node">
<title>Transaction</title>
<polygon fill="none" stroke="black" points="209.5,-162 116.83,-144 209.5,-126 302.17,-144 209.5,-162"/>
<text text-anchor="middle" x="209.5" y="-140.3" font-family="Times,serif" font-size="14.00">Transaction</text>
</g>
<!-- InputCommitteeUTxO&#45;&gt;Transaction -->
<g id="edge1" class="edge">
<title>InputCommitteeUTxO&#45;&gt;Transaction</title>
<path fill="none" stroke="black" d="M209.5,-249.35C209.5,-229.27 209.5,-195.75 209.5,-172.14"/>
<polygon fill="black" stroke="black" points="213,-172.06 209.5,-162.06 206,-172.06 213,-172.06"/>
<text text-anchor="middle" x="228.5" y="-201.8" font-family="Times,serif" font-size="14.00">input</text>
</g>
<!-- OutputCommitteeUTxO -->
<g id="node3" class="node">
<title>OutputCommitteeUTxO</title>
<polygon fill="none" stroke="black" points="0,-0.5 0,-38.5 419,-38.5 419,-0.5 0,-0.5"/>
<text text-anchor="middle" x="209.5" y="-23.3" font-family="Times,serif" font-size="14.00">Committee UTxO identified by `CommitteeOraclePolicy`</text>
<text text-anchor="middle" x="209.5" y="-8.3" font-family="Times,serif" font-size="14.00">with `GarbageAggregatePubKeys` as the committee.</text>
</g>
<!-- Transaction&#45;&gt;OutputCommitteeUTxO -->
<g id="edge2" class="edge">
<title>Transaction&#45;&gt;OutputCommitteeUTxO</title>
<path fill="none" stroke="black" d="M209.5,-125.97C209.5,-106.01 209.5,-72.65 209.5,-48.8"/>
<polygon fill="black" stroke="black" points="213,-48.58 209.5,-38.58 206,-48.58 213,-48.58"/>
<text text-anchor="middle" x="233.5" y="-78.8" font-family="Times,serif" font-size="14.00">output</text>
</g>
</g>
</svg>
