<?xml version="1.0" encoding="UTF-8" standalone="no"?>
<!DOCTYPE svg PUBLIC "-//W3C//DTD SVG 1.1//EN"
 "http://www.w3.org/Graphics/SVG/1.1/DTD/svg11.dtd">
<!-- Generated by graphviz version 5.0.1 (0)
 -->
<!-- Pages: 1 -->
<svg width="787pt" height="461pt"
 viewBox="0.00 0.00 787.00 461.00" xmlns="http://www.w3.org/2000/svg" xmlns:xlink="http://www.w3.org/1999/xlink">
<g id="graph0" class="graph" transform="scale(1 1) rotate(0) translate(4 457)">
<polygon fill="white" stroke="none" points="-4,4 -4,-457 783,-457 783,4 -4,4"/>
<g id="clust1" class="cluster">
<title>cluster_MerkleRootClaiming</title>
<path fill="none" stroke="black" d="M20,-193C20,-193 443,-193 443,-193 449,-193 455,-199 455,-205 455,-205 455,-433 455,-433 455,-439 449,-445 443,-445 443,-445 20,-445 20,-445 14,-445 8,-439 8,-433 8,-433 8,-205 8,-205 8,-199 14,-193 20,-193"/>
<text text-anchor="middle" x="231.5" y="-429.8" font-family="Times,serif" font-size="14.00">Merkle root claim transaction</text>
</g>
<g id="clust2" class="cluster">
<title>cluster_EcdsaSecp256k1Reclaim</title>
<path fill="none" stroke="black" d="M475,-8C475,-8 759,-8 759,-8 765,-8 771,-14 771,-20 771,-20 771,-235 771,-235 771,-241 765,-247 759,-247 759,-247 475,-247 475,-247 469,-247 463,-241 463,-235 463,-235 463,-20 463,-20 463,-14 469,-8 475,-8"/>
<text text-anchor="middle" x="617" y="-15.8" font-family="Times,serif" font-size="14.00">ECDSA SECP256k1 reclaim transaction</text>
</g>
<!-- InputMerkleRoot -->
<g id="node1" class="node">
<title>InputMerkleRoot</title>
<polygon fill="none" stroke="black" points="201,-377.5 201,-413.5 447,-413.5 447,-377.5 201,-377.5"/>
<text text-anchor="middle" x="324" y="-391.8" font-family="Times,serif" font-size="14.00">UTxO with a signed Merkle root</text>
</g>
<!-- MerkleRootClaimingTx -->
<g id="node6" class="node">
<title>MerkleRootClaimingTx</title>
<polygon fill="none" stroke="black" points="324,-326 231.33,-308 324,-290 416.67,-308 324,-326"/>
<text text-anchor="middle" x="324" y="-304.3" font-family="Times,serif" font-size="14.00">Transaction</text>
</g>
<!-- InputMerkleRoot&#45;&gt;MerkleRootClaimingTx -->
<g id="edge1" class="edge">
<title>InputMerkleRoot&#45;&gt;MerkleRootClaimingTx</title>
<path fill="none" stroke="black" d="M324,-377.2C324,-365.49 324,-349.79 324,-336.4"/>
<polygon fill="black" stroke="black" points="327.5,-336.28 324,-326.28 320.5,-336.28 327.5,-336.28"/>
<text text-anchor="middle" x="379.5" y="-347.8" font-family="Times,serif" font-size="14.00">reference input</text>
</g>
<!-- UserWallet -->
<g id="node2" class="node">
<title>UserWallet</title>
<polygon fill="none" stroke="black" points="567.5,-39.5 567.5,-75.5 666.5,-75.5 666.5,-39.5 567.5,-39.5"/>
<text text-anchor="middle" x="617" y="-53.8" font-family="Times,serif" font-size="14.00">User wallet</text>
</g>
<!-- InputLockBox -->
<g id="node3" class="node">
<title>InputLockBox</title>
<polygon fill="none" stroke="black" points="15.5,-377.5 15.5,-413.5 182.5,-413.5 182.5,-377.5 15.5,-377.5"/>
<text text-anchor="middle" x="99" y="-391.8" font-family="Times,serif" font-size="14.00">Lock box with tokens</text>
</g>
<!-- InputLockBox&#45;&gt;MerkleRootClaimingTx -->
<g id="edge2" class="edge">
<title>InputLockBox&#45;&gt;MerkleRootClaimingTx</title>
<path fill="none" stroke="black" d="M143.99,-377.4C185.13,-361.77 245.39,-338.87 284.66,-323.95"/>
<polygon fill="black" stroke="black" points="286.06,-327.16 294.16,-320.34 283.57,-320.62 286.06,-327.16"/>
<text text-anchor="middle" x="250" y="-347.8" font-family="Times,serif" font-size="14.00">input</text>
</g>
<!-- OutputLockBox -->
<g id="node4" class="node">
<title>OutputLockBox</title>
<polygon fill="none" stroke="black" points="201.5,-201.5 201.5,-237.5 446.5,-237.5 446.5,-201.5 201.5,-201.5"/>
<text text-anchor="middle" x="324" y="-215.8" font-family="Times,serif" font-size="14.00">Lock box with remaining tokens</text>
</g>
<!-- EcdsaSecp256k1ReclaimValidator -->
<g id="node5" class="node">
<title>EcdsaSecp256k1ReclaimValidator</title>
<polygon fill="none" stroke="black" points="471,-200.5 471,-238.5 763,-238.5 763,-200.5 471,-200.5"/>
<text text-anchor="middle" x="617" y="-223.3" font-family="Times,serif" font-size="14.00">EcdsaSecp256k1ReclaimValidator</text>
<text text-anchor="middle" x="617" y="-208.3" font-family="Times,serif" font-size="14.00">parameterized by sidechain public key</text>
</g>
<!-- EcdsaSecp256k1ReclaimTx -->
<g id="node7" class="node">
<title>EcdsaSecp256k1ReclaimTx</title>
<polygon fill="none" stroke="black" points="617,-149 524.33,-131 617,-113 709.67,-131 617,-149"/>
<text text-anchor="middle" x="617" y="-127.3" font-family="Times,serif" font-size="14.00">Transaction</text>
</g>
<!-- EcdsaSecp256k1ReclaimValidator&#45;&gt;EcdsaSecp256k1ReclaimTx -->
<g id="edge5" class="edge">
<title>EcdsaSecp256k1ReclaimValidator&#45;&gt;EcdsaSecp256k1ReclaimTx</title>
<path fill="none" stroke="black" d="M617,-200.16C617,-188.26 617,-172.55 617,-159.21"/>
<polygon fill="black" stroke="black" points="620.5,-159.14 617,-149.14 613.5,-159.14 620.5,-159.14"/>
<text text-anchor="middle" x="636" y="-170.8" font-family="Times,serif" font-size="14.00">input</text>
</g>
<!-- MerkleRootClaimingTx&#45;&gt;OutputLockBox -->
<g id="edge3" class="edge">
<title>MerkleRootClaimingTx&#45;&gt;OutputLockBox</title>
<path fill="none" stroke="black" d="M324,-289.91C324,-277.94 324,-261.7 324,-247.93"/>
<polygon fill="black" stroke="black" points="327.5,-247.55 324,-237.55 320.5,-247.55 327.5,-247.55"/>
<text text-anchor="middle" x="348" y="-260.8" font-family="Times,serif" font-size="14.00">output</text>
</g>
<!-- MerkleRootClaimingTx&#45;&gt;EcdsaSecp256k1ReclaimValidator -->
<g id="edge4" class="edge">
<title>MerkleRootClaimingTx&#45;&gt;EcdsaSecp256k1ReclaimValidator</title>
<path fill="none" stroke="black" d="M358.76,-296.74C404.71,-283.17 486.77,-258.95 546.07,-241.44"/>
<polygon fill="black" stroke="black" points="547.16,-244.77 555.76,-238.58 545.17,-238.06 547.16,-244.77"/>
<text text-anchor="middle" x="512" y="-260.8" font-family="Times,serif" font-size="14.00">output</text>
</g>
<!-- EcdsaSecp256k1ReclaimTx&#45;&gt;UserWallet -->
<g id="edge6" class="edge">
<title>EcdsaSecp256k1ReclaimTx&#45;&gt;UserWallet</title>
<path fill="none" stroke="black" d="M617,-112.69C617,-104.61 617,-94.8 617,-85.76"/>
<polygon fill="black" stroke="black" points="620.5,-85.65 617,-75.65 613.5,-85.65 620.5,-85.65"/>
</g>
</g>
</svg>
