<?xml version="1.0" encoding="UTF-8" standalone="no"?>
<!DOCTYPE svg PUBLIC "-//W3C//DTD SVG 1.1//EN"
 "http://www.w3.org/Graphics/SVG/1.1/DTD/svg11.dtd">
<!-- Generated by graphviz version 5.0.1 (0)
 -->
<!-- Pages: 1 -->
<svg width="636pt" height="220pt"
 viewBox="0.00 0.00 636.00 220.00" xmlns="http://www.w3.org/2000/svg" xmlns:xlink="http://www.w3.org/1999/xlink">
<g id="graph0" class="graph" transform="scale(1 1) rotate(0) translate(4 216)">
<polygon fill="white" stroke="none" points="-4,4 -4,-216 632,-216 632,4 -4,4"/>
<!-- InputMerkleRoot -->
<g id="node1" class="node">
<title>InputMerkleRoot</title>
<polygon fill="none" stroke="black" points="176.5,-175.5 176.5,-211.5 450.5,-211.5 450.5,-175.5 176.5,-175.5"/>
<text text-anchor="middle" x="313.5" y="-189.8" font-family="Times,serif" font-size="14.00">UTxO with a signed Merkle root `A`</text>
</g>
<!-- Transaction -->
<g id="node4" class="node">
<title>Transaction</title>
<polygon fill="none" stroke="black" points="313.5,-124 220.83,-106 313.5,-88 406.17,-106 313.5,-124"/>
<text text-anchor="middle" x="313.5" y="-102.3" font-family="Times,serif" font-size="14.00">Transaction</text>
</g>
<!-- InputMerkleRoot&#45;&gt;Transaction -->
<g id="edge1" class="edge">
<title>InputMerkleRoot&#45;&gt;Transaction</title>
<path fill="none" stroke="black" d="M313.5,-175.2C313.5,-163.49 313.5,-147.79 313.5,-134.4"/>
<polygon fill="black" stroke="black" points="317,-134.28 313.5,-124.28 310,-134.28 317,-134.28"/>
<text text-anchor="middle" x="332.5" y="-145.8" font-family="Times,serif" font-size="14.00">input</text>
</g>
<!-- OutputMerkleRootB -->
<g id="node2" class="node">
<title>OutputMerkleRootB</title>
<polygon fill="none" stroke="black" points="0,-0.5 0,-36.5 305,-36.5 305,-0.5 0,-0.5"/>
<text text-anchor="middle" x="152.5" y="-14.8" font-family="Times,serif" font-size="14.00">UTxO with a signed sub&#45;Merkle root `B`</text>
</g>
<!-- OutputMerkleRootC -->
<g id="node3" class="node">
<title>OutputMerkleRootC</title>
<polygon fill="none" stroke="black" points="323,-0.5 323,-36.5 628,-36.5 628,-0.5 323,-0.5"/>
<text text-anchor="middle" x="475.5" y="-14.8" font-family="Times,serif" font-size="14.00">UTxO with a signed sub&#45;Merkle root `C`</text>
</g>
<!-- Transaction&#45;&gt;OutputMerkleRootB -->
<g id="edge2" class="edge">
<title>Transaction&#45;&gt;OutputMerkleRootB</title>
<path fill="none" stroke="black" d="M289.74,-92.38C264.54,-79 224.22,-57.59 193.8,-41.43"/>
<polygon fill="black" stroke="black" points="195.17,-38.2 184.7,-36.6 191.89,-44.38 195.17,-38.2"/>
<text text-anchor="middle" x="271.5" y="-58.8" font-family="Times,serif" font-size="14.00">output</text>
</g>
<!-- Transaction&#45;&gt;OutputMerkleRootC -->
<g id="edge3" class="edge">
<title>Transaction&#45;&gt;OutputMerkleRootC</title>
<path fill="none" stroke="black" d="M337.06,-92.57C362.43,-79.18 403.28,-57.61 434.05,-41.38"/>
<polygon fill="black" stroke="black" points="436.04,-44.28 443.25,-36.52 432.77,-38.09 436.04,-44.28"/>
<text text-anchor="middle" x="428.5" y="-58.8" font-family="Times,serif" font-size="14.00">output</text>
</g>
</g>
</svg>
