<?xml version="1.0" encoding="UTF-8" standalone="no"?>
<!DOCTYPE svg PUBLIC "-//W3C//DTD SVG 1.1//EN"
 "http://www.w3.org/Graphics/SVG/1.1/DTD/svg11.dtd">
<!-- Generated by graphviz version 5.0.1 (0)
 -->
<!-- Pages: 1 -->
<svg width="975pt" height="593pt"
 viewBox="0.00 0.00 974.50 593.00" xmlns="http://www.w3.org/2000/svg" xmlns:xlink="http://www.w3.org/1999/xlink">
<g id="graph0" class="graph" transform="scale(1 1) rotate(0) translate(4 589)">
<polygon fill="white" stroke="none" points="-4,4 -4,-589 970.5,-589 970.5,4 -4,4"/>
<g id="clust1" class="cluster">
<title>cluster_interface</title>
<polygon fill="none" stroke="black" points="134.5,-310 134.5,-577 958.5,-577 958.5,-310 134.5,-310"/>
<text text-anchor="middle" x="181" y="-561.8" font-family="Times,serif" font-size="14.00">User interface</text>
</g>
<g id="clust2" class="cluster">
<title>cluster_terminal</title>
<polygon fill="none" stroke="black" points="590.5,-431 590.5,-546 950.5,-546 950.5,-431 590.5,-431"/>
<text text-anchor="middle" x="624" y="-530.8" font-family="Times,serif" font-size="14.00">Terminal</text>
</g>
<g id="clust3" class="cluster">
<title>cluster_browser</title>
<polygon fill="none" stroke="black" points="142.5,-318 142.5,-526 582.5,-526 582.5,-318 142.5,-318"/>
<text text-anchor="middle" x="173.5" y="-510.8" font-family="Times,serif" font-size="14.00">Browser</text>
</g>
<g id="clust4" class="cluster">
<title>cluster_services</title>
<polygon fill="none" stroke="black" points="391.5,-116 391.5,-279 752.5,-279 752.5,-116 391.5,-116"/>
<text text-anchor="middle" x="422.5" y="-263.8" font-family="Times,serif" font-size="14.00">Services</text>
</g>
<g id="clust5" class="cluster">
<title>cluster_blockchain</title>
<polygon fill="none" stroke="black" points="334.5,-8 334.5,-83 656.5,-83 656.5,-8 334.5,-8"/>
<text text-anchor="middle" x="373.5" y="-67.8" font-family="Times,serif" font-size="14.00">Blockchain</text>
</g>
<!-- cli -->
<g id="node1" class="node">
<title>cli</title>
<polygon fill="lightgrey" stroke="black" points="770.5,-515 598.5,-477 770.5,-439 942.5,-477 770.5,-515"/>
<text text-anchor="middle" x="770.5" y="-480.8" font-family="Times,serif" font-size="14.00">Trustless&#45;sidechain CLI</text>
<text text-anchor="middle" x="770.5" y="-465.8" font-family="Times,serif" font-size="14.00">(using our SDK as a library)</text>
</g>
<!-- sdk -->
<g id="node4" class="node">
<title>sdk</title>
<polygon fill="none" stroke="black" stroke-dasharray="5,2" points="299,-249 0,-249 0,-211 299,-211 299,-249"/>
<text text-anchor="middle" x="149.5" y="-233.8" font-family="Times,serif" font-size="14.00">Common SDK toolkit</text>
<text text-anchor="middle" x="149.5" y="-218.8" font-family="Times,serif" font-size="14.00">(off&#45;chain and on&#45;chain code, our SDK as a library)</text>
</g>
<!-- cli&#45;&#45;sdk -->
<g id="edge1" class="edge">
<title>cli&#45;&#45;sdk</title>
<path fill="none" stroke="black" stroke-dasharray="5,2" d="M708.97,-452.53C585.34,-403.35 309.1,-293.48 197.57,-249.12"/>
</g>
<!-- Ogmios -->
<g id="node5" class="node">
<title>Ogmios</title>
<polygon fill="lightgrey" stroke="black" points="577.5,-160 522.2,-142 577.5,-124 632.8,-142 577.5,-160"/>
<text text-anchor="middle" x="577.5" y="-138.3" font-family="Times,serif" font-size="14.00">Ogmios</text>
</g>
<!-- cli&#45;&#45;Ogmios -->
<g id="edge3" class="edge">
<title>cli&#45;&#45;Ogmios</title>
<path fill="none" stroke="black" d="M770.93,-439.03C771.52,-387.56 772.5,-302 772.5,-302 772.5,-302 640.03,-193.31 593.46,-155.09"/>
<text text-anchor="middle" x="783.5" y="-290.8" font-family="Times,serif" font-size="14.00">WS</text>
</g>
<!-- Kupo -->
<g id="node6" class="node">
<title>Kupo</title>
<polygon fill="lightgrey" stroke="black" points="442.5,-248 399.1,-230 442.5,-212 485.9,-230 442.5,-248"/>
<text text-anchor="middle" x="442.5" y="-226.3" font-family="Times,serif" font-size="14.00">Kupo</text>
</g>
<!-- cli&#45;&#45;Kupo -->
<g id="edge4" class="edge">
<title>cli&#45;&#45;Kupo</title>
<path fill="none" stroke="black" d="M728.84,-447.89C684.14,-416.67 619.5,-371.5 619.5,-371.5 619.5,-371.5 500.39,-276.28 457.59,-242.06"/>
<text text-anchor="middle" x="636.5" y="-360.3" font-family="Times,serif" font-size="14.00">HTTP</text>
</g>
<!-- odc -->
<g id="node7" class="node">
<title>odc</title>
<polygon fill="lightgrey" stroke="black" points="624.5,-248 504.18,-230 624.5,-212 744.82,-230 624.5,-248"/>
<text text-anchor="middle" x="624.5" y="-226.3" font-family="Times,serif" font-size="14.00">ogmios&#45;datum&#45;cache</text>
</g>
<!-- cli&#45;&#45;odc -->
<g id="edge5" class="edge">
<title>cli&#45;&#45;odc</title>
<path fill="none" stroke="black" d="M749.3,-443.62C729.67,-412.71 703.5,-371.5 703.5,-371.5 703.5,-371.5 654.8,-284.27 633.87,-246.79"/>
<text text-anchor="middle" x="720.5" y="-360.3" font-family="Times,serif" font-size="14.00">HTTP</text>
</g>
<!-- wallet -->
<g id="node2" class="node">
<title>wallet</title>
<polygon fill="lightgrey" stroke="black" points="362.5,-495 239.17,-477 362.5,-459 485.83,-477 362.5,-495"/>
<text text-anchor="middle" x="362.5" y="-473.3" font-family="Times,serif" font-size="14.00">Browser based wallet</text>
</g>
<!-- browsersdk -->
<g id="node3" class="node">
<title>browsersdk</title>
<polygon fill="lightgrey" stroke="black" points="362.5,-402 150.5,-364 362.5,-326 574.5,-364 362.5,-402"/>
<text text-anchor="middle" x="362.5" y="-367.8" font-family="Times,serif" font-size="14.00">Trustless&#45;sidechain JavaScript SDK</text>
<text text-anchor="middle" x="362.5" y="-352.8" font-family="Times,serif" font-size="14.00">(using CTL as a library)</text>
</g>
<!-- wallet&#45;&#45;browsersdk -->
<g id="edge6" class="edge">
<title>wallet&#45;&#45;browsersdk</title>
<path fill="none" stroke="black" d="M362.5,-458.66C362.5,-443.66 362.5,-421.45 362.5,-402.42"/>
</g>
<!-- browsersdk&#45;&#45;sdk -->
<g id="edge2" class="edge">
<title>browsersdk&#45;&#45;sdk</title>
<path fill="none" stroke="black" stroke-dasharray="5,2" d="M316.02,-334.2C274.28,-308.33 214.27,-271.14 178.85,-249.19"/>
</g>
<!-- browsersdk&#45;&#45;Ogmios -->
<g id="edge7" class="edge">
<title>browsersdk&#45;&#45;Ogmios</title>
<path fill="none" stroke="black" d="M367.49,-326.82C373.12,-284.9 381.5,-222.5 381.5,-222.5 381.5,-222.5 499.94,-173.86 552.68,-152.2"/>
<text text-anchor="middle" x="370.5" y="-226.3" font-family="Times,serif" font-size="14.00">WS</text>
</g>
<!-- browsersdk&#45;&#45;Kupo -->
<g id="edge8" class="edge">
<title>browsersdk&#45;&#45;Kupo</title>
<path fill="none" stroke="black" d="M382.89,-329.35C399.56,-301.85 422.26,-264.4 434.27,-244.59"/>
<text text-anchor="middle" x="423.5" y="-290.8" font-family="Times,serif" font-size="14.00">HTTP</text>
</g>
<!-- browsersdk&#45;&#45;odc -->
<g id="edge9" class="edge">
<title>browsersdk&#45;&#45;odc</title>
<path fill="none" stroke="black" d="M416.79,-335.65C472.24,-307.71 556.02,-265.5 598.23,-244.24"/>
<text text-anchor="middle" x="525.5" y="-290.8" font-family="Times,serif" font-size="14.00">HTTP</text>
</g>
<!-- cnode -->
<g id="node8" class="node">
<title>cnode</title>
<polygon fill="lightgrey" stroke="black" points="495.5,-52 342,-34 495.5,-16 649,-34 495.5,-52"/>
<text text-anchor="middle" x="495.5" y="-30.3" font-family="Times,serif" font-size="14.00">Cardano Node (blockchain)</text>
</g>
<!-- Ogmios&#45;&#45;cnode -->
<g id="edge11" class="edge">
<title>Ogmios&#45;&#45;cnode</title>
<path fill="none" stroke="black" d="M566.78,-127.14C551.59,-107.5 523.86,-71.65 507.83,-50.94"/>
<text text-anchor="middle" x="566" y="-94.8" font-family="Times,serif" font-size="14.00">socket</text>
</g>
<!-- Kupo&#45;&#45;cnode -->
<g id="edge12" class="edge">
<title>Kupo&#45;&#45;cnode</title>
<path fill="none" stroke="black" d="M446.23,-213.32C451.5,-189.74 460.5,-149.5 460.5,-149.5 460.5,-149.5 480.39,-83.85 490.18,-51.54"/>
<text text-anchor="middle" x="478" y="-138.3" font-family="Times,serif" font-size="14.00">socket</text>
</g>
<!-- odc&#45;&#45;Ogmios -->
<g id="edge10" class="edge">
<title>odc&#45;&#45;Ogmios</title>
<path fill="none" stroke="black" d="M615.88,-213.23C607.19,-197.32 593.88,-172.97 585.44,-157.53"/>
<text text-anchor="middle" x="614.5" y="-181.8" font-family="Times,serif" font-size="14.00">WS</text>
</g>
</g>
</svg>
