<?xml version="1.0" encoding="UTF-8" standalone="no"?>
<!DOCTYPE svg PUBLIC "-//W3C//DTD SVG 1.1//EN"
 "http://www.w3.org/Graphics/SVG/1.1/DTD/svg11.dtd">
<!-- Generated by graphviz version 7.0.2 (0)
 -->
<!-- Pages: 1 -->
<svg width="941pt" height="506pt"
 viewBox="0.00 0.00 940.50 506.00" xmlns="http://www.w3.org/2000/svg" xmlns:xlink="http://www.w3.org/1999/xlink">
<g id="graph0" class="graph" transform="scale(1 1) rotate(0) translate(4 502)">
<polygon fill="white" stroke="none" points="-4,4 -4,-502 936.5,-502 936.5,4 -4,4"/>
<g id="clust1" class="cluster">
<title>cluster_interface</title>
<polygon fill="none" stroke="black" points="100.5,-223 100.5,-490 924.5,-490 924.5,-223 100.5,-223"/>
<text text-anchor="middle" x="147" y="-474.8" font-family="Times,serif" font-size="14.00">User interface</text>
</g>
<g id="clust2" class="cluster">
<title>cluster_terminal</title>
<polygon fill="none" stroke="black" points="556.5,-344 556.5,-459 916.5,-459 916.5,-344 556.5,-344"/>
<text text-anchor="middle" x="590" y="-443.8" font-family="Times,serif" font-size="14.00">Terminal</text>
</g>
<g id="clust3" class="cluster">
<title>cluster_browser</title>
<polygon fill="none" stroke="black" points="108.5,-231 108.5,-439 548.5,-439 548.5,-231 108.5,-231"/>
<text text-anchor="middle" x="139.5" y="-423.8" font-family="Times,serif" font-size="14.00">Browser</text>
</g>
<g id="clust4" class="cluster">
<title>cluster_services</title>
<polygon fill="none" stroke="black" points="338.5,-117 338.5,-192 712.5,-192 712.5,-117 338.5,-117"/>
<text text-anchor="middle" x="369.5" y="-176.8" font-family="Times,serif" font-size="14.00">Services</text>
</g>
<g id="clust5" class="cluster">
<title>cluster_blockchain</title>
<polygon fill="none" stroke="black" points="293.5,-8 293.5,-83 615.5,-83 615.5,-8 293.5,-8"/>
<text text-anchor="middle" x="332.5" y="-67.8" font-family="Times,serif" font-size="14.00">Blockchain</text>
</g>
<!-- cli -->
<g id="node1" class="node">
<title>cli</title>
<polygon fill="lightgrey" stroke="black" points="736.5,-428 564.5,-390 736.5,-352 908.5,-390 736.5,-428"/>
<text text-anchor="middle" x="736.5" y="-393.8" font-family="Times,serif" font-size="14.00">Trustless&#45;sidechain CLI</text>
<text text-anchor="middle" x="736.5" y="-378.8" font-family="Times,serif" font-size="14.00">(using our SDK as a library)</text>
</g>
<!-- sdk -->
<g id="node4" class="node">
<title>sdk</title>
<polygon fill="none" stroke="black" stroke-dasharray="5,2" points="299,-162 0,-162 0,-124 299,-124 299,-162"/>
<text text-anchor="middle" x="149.5" y="-146.8" font-family="Times,serif" font-size="14.00">Common SDK toolkit</text>
<text text-anchor="middle" x="149.5" y="-131.8" font-family="Times,serif" font-size="14.00">(off&#45;chain and on&#45;chain code, our SDK as a library)</text>
</g>
<!-- cli&#45;&#45;sdk -->
<g id="edge1" class="edge">
<title>cli&#45;&#45;sdk</title>
<path fill="none" stroke="black" stroke-dasharray="5,2" d="M676.71,-364.84C559.39,-315.48 301.29,-206.87 195.8,-162.48"/>
</g>
<!-- Ogmios -->
<g id="node5" class="node">
<title>Ogmios</title>
<polygon fill="lightgrey" stroke="black" points="505.5,-161 450.2,-143 505.5,-125 560.8,-143 505.5,-161"/>
<text text-anchor="middle" x="505.5" y="-139.3" font-family="Times,serif" font-size="14.00">Ogmios</text>
</g>
<!-- cli&#45;&#45;Ogmios -->
<g id="edge3" class="edge">
<title>cli&#45;&#45;Ogmios</title>
<path fill="none" stroke="black" d="M714.04,-356.62C693.23,-325.71 665.5,-284.5 665.5,-284.5 665.5,-284.5 560.38,-191.54 520.55,-156.31"/>
<text text-anchor="middle" x="682.5" y="-273.3" font-family="Times,serif" font-size="14.00">HTTP</text>
</g>
<!-- Kupo -->
<g id="node6" class="node">
<title>Kupo</title>
<polygon fill="lightgrey" stroke="black" points="389.5,-161 346.1,-143 389.5,-125 432.9,-143 389.5,-161"/>
<text text-anchor="middle" x="389.5" y="-139.3" font-family="Times,serif" font-size="14.00">Kupo</text>
</g>
<!-- cli&#45;&#45;Kupo -->
<g id="edge4" class="edge">
<title>cli&#45;&#45;Kupo</title>
<path fill="none" stroke="black" d="M693.05,-361.17C645.98,-329.94 577.5,-284.5 577.5,-284.5 577.5,-284.5 450.39,-188.83 405.21,-154.82"/>
<text text-anchor="middle" x="594.5" y="-273.3" font-family="Times,serif" font-size="14.00">HTTP</text>
</g>
<!-- ctl&#45;server -->
<g id="node7" class="node">
<title>ctl&#45;server</title>
<polygon fill="lightgrey" stroke="black" points="641.5,-161 578.99,-143 641.5,-125 704.01,-143 641.5,-161"/>
<text text-anchor="middle" x="641.5" y="-139.3" font-family="Times,serif" font-size="14.00">ctl&#45;server</text>
</g>
<!-- cli&#45;&#45;ctl&#45;server -->
<g id="edge5" class="edge">
<title>cli&#45;&#45;ctl&#45;server</title>
<path fill="none" stroke="black" d="M736.14,-351.61C735.85,-321.45 735.5,-284.5 735.5,-284.5 735.5,-284.5 676.1,-195.09 651.74,-158.41"/>
<text text-anchor="middle" x="752.5" y="-273.3" font-family="Times,serif" font-size="14.00">HTTP</text>
</g>
<!-- wallet -->
<g id="node2" class="node">
<title>wallet</title>
<polygon fill="lightgrey" stroke="black" points="328.5,-408 205.17,-390 328.5,-372 451.83,-390 328.5,-408"/>
<text text-anchor="middle" x="328.5" y="-386.3" font-family="Times,serif" font-size="14.00">Browser based wallet</text>
</g>
<!-- browsersdk -->
<g id="node3" class="node">
<title>browsersdk</title>
<polygon fill="lightgrey" stroke="black" points="328.5,-315 116.5,-277 328.5,-239 540.5,-277 328.5,-315"/>
<text text-anchor="middle" x="328.5" y="-280.8" font-family="Times,serif" font-size="14.00">Trustless&#45;sidechain JavaScript SDK</text>
<text text-anchor="middle" x="328.5" y="-265.8" font-family="Times,serif" font-size="14.00">(using CTL as a library)</text>
</g>
<!-- wallet&#45;&#45;browsersdk -->
<g id="edge6" class="edge">
<title>wallet&#45;&#45;browsersdk</title>
<path fill="none" stroke="black" d="M328.5,-371.66C328.5,-356.66 328.5,-334.45 328.5,-315.42"/>
</g>
<!-- browsersdk&#45;&#45;sdk -->
<g id="edge2" class="edge">
<title>browsersdk&#45;&#45;sdk</title>
<path fill="none" stroke="black" stroke-dasharray="5,2" d="M287.88,-246.05C253.02,-220.34 203.88,-184.1 174.5,-162.44"/>
</g>
<!-- browsersdk&#45;&#45;Ogmios -->
<g id="edge7" class="edge">
<title>browsersdk&#45;&#45;Ogmios</title>
<path fill="none" stroke="black" d="M368.66,-246.05C406.81,-217.6 462.24,-176.26 489.35,-156.04"/>
<text text-anchor="middle" x="446.5" y="-203.8" font-family="Times,serif" font-size="14.00">HTTP</text>
</g>
<!-- browsersdk&#45;&#45;Kupo -->
<g id="edge8" class="edge">
<title>browsersdk&#45;&#45;Kupo</title>
<path fill="none" stroke="black" d="M344.37,-241.66C356.86,-214.62 373.66,-178.29 382.83,-158.44"/>
<text text-anchor="middle" x="379.5" y="-203.8" font-family="Times,serif" font-size="14.00">HTTP</text>
</g>
<!-- browsersdk&#45;&#45;ctl&#45;server -->
<g id="edge9" class="edge">
<title>browsersdk&#45;&#45;ctl&#45;server</title>
<path fill="none" stroke="black" d="M390.71,-249.76C460.06,-220.52 568.8,-174.66 617.04,-154.32"/>
<text text-anchor="middle" x="560.5" y="-203.8" font-family="Times,serif" font-size="14.00">HTTP</text>
</g>
<!-- cnode -->
<g id="node8" class="node">
<title>cnode</title>
<polygon fill="lightgrey" stroke="black" points="454.5,-52 301,-34 454.5,-16 608,-34 454.5,-52"/>
<text text-anchor="middle" x="454.5" y="-30.3" font-family="Times,serif" font-size="14.00">Cardano Node (blockchain)</text>
</g>
<!-- Ogmios&#45;&#45;cnode -->
<g id="edge10" class="edge">
<title>Ogmios&#45;&#45;cnode</title>
<path fill="none" stroke="black" d="M498.41,-127.12C488.94,-107.25 472.22,-72.17 462.37,-51.51"/>
<text text-anchor="middle" x="505" y="-94.8" font-family="Times,serif" font-size="14.00">socket</text>
</g>
<!-- Kupo&#45;&#45;cnode -->
<g id="edge11" class="edge">
<title>Kupo&#45;&#45;cnode</title>
<path fill="none" stroke="black" d="M398,-128.01C410.04,-108.18 432.02,-72 444.73,-51.09"/>
<text text-anchor="middle" x="437" y="-94.8" font-family="Times,serif" font-size="14.00">socket</text>
</g>
</g>
</svg>
