<?xml version="1.0" encoding="UTF-8" standalone="no"?>
<!DOCTYPE svg PUBLIC "-//W3C//DTD SVG 1.1//EN"
 "http://www.w3.org/Graphics/SVG/1.1/DTD/svg11.dtd">
<!-- Generated by graphviz version 5.0.1 (0)
 -->
<!-- Pages: 1 -->
<svg width="953pt" height="298pt"
 viewBox="0.00 0.00 953.00 298.00" xmlns="http://www.w3.org/2000/svg" xmlns:xlink="http://www.w3.org/1999/xlink">
<g id="graph0" class="graph" transform="scale(1 1) rotate(0) translate(4 294)">
<polygon fill="white" stroke="none" points="-4,4 -4,-294 949,-294 949,4 -4,4"/>
<g id="clust1" class="cluster">
<title>cluster_sidechain</title>
<polygon fill="none" stroke="black" points="8,-41 8,-116 259,-116 259,-41 8,-41"/>
<text text-anchor="middle" x="133.5" y="-100.8" font-family="Times,serif" font-size="14.00">Sidechain network</text>
</g>
<g id="clust2" class="cluster">
<title>cluster_bridge</title>
<polygon fill="none" stroke="black" points="279,-8 279,-157 448,-157 448,-8 279,-8"/>
<text text-anchor="middle" x="363.5" y="-141.8" font-family="Times,serif" font-size="14.00">Bridge</text>
</g>
<g id="clust3" class="cluster">
<title>cluster_cardano</title>
<polygon fill="none" stroke="black" points="460,-60 460,-282 937,-282 937,-60 460,-60"/>
<text text-anchor="middle" x="698.5" y="-266.8" font-family="Times,serif" font-size="14.00">Cardano network</text>
</g>
<g id="clust4" class="cluster">
<title>cluster_onchain</title>
<polygon fill="none" stroke="black" points="468,-68 468,-251 619,-251 619,-68 468,-68"/>
<text text-anchor="middle" x="543.5" y="-235.8" font-family="Times,serif" font-size="14.00">On&#45;chain data</text>
</g>
<!-- sWallet -->
<g id="node1" class="node">
<title>sWallet</title>
<polygon fill="lightgrey" stroke="black" points="95,-85 16,-85 16,-49 95,-49 95,-85"/>
<text text-anchor="middle" x="55.5" y="-63.3" font-family="Times,serif" font-size="14.00">User wallet</text>
</g>
<!-- lock -->
<g id="node2" class="node">
<title>lock</title>
<polygon fill="lightgrey" stroke="black" points="251,-85 131,-85 131,-49 251,-49 251,-85"/>
<text text-anchor="middle" x="191" y="-63.3" font-family="Times,serif" font-size="14.00">Lock FUEL tokens</text>
</g>
<!-- sWallet&#45;&gt;lock -->
<g id="edge1" class="edge">
<title>sWallet&#45;&gt;lock</title>
<path fill="none" stroke="black" d="M95.11,-67C103.14,-67 111.83,-67 120.58,-67"/>
<polygon fill="black" stroke="black" points="120.85,-70.5 130.85,-67 120.85,-63.5 120.85,-70.5"/>
</g>
<!-- createMT -->
<g id="node3" class="node">
<title>createMT</title>
<polygon fill="lightgrey" stroke="black" points="440,-125.5 287,-125.5 287,-72.5 440,-72.5 440,-125.5"/>
<text text-anchor="middle" x="363.5" y="-110.3" font-family="Times,serif" font-size="14.00">Create a merkle tree of</text>
<text text-anchor="middle" x="363.5" y="-95.3" font-family="Times,serif" font-size="14.00">n transactions, store</text>
<text text-anchor="middle" x="363.5" y="-80.3" font-family="Times,serif" font-size="14.00">the Merkle root on&#45;chain</text>
</g>
<!-- lock&#45;&gt;createMT -->
<g id="edge2" class="edge">
<title>lock&#45;&gt;createMT</title>
<path fill="none" stroke="black" d="M251.15,-78.1C259.54,-79.68 268.3,-81.32 277.06,-82.96"/>
<polygon fill="black" stroke="black" points="276.46,-86.41 286.93,-84.82 277.75,-79.53 276.46,-86.41"/>
</g>
<!-- certificate -->
<g id="node4" class="node">
<title>certificate</title>
<polygon fill="lightgrey" stroke="black" points="439.5,-54 287.5,-54 287.5,-16 439.5,-16 439.5,-54"/>
<text text-anchor="middle" x="363.5" y="-38.8" font-family="Times,serif" font-size="14.00">Create certificate</text>
<text text-anchor="middle" x="363.5" y="-23.8" font-family="Times,serif" font-size="14.00">signed by the committee</text>
</g>
<!-- lock&#45;&gt;certificate -->
<g id="edge3" class="edge">
<title>lock&#45;&gt;certificate</title>
<path fill="none" stroke="black" d="M251.15,-55.9C259.61,-54.31 268.44,-52.65 277.28,-50.99"/>
<polygon fill="black" stroke="black" points="278.05,-54.41 287.23,-49.13 276.76,-47.53 278.05,-54.41"/>
</g>
<!-- merkleRoot -->
<g id="node7" class="node">
<title>merkleRoot</title>
<polygon fill="lightgrey" stroke="black" points="584.5,-112 502.5,-112 502.5,-76 584.5,-76 584.5,-112"/>
<text text-anchor="middle" x="543.5" y="-90.3" font-family="Times,serif" font-size="14.00">Merkle root</text>
</g>
<!-- createMT&#45;&gt;merkleRoot -->
<g id="edge10" class="edge">
<title>createMT&#45;&gt;merkleRoot</title>
<path fill="none" stroke="black" d="M440.25,-96.87C457.79,-96.38 476.03,-95.87 492.17,-95.41"/>
<polygon fill="black" stroke="black" points="492.55,-98.9 502.45,-95.13 492.35,-91.91 492.55,-98.9"/>
</g>
<!-- fuelMp -->
<g id="node8" class="node">
<title>fuelMp</title>
<polygon fill="lightgrey" stroke="black" points="814,-166 647,-166 647,-130 814,-130 814,-166"/>
<text text-anchor="middle" x="730.5" y="-144.3" font-family="Times,serif" font-size="14.00">FUEL token minting policy</text>
</g>
<!-- certificate&#45;&gt;fuelMp -->
<g id="edge4" class="edge">
<title>certificate&#45;&gt;fuelMp</title>
<path fill="none" stroke="black" d="M439.72,-33.21C491.79,-34.43 561.74,-41.01 619,-64 651.92,-77.21 683.51,-103 704.42,-122.54"/>
<polygon fill="black" stroke="black" points="702.25,-125.3 711.9,-129.68 707.08,-120.24 702.25,-125.3"/>
</g>
<!-- committee -->
<g id="node5" class="node">
<title>committee</title>
<polygon fill="lightgrey" stroke="black" points="597,-220 490,-220 490,-184 597,-184 597,-220"/>
<text text-anchor="middle" x="543.5" y="-198.3" font-family="Times,serif" font-size="14.00">Committee hash</text>
</g>
<!-- committee&#45;&gt;fuelMp -->
<g id="edge7" class="edge">
<title>committee&#45;&gt;fuelMp</title>
<path fill="none" stroke="black" d="M597.02,-186.67C615.93,-181.15 637.6,-174.82 657.86,-168.91"/>
<polygon fill="black" stroke="black" points="659.06,-172.21 667.68,-166.04 657.1,-165.49 659.06,-172.21"/>
</g>
<!-- claimedTokens -->
<g id="node6" class="node">
<title>claimedTokens</title>
<polygon fill="lightgrey" stroke="black" points="611,-166 476,-166 476,-130 611,-130 611,-166"/>
<text text-anchor="middle" x="543.5" y="-144.3" font-family="Times,serif" font-size="14.00">Set of claimed tokens</text>
</g>
<!-- claimedTokens&#45;&gt;fuelMp -->
<g id="edge8" class="edge">
<title>claimedTokens&#45;&gt;fuelMp</title>
<path fill="none" stroke="black" d="M611.03,-141.49C619.37,-141.33 628.01,-141.25 636.66,-141.25"/>
<polygon fill="black" stroke="black" points="636.79,-144.75 646.8,-141.28 636.81,-137.75 636.79,-144.75"/>
</g>
<!-- merkleRoot&#45;&gt;fuelMp -->
<g id="edge6" class="edge">
<title>merkleRoot&#45;&gt;fuelMp</title>
<path fill="none" stroke="black" d="M584.64,-105.72C606.03,-111.96 632.99,-119.83 657.84,-127.08"/>
<polygon fill="black" stroke="black" points="657.02,-130.49 667.6,-129.93 658.98,-123.77 657.02,-130.49"/>
</g>
<!-- fuelMp&#45;&gt;claimedTokens -->
<g id="edge9" class="edge">
<title>fuelMp&#45;&gt;claimedTokens</title>
<path fill="none" stroke="black" d="M646.8,-154.72C638.29,-154.78 629.66,-154.76 621.22,-154.66"/>
<polygon fill="black" stroke="black" points="621.08,-151.16 611.03,-154.51 620.97,-158.16 621.08,-151.16"/>
</g>
<!-- cWallet -->
<g id="node9" class="node">
<title>cWallet</title>
<polygon fill="lightgrey" stroke="black" points="929,-166 850,-166 850,-130 929,-130 929,-166"/>
<text text-anchor="middle" x="889.5" y="-144.3" font-family="Times,serif" font-size="14.00">User wallet</text>
</g>
<!-- fuelMp&#45;&gt;cWallet -->
<g id="edge5" class="edge">
<title>fuelMp&#45;&gt;cWallet</title>
<path fill="none" stroke="black" d="M814.14,-148C822.86,-148 831.52,-148 839.68,-148"/>
<polygon fill="black" stroke="black" points="839.71,-151.5 849.71,-148 839.71,-144.5 839.71,-151.5"/>
</g>
</g>
</svg>
