<?xml version="1.0" encoding="UTF-8" standalone="no"?>
<!DOCTYPE svg PUBLIC "-//W3C//DTD SVG 1.1//EN"
 "http://www.w3.org/Graphics/SVG/1.1/DTD/svg11.dtd">
<!-- Generated by graphviz version 5.0.1 (0)
 -->
<!-- Pages: 1 -->
<svg width="322pt" height="374pt"
 viewBox="0.00 0.00 322.00 374.00" xmlns="http://www.w3.org/2000/svg" xmlns:xlink="http://www.w3.org/1999/xlink">
<g id="graph0" class="graph" transform="scale(1 1) rotate(0) translate(4 370)">
<polygon fill="white" stroke="none" points="-4,4 -4,-370 318,-370 318,4 -4,4"/>
<g id="clust1" class="cluster">
<title>cluster_cardano</title>
<polygon fill="none" stroke="black" points="8,-192 8,-358 306,-358 306,-192 8,-192"/>
<text text-anchor="middle" x="157" y="-342.8" font-family="Times,serif" font-size="14.00">Cardano network</text>
</g>
<g id="clust2" class="cluster">
<title>cluster_bridge</title>
<polygon fill="none" stroke="black" points="38,-8 38,-173 258,-173 258,-8 38,-8"/>
<text text-anchor="middle" x="148" y="-157.8" font-family="Times,serif" font-size="14.00">Bridge</text>
</g>
<!-- spoWallet -->
<g id="node1" class="node">
<title>spoWallet</title>
<polygon fill="lightgrey" stroke="black" points="128,-326 50,-326 50,-290 128,-290 128,-326"/>
<text text-anchor="middle" x="89" y="-304.3" font-family="Times,serif" font-size="14.00">SPO wallet</text>
</g>
<!-- committeeCandidates -->
<g id="node2" class="node">
<title>committeeCandidates</title>
<polygon fill="lightgrey" stroke="black" points="158,-237 16,-237 16,-201 158,-201 158,-237"/>
<text text-anchor="middle" x="87" y="-215.3" font-family="Times,serif" font-size="14.00">Committee Candidates</text>
</g>
<!-- spoWallet&#45;&gt;committeeCandidates -->
<g id="edge1" class="edge">
<title>spoWallet&#45;&gt;committeeCandidates</title>
<path fill="none" stroke="black" d="M113.84,-289.82C124.11,-280.47 132.48,-268.31 127,-256 125.15,-251.86 122.57,-247.99 119.59,-244.44"/>
<polygon fill="black" stroke="black" points="122.05,-241.95 112.58,-237.21 117.03,-246.82 122.05,-241.95"/>
<text text-anchor="middle" x="161.5" y="-259.8" font-family="Times,serif" font-size="14.00">Registration</text>
</g>
<!-- committeeCandidates&#45;&gt;spoWallet -->
<g id="edge2" class="edge">
<title>committeeCandidates&#45;&gt;spoWallet</title>
<path fill="none" stroke="black" d="M59.32,-237.13C48.11,-246.38 39.06,-258.46 45,-271 47,-275.23 49.77,-279.12 52.96,-282.67"/>
<polygon fill="black" stroke="black" points="50.81,-285.46 60.45,-289.85 55.66,-280.41 50.81,-285.46"/>
<text text-anchor="middle" x="84" y="-259.8" font-family="Times,serif" font-size="14.00">Deregistration</text>
</g>
<!-- verifySPO -->
<g id="node5" class="node">
<title>verifySPO</title>
<polygon fill="lightgrey" stroke="black" points="169.5,-142 52.5,-142 52.5,-106 169.5,-106 169.5,-142"/>
<text text-anchor="middle" x="111" y="-120.3" font-family="Times,serif" font-size="14.00">Candidate verified</text>
</g>
<!-- committeeCandidates&#45;&gt;verifySPO -->
<g id="edge3" class="edge">
<title>committeeCandidates&#45;&gt;verifySPO</title>
<path fill="none" stroke="black" d="M91.4,-200.94C94.93,-187.26 99.95,-167.81 104.03,-152.02"/>
<polygon fill="black" stroke="black" points="107.43,-152.82 106.54,-142.26 100.66,-151.07 107.43,-152.82"/>
</g>
<!-- committeeHash1 -->
<g id="node3" class="node">
<title>committeeHash1</title>
<polygon fill="lightgrey" stroke="black" points="297.5,-327 172.5,-327 172.5,-289 297.5,-289 297.5,-327"/>
<text text-anchor="middle" x="235" y="-311.8" font-family="Times,serif" font-size="14.00">Committee hash of</text>
<text text-anchor="middle" x="235" y="-296.8" font-family="Times,serif" font-size="14.00">sidechain epoch n&#45;1</text>
</g>
<!-- committeeHash2 -->
<g id="node4" class="node">
<title>committeeHash2</title>
<polygon fill="lightgrey" stroke="black" points="298,-238 176,-238 176,-200 298,-200 298,-238"/>
<text text-anchor="middle" x="237" y="-222.8" font-family="Times,serif" font-size="14.00">Committee hash of</text>
<text text-anchor="middle" x="237" y="-207.8" font-family="Times,serif" font-size="14.00">sidechain epoch n</text>
</g>
<!-- committeeHash1&#45;&gt;committeeHash2 -->
<g id="edge5" class="edge">
<title>committeeHash1&#45;&gt;committeeHash2</title>
<path fill="none" stroke="black" d="M235.41,-288.97C235.69,-277.19 236.04,-261.56 236.35,-248.16"/>
<polygon fill="black" stroke="black" points="239.86,-248.08 236.59,-238 232.86,-247.92 239.86,-248.08"/>
</g>
<!-- mkCommittee -->
<g id="node6" class="node">
<title>mkCommittee</title>
<polygon fill="lightgrey" stroke="black" points="249.5,-69 46.5,-69 46.5,-16 249.5,-16 249.5,-69"/>
<text text-anchor="middle" x="148" y="-53.8" font-family="Times,serif" font-size="14.00">List of next committee</text>
<text text-anchor="middle" x="148" y="-38.8" font-family="Times,serif" font-size="14.00">members signed by the current</text>
<text text-anchor="middle" x="148" y="-23.8" font-family="Times,serif" font-size="14.00">committee, and sent to mainchain</text>
</g>
<!-- verifySPO&#45;&gt;mkCommittee -->
<g id="edge4" class="edge">
<title>verifySPO&#45;&gt;mkCommittee</title>
<path fill="none" stroke="black" d="M119.03,-105.75C122.76,-97.74 127.34,-87.9 131.74,-78.44"/>
<polygon fill="black" stroke="black" points="135,-79.72 136.05,-69.18 128.66,-76.77 135,-79.72"/>
</g>
<!-- mkCommittee&#45;&gt;committeeHash2 -->
<g id="edge6" class="edge">
<title>mkCommittee&#45;&gt;committeeHash2</title>
<path fill="none" stroke="black" d="M161.16,-69.29C177.77,-101.87 206.22,-157.66 223.16,-190.86"/>
<polygon fill="black" stroke="black" points="220.15,-192.66 227.81,-199.98 226.39,-189.48 220.15,-192.66"/>
</g>
</g>
</svg>
