<?xml version="1.0" encoding="UTF-8" standalone="no"?>
<!DOCTYPE svg PUBLIC "-//W3C//DTD SVG 1.1//EN"
 "http://www.w3.org/Graphics/SVG/1.1/DTD/svg11.dtd">
<!-- Generated by graphviz version 7.0.2 (0)
 -->
<!-- Pages: 1 -->
<svg width="322pt" height="374pt"
 viewBox="0.00 0.00 322.00 374.00" xmlns="http://www.w3.org/2000/svg" xmlns:xlink="http://www.w3.org/1999/xlink">
<g id="graph0" class="graph" transform="scale(1 1) rotate(0) translate(4 370)">
<polygon fill="white" stroke="none" points="-4,4 -4,-370 318,-370 318,4 -4,4"/>
<g id="clust1" class="cluster">
<title>cluster_cardano</title>
<polygon fill="none" stroke="black" points="8,-192 8,-358 306,-358 306,-192 8,-192"/>
<text text-anchor="middle" x="157" y="-342.8" font-family="Times,serif" font-size="14.00">Cardano network</text>
</g>
<g id="clust2" class="cluster">
<title>cluster_bridge</title>
<polygon fill="none" stroke="black" points="38,-8 38,-173 258,-173 258,-8 38,-8"/>
<text text-anchor="middle" x="148" y="-157.8" font-family="Times,serif" font-size="14.00">Bridge</text>
</g>
<!-- spoWallet -->
<g id="node1" class="node">
<title>spoWallet</title>
<polygon fill="lightgrey" stroke="black" points="128,-326 50,-326 50,-290 128,-290 128,-326"/>
<text text-anchor="middle" x="89" y="-304.3" font-family="Times,serif" font-size="14.00">SPO wallet</text>
</g>
<!-- committeeCandidates -->
<g id="node2" class="node">
<title>committeeCandidates</title>
<polygon fill="lightgrey" stroke="black" points="158,-237 16,-237 16,-201 158,-201 158,-237"/>
<text text-anchor="middle" x="87" y="-215.3" font-family="Times,serif" font-size="14.00">Committee Candidates</text>
</g>
<!-- spoWallet&#45;&gt;committeeCandidates -->
<g id="edge1" class="edge">
<title>spoWallet&#45;&gt;committeeCandidates</title>
<path fill="none" stroke="black" d="M114.09,-289.59C124.24,-280.27 132.44,-268.2 127,-256 125.3,-252.19 122.98,-248.62 120.31,-245.31"/>
<polygon fill="black" stroke="black" points="123.06,-243.12 113.63,-238.3 117.99,-247.96 123.06,-243.12"/>
<text text-anchor="middle" x="161.5" y="-259.8" font-family="Times,serif" font-size="14.00">Registration</text>
</g>
<!-- committeeCandidates&#45;&gt;spoWallet -->
<g id="edge2" class="edge">
<title>committeeCandidates&#45;&gt;spoWallet</title>
<path fill="none" stroke="black" d="M59.04,-237.36C47.97,-246.58 39.11,-258.56 45,-271 46.9,-275 49.48,-278.7 52.45,-282.09"/>
<polygon fill="black" stroke="black" points="49.75,-284.35 59.37,-288.8 54.62,-279.33 49.75,-284.35"/>
<text text-anchor="middle" x="84" y="-259.8" font-family="Times,serif" font-size="14.00">Deregistration</text>
</g>
<!-- verifySPO -->
<g id="node5" class="node">
<title>verifySPO</title>
<polygon fill="lightgrey" stroke="black" points="169.5,-142 52.5,-142 52.5,-106 169.5,-106 169.5,-142"/>
<text text-anchor="middle" x="111" y="-120.3" font-family="Times,serif" font-size="14.00">Candidate verified</text>
</g>
<!-- committeeCandidates&#45;&gt;verifySPO -->
<g id="edge3" class="edge">
<title>committeeCandidates&#45;&gt;verifySPO</title>
<path fill="none" stroke="black" d="M91.51,-200.51C94.93,-187.26 99.7,-168.78 103.67,-153.42"/>
<polygon fill="black" stroke="black" points="107.02,-154.44 106.13,-143.88 100.24,-152.69 107.02,-154.44"/>
</g>
<!-- committeeHash1 -->
<g id="node3" class="node">
<title>committeeHash1</title>
<polygon fill="lightgrey" stroke="black" points="297.5,-327 172.5,-327 172.5,-289 297.5,-289 297.5,-327"/>
<text text-anchor="middle" x="235" y="-311.8" font-family="Times,serif" font-size="14.00">Committee hash of</text>
<text text-anchor="middle" x="235" y="-296.8" font-family="Times,serif" font-size="14.00">sidechain epoch n&#45;1</text>
</g>
<!-- committeeHash2 -->
<g id="node4" class="node">
<title>committeeHash2</title>
<polygon fill="lightgrey" stroke="black" points="298,-238 176,-238 176,-200 298,-200 298,-238"/>
<text text-anchor="middle" x="237" y="-222.8" font-family="Times,serif" font-size="14.00">Committee hash of</text>
<text text-anchor="middle" x="237" y="-207.8" font-family="Times,serif" font-size="14.00">sidechain epoch n</text>
</g>
<!-- committeeHash1&#45;&gt;committeeHash2 -->
<g id="edge5" class="edge">
<title>committeeHash1&#45;&gt;committeeHash2</title>
<path fill="none" stroke="black" d="M235.42,-288.55C235.68,-277.25 236.02,-262.52 236.32,-249.61"/>
<polygon fill="black" stroke="black" points="239.81,-250.01 236.54,-239.94 232.81,-249.85 239.81,-250.01"/>
</g>
<!-- mkCommittee -->
<g id="node6" class="node">
<title>mkCommittee</title>
<polygon fill="lightgrey" stroke="black" points="249.5,-69 46.5,-69 46.5,-16 249.5,-16 249.5,-69"/>
<text text-anchor="middle" x="148" y="-53.8" font-family="Times,serif" font-size="14.00">List of next committee</text>
<text text-anchor="middle" x="148" y="-38.8" font-family="Times,serif" font-size="14.00">members signed by the current</text>
<text text-anchor="middle" x="148" y="-23.8" font-family="Times,serif" font-size="14.00">committee, and sent to mainchain</text>
</g>
<!-- verifySPO&#45;&gt;mkCommittee -->
<g id="edge4" class="edge">
<title>verifySPO&#45;&gt;mkCommittee</title>
<path fill="none" stroke="black" d="M119.03,-105.75C122.57,-98.13 126.88,-88.88 131.08,-79.85"/>
<polygon fill="black" stroke="black" points="134.22,-81.4 135.27,-70.86 127.88,-78.44 134.22,-81.4"/>
</g>
<!-- mkCommittee&#45;&gt;committeeHash2 -->
<g id="edge6" class="edge">
<title>mkCommittee&#45;&gt;committeeHash2</title>
<path fill="none" stroke="black" d="M161.25,-69.48C177.68,-101.69 205.58,-156.4 222.55,-189.66"/>
<polygon fill="black" stroke="black" points="219.29,-190.99 226.96,-198.31 225.53,-187.81 219.29,-190.99"/>
</g>
</g>
</svg>
