<?xml version="1.0" encoding="UTF-8" standalone="no"?>
<!DOCTYPE svg PUBLIC "-//W3C//DTD SVG 1.1//EN"
 "http://www.w3.org/Graphics/SVG/1.1/DTD/svg11.dtd">
<!-- Generated by graphviz version 5.0.1 (0)
 -->
<!-- Pages: 1 -->
<svg width="277pt" height="218pt"
 viewBox="0.00 0.00 276.50 218.00" xmlns="http://www.w3.org/2000/svg" xmlns:xlink="http://www.w3.org/1999/xlink">
<g id="graph0" class="graph" transform="scale(1 1) rotate(0) translate(4 214)">
<polygon fill="white" stroke="none" points="-4,4 -4,-214 272.5,-214 272.5,4 -4,4"/>
<!-- Adopted -->
<g id="node1" class="node">
<title>Adopted</title>
<path fill="none" stroke="black" d="M56.5,-210C56.5,-210 17.5,-210 17.5,-210 11.5,-210 5.5,-204 5.5,-198 5.5,-198 5.5,-186 5.5,-186 5.5,-180 11.5,-174 17.5,-174 17.5,-174 56.5,-174 56.5,-174 62.5,-174 68.5,-180 68.5,-186 68.5,-186 68.5,-198 68.5,-198 68.5,-204 62.5,-210 56.5,-210"/>
<text text-anchor="middle" x="37" y="-188.3" font-family="Times,serif" font-size="14.00">Adopted</text>
</g>
<!-- Adopted&#45;&gt;Adopted -->
<g id="edge1" class="edge">
<title>Adopted&#45;&gt;Adopted</title>
<path fill="none" stroke="black" d="M68.9,-199.87C78.76,-199.71 86.5,-197.09 86.5,-192 86.5,-188.9 83.62,-186.72 79.15,-185.45"/>
<polygon fill="black" stroke="black" points="79.26,-181.93 68.9,-184.13 78.37,-188.88 79.26,-181.93"/>
<text text-anchor="middle" x="177.5" y="-188.3" font-family="Times,serif" font-size="14.00"> Committee member registratons</text>
</g>
<!-- Activated -->
<g id="node2" class="node">
<title>Activated</title>
<path fill="none" stroke="black" d="M59.5,-123C59.5,-123 14.5,-123 14.5,-123 8.5,-123 2.5,-117 2.5,-111 2.5,-111 2.5,-99 2.5,-99 2.5,-93 8.5,-87 14.5,-87 14.5,-87 59.5,-87 59.5,-87 65.5,-87 71.5,-93 71.5,-99 71.5,-99 71.5,-111 71.5,-111 71.5,-117 65.5,-123 59.5,-123"/>
<text text-anchor="middle" x="37" y="-101.3" font-family="Times,serif" font-size="14.00">Activated</text>
</g>
<!-- Adopted&#45;&gt;Activated -->
<g id="edge2" class="edge">
<title>Adopted&#45;&gt;Activated</title>
<path fill="none" stroke="black" d="M37,-173.8C37,-162.16 37,-146.55 37,-133.24"/>
<polygon fill="black" stroke="black" points="40.5,-133.18 37,-123.18 33.5,-133.18 40.5,-133.18"/>
<text text-anchor="middle" x="106.5" y="-144.8" font-family="Times,serif" font-size="14.00"> Initialise first committee</text>
</g>
<!-- Functional -->
<g id="node3" class="node">
<title>Functional</title>
<path fill="none" stroke="black" d="M62,-36C62,-36 12,-36 12,-36 6,-36 0,-30 0,-24 0,-24 0,-12 0,-12 0,-6 6,0 12,0 12,0 62,0 62,0 68,0 74,-6 74,-12 74,-12 74,-24 74,-24 74,-30 68,-36 62,-36"/>
<text text-anchor="middle" x="37" y="-14.3" font-family="Times,serif" font-size="14.00">Functional</text>
</g>
<!-- Activated&#45;&gt;Functional -->
<g id="edge3" class="edge">
<title>Activated&#45;&gt;Functional</title>
<path fill="none" stroke="black" d="M37,-86.8C37,-75.16 37,-59.55 37,-46.24"/>
<polygon fill="black" stroke="black" points="40.5,-46.18 37,-36.18 33.5,-46.18 40.5,-46.18"/>
<text text-anchor="middle" x="111.5" y="-57.8" font-family="Times,serif" font-size="14.00"> First Merkle root insertion</text>
</g>
<!-- Functional&#45;&gt;Functional -->
<g id="edge4" class="edge">
<title>Functional&#45;&gt;Functional</title>
<path fill="none" stroke="black" d="M74.02,-25.83C84.21,-25.45 92,-22.84 92,-18 92,-14.98 88.96,-12.82 84.19,-11.54"/>
<polygon fill="black" stroke="black" points="84.39,-8.04 74.02,-10.17 83.46,-14.97 84.39,-8.04"/>
<text text-anchor="middle" x="128" y="-14.3" font-family="Times,serif" font-size="14.00"> Claim funds</text>
</g>
</g>
</svg>
