<?xml version="1.0" encoding="UTF-8" standalone="no"?>
<!DOCTYPE svg PUBLIC "-//W3C//DTD SVG 1.1//EN"
 "http://www.w3.org/Graphics/SVG/1.1/DTD/svg11.dtd">
<!-- Generated by graphviz version 7.1.0 (0)
 -->
<!-- Pages: 1 -->
<svg width="277pt" height="218pt"
 viewBox="0.00 0.00 276.50 218.00" xmlns="http://www.w3.org/2000/svg" xmlns:xlink="http://www.w3.org/1999/xlink">
<g id="graph0" class="graph" transform="scale(1 1) rotate(0) translate(4 214)">
<polygon fill="white" stroke="none" points="-4,4 -4,-214 272.5,-214 272.5,4 -4,4"/>
<!-- Adopted -->
<g id="node1" class="node">
<title>Adopted</title>
<path fill="none" stroke="black" d="M56.5,-210C56.5,-210 17.5,-210 17.5,-210 11.5,-210 5.5,-204 5.5,-198 5.5,-198 5.5,-186 5.5,-186 5.5,-180 11.5,-174 17.5,-174 17.5,-174 56.5,-174 56.5,-174 62.5,-174 68.5,-180 68.5,-186 68.5,-186 68.5,-198 68.5,-198 68.5,-204 62.5,-210 56.5,-210"/>
<text text-anchor="middle" x="37" y="-188.3" font-family="Times,serif" font-size="14.00">Adopted</text>
</g>
<!-- Adopted&#45;&gt;Adopted -->
<g id="edge1" class="edge">
<title>Adopted&#45;&gt;Adopted</title>
<path fill="none" stroke="black" d="M68.9,-200.15C78.76,-199.98 86.5,-197.27 86.5,-192 86.5,-189.04 84.05,-186.88 80.15,-185.53"/>
<polygon fill="black" stroke="black" points="80.8,-182.09 70.39,-184.08 79.77,-189.01 80.8,-182.09"/>
<text text-anchor="middle" x="177.5" y="-188.3" font-family="Times,serif" font-size="14.00"> Committee member registratons</text>
</g>
<!-- Activated -->
<g id="node2" class="node">
<title>Activated</title>
<path fill="none" stroke="black" d="M59.5,-123C59.5,-123 14.5,-123 14.5,-123 8.5,-123 2.5,-117 2.5,-111 2.5,-111 2.5,-99 2.5,-99 2.5,-93 8.5,-87 14.5,-87 14.5,-87 59.5,-87 59.5,-87 65.5,-87 71.5,-93 71.5,-99 71.5,-99 71.5,-111 71.5,-111 71.5,-117 65.5,-123 59.5,-123"/>
<text text-anchor="middle" x="37" y="-101.3" font-family="Times,serif" font-size="14.00">Activated</text>
</g>
<!-- Adopted&#45;&gt;Activated -->
<g id="edge2" class="edge">
<title>Adopted&#45;&gt;Activated</title>
<path fill="none" stroke="black" d="M37,-173.8C37,-162.58 37,-147.67 37,-134.69"/>
<polygon fill="black" stroke="black" points="40.5,-134.98 37,-124.98 33.5,-134.98 40.5,-134.98"/>
<text text-anchor="middle" x="106.5" y="-144.8" font-family="Times,serif" font-size="14.00"> Initialise first committee</text>
</g>
<!-- Functional -->
<g id="node3" class="node">
<title>Functional</title>
<path fill="none" stroke="black" d="M62,-36C62,-36 12,-36 12,-36 6,-36 0,-30 0,-24 0,-24 0,-12 0,-12 0,-6 6,0 12,0 12,0 62,0 62,0 68,0 74,-6 74,-12 74,-12 74,-24 74,-24 74,-30 68,-36 62,-36"/>
<text text-anchor="middle" x="37" y="-14.3" font-family="Times,serif" font-size="14.00">Functional</text>
</g>
<!-- Activated&#45;&gt;Functional -->
<g id="edge3" class="edge">
<title>Activated&#45;&gt;Functional</title>
<path fill="none" stroke="black" d="M37,-86.8C37,-75.58 37,-60.67 37,-47.69"/>
<polygon fill="black" stroke="black" points="40.5,-47.98 37,-37.98 33.5,-47.98 40.5,-47.98"/>
<text text-anchor="middle" x="111.5" y="-57.8" font-family="Times,serif" font-size="14.00"> First Merkle root insertion</text>
</g>
<!-- Functional&#45;&gt;Functional -->
<g id="edge4" class="edge">
<title>Functional&#45;&gt;Functional</title>
<path fill="none" stroke="black" d="M74.27,-26.1C84.34,-25.67 92,-22.97 92,-18 92,-15.13 89.44,-13.01 85.34,-11.66"/>
<polygon fill="black" stroke="black" points="86.19,-8.25 75.77,-10.14 85.1,-15.16 86.19,-8.25"/>
<text text-anchor="middle" x="128" y="-14.3" font-family="Times,serif" font-size="14.00"> Claim funds</text>
</g>
</g>
</svg>
