<?xml version="1.0" encoding="UTF-8" standalone="no"?>
<!DOCTYPE svg PUBLIC "-//W3C//DTD SVG 1.1//EN"
 "http://www.w3.org/Graphics/SVG/1.1/DTD/svg11.dtd">
<!-- Generated by graphviz version 7.0.2 (0)
 -->
<!-- Pages: 1 -->
<svg width="817pt" height="101pt"
 viewBox="0.00 0.00 817.00 101.00" xmlns="http://www.w3.org/2000/svg" xmlns:xlink="http://www.w3.org/1999/xlink">
<g id="graph0" class="graph" transform="scale(1 1) rotate(0) translate(4 97)">
<polygon fill="white" stroke="none" points="-4,4 -4,-97 813,-97 813,4 -4,4"/>
<g id="clust1" class="cluster">
<title>cluster_cardano</title>
<polygon fill="none" stroke="black" points="8,-9 8,-84 306,-84 306,-9 8,-9"/>
<text text-anchor="middle" x="157" y="-68.8" font-family="Times,serif" font-size="14.00">Cardano network</text>
</g>
<g id="clust2" class="cluster">
<title>cluster_bridge</title>
<polygon fill="none" stroke="black" points="326,-8 326,-85 518,-85 518,-8 326,-8"/>
<text text-anchor="middle" x="422" y="-69.8" font-family="Times,serif" font-size="14.00">Bridge</text>
</g>
<g id="clust3" class="cluster">
<title>cluster_sidechain</title>
<polygon fill="none" stroke="black" points="538,-9 538,-84 801,-84 801,-9 538,-9"/>
<text text-anchor="middle" x="669.5" y="-68.8" font-family="Times,serif" font-size="14.00">Sidechain network</text>
</g>
<!-- fuelMp -->
<g id="node1" class="node">
<title>fuelMp</title>
<polygon fill="lightgrey" stroke="black" points="298,-53 131,-53 131,-17 298,-17 298,-53"/>
<text text-anchor="middle" x="214.5" y="-31.3" font-family="Times,serif" font-size="14.00">FUEL token minting policy</text>
</g>
<!-- observeBurn -->
<g id="node3" class="node">
<title>observeBurn</title>
<polygon fill="lightgrey" stroke="black" points="510,-54 334,-54 334,-16 510,-16 510,-54"/>
<text text-anchor="middle" x="422" y="-38.8" font-family="Times,serif" font-size="14.00">Bridge observes the</text>
<text text-anchor="middle" x="422" y="-23.8" font-family="Times,serif" font-size="14.00">burn action on the mainchain</text>
</g>
<!-- fuelMp&#45;&gt;observeBurn -->
<g id="edge2" class="edge">
<title>fuelMp&#45;&gt;observeBurn</title>
<path fill="none" stroke="black" d="M298.49,-35C306.37,-35 314.4,-35 322.4,-35"/>
<polygon fill="black" stroke="black" points="322.16,-38.5 332.16,-35 322.16,-31.5 322.16,-38.5"/>
</g>
<!-- cWallet -->
<g id="node2" class="node">
<title>cWallet</title>
<polygon fill="lightgrey" stroke="black" points="95,-53 16,-53 16,-17 95,-17 95,-53"/>
<text text-anchor="middle" x="55.5" y="-31.3" font-family="Times,serif" font-size="14.00">User wallet</text>
</g>
<!-- cWallet&#45;&gt;fuelMp -->
<g id="edge1" class="edge">
<title>cWallet&#45;&gt;fuelMp</title>
<path fill="none" stroke="black" d="M95.31,-35C102.74,-35 110.81,-35 119.13,-35"/>
<polygon fill="black" stroke="black" points="119.08,-38.5 129.08,-35 119.08,-31.5 119.08,-38.5"/>
</g>
<!-- unlock -->
<g id="node5" class="node">
<title>unlock</title>
<polygon fill="lightgrey" stroke="black" points="678,-53 546,-53 546,-17 678,-17 678,-53"/>
<text text-anchor="middle" x="612" y="-31.3" font-family="Times,serif" font-size="14.00">Unlock FUEL tokens</text>
</g>
<!-- observeBurn&#45;&gt;unlock -->
<g id="edge3" class="edge">
<title>observeBurn&#45;&gt;unlock</title>
<path fill="none" stroke="black" d="M510.4,-35C518.38,-35 526.44,-35 534.32,-35"/>
<polygon fill="black" stroke="black" points="534.21,-38.5 544.21,-35 534.21,-31.5 534.21,-38.5"/>
</g>
<!-- sWallet -->
<g id="node4" class="node">
<title>sWallet</title>
<polygon fill="lightgrey" stroke="black" points="793,-53 714,-53 714,-17 793,-17 793,-53"/>
<text text-anchor="middle" x="753.5" y="-31.3" font-family="Times,serif" font-size="14.00">User wallet</text>
</g>
<!-- unlock&#45;&gt;sWallet -->
<g id="edge4" class="edge">
<title>unlock&#45;&gt;sWallet</title>
<path fill="none" stroke="black" d="M678.26,-35C686.26,-35 694.35,-35 702.09,-35"/>
<polygon fill="black" stroke="black" points="702,-38.5 712,-35 702,-31.5 702,-38.5"/>
</g>
</g>
</svg>
