<?xml version="1.0" encoding="UTF-8" standalone="no"?>
<!DOCTYPE svg PUBLIC "-//W3C//DTD SVG 1.1//EN"
 "http://www.w3.org/Graphics/SVG/1.1/DTD/svg11.dtd">
<!-- Generated by graphviz version 7.0.2 (0)
 -->
<!-- Pages: 1 -->
<svg width="630pt" height="310pt"
 viewBox="0.00 0.00 630.08 310.00" xmlns="http://www.w3.org/2000/svg" xmlns:xlink="http://www.w3.org/1999/xlink">
<g id="graph0" class="graph" transform="scale(1 1) rotate(0) translate(4 306)">
<polygon fill="white" stroke="none" points="-4,4 -4,-306 626.08,-306 626.08,4 -4,4"/>
<!-- genesisUTxO -->
<g id="node1" class="node">
<title>genesisUTxO</title>
<polygon fill="none" stroke="black" points="96.08,-265.5 96.08,-301.5 209.08,-301.5 209.08,-265.5 96.08,-265.5"/>
<text text-anchor="middle" x="152.58" y="-279.8" font-family="Times,serif" font-size="14.00">GenesisUTxO</text>
</g>
<!-- transaction -->
<g id="node2" class="node">
<title>transaction</title>
<polygon fill="none" stroke="black" points="152.58,-214 -0.08,-196 152.58,-178 305.24,-196 152.58,-214"/>
<text text-anchor="middle" x="152.58" y="-192.3" font-family="Times,serif" font-size="14.00">Adoption transaction</text>
</g>
<!-- genesisUTxO&#45;&gt;transaction -->
<g id="edge1" class="edge">
<title>genesisUTxO&#45;&gt;transaction</title>
<path fill="none" stroke="black" d="M152.58,-265.61C152.58,-254.28 152.58,-239.07 152.58,-225.86"/>
<polygon fill="black" stroke="black" points="156.08,-225.96 152.58,-215.96 149.08,-225.96 156.08,-225.96"/>
<text text-anchor="middle" x="171.58" y="-235.8" font-family="Times,serif" font-size="14.00">input</text>
</g>
<!-- trustedWallet -->
<g id="node3" class="node">
<title>trustedWallet</title>
<polygon fill="none" stroke="black" points="92.58,-0.5 92.58,-36.5 212.58,-36.5 212.58,-0.5 92.58,-0.5"/>
<text text-anchor="middle" x="152.58" y="-14.8" font-family="Times,serif" font-size="14.00">Trusted wallet</text>
</g>
<!-- transaction&#45;&gt;trustedWallet -->
<g id="edge3" class="edge">
<title>transaction&#45;&gt;trustedWallet</title>
<path fill="none" stroke="black" d="M148.74,-178.06C145.85,-164.37 142.12,-144.56 140.58,-127 139.07,-109.73 139.08,-105.27 140.58,-88 141.75,-74.51 144.2,-59.69 146.58,-47.3"/>
<polygon fill="black" stroke="black" points="149.96,-48.26 148.5,-37.77 143.1,-46.88 149.96,-48.26"/>
<text text-anchor="middle" x="164.58" y="-103.8" font-family="Times,serif" font-size="14.00">output</text>
</g>
<!-- initToken -->
<g id="node4" class="node">
<title>initToken</title>
<polygon fill="none" stroke="black" points="207.08,-88.5 207.08,-126.5 622.08,-126.5 622.08,-88.5 207.08,-88.5"/>
<text text-anchor="middle" x="414.58" y="-111.3" font-family="Times,serif" font-size="14.00">InitToken minting policy with token names:</text>
<text text-anchor="middle" x="414.58" y="-96.3" font-family="Times,serif" font-size="14.00">&quot;DsConfMint&quot;,&quot;CommitteeHashMint&quot;,&quot;CheckpointMint&quot;</text>
</g>
<!-- transaction&#45;&gt;initToken -->
<g id="edge2" class="edge">
<title>transaction&#45;&gt;initToken</title>
<path fill="none" stroke="black" d="M191.52,-182.14C233.22,-168.38 300.09,-146.3 349.75,-129.9"/>
<polygon fill="black" stroke="black" points="350.55,-133.33 358.95,-126.87 348.36,-126.68 350.55,-133.33"/>
<text text-anchor="middle" x="319.08" y="-148.8" font-family="Times,serif" font-size="14.00">mints</text>
</g>
<!-- initToken&#45;&gt;trustedWallet -->
<g id="edge4" class="edge">
<title>initToken&#45;&gt;trustedWallet</title>
<path fill="none" stroke="black" stroke-dasharray="5,2" d="M360.61,-88.58C317.99,-74.43 258.49,-54.67 214.04,-39.91"/>
<polygon fill="black" stroke="black" points="215.4,-36.67 204.8,-36.84 213.19,-43.31 215.4,-36.67"/>
<text text-anchor="middle" x="332.08" y="-58.8" font-family="Times,serif" font-size="14.00">is paid to</text>
</g>
</g>
</svg>
