<?xml version="1.0" encoding="UTF-8" standalone="no"?>
<!DOCTYPE svg PUBLIC "-//W3C//DTD SVG 1.1//EN"
 "http://www.w3.org/Graphics/SVG/1.1/DTD/svg11.dtd">
<!-- Generated by graphviz version 7.0.2 (0)
 -->
<!-- Pages: 1 -->
<svg width="1117pt" height="310pt"
 viewBox="0.00 0.00 1117.00 310.00" xmlns="http://www.w3.org/2000/svg" xmlns:xlink="http://www.w3.org/1999/xlink">
<g id="graph0" class="graph" transform="scale(1 1) rotate(0) translate(4 306)">
<polygon fill="white" stroke="none" points="-4,4 -4,-306 1113,-306 1113,4 -4,4"/>
<!-- genesisUTxO -->
<g id="node1" class="node">
<title>genesisUTxO</title>
<polygon fill="none" stroke="black" points="588,-265.5 588,-301.5 701,-301.5 701,-265.5 588,-265.5"/>
<text text-anchor="middle" x="644.5" y="-279.8" font-family="Times,serif" font-size="14.00">GenesisUTxO</text>
</g>
<!-- transaction -->
<g id="node2" class="node">
<title>transaction</title>
<polygon fill="none" stroke="black" points="644.5,-214 479.94,-196 644.5,-178 809.06,-196 644.5,-214"/>
<text text-anchor="middle" x="644.5" y="-192.3" font-family="Times,serif" font-size="14.00">Init tokens transaction</text>
</g>
<!-- genesisUTxO&#45;&gt;transaction -->
<g id="edge1" class="edge">
<title>genesisUTxO&#45;&gt;transaction</title>
<path fill="none" stroke="black" d="M644.5,-265.61C644.5,-254.28 644.5,-239.07 644.5,-225.86"/>
<polygon fill="black" stroke="black" points="648,-225.96 644.5,-215.96 641,-225.96 648,-225.96"/>
<text text-anchor="middle" x="663.5" y="-235.8" font-family="Times,serif" font-size="14.00">input</text>
</g>
<!-- committeeHashNFT -->
<g id="node3" class="node">
<title>committeeHashNFT</title>
<polygon fill="none" stroke="black" points="0,-88.5 0,-126.5 209,-126.5 209,-88.5 0,-88.5"/>
<text text-anchor="middle" x="104.5" y="-111.3" font-family="Times,serif" font-size="14.00">CommitteeHashPolicy NFT</text>
<text text-anchor="middle" x="104.5" y="-96.3" font-family="Times,serif" font-size="14.00">minting policy</text>
</g>
<!-- transaction&#45;&gt;committeeHashNFT -->
<g id="edge2" class="edge">
<title>transaction&#45;&gt;committeeHashNFT</title>
<path fill="none" stroke="black" d="M556.34,-187.14C495.71,-181.17 413.46,-171.94 341.5,-160 290.67,-151.56 234.27,-139.42 189.25,-129.05"/>
<polygon fill="black" stroke="black" points="190.07,-125.65 179.54,-126.79 188.49,-132.46 190.07,-125.65"/>
<text text-anchor="middle" x="362" y="-148.8" font-family="Times,serif" font-size="14.00">mints</text>
</g>
<!-- checkpointNFT -->
<g id="node4" class="node">
<title>checkpointNFT</title>
<polygon fill="none" stroke="black" points="245.5,-88.5 245.5,-126.5 419.5,-126.5 419.5,-88.5 245.5,-88.5"/>
<text text-anchor="middle" x="332.5" y="-111.3" font-family="Times,serif" font-size="14.00">CheckpointPolicy NFT</text>
<text text-anchor="middle" x="332.5" y="-96.3" font-family="Times,serif" font-size="14.00">minting policy</text>
</g>
<!-- transaction&#45;&gt;checkpointNFT -->
<g id="edge4" class="edge">
<title>transaction&#45;&gt;checkpointNFT</title>
<path fill="none" stroke="black" d="M550.57,-187.82C510.31,-182.81 463.27,-174.33 422.5,-160 403.37,-153.28 383.66,-142.5 367.57,-132.54"/>
<polygon fill="black" stroke="black" points="369.65,-129.72 359.34,-127.3 365.89,-135.62 369.65,-129.72"/>
<text text-anchor="middle" x="443" y="-148.8" font-family="Times,serif" font-size="14.00">mints</text>
</g>
<!-- trustedWallet -->
<g id="node5" class="node">
<title>trustedWallet</title>
<polygon fill="none" stroke="black" points="272.5,-0.5 272.5,-36.5 392.5,-36.5 392.5,-0.5 272.5,-0.5"/>
<text text-anchor="middle" x="332.5" y="-14.8" font-family="Times,serif" font-size="14.00">Trusted wallet</text>
</g>
<!-- transaction&#45;&gt;trustedWallet -->
<g id="edge6" class="edge">
<title>transaction&#45;&gt;trustedWallet</title>
<path fill="none" stroke="black" d="M613.49,-181.04C585.66,-168.11 543.99,-147.81 509.5,-127 462.3,-98.52 456.12,-82.78 408.5,-55 400.27,-50.2 391.29,-45.54 382.47,-41.25"/>
<polygon fill="black" stroke="black" points="384.16,-38.18 373.62,-37.06 381.16,-44.5 384.16,-38.18"/>
<text text-anchor="middle" x="533.5" y="-103.8" font-family="Times,serif" font-size="14.00">output</text>
</g>
<!-- dsConfMintNFT -->
<g id="node6" class="node">
<title>dsConfMintNFT</title>
<polygon fill="none" stroke="black" points="576,-88.5 576,-126.5 713,-126.5 713,-88.5 576,-88.5"/>
<text text-anchor="middle" x="644.5" y="-111.3" font-family="Times,serif" font-size="14.00">DsConfMint NFT</text>
<text text-anchor="middle" x="644.5" y="-96.3" font-family="Times,serif" font-size="14.00">minting policy</text>
</g>
<!-- transaction&#45;&gt;dsConfMintNFT -->
<g id="edge3" class="edge">
<title>transaction&#45;&gt;dsConfMintNFT</title>
<path fill="none" stroke="black" d="M644.5,-177.91C644.5,-166.53 644.5,-151.27 644.5,-137.96"/>
<polygon fill="black" stroke="black" points="648,-137.96 644.5,-127.96 641,-137.96 648,-137.96"/>
<text text-anchor="middle" x="665" y="-148.8" font-family="Times,serif" font-size="14.00">mints</text>
</g>
<!-- dsConfValidator -->
<g id="node7" class="node">
<title>dsConfValidator</title>
<polygon fill="none" stroke="black" points="643,-0.5 643,-36.5 776,-36.5 776,-0.5 643,-0.5"/>
<text text-anchor="middle" x="709.5" y="-14.8" font-family="Times,serif" font-size="14.00">DsConfValidator</text>
</g>
<!-- transaction&#45;&gt;dsConfValidator -->
<g id="edge7" class="edge">
<title>transaction&#45;&gt;dsConfValidator</title>
<path fill="none" stroke="black" d="M666.86,-180.27C675.66,-174.24 685.74,-167.03 694.5,-160 732.98,-129.12 748,-117.98 759.5,-70 761.05,-63.52 762.56,-60.92 759.5,-55 757.42,-50.97 754.64,-47.29 751.46,-43.96"/>
<polygon fill="black" stroke="black" points="753.83,-41.4 744.01,-37.42 749.21,-46.65 753.83,-41.4"/>
<text text-anchor="middle" x="778.5" y="-103.8" font-family="Times,serif" font-size="14.00">output</text>
</g>
<!-- dsInsertValidator -->
<g id="node8" class="node">
<title>dsInsertValidator</title>
<polygon fill="none" stroke="black" points="885,-0.5 885,-36.5 1028,-36.5 1028,-0.5 885,-0.5"/>
<text text-anchor="middle" x="956.5" y="-14.8" font-family="Times,serif" font-size="14.00">DsInsertValidator</text>
</g>
<!-- transaction&#45;&gt;dsInsertValidator -->
<g id="edge8" class="edge">
<title>transaction&#45;&gt;dsInsertValidator</title>
<path fill="none" stroke="black" d="M679.25,-181.34C695.45,-174.93 714.99,-167.14 732.5,-160 767.74,-145.63 778.42,-145.8 811.5,-127 854.77,-102.41 900.16,-66.96 928.38,-43.58"/>
<polygon fill="black" stroke="black" points="930.33,-46.52 935.76,-37.42 925.84,-41.15 930.33,-46.52"/>
<text text-anchor="middle" x="893.5" y="-103.8" font-family="Times,serif" font-size="14.00">output</text>
</g>
<!-- dsKeyPolicy -->
<g id="node9" class="node">
<title>dsKeyPolicy</title>
<polygon fill="none" stroke="black" points="990,-88.5 990,-126.5 1109,-126.5 1109,-88.5 990,-88.5"/>
<text text-anchor="middle" x="1049.5" y="-111.3" font-family="Times,serif" font-size="14.00">DsKeyPolicy</text>
<text text-anchor="middle" x="1049.5" y="-96.3" font-family="Times,serif" font-size="14.00">minting policy</text>
</g>
<!-- transaction&#45;&gt;dsKeyPolicy -->
<g id="edge5" class="edge">
<title>transaction&#45;&gt;dsKeyPolicy</title>
<path fill="none" stroke="black" d="M753.71,-189.46C808.44,-184.75 875.28,-176.06 933.5,-160 958.51,-153.1 985.05,-141.66 1006.42,-131.3"/>
<polygon fill="black" stroke="black" points="1007.7,-134.58 1015.11,-127.01 1004.6,-128.3 1007.7,-134.58"/>
<text text-anchor="middle" x="994" y="-148.8" font-family="Times,serif" font-size="14.00">mints</text>
</g>
<!-- committeeHashNFT&#45;&gt;trustedWallet -->
<g id="edge10" class="edge">
<title>committeeHashNFT&#45;&gt;trustedWallet</title>
<path fill="none" stroke="black" stroke-dasharray="5,2" d="M151.47,-88.58C188.17,-74.57 239.24,-55.09 277.79,-40.38"/>
<polygon fill="black" stroke="black" points="278.8,-43.74 286.89,-36.9 276.3,-37.2 278.8,-43.74"/>
<text text-anchor="middle" x="273" y="-58.8" font-family="Times,serif" font-size="14.00">is paid to</text>
</g>
<!-- checkpointNFT&#45;&gt;trustedWallet -->
<g id="edge9" class="edge">
<title>checkpointNFT&#45;&gt;trustedWallet</title>
<path fill="none" stroke="black" stroke-dasharray="5,2" d="M332.5,-88.89C332.5,-77.07 332.5,-61.22 332.5,-47.66"/>
<polygon fill="black" stroke="black" points="336,-48 332.5,-38 329,-48 336,-48"/>
<text text-anchor="middle" x="366" y="-58.8" font-family="Times,serif" font-size="14.00">is paid to</text>
</g>
<!-- dsConfMintNFT&#45;&gt;dsConfValidator -->
<g id="edge11" class="edge">
<title>dsConfMintNFT&#45;&gt;dsConfValidator</title>
<path fill="none" stroke="black" stroke-dasharray="5,2" d="M657.65,-88.89C666.94,-76.47 679.53,-59.61 689.98,-45.62"/>
<polygon fill="black" stroke="black" points="692.72,-47.81 695.9,-37.7 687.11,-43.62 692.72,-47.81"/>
<text text-anchor="middle" x="717" y="-58.8" font-family="Times,serif" font-size="14.00">is paid to</text>
</g>
<!-- dsKeyPolicy&#45;&gt;dsInsertValidator -->
<g id="edge12" class="edge">
<title>dsKeyPolicy&#45;&gt;dsInsertValidator</title>
<path fill="none" stroke="black" stroke-dasharray="5,2" d="M1030.68,-88.89C1016.89,-75.99 997.99,-58.31 982.71,-44.02"/>
<polygon fill="black" stroke="black" points="985.46,-41.8 975.76,-37.52 980.68,-46.91 985.46,-41.8"/>
<text text-anchor="middle" x="1043" y="-58.8" font-family="Times,serif" font-size="14.00">is paid to</text>
</g>
</g>
</svg>
