<?xml version="1.0" encoding="UTF-8" standalone="no"?>
<!DOCTYPE svg PUBLIC "-//W3C//DTD SVG 1.1//EN"
 "http://www.w3.org/Graphics/SVG/1.1/DTD/svg11.dtd">
<!-- Generated by graphviz version 7.0.2 (0)
 -->
<!-- Pages: 1 -->
<svg width="850pt" height="224pt"
 viewBox="0.00 0.00 849.95 224.00" xmlns="http://www.w3.org/2000/svg" xmlns:xlink="http://www.w3.org/1999/xlink">
<g id="graph0" class="graph" transform="scale(1 1) rotate(0) translate(4 220)">
<polygon fill="white" stroke="none" points="-4,4 -4,-220 845.95,-220 845.95,4 -4,4"/>
<!-- trustedWallet -->
<g id="node1" class="node">
<title>trustedWallet</title>
<polygon fill="none" stroke="black" points="273.95,-177.5 273.95,-215.5 605.95,-215.5 605.95,-177.5 273.95,-177.5"/>
<text text-anchor="middle" x="439.95" y="-200.3" font-family="Times,serif" font-size="14.00">Trusted wallet UTxO with tokens for</text>
<text text-anchor="middle" x="439.95" y="-185.3" font-family="Times,serif" font-size="14.00">CommitteeHashPolicy and CheckpointPolicy</text>
</g>
<!-- transaction -->
<g id="node2" class="node">
<title>transaction</title>
<polygon fill="none" stroke="black" points="439.95,-126 257.12,-108 439.95,-90 622.77,-108 439.95,-126"/>
<text text-anchor="middle" x="439.95" y="-104.3" font-family="Times,serif" font-size="14.00">Init sidechain transaction</text>
</g>
<!-- trustedWallet&#45;&gt;transaction -->
<g id="edge1" class="edge">
<title>trustedWallet&#45;&gt;transaction</title>
<path fill="none" stroke="black" d="M439.95,-177.58C439.95,-166.06 439.95,-150.84 439.95,-137.67"/>
<polygon fill="black" stroke="black" points="443.45,-137.82 439.95,-127.82 436.45,-137.82 443.45,-137.82"/>
<text text-anchor="middle" x="458.95" y="-147.8" font-family="Times,serif" font-size="14.00">input</text>
</g>
<!-- committteeHashValidator -->
<g id="node3" class="node">
<title>committteeHashValidator</title>
<polygon fill="none" stroke="black" points="55.45,-0.5 55.45,-38.5 320.45,-38.5 320.45,-0.5 55.45,-0.5"/>
<text text-anchor="middle" x="187.95" y="-23.3" font-family="Times,serif" font-size="14.00">CommitteeHashValidator validator</text>
<text text-anchor="middle" x="187.95" y="-8.3" font-family="Times,serif" font-size="14.00">with the initial committee</text>
</g>
<!-- trustedWallet&#45;&gt;committteeHashValidator -->
<g id="edge3" class="edge">
<title>trustedWallet&#45;&gt;committteeHashValidator</title>
<path fill="none" stroke="black" stroke-dasharray="5,2" d="M274.23,-190.31C168.08,-183.1 44.05,-166.05 9.95,-126 -23.1,-87.18 35.2,-58.98 93.72,-41.55"/>
<polygon fill="black" stroke="black" points="94.52,-44.96 103.17,-38.84 92.59,-38.24 94.52,-44.96"/>
<text text-anchor="middle" x="124.45" y="-104.3" font-family="Times,serif" font-size="14.00">CommitteeHashPolicy is paid to</text>
</g>
<!-- checkpointValidator -->
<g id="node4" class="node">
<title>checkpointValidator</title>
<polygon fill="none" stroke="black" points="497.95,-1.5 497.95,-37.5 727.95,-37.5 727.95,-1.5 497.95,-1.5"/>
<text text-anchor="middle" x="612.95" y="-15.8" font-family="Times,serif" font-size="14.00">CheckpointValidator validator</text>
</g>
<!-- trustedWallet&#45;&gt;checkpointValidator -->
<g id="edge5" class="edge">
<title>trustedWallet&#45;&gt;checkpointValidator</title>
<path fill="none" stroke="black" stroke-dasharray="5,2" d="M566.38,-177.56C595.46,-167.24 623.06,-151.11 640.95,-126 657.63,-102.58 644.7,-69.85 631.4,-47.08"/>
<polygon fill="black" stroke="black" points="634.42,-45.31 626.16,-38.67 628.48,-49.01 634.42,-45.31"/>
<text text-anchor="middle" x="745.45" y="-104.3" font-family="Times,serif" font-size="14.00">CheckpointPolicy is paid to</text>
</g>
<!-- transaction&#45;&gt;committteeHashValidator -->
<g id="edge2" class="edge">
<title>transaction&#45;&gt;committteeHashValidator</title>
<path fill="none" stroke="black" d="M400.57,-93.48C360.51,-79.73 297.79,-58.2 250.83,-42.08"/>
<polygon fill="black" stroke="black" points="252.19,-38.85 241.59,-38.91 249.92,-45.47 252.19,-38.85"/>
<text text-anchor="middle" x="360.95" y="-60.8" font-family="Times,serif" font-size="14.00">output</text>
</g>
<!-- transaction&#45;&gt;checkpointValidator -->
<g id="edge4" class="edge">
<title>transaction&#45;&gt;checkpointValidator</title>
<path fill="none" stroke="black" d="M468.91,-92.52C496.21,-78.87 537.53,-58.21 568.92,-42.52"/>
<polygon fill="black" stroke="black" points="570.41,-45.68 577.79,-38.08 567.28,-39.42 570.41,-45.68"/>
<text text-anchor="middle" x="560.95" y="-60.8" font-family="Times,serif" font-size="14.00">output</text>
</g>
</g>
</svg>
