<?xml version="1.0" encoding="UTF-8" standalone="no"?>
<!DOCTYPE svg PUBLIC "-//W3C//DTD SVG 1.1//EN"
 "http://www.w3.org/Graphics/SVG/1.1/DTD/svg11.dtd">
<!-- Generated by graphviz version 5.0.1 (0)
 -->
<!-- Pages: 1 -->
<svg width="436pt" height="318pt"
 viewBox="0.00 0.00 436.00 318.00" xmlns="http://www.w3.org/2000/svg" xmlns:xlink="http://www.w3.org/1999/xlink">
<g id="graph0" class="graph" transform="scale(1 1) rotate(0) translate(4 314)">
<polygon fill="white" stroke="none" points="-4,4 -4,-314 432,-314 432,4 -4,4"/>
<!-- sidechain_a -->
<g id="node1" class="node">
<title>sidechain_a</title>
<path fill="none" stroke="black" d="M71,-262.5C71,-262.5 12,-262.5 12,-262.5 6,-262.5 0,-256.5 0,-250.5 0,-250.5 0,-191.5 0,-191.5 0,-185.5 6,-179.5 12,-179.5 12,-179.5 71,-179.5 71,-179.5 77,-179.5 83,-185.5 83,-191.5 83,-191.5 83,-250.5 83,-250.5 83,-256.5 77,-262.5 71,-262.5"/>
<text text-anchor="middle" x="41.5" y="-217.3" font-family="Times,serif" font-size="14.00">Sidechain A</text>
</g>
<!-- sidechain_b -->
<g id="node2" class="node">
<title>sidechain_b</title>
<path fill="none" stroke="black" d="M71,-145.5C71,-145.5 12,-145.5 12,-145.5 6,-145.5 0,-139.5 0,-133.5 0,-133.5 0,-74.5 0,-74.5 0,-68.5 6,-62.5 12,-62.5 12,-62.5 71,-62.5 71,-62.5 77,-62.5 83,-68.5 83,-74.5 83,-74.5 83,-133.5 83,-133.5 83,-139.5 77,-145.5 71,-145.5"/>
<text text-anchor="middle" x="41.5" y="-100.3" font-family="Times,serif" font-size="14.00">Sidechain B</text>
</g>
<!-- sidechain_a&#45;&gt;sidechain_b -->
<g id="edge3" class="edge">
<title>sidechain_a&#45;&gt;sidechain_b</title>
<path fill="none" stroke="black" d="M41.5,-179.47C41.5,-171.53 41.5,-163.59 41.5,-155.65"/>
<polygon fill="black" stroke="black" points="45,-155.59 41.5,-145.59 38,-155.59 45,-155.59"/>
</g>
<!-- certificate_a -->
<g id="node4" class="node">
<title>certificate_a</title>
<polygon fill="lightgrey" stroke="black" points="265,-310 119,-310 119,-164 265,-164 265,-310"/>
<text text-anchor="middle" x="192" y="-248.3" font-family="Times,serif" font-size="14.00">Certificate</text>
<text text-anchor="middle" x="192" y="-233.3" font-family="Times,serif" font-size="14.00">signed by committee of</text>
<text text-anchor="middle" x="192" y="-218.3" font-family="Times,serif" font-size="14.00">sidechain A</text>
</g>
<!-- sidechain_a&#45;&gt;certificate_a -->
<g id="edge1" class="edge">
<title>sidechain_a&#45;&gt;certificate_a</title>
<path fill="none" stroke="black" d="M83.08,-225.37C91.13,-226.24 99.85,-227.18 108.72,-228.13"/>
<polygon fill="black" stroke="black" points="108.46,-231.63 118.78,-229.22 109.21,-224.67 108.46,-231.63"/>
</g>
<!-- certificate_b -->
<g id="node5" class="node">
<title>certificate_b</title>
<polygon fill="lightgrey" stroke="black" points="265,-146 119,-146 119,0 265,0 265,-146"/>
<text text-anchor="middle" x="192" y="-84.3" font-family="Times,serif" font-size="14.00">Certificate</text>
<text text-anchor="middle" x="192" y="-69.3" font-family="Times,serif" font-size="14.00">signed by committee of</text>
<text text-anchor="middle" x="192" y="-54.3" font-family="Times,serif" font-size="14.00">sidechain B</text>
</g>
<!-- sidechain_b&#45;&gt;certificate_b -->
<g id="edge4" class="edge">
<title>sidechain_b&#45;&gt;certificate_b</title>
<path fill="none" stroke="black" d="M83.08,-95.53C91.13,-93.85 99.85,-92.03 108.72,-90.18"/>
<polygon fill="black" stroke="black" points="109.7,-93.55 118.78,-88.08 108.27,-86.69 109.7,-93.55"/>
</g>
<!-- mainchain -->
<g id="node3" class="node">
<title>mainchain</title>
<path fill="none" stroke="black" d="M416,-218.5C416,-218.5 313,-218.5 313,-218.5 307,-218.5 301,-212.5 301,-206.5 301,-206.5 301,-103.5 301,-103.5 301,-97.5 307,-91.5 313,-91.5 313,-91.5 416,-91.5 416,-91.5 422,-91.5 428,-97.5 428,-103.5 428,-103.5 428,-206.5 428,-206.5 428,-212.5 422,-218.5 416,-218.5"/>
<text text-anchor="middle" x="364.5" y="-151.3" font-family="Times,serif" font-size="14.00">Mainchain validator</text>
</g>
<!-- certificate_a&#45;&gt;mainchain -->
<g id="edge2" class="edge">
<title>certificate_a&#45;&gt;mainchain</title>
<path fill="none" stroke="black" d="M265.31,-202.22C274.06,-198.01 283.01,-193.71 291.76,-189.5"/>
<polygon fill="black" stroke="black" points="293.29,-192.65 300.79,-185.16 290.26,-186.34 293.29,-192.65"/>
</g>
<!-- certificate_b&#45;&gt;mainchain -->
<g id="edge5" class="edge">
<title>certificate_b&#45;&gt;mainchain</title>
<path fill="none" stroke="black" d="M265.31,-107.78C274.06,-111.99 283.01,-116.29 291.76,-120.5"/>
<polygon fill="black" stroke="black" points="290.26,-123.66 300.79,-124.84 293.29,-117.35 290.26,-123.66"/>
</g>
</g>
</svg>
