<?xml version="1.0" encoding="UTF-8" standalone="no"?>
<!DOCTYPE svg PUBLIC "-//W3C//DTD SVG 1.1//EN"
 "http://www.w3.org/Graphics/SVG/1.1/DTD/svg11.dtd">
<!-- Generated by graphviz version 5.0.1 (0)
 -->
<!-- Pages: 1 -->
<svg width="414pt" height="355pt"
 viewBox="0.00 0.00 414.00 355.00" xmlns="http://www.w3.org/2000/svg" xmlns:xlink="http://www.w3.org/1999/xlink">
<g id="graph0" class="graph" transform="scale(1 1) rotate(0) translate(4 351)">
<polygon fill="white" stroke="none" points="-4,4 -4,-351 410,-351 410,4 -4,4"/>
<g id="clust1" class="cluster">
<title>cluster_mainchain</title>
<polygon fill="none" stroke="black" stroke-dasharray="5,2" points="8,-8 8,-339 152,-339 152,-8 8,-8"/>
<text text-anchor="middle" x="45.5" y="-323.8" font-family="Times,serif" font-size="14.00">Mainchain</text>
</g>
<g id="clust3" class="cluster">
<title>cluster_sidechains</title>
<polygon fill="none" stroke="black" stroke-width="0" points="164,-38 164,-308 398,-308 398,-38 164,-38"/>
</g>
<g id="clust4" class="cluster">
<title>cluster_sidechain_A</title>
<polygon fill="none" stroke="black" stroke-dasharray="5,2" points="172,-177 172,-300 390,-300 390,-177 172,-177"/>
<text text-anchor="middle" x="213.5" y="-284.8" font-family="Times,serif" font-size="14.00">Sidechain A</text>
</g>
<g id="clust5" class="cluster">
<title>cluster_sidechain_B</title>
<polygon fill="none" stroke="black" stroke-dasharray="5,2" points="172,-46 172,-169 390,-169 390,-46 172,-46"/>
<text text-anchor="middle" x="213.5" y="-153.8" font-family="Times,serif" font-size="14.00">Sidechain B</text>
</g>
<!-- mainchain_a -->
<g id="node1" class="node">
<title>mainchain_a</title>
<path fill="none" stroke="black" d="M132,-308C132,-308 28,-308 28,-308 22,-308 16,-302 16,-296 16,-296 16,-192 16,-192 16,-186 22,-180 28,-180 28,-180 132,-180 132,-180 138,-180 144,-186 144,-192 144,-192 144,-296 144,-296 144,-302 138,-308 132,-308"/>
<text text-anchor="middle" x="80" y="-247.8" font-family="Times,serif" font-size="14.00">Mainchain contracts</text>
<text text-anchor="middle" x="80" y="-232.8" font-family="Times,serif" font-size="14.00">for sidechain A</text>
</g>
<!-- sidechain_a_bridge -->
<g id="node4" class="node">
<title>sidechain_a_bridge</title>
<path fill="none" stroke="black" d="M251,-268.5C251,-268.5 192,-268.5 192,-268.5 186,-268.5 180,-262.5 180,-256.5 180,-256.5 180,-197.5 180,-197.5 180,-191.5 186,-185.5 192,-185.5 192,-185.5 251,-185.5 251,-185.5 257,-185.5 263,-191.5 263,-197.5 263,-197.5 263,-256.5 263,-256.5 263,-262.5 257,-268.5 251,-268.5"/>
<text text-anchor="middle" x="221.5" y="-230.8" font-family="Times,serif" font-size="14.00">Bridge for</text>
<text text-anchor="middle" x="221.5" y="-215.8" font-family="Times,serif" font-size="14.00">Sidechain A</text>
</g>
<!-- mainchain_a&#45;&gt;sidechain_a_bridge -->
<g id="edge2" class="edge">
<title>mainchain_a&#45;&gt;sidechain_a_bridge</title>
<path fill="none" stroke="black" d="M154.18,-235.08C159.42,-234.44 164.64,-233.81 169.71,-233.19"/>
<polygon fill="black" stroke="black" points="153.72,-231.61 144.22,-236.3 154.57,-238.56 153.72,-231.61"/>
<polygon fill="black" stroke="black" points="170.37,-236.64 179.87,-231.95 169.52,-229.69 170.37,-236.64"/>
</g>
<!-- mainchain_b -->
<g id="node2" class="node">
<title>mainchain_b</title>
<path fill="none" stroke="black" d="M132,-144C132,-144 28,-144 28,-144 22,-144 16,-138 16,-132 16,-132 16,-28 16,-28 16,-22 22,-16 28,-16 28,-16 132,-16 132,-16 138,-16 144,-22 144,-28 144,-28 144,-132 144,-132 144,-138 138,-144 132,-144"/>
<text text-anchor="middle" x="80" y="-83.8" font-family="Times,serif" font-size="14.00">Mainchain contracts</text>
<text text-anchor="middle" x="80" y="-68.8" font-family="Times,serif" font-size="14.00">for sidechain B</text>
</g>
<!-- mainchain_b&#45;&gt;mainchain_a -->
<g id="edge1" class="edge">
<title>mainchain_b&#45;&gt;mainchain_a</title>
<path fill="none" stroke="black" d="M80,-154.16C80,-159.41 80,-164.65 80,-169.89"/>
<polygon fill="black" stroke="black" points="83.5,-154.06 80,-144.06 76.5,-154.06 83.5,-154.06"/>
<polygon fill="black" stroke="black" points="76.5,-169.98 80,-179.98 83.5,-169.98 76.5,-169.98"/>
</g>
<!-- sidechain_b_bridge -->
<g id="node6" class="node">
<title>sidechain_b_bridge</title>
<path fill="none" stroke="black" d="M251,-137.5C251,-137.5 192,-137.5 192,-137.5 186,-137.5 180,-131.5 180,-125.5 180,-125.5 180,-66.5 180,-66.5 180,-60.5 186,-54.5 192,-54.5 192,-54.5 251,-54.5 251,-54.5 257,-54.5 263,-60.5 263,-66.5 263,-66.5 263,-125.5 263,-125.5 263,-131.5 257,-137.5 251,-137.5"/>
<text text-anchor="middle" x="221.5" y="-99.8" font-family="Times,serif" font-size="14.00">Bridge for</text>
<text text-anchor="middle" x="221.5" y="-84.8" font-family="Times,serif" font-size="14.00">Sidechain B</text>
</g>
<!-- mainchain_b&#45;&gt;sidechain_b_bridge -->
<g id="edge3" class="edge">
<title>mainchain_b&#45;&gt;sidechain_b_bridge</title>
<path fill="none" stroke="black" d="M154.18,-88.39C159.42,-88.99 164.64,-89.59 169.71,-90.17"/>
<polygon fill="black" stroke="black" points="154.55,-84.91 144.22,-87.25 153.76,-91.87 154.55,-84.91"/>
<polygon fill="black" stroke="black" points="169.54,-93.68 179.87,-91.34 170.33,-86.72 169.54,-93.68"/>
</g>
<!-- sidechain_a -->
<g id="node3" class="node">
<title>sidechain_a</title>
<path fill="none" stroke="black" d="M370,-268.5C370,-268.5 311,-268.5 311,-268.5 305,-268.5 299,-262.5 299,-256.5 299,-256.5 299,-197.5 299,-197.5 299,-191.5 305,-185.5 311,-185.5 311,-185.5 370,-185.5 370,-185.5 376,-185.5 382,-191.5 382,-197.5 382,-197.5 382,-256.5 382,-256.5 382,-262.5 376,-268.5 370,-268.5"/>
<text text-anchor="middle" x="340.5" y="-223.3" font-family="Times,serif" font-size="14.00">Sidechain A</text>
</g>
<!-- sidechain_a_bridge&#45;&gt;sidechain_a -->
<g id="edge4" class="edge">
<title>sidechain_a_bridge&#45;&gt;sidechain_a</title>
<path fill="none" stroke="black" d="M273.09,-227C278.23,-227 283.45,-227 288.59,-227"/>
<polygon fill="black" stroke="black" points="273.09,-223.5 263.09,-227 273.09,-230.5 273.09,-223.5"/>
<polygon fill="black" stroke="black" points="288.98,-230.5 298.98,-227 288.98,-223.5 288.98,-230.5"/>
</g>
<!-- sidechain_b -->
<g id="node5" class="node">
<title>sidechain_b</title>
<path fill="none" stroke="black" d="M370,-137.5C370,-137.5 311,-137.5 311,-137.5 305,-137.5 299,-131.5 299,-125.5 299,-125.5 299,-66.5 299,-66.5 299,-60.5 305,-54.5 311,-54.5 311,-54.5 370,-54.5 370,-54.5 376,-54.5 382,-60.5 382,-66.5 382,-66.5 382,-125.5 382,-125.5 382,-131.5 376,-137.5 370,-137.5"/>
<text text-anchor="middle" x="340.5" y="-92.3" font-family="Times,serif" font-size="14.00">Sidechain B</text>
</g>
<!-- sidechain_b_bridge&#45;&gt;sidechain_b -->
<g id="edge5" class="edge">
<title>sidechain_b_bridge&#45;&gt;sidechain_b</title>
<path fill="none" stroke="black" d="M273.09,-96C278.23,-96 283.45,-96 288.59,-96"/>
<polygon fill="black" stroke="black" points="273.09,-92.5 263.09,-96 273.09,-99.5 273.09,-92.5"/>
<polygon fill="black" stroke="black" points="288.98,-99.5 298.98,-96 288.98,-92.5 288.98,-99.5"/>
</g>
</g>
</svg>
