<?xml version="1.0" encoding="UTF-8" standalone="no"?>
<!DOCTYPE svg PUBLIC "-//W3C//DTD SVG 1.1//EN"
 "http://www.w3.org/Graphics/SVG/1.1/DTD/svg11.dtd">
<!-- Generated by graphviz version 5.0.1 (0)
 -->
<!-- Pages: 1 -->
<svg width="774pt" height="584pt"
 viewBox="0.00 0.00 774.00 584.00" xmlns="http://www.w3.org/2000/svg" xmlns:xlink="http://www.w3.org/1999/xlink">
<g id="graph0" class="graph" transform="scale(1 1) rotate(0) translate(4 580)">
<polygon fill="white" stroke="none" points="-4,4 -4,-580 770,-580 770,4 -4,4"/>
<g id="clust1" class="cluster">
<title>cluster_TxA</title>
<polygon fill="none" stroke="lightgrey" stroke-dasharray="5,2" points="8,-406 8,-568 234,-568 234,-406 8,-406"/>
<text text-anchor="middle" x="121" y="-552.8" font-family="Times,serif" font-size="14.00">Transaction submitted by sidechain A</text>
</g>
<g id="clust2" class="cluster">
<title>cluster_TxB</title>
<polygon fill="none" stroke="lightgrey" stroke-dasharray="5,2" points="469,-406 469,-568 695,-568 695,-406 469,-406"/>
<text text-anchor="middle" x="582" y="-552.8" font-family="Times,serif" font-size="14.00">Transaction submitted by sidechain B</text>
</g>
<g id="clust3" class="cluster">
<title>cluster_Tx</title>
<polygon fill="none" stroke="lightgrey" stroke-dasharray="5,2" points="260,-8 260,-270.5 597,-270.5 597,-8 260,-8"/>
<text text-anchor="middle" x="428.5" y="-15.8" font-family="Times,serif" font-size="14.00">Transaction for aggregating PartialMerkleRootTokens</text>
</g>
<!-- TxA -->
<g id="node1" class="node">
<title>TxA</title>
<polygon fill="none" stroke="black" points="144,-537 70.43,-519 144,-501 217.57,-519 144,-537"/>
<text text-anchor="middle" x="144" y="-515.3" font-family="Times,serif" font-size="14.00">Transaction</text>
</g>
<!-- PartialMerkleRootTokenA -->
<g id="node2" class="node">
<title>PartialMerkleRootTokenA</title>
<ellipse fill="none" stroke="black" cx="121" cy="-432" rx="105.08" ry="18"/>
<text text-anchor="middle" x="121" y="-428.3" font-family="Times,serif" font-size="14.00">PartialMerkleRootTokenA</text>
</g>
<!-- TxA&#45;&gt;PartialMerkleRootTokenA -->
<g id="edge1" class="edge">
<title>TxA&#45;&gt;PartialMerkleRootTokenA</title>
<path fill="none" stroke="black" d="M139.67,-502.01C136.48,-490.21 132.06,-473.86 128.32,-460.04"/>
<polygon fill="black" stroke="black" points="131.61,-458.82 125.62,-450.08 124.86,-460.65 131.61,-458.82"/>
<text text-anchor="middle" x="148.5" y="-471.8" font-family="Times,serif" font-size="14.00">mints</text>
</g>
<!-- PartialMerkleRootValidator -->
<g id="node5" class="node">
<title>PartialMerkleRootValidator</title>
<polygon fill="none" stroke="black" points="367.5,-326.5 367.5,-362.5 534.5,-362.5 534.5,-326.5 367.5,-326.5"/>
<text text-anchor="middle" x="451" y="-340.8" font-family="Times,serif" font-size="14.00">PartialMerkleRootValidator</text>
</g>
<!-- TxA&#45;&gt;PartialMerkleRootValidator -->
<g id="edge3" class="edge">
<title>TxA&#45;&gt;PartialMerkleRootValidator</title>
<path fill="none" stroke="black" d="M165.1,-506.14C215.95,-477.57 345.9,-404.56 411.64,-367.62"/>
<polygon fill="black" stroke="black" points="413.47,-370.6 420.47,-362.65 410.04,-364.5 413.47,-370.6"/>
<text text-anchor="middle" x="359.5" y="-428.3" font-family="Times,serif" font-size="14.00">output</text>
</g>
<!-- PartialMerkleRootTokenA&#45;&gt;PartialMerkleRootValidator -->
<g id="edge4" class="edge">
<title>PartialMerkleRootTokenA&#45;&gt;PartialMerkleRootValidator</title>
<path fill="none" stroke="black" stroke-dasharray="5,2" d="M150.68,-414.72C172.12,-403.63 202.11,-389.47 230,-381 270.96,-368.57 317.6,-360.26 357.44,-354.83"/>
<polygon fill="black" stroke="black" points="357.95,-358.29 367.41,-353.51 357.04,-351.35 357.95,-358.29"/>
<text text-anchor="middle" x="272.5" y="-384.8" font-family="Times,serif" font-size="14.00">must be paid to</text>
</g>
<!-- TxB -->
<g id="node3" class="node">
<title>TxB</title>
<polygon fill="none" stroke="black" points="605,-537 531.43,-519 605,-501 678.57,-519 605,-537"/>
<text text-anchor="middle" x="605" y="-515.3" font-family="Times,serif" font-size="14.00">Transaction</text>
</g>
<!-- PartialMerkleRootTokenB -->
<g id="node4" class="node">
<title>PartialMerkleRootTokenB</title>
<ellipse fill="none" stroke="black" cx="582" cy="-432" rx="104.78" ry="18"/>
<text text-anchor="middle" x="582" y="-428.3" font-family="Times,serif" font-size="14.00">PartialMerkleRootTokenB</text>
</g>
<!-- TxB&#45;&gt;PartialMerkleRootTokenB -->
<g id="edge2" class="edge">
<title>TxB&#45;&gt;PartialMerkleRootTokenB</title>
<path fill="none" stroke="black" d="M600.67,-502.01C597.48,-490.21 593.06,-473.86 589.32,-460.04"/>
<polygon fill="black" stroke="black" points="592.61,-458.82 586.62,-450.08 585.86,-460.65 592.61,-458.82"/>
<text text-anchor="middle" x="609.5" y="-471.8" font-family="Times,serif" font-size="14.00">mints</text>
</g>
<!-- TxB&#45;&gt;PartialMerkleRootValidator -->
<g id="edge5" class="edge">
<title>TxB&#45;&gt;PartialMerkleRootValidator</title>
<path fill="none" stroke="black" d="M638.14,-509.05C666.29,-499.49 704.9,-481.32 723,-450 732.78,-433.07 734.88,-421.54 723,-406 701.37,-377.7 614.62,-361.94 544.83,-353.66"/>
<polygon fill="black" stroke="black" points="545,-350.15 534.66,-352.49 544.2,-357.11 545,-350.15"/>
<text text-anchor="middle" x="748.5" y="-428.3" font-family="Times,serif" font-size="14.00">output</text>
</g>
<!-- PartialMerkleRootTokenB&#45;&gt;PartialMerkleRootValidator -->
<g id="edge6" class="edge">
<title>PartialMerkleRootTokenB&#45;&gt;PartialMerkleRootValidator</title>
<path fill="none" stroke="black" stroke-dasharray="5,2" d="M556.74,-414.51C536.53,-401.32 507.96,-382.68 485.61,-368.09"/>
<polygon fill="black" stroke="black" points="487.36,-365.05 477.08,-362.52 483.54,-370.92 487.36,-365.05"/>
<text text-anchor="middle" x="570.5" y="-384.8" font-family="Times,serif" font-size="14.00">must be paid to</text>
</g>
<!-- Tx -->
<g id="node6" class="node">
<title>Tx</title>
<polygon fill="none" stroke="black" points="342,-262.5 268.43,-244.5 342,-226.5 415.57,-244.5 342,-262.5"/>
<text text-anchor="middle" x="342" y="-240.8" font-family="Times,serif" font-size="14.00">Transaction</text>
</g>
<!-- PartialMerkleRootValidator&#45;&gt;Tx -->
<g id="edge7" class="edge">
<title>PartialMerkleRootValidator&#45;&gt;Tx</title>
<path fill="none" stroke="black" d="M432.01,-326.43C413.25,-309.56 384.54,-283.75 364.61,-265.83"/>
<polygon fill="black" stroke="black" points="366.7,-263 356.92,-258.91 362.02,-268.2 366.7,-263"/>
<text text-anchor="middle" x="423" y="-296.8" font-family="Times,serif" font-size="14.00">input</text>
</g>
<!-- FinalMerkleRoot -->
<g id="node7" class="node">
<title>FinalMerkleRoot</title>
<ellipse fill="none" stroke="black" cx="518" cy="-145" rx="71.49" ry="18"/>
<text text-anchor="middle" x="518" y="-141.3" font-family="Times,serif" font-size="14.00">FinalMerkleRoot</text>
</g>
<!-- PartialMerkleRootValidator&#45;&gt;FinalMerkleRoot -->
<g id="edge8" class="edge">
<title>PartialMerkleRootValidator&#45;&gt;FinalMerkleRoot</title>
<path fill="none" stroke="black" stroke-dasharray="5,2" d="M460.11,-316.65C474.12,-275.34 500.57,-197.37 512.23,-163"/>
<polygon fill="black" stroke="black" points="456.73,-315.72 456.83,-326.32 463.36,-317.97 456.73,-315.72"/>
<text text-anchor="middle" x="612" y="-247.8" font-family="Times,serif" font-size="14.00"> &#160;&#160;&#160;&#160;&#160;verifies PartialMerkleRootTokenA</text>
<text text-anchor="middle" x="612" y="-232.8" font-family="Times,serif" font-size="14.00"> &#160;&#160;&#160;&#160;&#160;and PartialMerkleRootTokenB is burnt</text>
<text text-anchor="middle" x="612" y="-217.8" font-family="Times,serif" font-size="14.00"> &#160;&#160;&#160;&#160;&#160;with the same token name</text>
</g>
<!-- Tx&#45;&gt;FinalMerkleRoot -->
<g id="edge9" class="edge">
<title>Tx&#45;&gt;FinalMerkleRoot</title>
<path fill="none" stroke="black" d="M363.58,-231.54C392.74,-215.39 445.14,-186.36 480.73,-166.64"/>
<polygon fill="black" stroke="black" points="482.79,-169.51 489.84,-161.6 479.4,-163.38 482.79,-169.51"/>
<text text-anchor="middle" x="465.5" y="-184.8" font-family="Times,serif" font-size="14.00">mints</text>
</g>
<!-- MerkleRootTokenValidator -->
<g id="node8" class="node">
<title>MerkleRootTokenValidator</title>
<polygon fill="none" stroke="black" points="323.5,-39.5 323.5,-75.5 490.5,-75.5 490.5,-39.5 323.5,-39.5"/>
<text text-anchor="middle" x="407" y="-53.8" font-family="Times,serif" font-size="14.00">MerkleRootTokenValidator</text>
</g>
<!-- Tx&#45;&gt;MerkleRootTokenValidator -->
<g id="edge10" class="edge">
<title>Tx&#45;&gt;MerkleRootTokenValidator</title>
<path fill="none" stroke="black" d="M345.92,-227.44C351.63,-204.76 362.98,-162.17 376,-127 381.27,-112.76 388.15,-97.31 394.09,-84.7"/>
<polygon fill="black" stroke="black" points="397.25,-86.2 398.41,-75.67 390.94,-83.18 397.25,-86.2"/>
<text text-anchor="middle" x="393.5" y="-141.3" font-family="Times,serif" font-size="14.00">output</text>
</g>
<!-- FinalMerkleRoot&#45;&gt;MerkleRootTokenValidator -->
<g id="edge11" class="edge">
<title>FinalMerkleRoot&#45;&gt;MerkleRootTokenValidator</title>
<path fill="none" stroke="black" stroke-dasharray="5,2" d="M496.86,-127.72C479.98,-114.72 456.12,-96.34 437.22,-81.78"/>
<polygon fill="black" stroke="black" points="439.26,-78.93 429.2,-75.6 434.99,-84.48 439.26,-78.93"/>
<text text-anchor="middle" x="514.5" y="-97.8" font-family="Times,serif" font-size="14.00">must be paid to</text>
</g>
</g>
</svg>
