<?xml version="1.0" encoding="UTF-8" standalone="no"?>
<!DOCTYPE svg PUBLIC "-//W3C//DTD SVG 1.1//EN"
 "http://www.w3.org/Graphics/SVG/1.1/DTD/svg11.dtd">
<!-- Generated by graphviz version 5.0.1 (0)
 -->
<!-- Pages: 1 -->
<svg width="643pt" height="367pt"
 viewBox="0.00 0.00 643.00 367.00" xmlns="http://www.w3.org/2000/svg" xmlns:xlink="http://www.w3.org/1999/xlink">
<g id="graph0" class="graph" transform="scale(1 1) rotate(0) translate(4 363)">
<polygon fill="white" stroke="none" points="-4,4 -4,-363 639,-363 639,4 -4,4"/>
<!-- trustedWallet -->
<g id="node1" class="node">
<title>trustedWallet</title>
<polygon fill="none" stroke="black" points="294.5,-305.5 294.5,-358.5 479.5,-358.5 479.5,-305.5 294.5,-305.5"/>
<text text-anchor="middle" x="387" y="-343.3" font-family="Times,serif" font-size="14.00">Trusted wallet UTxO with</text>
<text text-anchor="middle" x="387" y="-328.3" font-family="Times,serif" font-size="14.00">token InitToken with</text>
<text text-anchor="middle" x="387" y="-313.3" font-family="Times,serif" font-size="14.00">token name &quot;CheckpointMint&quot;</text>
</g>
<!-- transaction -->
<g id="node2" class="node">
<title>transaction</title>
<polygon fill="none" stroke="black" points="234,-254 0,-216 234,-178 468,-216 234,-254"/>
<text text-anchor="middle" x="234" y="-219.8" font-family="Times,serif" font-size="14.00">An activation transaction for initialising</text>
<text text-anchor="middle" x="234" y="-204.8" font-family="Times,serif" font-size="14.00">the checkpoint</text>
</g>
<!-- trustedWallet&#45;&gt;transaction -->
<g id="edge1" class="edge">
<title>trustedWallet&#45;&gt;transaction</title>
<path fill="none" stroke="black" d="M352.66,-305.42C332.18,-290.16 305.84,-270.53 283.18,-253.64"/>
<polygon fill="black" stroke="black" points="285.12,-250.73 275.01,-247.56 280.94,-256.34 285.12,-250.73"/>
<text text-anchor="middle" x="339" y="-275.8" font-family="Times,serif" font-size="14.00">input</text>
</g>
<!-- checkpointPolicy -->
<g id="node3" class="node">
<title>checkpointPolicy</title>
<polygon fill="none" stroke="black" points="305.5,-88.5 305.5,-126.5 448.5,-126.5 448.5,-88.5 305.5,-88.5"/>
<text text-anchor="middle" x="377" y="-111.3" font-family="Times,serif" font-size="14.00">CheckpointPolicy NFT</text>
<text text-anchor="middle" x="377" y="-96.3" font-family="Times,serif" font-size="14.00">minting policy</text>
</g>
<!-- trustedWallet&#45;&gt;checkpointPolicy -->
<g id="edge2" class="edge">
<title>trustedWallet&#45;&gt;checkpointPolicy</title>
<path fill="none" stroke="black" stroke-dasharray="5,2" d="M445.13,-299.48C461.38,-287.55 477.04,-272.32 486,-254 500.84,-223.66 502.24,-207.62 486,-178 473.05,-154.39 448.29,-137.64 425.64,-126.51"/>
<polygon fill="black" stroke="black" points="442.8,-296.84 436.6,-305.43 446.81,-302.58 442.8,-296.84"/>
<text text-anchor="middle" x="566.5" y="-212.3" font-family="Times,serif" font-size="14.00">checks if token is burned</text>
</g>
<!-- transaction&#45;&gt;checkpointPolicy -->
<g id="edge3" class="edge">
<title>transaction&#45;&gt;checkpointPolicy</title>
<path fill="none" stroke="black" d="M274.98,-184.48C297.03,-168.06 323.85,-148.08 344.46,-132.74"/>
<polygon fill="black" stroke="black" points="346.66,-135.46 352.59,-126.68 342.48,-129.85 346.66,-135.46"/>
<text text-anchor="middle" x="342.5" y="-148.8" font-family="Times,serif" font-size="14.00">mints</text>
</g>
<!-- checkpointValidator -->
<g id="node4" class="node">
<title>checkpointValidator</title>
<polygon fill="none" stroke="black" points="174,-0.5 174,-36.5 354,-36.5 354,-0.5 174,-0.5"/>
<text text-anchor="middle" x="264" y="-14.8" font-family="Times,serif" font-size="14.00">CheckpointValidator validator</text>
</g>
<!-- transaction&#45;&gt;checkpointValidator -->
<g id="edge5" class="edge">
<title>transaction&#45;&gt;checkpointValidator</title>
<path fill="none" stroke="black" d="M238.85,-178.55C242.3,-153.14 247.17,-118.46 252,-88 254.17,-74.31 256.81,-59.11 259.06,-46.52"/>
<polygon fill="black" stroke="black" points="262.51,-47.11 260.84,-36.65 255.62,-45.87 262.51,-47.11"/>
<text text-anchor="middle" x="269.5" y="-103.8" font-family="Times,serif" font-size="14.00">output</text>
</g>
<!-- checkpointPolicy&#45;&gt;checkpointValidator -->
<g id="edge4" class="edge">
<title>checkpointPolicy&#45;&gt;checkpointValidator</title>
<path fill="none" stroke="black" stroke-dasharray="5,2" d="M353.59,-88.47C336.43,-75.27 313,-57.22 294.4,-42.9"/>
<polygon fill="black" stroke="black" points="296.29,-39.94 286.23,-36.62 292.02,-45.49 296.29,-39.94"/>
<text text-anchor="middle" x="353.5" y="-58.8" font-family="Times,serif" font-size="14.00">is paid to</text>
</g>
</g>
</svg>
