<?xml version="1.0" encoding="UTF-8" standalone="no"?>
<!DOCTYPE svg PUBLIC "-//W3C//DTD SVG 1.1//EN"
 "http://www.w3.org/Graphics/SVG/1.1/DTD/svg11.dtd">
<!-- Generated by graphviz version 7.0.2 (0)
 -->
<!-- Pages: 1 -->
<svg width="817pt" height="367pt"
 viewBox="0.00 0.00 817.00 367.00" xmlns="http://www.w3.org/2000/svg" xmlns:xlink="http://www.w3.org/1999/xlink">
<g id="graph0" class="graph" transform="scale(1 1) rotate(0) translate(4 363)">
<polygon fill="white" stroke="none" points="-4,4 -4,-363 813,-363 813,4 -4,4"/>
<!-- trustedWallet -->
<g id="node1" class="node">
<title>trustedWallet</title>
<polygon fill="none" stroke="black" points="464,-305.5 464,-358.5 696,-358.5 696,-305.5 464,-305.5"/>
<text text-anchor="middle" x="580" y="-343.3" font-family="Times,serif" font-size="14.00">Trusted wallet UTxO with</text>
<text text-anchor="middle" x="580" y="-328.3" font-family="Times,serif" font-size="14.00">token InitToken with</text>
<text text-anchor="middle" x="580" y="-313.3" font-family="Times,serif" font-size="14.00">token name &quot;CheckpointMint&quot;</text>
</g>
<!-- transaction -->
<g id="node2" class="node">
<title>transaction</title>
<polygon fill="none" stroke="black" points="301,-254 0,-216 301,-178 602,-216 301,-254"/>
<text text-anchor="middle" x="301" y="-219.8" font-family="Times,serif" font-size="14.00">An activation transaction for initialising</text>
<text text-anchor="middle" x="301" y="-204.8" font-family="Times,serif" font-size="14.00">the checkpoint</text>
</g>
<!-- trustedWallet&#45;&gt;transaction -->
<g id="edge1" class="edge">
<title>trustedWallet&#45;&gt;transaction</title>
<path fill="none" stroke="black" d="M517.73,-305.56C477.53,-289.13 424.82,-267.59 381.45,-249.87"/>
<polygon fill="black" stroke="black" points="382.91,-246.69 372.33,-246.14 380.26,-253.17 382.91,-246.69"/>
<text text-anchor="middle" x="485" y="-275.8" font-family="Times,serif" font-size="14.00">input</text>
</g>
<!-- checkpointPolicy -->
<g id="node3" class="node">
<title>checkpointPolicy</title>
<polygon fill="none" stroke="black" points="385,-88.5 385,-126.5 559,-126.5 559,-88.5 385,-88.5"/>
<text text-anchor="middle" x="472" y="-111.3" font-family="Times,serif" font-size="14.00">CheckpointPolicy NFT</text>
<text text-anchor="middle" x="472" y="-96.3" font-family="Times,serif" font-size="14.00">minting policy</text>
</g>
<!-- trustedWallet&#45;&gt;checkpointPolicy -->
<g id="edge2" class="edge">
<title>trustedWallet&#45;&gt;checkpointPolicy</title>
<path fill="none" stroke="black" stroke-dasharray="5,2" d="M603.93,-295.96C623,-263.27 643.01,-214.23 620,-178 604.1,-152.96 576.51,-136.78 549.44,-126.4"/>
<polygon fill="black" stroke="black" points="601.09,-293.89 598.88,-304.25 607.07,-297.53 601.09,-293.89"/>
<text text-anchor="middle" x="719.5" y="-212.3" font-family="Times,serif" font-size="14.00">checks if token is burned</text>
</g>
<!-- transaction&#45;&gt;checkpointPolicy -->
<g id="edge3" class="edge">
<title>transaction&#45;&gt;checkpointPolicy</title>
<path fill="none" stroke="black" d="M350.92,-183.91C377.26,-167.51 409.08,-147.69 433.49,-132.48"/>
<polygon fill="black" stroke="black" points="435.2,-135.54 441.84,-127.28 431.5,-129.6 435.2,-135.54"/>
<text text-anchor="middle" x="432.5" y="-148.8" font-family="Times,serif" font-size="14.00">mints</text>
</g>
<!-- checkpointValidator -->
<g id="node4" class="node">
<title>checkpointValidator</title>
<polygon fill="none" stroke="black" points="216,-0.5 216,-36.5 446,-36.5 446,-0.5 216,-0.5"/>
<text text-anchor="middle" x="331" y="-14.8" font-family="Times,serif" font-size="14.00">CheckpointValidator validator</text>
</g>
<!-- transaction&#45;&gt;checkpointValidator -->
<g id="edge5" class="edge">
<title>transaction&#45;&gt;checkpointValidator</title>
<path fill="none" stroke="black" d="M305.88,-178.27C309.34,-152.89 314.19,-118.35 319,-88 321.12,-74.63 323.68,-59.82 325.9,-47.41"/>
<polygon fill="black" stroke="black" points="329.29,-48.32 327.62,-37.85 322.4,-47.08 329.29,-48.32"/>
<text text-anchor="middle" x="343" y="-103.8" font-family="Times,serif" font-size="14.00">output</text>
</g>
<!-- checkpointPolicy&#45;&gt;checkpointValidator -->
<g id="edge4" class="edge">
<title>checkpointPolicy&#45;&gt;checkpointValidator</title>
<path fill="none" stroke="black" stroke-dasharray="5,2" d="M443.13,-88.68C421.41,-75.29 391.49,-56.82 368.02,-42.34"/>
<polygon fill="black" stroke="black" points="370.03,-39.47 359.69,-37.2 366.36,-45.43 370.03,-39.47"/>
<text text-anchor="middle" x="443.5" y="-58.8" font-family="Times,serif" font-size="14.00">is paid to</text>
</g>
</g>
</svg>
