<?xml version="1.0" encoding="UTF-8" standalone="no"?>
<!DOCTYPE svg PUBLIC "-//W3C//DTD SVG 1.1//EN"
 "http://www.w3.org/Graphics/SVG/1.1/DTD/svg11.dtd">
<!-- Generated by graphviz version 7.0.2 (0)
 -->
<!-- Pages: 1 -->
<svg width="820pt" height="369pt"
 viewBox="0.00 0.00 820.00 369.00" xmlns="http://www.w3.org/2000/svg" xmlns:xlink="http://www.w3.org/1999/xlink">
<g id="graph0" class="graph" transform="scale(1 1) rotate(0) translate(4 365)">
<polygon fill="white" stroke="none" points="-4,4 -4,-365 816,-365 816,4 -4,4"/>
<!-- trustedWallet -->
<g id="node1" class="node">
<title>trustedWallet</title>
<polygon fill="none" stroke="black" points="354.5,-307.5 354.5,-360.5 621.5,-360.5 621.5,-307.5 354.5,-307.5"/>
<text text-anchor="middle" x="488" y="-345.3" font-family="Times,serif" font-size="14.00">Trusted wallet UTxO with</text>
<text text-anchor="middle" x="488" y="-330.3" font-family="Times,serif" font-size="14.00">token InitToken with</text>
<text text-anchor="middle" x="488" y="-315.3" font-family="Times,serif" font-size="14.00">token name &quot;CommitteeHashMint&quot;</text>
</g>
<!-- transaction -->
<g id="node2" class="node">
<title>transaction</title>
<polygon fill="none" stroke="black" points="301,-256 0,-218 301,-180 602,-218 301,-256"/>
<text text-anchor="middle" x="301" y="-221.8" font-family="Times,serif" font-size="14.00">An activation transaction for initialising</text>
<text text-anchor="middle" x="301" y="-206.8" font-family="Times,serif" font-size="14.00">the committee</text>
</g>
<!-- trustedWallet&#45;&gt;transaction -->
<g id="edge1" class="edge">
<title>trustedWallet&#45;&gt;transaction</title>
<path fill="none" stroke="black" d="M446.5,-307.7C421.47,-292.44 389.16,-272.74 361.34,-255.79"/>
<polygon fill="black" stroke="black" points="363.37,-252.92 353.01,-250.7 359.72,-258.9 363.37,-252.92"/>
<text text-anchor="middle" x="431" y="-277.8" font-family="Times,serif" font-size="14.00">input</text>
</g>
<!-- committeeHashPolicy -->
<g id="node3" class="node">
<title>committeeHashPolicy</title>
<polygon fill="none" stroke="black" points="385.5,-90.5 385.5,-128.5 594.5,-128.5 594.5,-90.5 385.5,-90.5"/>
<text text-anchor="middle" x="490" y="-113.3" font-family="Times,serif" font-size="14.00">CommitteeHashPolicy NFT</text>
<text text-anchor="middle" x="490" y="-98.3" font-family="Times,serif" font-size="14.00">minting policy</text>
</g>
<!-- trustedWallet&#45;&gt;committeeHashPolicy -->
<g id="edge2" class="edge">
<title>trustedWallet&#45;&gt;committeeHashPolicy</title>
<path fill="none" stroke="black" stroke-dasharray="5,2" d="M570.89,-302.05C590.39,-290.66 608.75,-275.58 620,-256 636.82,-226.71 637.36,-208.97 620,-180 605.27,-155.41 578.54,-139.04 553.14,-128.39"/>
<polygon fill="black" stroke="black" points="569.34,-298.91 562.26,-306.79 572.71,-305.04 569.34,-298.91"/>
<text text-anchor="middle" x="722.5" y="-214.3" font-family="Times,serif" font-size="14.00">checks if token is burned</text>
</g>
<!-- transaction&#45;&gt;committeeHashPolicy -->
<g id="edge3" class="edge">
<title>transaction&#45;&gt;committeeHashPolicy</title>
<path fill="none" stroke="black" d="M355.16,-186.48C384.89,-169.73 421.17,-149.28 448.61,-133.82"/>
<polygon fill="black" stroke="black" points="449.98,-137.07 456.97,-129.11 446.54,-130.97 449.98,-137.07"/>
<text text-anchor="middle" x="444.5" y="-150.8" font-family="Times,serif" font-size="14.00">mints</text>
</g>
<!-- committteeHashValidator -->
<g id="node4" class="node">
<title>committteeHashValidator</title>
<polygon fill="none" stroke="black" points="198.5,-0.5 198.5,-38.5 463.5,-38.5 463.5,-0.5 198.5,-0.5"/>
<text text-anchor="middle" x="331" y="-23.3" font-family="Times,serif" font-size="14.00">CommitteeHashValidator validator</text>
<text text-anchor="middle" x="331" y="-8.3" font-family="Times,serif" font-size="14.00">with the initial committee</text>
</g>
<!-- transaction&#45;&gt;committteeHashValidator -->
<g id="edge5" class="edge">
<title>transaction&#45;&gt;committteeHashValidator</title>
<path fill="none" stroke="black" d="M305.91,-180.28C309.37,-154.89 314.23,-120.36 319,-90 321.09,-76.71 323.6,-62.02 325.78,-49.59"/>
<polygon fill="black" stroke="black" points="329.18,-50.42 327.48,-39.97 322.29,-49.2 329.18,-50.42"/>
<text text-anchor="middle" x="343" y="-105.8" font-family="Times,serif" font-size="14.00">output</text>
</g>
<!-- committeeHashPolicy&#45;&gt;committteeHashValidator -->
<g id="edge4" class="edge">
<title>committeeHashPolicy&#45;&gt;committteeHashValidator</title>
<path fill="none" stroke="black" stroke-dasharray="5,2" d="M457.82,-90.69C433.44,-77.2 399.73,-58.54 373.19,-43.85"/>
<polygon fill="black" stroke="black" points="375.17,-40.95 364.72,-39.17 371.78,-47.07 375.17,-40.95"/>
<text text-anchor="middle" x="454.5" y="-60.8" font-family="Times,serif" font-size="14.00">is paid to</text>
</g>
</g>
</svg>
