<?xml version="1.0" encoding="UTF-8" standalone="no"?>
<!DOCTYPE svg PUBLIC "-//W3C//DTD SVG 1.1//EN"
 "http://www.w3.org/Graphics/SVG/1.1/DTD/svg11.dtd">
<!-- Generated by graphviz version 5.0.1 (0)
 -->
<!-- Pages: 1 -->
<svg width="640pt" height="369pt"
 viewBox="0.00 0.00 640.00 369.00" xmlns="http://www.w3.org/2000/svg" xmlns:xlink="http://www.w3.org/1999/xlink">
<g id="graph0" class="graph" transform="scale(1 1) rotate(0) translate(4 365)">
<polygon fill="white" stroke="none" points="-4,4 -4,-365 636,-365 636,4 -4,4"/>
<!-- trustedWallet -->
<g id="node1" class="node">
<title>trustedWallet</title>
<polygon fill="none" stroke="black" points="357,-307.5 357,-360.5 569,-360.5 569,-307.5 357,-307.5"/>
<text text-anchor="middle" x="463" y="-345.3" font-family="Times,serif" font-size="14.00">Trusted wallet UTxO with</text>
<text text-anchor="middle" x="463" y="-330.3" font-family="Times,serif" font-size="14.00">token InitToken with</text>
<text text-anchor="middle" x="463" y="-315.3" font-family="Times,serif" font-size="14.00">token name &quot;CommitteeHashMint&quot;</text>
</g>
<!-- transaction -->
<g id="node2" class="node">
<title>transaction</title>
<polygon fill="none" stroke="black" points="234,-256 0,-218 234,-180 468,-218 234,-256"/>
<text text-anchor="middle" x="234" y="-221.8" font-family="Times,serif" font-size="14.00">An activation transaction for initialising</text>
<text text-anchor="middle" x="234" y="-206.8" font-family="Times,serif" font-size="14.00">the committee</text>
</g>
<!-- trustedWallet&#45;&gt;transaction -->
<g id="edge1" class="edge">
<title>trustedWallet&#45;&gt;transaction</title>
<path fill="none" stroke="black" d="M411.61,-307.42C378.56,-290.96 335.31,-269.44 299.77,-251.74"/>
<polygon fill="black" stroke="black" points="300.95,-248.42 290.44,-247.1 297.83,-254.69 300.95,-248.42"/>
<text text-anchor="middle" x="384" y="-277.8" font-family="Times,serif" font-size="14.00">input</text>
</g>
<!-- committeeHashPolicy -->
<g id="node3" class="node">
<title>committeeHashPolicy</title>
<polygon fill="none" stroke="black" points="305,-90.5 305,-128.5 475,-128.5 475,-90.5 305,-90.5"/>
<text text-anchor="middle" x="390" y="-113.3" font-family="Times,serif" font-size="14.00">CommitteeHashPolicy NFT</text>
<text text-anchor="middle" x="390" y="-98.3" font-family="Times,serif" font-size="14.00">minting policy</text>
</g>
<!-- trustedWallet&#45;&gt;committeeHashPolicy -->
<g id="edge2" class="edge">
<title>trustedWallet&#45;&gt;committeeHashPolicy</title>
<path fill="none" stroke="black" stroke-dasharray="5,2" d="M479.65,-297.92C492.44,-265.61 504.98,-217.18 486,-180 474.4,-157.28 451.51,-140.26 431,-128.75"/>
<polygon fill="black" stroke="black" points="476.32,-296.83 475.71,-307.41 482.78,-299.52 476.32,-296.83"/>
<text text-anchor="middle" x="563.5" y="-214.3" font-family="Times,serif" font-size="14.00">checks if token is burned</text>
</g>
<!-- transaction&#45;&gt;committeeHashPolicy -->
<g id="edge3" class="edge">
<title>transaction&#45;&gt;committeeHashPolicy</title>
<path fill="none" stroke="black" d="M277.87,-187.05C302.32,-170.36 332.35,-149.86 355.17,-134.27"/>
<polygon fill="black" stroke="black" points="357.26,-137.09 363.54,-128.56 353.31,-131.31 357.26,-137.09"/>
<text text-anchor="middle" x="351.5" y="-150.8" font-family="Times,serif" font-size="14.00">mints</text>
</g>
<!-- committteeHashValidator -->
<g id="node4" class="node">
<title>committteeHashValidator</title>
<polygon fill="none" stroke="black" points="160.5,-0.5 160.5,-38.5 367.5,-38.5 367.5,-0.5 160.5,-0.5"/>
<text text-anchor="middle" x="264" y="-23.3" font-family="Times,serif" font-size="14.00">CommitteeHashValidator validator</text>
<text text-anchor="middle" x="264" y="-8.3" font-family="Times,serif" font-size="14.00">with the initial committee</text>
</g>
<!-- transaction&#45;&gt;committteeHashValidator -->
<g id="edge5" class="edge">
<title>transaction&#45;&gt;committteeHashValidator</title>
<path fill="none" stroke="black" d="M238.87,-180.55C242.34,-155.14 247.21,-120.47 252,-90 254.14,-76.39 256.72,-61.32 258.93,-48.7"/>
<polygon fill="black" stroke="black" points="262.39,-49.22 260.69,-38.77 255.5,-48 262.39,-49.22"/>
<text text-anchor="middle" x="269.5" y="-105.8" font-family="Times,serif" font-size="14.00">output</text>
</g>
<!-- committeeHashPolicy&#45;&gt;committteeHashValidator -->
<g id="edge4" class="edge">
<title>committeeHashPolicy&#45;&gt;committteeHashValidator</title>
<path fill="none" stroke="black" stroke-dasharray="5,2" d="M364.2,-90.48C345.21,-77.22 319.21,-59.06 298.45,-44.56"/>
<polygon fill="black" stroke="black" points="300.4,-41.66 290.2,-38.8 296.39,-47.39 300.4,-41.66"/>
<text text-anchor="middle" x="360.5" y="-60.8" font-family="Times,serif" font-size="14.00">is paid to</text>
</g>
</g>
</svg>
