<?xml version="1.0" encoding="UTF-8" standalone="no"?>
<!DOCTYPE svg PUBLIC "-//W3C//DTD SVG 1.1//EN"
 "http://www.w3.org/Graphics/SVG/1.1/DTD/svg11.dtd">
<!-- Generated by graphviz version 5.0.1 (0)
 -->
<!-- Pages: 1 -->
<svg width="702pt" height="367pt"
 viewBox="0.00 0.00 701.50 367.00" xmlns="http://www.w3.org/2000/svg" xmlns:xlink="http://www.w3.org/1999/xlink">
<g id="graph0" class="graph" transform="scale(1 1) rotate(0) translate(4 363)">
<polygon fill="white" stroke="none" points="-4,4 -4,-363 697.5,-363 697.5,4 -4,4"/>
<!-- trustedWallet -->
<g id="node1" class="node">
<title>trustedWallet</title>
<polygon fill="none" stroke="black" points="0,-305.5 0,-358.5 165,-358.5 165,-305.5 0,-305.5"/>
<text text-anchor="middle" x="82.5" y="-343.3" font-family="Times,serif" font-size="14.00">Trusted wallet UTxO with</text>
<text text-anchor="middle" x="82.5" y="-328.3" font-family="Times,serif" font-size="14.00">token InitToken with</text>
<text text-anchor="middle" x="82.5" y="-313.3" font-family="Times,serif" font-size="14.00">token name &quot;DsConfMint&quot;</text>
</g>
<!-- transaction -->
<g id="node2" class="node">
<title>transaction</title>
<polygon fill="none" stroke="black" points="459.5,-254 225.5,-216 459.5,-178 693.5,-216 459.5,-254"/>
<text text-anchor="middle" x="459.5" y="-219.8" font-family="Times,serif" font-size="14.00">An activation transaction for initialising</text>
<text text-anchor="middle" x="459.5" y="-204.8" font-family="Times,serif" font-size="14.00">the distributed set</text>
</g>
<!-- trustedWallet&#45;&gt;transaction -->
<g id="edge1" class="edge">
<title>trustedWallet&#45;&gt;transaction</title>
<path fill="none" stroke="black" d="M165.23,-305.98C225.83,-287.66 307.97,-262.82 370.08,-244.04"/>
<polygon fill="black" stroke="black" points="371.31,-247.33 379.87,-241.08 369.28,-240.62 371.31,-247.33"/>
<text text-anchor="middle" x="285.5" y="-275.8" font-family="Times,serif" font-size="14.00">input</text>
</g>
<!-- dsConfMintNFT -->
<g id="node3" class="node">
<title>dsConfMintNFT</title>
<polygon fill="none" stroke="black" points="165,-88.5 165,-126.5 280,-126.5 280,-88.5 165,-88.5"/>
<text text-anchor="middle" x="222.5" y="-111.3" font-family="Times,serif" font-size="14.00">DsConfMint NFT</text>
<text text-anchor="middle" x="222.5" y="-96.3" font-family="Times,serif" font-size="14.00">minting policy</text>
</g>
<!-- trustedWallet&#45;&gt;dsConfMintNFT -->
<g id="edge2" class="edge">
<title>trustedWallet&#45;&gt;dsConfMintNFT</title>
<path fill="none" stroke="black" stroke-dasharray="5,2" d="M68.32,-295.71C57.5,-262.63 47.92,-213.15 70.5,-178 91.2,-145.77 130.97,-128.3 164.63,-118.94"/>
<polygon fill="black" stroke="black" points="65.1,-297.11 71.68,-305.41 71.71,-294.82 65.1,-297.11"/>
<text text-anchor="middle" x="139" y="-212.3" font-family="Times,serif" font-size="14.00">checks if token is burned</text>
</g>
<!-- transaction&#45;&gt;dsConfMintNFT -->
<g id="edge3" class="edge">
<title>transaction&#45;&gt;dsConfMintNFT</title>
<path fill="none" stroke="black" d="M373.01,-191.89C346.78,-183.43 318.36,-172.74 293.5,-160 278.97,-152.55 264.15,-142.3 251.84,-132.91"/>
<polygon fill="black" stroke="black" points="253.78,-129.99 243.75,-126.59 249.47,-135.5 253.78,-129.99"/>
<text text-anchor="middle" x="309" y="-148.8" font-family="Times,serif" font-size="14.00">mints</text>
</g>
<!-- dsConfValidator -->
<g id="node4" class="node">
<title>dsConfValidator</title>
<polygon fill="none" stroke="black" points="269.5,-0.5 269.5,-36.5 377.5,-36.5 377.5,-0.5 269.5,-0.5"/>
<text text-anchor="middle" x="323.5" y="-14.8" font-family="Times,serif" font-size="14.00">DsConfValidator</text>
</g>
<!-- transaction&#45;&gt;dsConfValidator -->
<g id="edge5" class="edge">
<title>transaction&#45;&gt;dsConfValidator</title>
<path fill="none" stroke="black" d="M436.12,-181.39C409.24,-142.75 365.69,-80.15 341.37,-45.19"/>
<polygon fill="black" stroke="black" points="344.21,-43.15 335.63,-36.94 338.47,-47.14 344.21,-43.15"/>
<text text-anchor="middle" x="414" y="-103.8" font-family="Times,serif" font-size="14.00">output</text>
</g>
<!-- dsInsertValidator -->
<g id="node5" class="node">
<title>dsInsertValidator</title>
<polygon fill="none" stroke="black" points="431.5,-0.5 431.5,-36.5 543.5,-36.5 543.5,-0.5 431.5,-0.5"/>
<text text-anchor="middle" x="487.5" y="-14.8" font-family="Times,serif" font-size="14.00">DsInsertValidator</text>
</g>
<!-- transaction&#45;&gt;dsInsertValidator -->
<g id="edge6" class="edge">
<title>transaction&#45;&gt;dsInsertValidator</title>
<path fill="none" stroke="black" d="M464.7,-178.69C470.17,-140.52 478.64,-81.35 483.57,-46.92"/>
<polygon fill="black" stroke="black" points="487.09,-47.06 485.04,-36.67 480.16,-46.07 487.09,-47.06"/>
<text text-anchor="middle" x="496" y="-103.8" font-family="Times,serif" font-size="14.00">output</text>
</g>
<!-- dsKeyPolicy -->
<g id="node6" class="node">
<title>dsKeyPolicy</title>
<polygon fill="none" stroke="black" points="531,-88.5 531,-126.5 628,-126.5 628,-88.5 531,-88.5"/>
<text text-anchor="middle" x="579.5" y="-111.3" font-family="Times,serif" font-size="14.00">DsKeyPolicy</text>
<text text-anchor="middle" x="579.5" y="-96.3" font-family="Times,serif" font-size="14.00">minting policy</text>
</g>
<!-- transaction&#45;&gt;dsKeyPolicy -->
<g id="edge4" class="edge">
<title>transaction&#45;&gt;dsKeyPolicy</title>
<path fill="none" stroke="black" d="M494.85,-183.62C512.8,-167.7 534.3,-148.62 551.14,-133.67"/>
<polygon fill="black" stroke="black" points="553.84,-135.95 559,-126.69 549.2,-130.71 553.84,-135.95"/>
<text text-anchor="middle" x="552" y="-148.8" font-family="Times,serif" font-size="14.00">mints</text>
</g>
<!-- dsConfMintNFT&#45;&gt;dsConfValidator -->
<g id="edge7" class="edge">
<title>dsConfMintNFT&#45;&gt;dsConfValidator</title>
<path fill="none" stroke="black" stroke-dasharray="5,2" d="M239.25,-88.08C248.87,-77.9 261.41,-65.26 273.5,-55 278.45,-50.8 283.89,-46.58 289.29,-42.59"/>
<polygon fill="black" stroke="black" points="291.61,-45.24 297.68,-36.56 287.52,-39.55 291.61,-45.24"/>
<text text-anchor="middle" x="299" y="-58.8" font-family="Times,serif" font-size="14.00">is paid to</text>
</g>
<!-- dsKeyPolicy&#45;&gt;dsInsertValidator -->
<g id="edge8" class="edge">
<title>dsKeyPolicy&#45;&gt;dsInsertValidator</title>
<path fill="none" stroke="black" stroke-dasharray="5,2" d="M560.44,-88.47C546.72,-75.5 528.08,-57.87 513.07,-43.68"/>
<polygon fill="black" stroke="black" points="515.27,-40.94 505.6,-36.62 510.46,-46.03 515.27,-40.94"/>
<text text-anchor="middle" x="564" y="-58.8" font-family="Times,serif" font-size="14.00">is paid to</text>
</g>
</g>
</svg>
