<?xml version="1.0" encoding="UTF-8" standalone="no"?>
<!DOCTYPE svg PUBLIC "-//W3C//DTD SVG 1.1//EN"
 "http://www.w3.org/Graphics/SVG/1.1/DTD/svg11.dtd">
<!-- Generated by graphviz version 7.0.2 (0)
 -->
<!-- Pages: 1 -->
<svg width="897pt" height="367pt"
 viewBox="0.00 0.00 896.50 367.00" xmlns="http://www.w3.org/2000/svg" xmlns:xlink="http://www.w3.org/1999/xlink">
<g id="graph0" class="graph" transform="scale(1 1) rotate(0) translate(4 363)">
<polygon fill="white" stroke="none" points="-4,4 -4,-363 892.5,-363 892.5,4 -4,4"/>
<!-- trustedWallet -->
<g id="node1" class="node">
<title>trustedWallet</title>
<polygon fill="none" stroke="black" points="0,-305.5 0,-358.5 203,-358.5 203,-305.5 0,-305.5"/>
<text text-anchor="middle" x="101.5" y="-343.3" font-family="Times,serif" font-size="14.00">Trusted wallet UTxO with</text>
<text text-anchor="middle" x="101.5" y="-328.3" font-family="Times,serif" font-size="14.00">token InitToken with</text>
<text text-anchor="middle" x="101.5" y="-313.3" font-family="Times,serif" font-size="14.00">token name &quot;DsConfMint&quot;</text>
</g>
<!-- transaction -->
<g id="node2" class="node">
<title>transaction</title>
<polygon fill="none" stroke="black" points="587.5,-254 286.5,-216 587.5,-178 888.5,-216 587.5,-254"/>
<text text-anchor="middle" x="587.5" y="-219.8" font-family="Times,serif" font-size="14.00">An activation transaction for initialising</text>
<text text-anchor="middle" x="587.5" y="-204.8" font-family="Times,serif" font-size="14.00">the distributed set</text>
</g>
<!-- trustedWallet&#45;&gt;transaction -->
<g id="edge1" class="edge">
<title>trustedWallet&#45;&gt;transaction</title>
<path fill="none" stroke="black" d="M202.79,-307.24C281.52,-288.77 390.74,-263.15 472.7,-243.93"/>
<polygon fill="black" stroke="black" points="473.42,-247.36 482.35,-241.66 471.82,-240.54 473.42,-247.36"/>
<text text-anchor="middle" x="363.5" y="-275.8" font-family="Times,serif" font-size="14.00">input</text>
</g>
<!-- dsConfMintNFT -->
<g id="node3" class="node">
<title>dsConfMintNFT</title>
<polygon fill="none" stroke="black" points="258,-88.5 258,-126.5 395,-126.5 395,-88.5 258,-88.5"/>
<text text-anchor="middle" x="326.5" y="-111.3" font-family="Times,serif" font-size="14.00">DsConfMint NFT</text>
<text text-anchor="middle" x="326.5" y="-96.3" font-family="Times,serif" font-size="14.00">minting policy</text>
</g>
<!-- trustedWallet&#45;&gt;dsConfMintNFT -->
<g id="edge2" class="edge">
<title>trustedWallet&#45;&gt;dsConfMintNFT</title>
<path fill="none" stroke="black" stroke-dasharray="5,2" d="M86.2,-294.93C74.59,-261.3 64.46,-211.44 89.5,-178 109.84,-150.84 195.59,-130.7 258.12,-119.28"/>
<polygon fill="black" stroke="black" points="82.89,-296.07 89.63,-304.25 89.46,-293.65 82.89,-296.07"/>
<text text-anchor="middle" x="179" y="-212.3" font-family="Times,serif" font-size="14.00">checks if token is burned</text>
</g>
<!-- transaction&#45;&gt;dsConfMintNFT -->
<g id="edge3" class="edge">
<title>transaction&#45;&gt;dsConfMintNFT</title>
<path fill="none" stroke="black" d="M481.66,-191C453.9,-182.89 424.48,-172.61 398.5,-160 383.74,-152.83 368.76,-142.68 356.32,-133.29"/>
<polygon fill="black" stroke="black" points="358.59,-130.61 348.54,-127.24 354.29,-136.14 358.59,-130.61"/>
<text text-anchor="middle" x="419" y="-148.8" font-family="Times,serif" font-size="14.00">mints</text>
</g>
<!-- dsConfValidator -->
<g id="node4" class="node">
<title>dsConfValidator</title>
<polygon fill="none" stroke="black" points="359,-0.5 359,-36.5 492,-36.5 492,-0.5 359,-0.5"/>
<text text-anchor="middle" x="425.5" y="-14.8" font-family="Times,serif" font-size="14.00">DsConfValidator</text>
</g>
<!-- transaction&#45;&gt;dsConfValidator -->
<g id="edge5" class="edge">
<title>transaction&#45;&gt;dsConfValidator</title>
<path fill="none" stroke="black" d="M559.65,-181.39C527.6,-142.71 475.66,-80.03 446.71,-45.1"/>
<polygon fill="black" stroke="black" points="449.57,-43.06 440.5,-37.6 444.18,-47.53 449.57,-43.06"/>
<text text-anchor="middle" x="536.5" y="-103.8" font-family="Times,serif" font-size="14.00">output</text>
</g>
<!-- dsInsertValidator -->
<g id="node5" class="node">
<title>dsInsertValidator</title>
<polygon fill="none" stroke="black" points="546,-0.5 546,-36.5 689,-36.5 689,-0.5 546,-0.5"/>
<text text-anchor="middle" x="617.5" y="-14.8" font-family="Times,serif" font-size="14.00">DsInsertValidator</text>
</g>
<!-- transaction&#45;&gt;dsInsertValidator -->
<g id="edge6" class="edge">
<title>transaction&#45;&gt;dsInsertValidator</title>
<path fill="none" stroke="black" d="M592.38,-178.27C595.84,-152.89 600.69,-118.35 605.5,-88 607.62,-74.63 610.18,-59.82 612.4,-47.41"/>
<polygon fill="black" stroke="black" points="615.79,-48.32 614.12,-37.85 608.9,-47.08 615.79,-48.32"/>
<text text-anchor="middle" x="629.5" y="-103.8" font-family="Times,serif" font-size="14.00">output</text>
</g>
<!-- dsKeyPolicy -->
<g id="node6" class="node">
<title>dsKeyPolicy</title>
<polygon fill="none" stroke="black" points="672,-88.5 672,-126.5 791,-126.5 791,-88.5 672,-88.5"/>
<text text-anchor="middle" x="731.5" y="-111.3" font-family="Times,serif" font-size="14.00">DsKeyPolicy</text>
<text text-anchor="middle" x="731.5" y="-96.3" font-family="Times,serif" font-size="14.00">minting policy</text>
</g>
<!-- transaction&#45;&gt;dsKeyPolicy -->
<g id="edge4" class="edge">
<title>transaction&#45;&gt;dsKeyPolicy</title>
<path fill="none" stroke="black" d="M630.7,-183.05C652.3,-167.07 678.04,-148.04 698.1,-133.2"/>
<polygon fill="black" stroke="black" points="699.99,-136.16 705.95,-127.4 695.83,-130.53 699.99,-136.16"/>
<text text-anchor="middle" x="701" y="-148.8" font-family="Times,serif" font-size="14.00">mints</text>
</g>
<!-- dsConfMintNFT&#45;&gt;dsConfValidator -->
<g id="edge7" class="edge">
<title>dsConfMintNFT&#45;&gt;dsConfValidator</title>
<path fill="none" stroke="black" stroke-dasharray="5,2" d="M340.42,-88.79C349.06,-78.35 360.74,-65.23 372.5,-55 377.37,-50.76 382.77,-46.61 388.21,-42.73"/>
<polygon fill="black" stroke="black" points="389.79,-45.89 396.06,-37.34 385.83,-40.12 389.79,-45.89"/>
<text text-anchor="middle" x="406" y="-58.8" font-family="Times,serif" font-size="14.00">is paid to</text>
</g>
<!-- dsKeyPolicy&#45;&gt;dsInsertValidator -->
<g id="edge8" class="edge">
<title>dsKeyPolicy&#45;&gt;dsInsertValidator</title>
<path fill="none" stroke="black" stroke-dasharray="5,2" d="M708.16,-88.68C690.99,-75.59 667.49,-57.65 648.71,-43.32"/>
<polygon fill="black" stroke="black" points="650.93,-40.61 640.85,-37.32 646.68,-46.17 650.93,-40.61"/>
<text text-anchor="middle" x="714" y="-58.8" font-family="Times,serif" font-size="14.00">is paid to</text>
</g>
</g>
</svg>
