<?xml version="1.0" encoding="UTF-8" standalone="no"?>
<!DOCTYPE svg PUBLIC "-//W3C//DTD SVG 1.1//EN"
 "http://www.w3.org/Graphics/SVG/1.1/DTD/svg11.dtd">
<!-- Generated by graphviz version 5.0.1 (0)
 -->
<!-- Pages: 1 -->
<svg width="505pt" height="310pt"
 viewBox="0.00 0.00 504.91 310.00" xmlns="http://www.w3.org/2000/svg" xmlns:xlink="http://www.w3.org/1999/xlink">
<g id="graph0" class="graph" transform="scale(1 1) rotate(0) translate(4 306)">
<polygon fill="white" stroke="none" points="-4,4 -4,-306 500.91,-306 500.91,4 -4,4"/>
<!-- genesisUTxO -->
<g id="node1" class="node">
<title>genesisUTxO</title>
<polygon fill="none" stroke="black" points="73.41,-265.5 73.41,-301.5 167.41,-301.5 167.41,-265.5 73.41,-265.5"/>
<text text-anchor="middle" x="120.41" y="-279.8" font-family="Times,serif" font-size="14.00">GenesisUTxO</text>
</g>
<!-- transaction -->
<g id="node2" class="node">
<title>transaction</title>
<polygon fill="none" stroke="black" points="120.41,-214 0.09,-196 120.41,-178 240.73,-196 120.41,-214"/>
<text text-anchor="middle" x="120.41" y="-192.3" font-family="Times,serif" font-size="14.00">Adoption transaction</text>
</g>
<!-- genesisUTxO&#45;&gt;transaction -->
<g id="edge1" class="edge">
<title>genesisUTxO&#45;&gt;transaction</title>
<path fill="none" stroke="black" d="M120.41,-265.2C120.41,-253.49 120.41,-237.79 120.41,-224.4"/>
<polygon fill="black" stroke="black" points="123.91,-224.28 120.41,-214.28 116.91,-224.28 123.91,-224.28"/>
<text text-anchor="middle" x="134.41" y="-235.8" font-family="Times,serif" font-size="14.00">input</text>
</g>
<!-- trustedWallet -->
<g id="node3" class="node">
<title>trustedWallet</title>
<polygon fill="none" stroke="black" points="72.91,-0.5 72.91,-36.5 167.91,-36.5 167.91,-0.5 72.91,-0.5"/>
<text text-anchor="middle" x="120.41" y="-14.8" font-family="Times,serif" font-size="14.00">Trusted wallet</text>
</g>
<!-- transaction&#45;&gt;trustedWallet -->
<g id="edge3" class="edge">
<title>transaction&#45;&gt;trustedWallet</title>
<path fill="none" stroke="black" d="M116.63,-178.34C113.73,-164.64 109.96,-144.67 108.41,-127 106.9,-109.73 106.91,-105.27 108.41,-88 109.61,-74.19 112.15,-58.98 114.58,-46.41"/>
<polygon fill="black" stroke="black" points="118.02,-47.06 116.57,-36.56 111.16,-45.67 118.02,-47.06"/>
<text text-anchor="middle" x="125.91" y="-103.8" font-family="Times,serif" font-size="14.00">output</text>
</g>
<!-- initToken -->
<g id="node4" class="node">
<title>initToken</title>
<polygon fill="none" stroke="black" points="161.91,-88.5 161.91,-126.5 496.91,-126.5 496.91,-88.5 161.91,-88.5"/>
<text text-anchor="middle" x="329.41" y="-111.3" font-family="Times,serif" font-size="14.00">InitToken minting policy with token names:</text>
<text text-anchor="middle" x="329.41" y="-96.3" font-family="Times,serif" font-size="14.00">&quot;DsConfMint&quot;,&quot;CommitteeHashMint&quot;,&quot;CheckpointMint&quot;</text>
</g>
<!-- transaction&#45;&gt;initToken -->
<g id="edge2" class="edge">
<title>transaction&#45;&gt;initToken</title>
<path fill="none" stroke="black" d="M150.8,-182.42C183.71,-168.8 236.83,-146.82 276.59,-130.36"/>
<polygon fill="black" stroke="black" points="277.98,-133.57 285.88,-126.51 275.31,-127.1 277.98,-133.57"/>
<text text-anchor="middle" x="253.91" y="-148.8" font-family="Times,serif" font-size="14.00">mints</text>
</g>
<!-- initToken&#45;&gt;trustedWallet -->
<g id="edge4" class="edge">
<title>initToken&#45;&gt;trustedWallet</title>
<path fill="none" stroke="black" stroke-dasharray="5,2" d="M286.1,-88.47C252.66,-74.55 206.31,-55.26 171.13,-40.61"/>
<polygon fill="black" stroke="black" points="172.1,-37.23 161.53,-36.62 169.41,-43.69 172.1,-37.23"/>
<text text-anchor="middle" x="263.91" y="-58.8" font-family="Times,serif" font-size="14.00">is paid to</text>
</g>
</g>
</svg>
