<?xml version="1.0" encoding="UTF-8" standalone="no"?>
<!DOCTYPE svg PUBLIC "-//W3C//DTD SVG 1.1//EN"
 "http://www.w3.org/Graphics/SVG/1.1/DTD/svg11.dtd">
<!-- Generated by graphviz version 5.0.1 (0)
 -->
<!-- Pages: 1 -->
<svg width="965pt" height="310pt"
 viewBox="0.00 0.00 964.50 310.00" xmlns="http://www.w3.org/2000/svg" xmlns:xlink="http://www.w3.org/1999/xlink">
<g id="graph0" class="graph" transform="scale(1 1) rotate(0) translate(4 306)">
<polygon fill="white" stroke="none" points="-4,4 -4,-306 960.5,-306 960.5,4 -4,4"/>
<!-- genesisUTxO -->
<g id="node1" class="node">
<title>genesisUTxO</title>
<polygon fill="none" stroke="black" points="504,-265.5 504,-301.5 598,-301.5 598,-265.5 504,-265.5"/>
<text text-anchor="middle" x="551" y="-279.8" font-family="Times,serif" font-size="14.00">GenesisUTxO</text>
</g>
<!-- transaction -->
<g id="node2" class="node">
<title>transaction</title>
<polygon fill="none" stroke="black" points="551,-214 425.15,-196 551,-178 676.85,-196 551,-214"/>
<text text-anchor="middle" x="551" y="-192.3" font-family="Times,serif" font-size="14.00">Init tokens transaction</text>
</g>
<!-- genesisUTxO&#45;&gt;transaction -->
<g id="edge1" class="edge">
<title>genesisUTxO&#45;&gt;transaction</title>
<path fill="none" stroke="black" d="M551,-265.2C551,-253.49 551,-237.79 551,-224.4"/>
<polygon fill="black" stroke="black" points="554.5,-224.28 551,-214.28 547.5,-224.28 554.5,-224.28"/>
<text text-anchor="middle" x="565" y="-235.8" font-family="Times,serif" font-size="14.00">input</text>
</g>
<!-- committeeHashNFT -->
<g id="node3" class="node">
<title>committeeHashNFT</title>
<polygon fill="none" stroke="black" points="0,-88.5 0,-126.5 170,-126.5 170,-88.5 0,-88.5"/>
<text text-anchor="middle" x="85" y="-111.3" font-family="Times,serif" font-size="14.00">CommitteeHashPolicy NFT</text>
<text text-anchor="middle" x="85" y="-96.3" font-family="Times,serif" font-size="14.00">minting policy</text>
</g>
<!-- transaction&#45;&gt;committeeHashNFT -->
<g id="edge2" class="edge">
<title>transaction&#45;&gt;committeeHashNFT</title>
<path fill="none" stroke="black" d="M482.77,-187.71C430.79,-181.67 357.58,-172.13 294,-160 249.33,-151.48 199.9,-139.42 160.34,-129.12"/>
<polygon fill="black" stroke="black" points="161.06,-125.69 150.5,-126.54 159.28,-132.46 161.06,-125.69"/>
<text text-anchor="middle" x="309.5" y="-148.8" font-family="Times,serif" font-size="14.00">mints</text>
</g>
<!-- checkpointNFT -->
<g id="node4" class="node">
<title>checkpointNFT</title>
<polygon fill="none" stroke="black" points="206.5,-88.5 206.5,-126.5 349.5,-126.5 349.5,-88.5 206.5,-88.5"/>
<text text-anchor="middle" x="278" y="-111.3" font-family="Times,serif" font-size="14.00">CheckpointPolicy NFT</text>
<text text-anchor="middle" x="278" y="-96.3" font-family="Times,serif" font-size="14.00">minting policy</text>
</g>
<!-- transaction&#45;&gt;checkpointNFT -->
<g id="edge4" class="edge">
<title>transaction&#45;&gt;checkpointNFT</title>
<path fill="none" stroke="black" d="M480.61,-188.01C444.59,-182.92 400.53,-174.32 363,-160 344.81,-153.06 326.14,-142.23 310.94,-132.29"/>
<polygon fill="black" stroke="black" points="312.68,-129.24 302.43,-126.58 308.78,-135.06 312.68,-129.24"/>
<text text-anchor="middle" x="378.5" y="-148.8" font-family="Times,serif" font-size="14.00">mints</text>
</g>
<!-- trustedWallet -->
<g id="node5" class="node">
<title>trustedWallet</title>
<polygon fill="none" stroke="black" points="230.5,-0.5 230.5,-36.5 325.5,-36.5 325.5,-0.5 230.5,-0.5"/>
<text text-anchor="middle" x="278" y="-14.8" font-family="Times,serif" font-size="14.00">Trusted wallet</text>
</g>
<!-- transaction&#45;&gt;trustedWallet -->
<g id="edge6" class="edge">
<title>transaction&#45;&gt;trustedWallet</title>
<path fill="none" stroke="black" d="M527.34,-181.11C504.67,-167.66 469.64,-146.51 440,-127 393.65,-96.49 384.58,-85.15 338,-55 331.21,-50.61 323.88,-46.09 316.76,-41.81"/>
<polygon fill="black" stroke="black" points="318.28,-38.64 307.89,-36.55 314.7,-44.66 318.28,-38.64"/>
<text text-anchor="middle" x="457.5" y="-103.8" font-family="Times,serif" font-size="14.00">output</text>
</g>
<!-- dsConfMintNFT -->
<g id="node6" class="node">
<title>dsConfMintNFT</title>
<polygon fill="none" stroke="black" points="493.5,-88.5 493.5,-126.5 608.5,-126.5 608.5,-88.5 493.5,-88.5"/>
<text text-anchor="middle" x="551" y="-111.3" font-family="Times,serif" font-size="14.00">DsConfMint NFT</text>
<text text-anchor="middle" x="551" y="-96.3" font-family="Times,serif" font-size="14.00">minting policy</text>
</g>
<!-- transaction&#45;&gt;dsConfMintNFT -->
<g id="edge3" class="edge">
<title>transaction&#45;&gt;dsConfMintNFT</title>
<path fill="none" stroke="black" d="M551,-177.91C551,-166.26 551,-150.54 551,-137.01"/>
<polygon fill="black" stroke="black" points="554.5,-136.75 551,-126.75 547.5,-136.75 554.5,-136.75"/>
<text text-anchor="middle" x="566.5" y="-148.8" font-family="Times,serif" font-size="14.00">mints</text>
</g>
<!-- dsConfValidator -->
<g id="node7" class="node">
<title>dsConfValidator</title>
<polygon fill="none" stroke="black" points="565,-0.5 565,-36.5 673,-36.5 673,-0.5 565,-0.5"/>
<text text-anchor="middle" x="619" y="-14.8" font-family="Times,serif" font-size="14.00">DsConfValidator</text>
</g>
<!-- transaction&#45;&gt;dsConfValidator -->
<g id="edge7" class="edge">
<title>transaction&#45;&gt;dsConfValidator</title>
<path fill="none" stroke="black" d="M568.25,-180.15C575.35,-173.98 583.62,-166.7 591,-160 606.83,-145.62 613.55,-144.38 626,-127 642.21,-104.36 646.09,-97.21 652,-70 653.42,-63.49 654.44,-61.2 652,-55 650.59,-51.42 648.64,-47.99 646.37,-44.77"/>
<polygon fill="black" stroke="black" points="648.87,-42.29 639.83,-36.76 643.45,-46.72 648.87,-42.29"/>
<text text-anchor="middle" x="665.5" y="-103.8" font-family="Times,serif" font-size="14.00">output</text>
</g>
<!-- dsInsertValidator -->
<g id="node8" class="node">
<title>dsInsertValidator</title>
<polygon fill="none" stroke="black" points="777,-0.5 777,-36.5 889,-36.5 889,-0.5 777,-0.5"/>
<text text-anchor="middle" x="833" y="-14.8" font-family="Times,serif" font-size="14.00">DsInsertValidator</text>
</g>
<!-- transaction&#45;&gt;dsInsertValidator -->
<g id="edge8" class="edge">
<title>transaction&#45;&gt;dsInsertValidator</title>
<path fill="none" stroke="black" d="M580.83,-182.12C595.44,-175.69 613.25,-167.65 629,-160 657.43,-146.19 665.34,-143.98 692,-127 733.12,-100.82 777.33,-65.89 805.06,-43.06"/>
<polygon fill="black" stroke="black" points="807.31,-45.74 812.77,-36.67 802.84,-40.35 807.31,-45.74"/>
<text text-anchor="middle" x="765.5" y="-103.8" font-family="Times,serif" font-size="14.00">output</text>
</g>
<!-- dsKeyPolicy -->
<g id="node9" class="node">
<title>dsKeyPolicy</title>
<polygon fill="none" stroke="black" points="859.5,-88.5 859.5,-126.5 956.5,-126.5 956.5,-88.5 859.5,-88.5"/>
<text text-anchor="middle" x="908" y="-111.3" font-family="Times,serif" font-size="14.00">DsKeyPolicy</text>
<text text-anchor="middle" x="908" y="-96.3" font-family="Times,serif" font-size="14.00">minting policy</text>
</g>
<!-- transaction&#45;&gt;dsKeyPolicy -->
<g id="edge5" class="edge">
<title>transaction&#45;&gt;dsKeyPolicy</title>
<path fill="none" stroke="black" d="M644.29,-191.3C695.96,-187.14 760.73,-178.37 816,-160 835.93,-153.38 856.48,-142.34 873.09,-132.18"/>
<polygon fill="black" stroke="black" points="875.27,-134.95 881.88,-126.66 871.55,-129.02 875.27,-134.95"/>
<text text-anchor="middle" x="866.5" y="-148.8" font-family="Times,serif" font-size="14.00">mints</text>
</g>
<!-- committeeHashNFT&#45;&gt;trustedWallet -->
<g id="edge10" class="edge">
<title>committeeHashNFT&#45;&gt;trustedWallet</title>
<path fill="none" stroke="black" stroke-dasharray="5,2" d="M124.99,-88.47C155.74,-74.61 198.31,-55.42 230.74,-40.8"/>
<polygon fill="black" stroke="black" points="232.35,-43.92 240.03,-36.62 229.48,-37.53 232.35,-43.92"/>
<text text-anchor="middle" x="224.5" y="-58.8" font-family="Times,serif" font-size="14.00">is paid to</text>
</g>
<!-- checkpointNFT&#45;&gt;trustedWallet -->
<g id="edge9" class="edge">
<title>checkpointNFT&#45;&gt;trustedWallet</title>
<path fill="none" stroke="black" stroke-dasharray="5,2" d="M278,-88.47C278,-76.46 278,-60.43 278,-46.86"/>
<polygon fill="black" stroke="black" points="281.5,-46.62 278,-36.62 274.5,-46.62 281.5,-46.62"/>
<text text-anchor="middle" x="303.5" y="-58.8" font-family="Times,serif" font-size="14.00">is paid to</text>
</g>
<!-- dsConfMintNFT&#45;&gt;dsConfValidator -->
<g id="edge11" class="edge">
<title>dsConfMintNFT&#45;&gt;dsConfValidator</title>
<path fill="none" stroke="black" stroke-dasharray="5,2" d="M565.09,-88.47C574.95,-75.86 588.25,-58.84 599.18,-44.86"/>
<polygon fill="black" stroke="black" points="602.22,-46.65 605.62,-36.62 596.71,-42.34 602.22,-46.65"/>
<text text-anchor="middle" x="617.5" y="-58.8" font-family="Times,serif" font-size="14.00">is paid to</text>
</g>
<!-- dsKeyPolicy&#45;&gt;dsInsertValidator -->
<g id="edge12" class="edge">
<title>dsKeyPolicy&#45;&gt;dsInsertValidator</title>
<path fill="none" stroke="black" stroke-dasharray="5,2" d="M892.46,-88.47C881.48,-75.74 866.63,-58.52 854.52,-44.46"/>
<polygon fill="black" stroke="black" points="856.94,-41.9 847.75,-36.62 851.63,-46.47 856.94,-41.9"/>
<text text-anchor="middle" x="900.5" y="-58.8" font-family="Times,serif" font-size="14.00">is paid to</text>
</g>
</g>
</svg>
