<?xml version="1.0" encoding="UTF-8" standalone="no"?>
<!DOCTYPE svg PUBLIC "-//W3C//DTD SVG 1.1//EN"
 "http://www.w3.org/Graphics/SVG/1.1/DTD/svg11.dtd">
<!-- Generated by graphviz version 5.0.1 (0)
 -->
<!-- Pages: 1 -->
<svg width="673pt" height="224pt"
 viewBox="0.00 0.00 672.57 224.00" xmlns="http://www.w3.org/2000/svg" xmlns:xlink="http://www.w3.org/1999/xlink">
<g id="graph0" class="graph" transform="scale(1 1) rotate(0) translate(4 220)">
<polygon fill="white" stroke="none" points="-4,4 -4,-220 668.57,-220 668.57,4 -4,4"/>
<!-- trustedWallet -->
<g id="node1" class="node">
<title>trustedWallet</title>
<polygon fill="none" stroke="black" points="213.57,-177.5 213.57,-215.5 477.57,-215.5 477.57,-177.5 213.57,-177.5"/>
<text text-anchor="middle" x="345.57" y="-200.3" font-family="Times,serif" font-size="14.00">Trusted wallet UTxO with tokens for</text>
<text text-anchor="middle" x="345.57" y="-185.3" font-family="Times,serif" font-size="14.00">CommitteeHashPolicy and CheckpointPolicy</text>
</g>
<!-- transaction -->
<g id="node2" class="node">
<title>transaction</title>
<polygon fill="none" stroke="black" points="345.57,-126 204.8,-108 345.57,-90 486.33,-108 345.57,-126"/>
<text text-anchor="middle" x="345.57" y="-104.3" font-family="Times,serif" font-size="14.00">Init sidechain transaction</text>
</g>
<!-- trustedWallet&#45;&gt;transaction -->
<g id="edge1" class="edge">
<title>trustedWallet&#45;&gt;transaction</title>
<path fill="none" stroke="black" d="M345.57,-177.16C345.57,-165.26 345.57,-149.55 345.57,-136.21"/>
<polygon fill="black" stroke="black" points="349.07,-136.14 345.57,-126.14 342.07,-136.14 349.07,-136.14"/>
<text text-anchor="middle" x="359.57" y="-147.8" font-family="Times,serif" font-size="14.00">input</text>
</g>
<!-- committteeHashValidator -->
<g id="node3" class="node">
<title>committteeHashValidator</title>
<polygon fill="none" stroke="black" points="49.07,-0.5 49.07,-38.5 256.07,-38.5 256.07,-0.5 49.07,-0.5"/>
<text text-anchor="middle" x="152.57" y="-23.3" font-family="Times,serif" font-size="14.00">CommitteeHashValidator validator</text>
<text text-anchor="middle" x="152.57" y="-8.3" font-family="Times,serif" font-size="14.00">with the initial committee</text>
</g>
<!-- trustedWallet&#45;&gt;committteeHashValidator -->
<g id="edge3" class="edge">
<title>trustedWallet&#45;&gt;committteeHashValidator</title>
<path fill="none" stroke="black" stroke-dasharray="5,2" d="M213.37,-185.18C130.5,-175.65 34.6,-157.95 8.57,-126 -20.4,-90.45 32.22,-60.75 81.8,-42.02"/>
<polygon fill="black" stroke="black" points="83.13,-45.25 91.32,-38.53 80.73,-38.68 83.13,-45.25"/>
<text text-anchor="middle" x="97.57" y="-104.3" font-family="Times,serif" font-size="14.00">CommitteeHashPolicy is paid to</text>
</g>
<!-- checkpointValidator -->
<g id="node4" class="node">
<title>checkpointValidator</title>
<polygon fill="none" stroke="black" points="400.57,-1.5 400.57,-37.5 580.57,-37.5 580.57,-1.5 400.57,-1.5"/>
<text text-anchor="middle" x="490.57" y="-15.8" font-family="Times,serif" font-size="14.00">CheckpointValidator validator</text>
</g>
<!-- trustedWallet&#45;&gt;checkpointValidator -->
<g id="edge5" class="edge">
<title>trustedWallet&#45;&gt;checkpointValidator</title>
<path fill="none" stroke="black" stroke-dasharray="5,2" d="M432.78,-177.46C460.48,-167.17 488.16,-151.08 504.57,-126 519.9,-102.57 512.17,-69.9 503.31,-47.15"/>
<polygon fill="black" stroke="black" points="506.47,-45.63 499.37,-37.76 500.01,-48.33 506.47,-45.63"/>
<text text-anchor="middle" x="589.07" y="-104.3" font-family="Times,serif" font-size="14.00">CheckpointPolicy is paid to</text>
</g>
<!-- transaction&#45;&gt;committteeHashValidator -->
<g id="edge2" class="edge">
<title>transaction&#45;&gt;committteeHashValidator</title>
<path fill="none" stroke="black" d="M315.83,-93.67C285.55,-80.1 238.06,-58.82 202.09,-42.69"/>
<polygon fill="black" stroke="black" points="203.3,-39.4 192.74,-38.5 200.43,-45.79 203.3,-39.4"/>
<text text-anchor="middle" x="284.07" y="-60.8" font-family="Times,serif" font-size="14.00">output</text>
</g>
<!-- transaction&#45;&gt;checkpointValidator -->
<g id="edge4" class="edge">
<title>transaction&#45;&gt;checkpointValidator</title>
<path fill="none" stroke="black" d="M369.19,-92.91C391.97,-79.32 426.81,-58.54 453.33,-42.72"/>
<polygon fill="black" stroke="black" points="455.18,-45.69 461.97,-37.56 451.59,-39.68 455.18,-45.69"/>
<text text-anchor="middle" x="445.07" y="-60.8" font-family="Times,serif" font-size="14.00">output</text>
</g>
</g>
</svg>
