<?xml version="1.0" encoding="UTF-8" standalone="no"?>
<!DOCTYPE svg PUBLIC "-//W3C//DTD SVG 1.1//EN"
 "http://www.w3.org/Graphics/SVG/1.1/DTD/svg11.dtd">
<!-- Generated by graphviz version 5.0.1 (0)
 -->
<!-- Pages: 1 -->
<svg width="192pt" height="267pt"
 viewBox="0.00 0.00 192.00 267.00" xmlns="http://www.w3.org/2000/svg" xmlns:xlink="http://www.w3.org/1999/xlink">
<g id="graph0" class="graph" transform="scale(1 1) rotate(0) translate(4 263)">
<polygon fill="white" stroke="none" points="-4,4 -4,-263 188,-263 188,4 -4,4"/>
<g id="clust1" class="cluster">
<title>cluster_mainchain</title>
<path fill="none" stroke="black" d="M51.5,-124C51.5,-124 131.5,-124 131.5,-124 137.5,-124 143.5,-130 143.5,-136 143.5,-136 143.5,-239 143.5,-239 143.5,-245 137.5,-251 131.5,-251 131.5,-251 51.5,-251 51.5,-251 45.5,-251 39.5,-245 39.5,-239 39.5,-239 39.5,-136 39.5,-136 39.5,-130 45.5,-124 51.5,-124"/>
<text text-anchor="middle" x="91.5" y="-131.8" font-family="Times,serif" font-size="14.00">Mainchain</text>
</g>
<!-- data -->
<g id="node1" class="node">
<title>data</title>
<polygon fill="lightgrey" stroke="black" points="135.5,-243 47.5,-243 47.5,-155 135.5,-155 135.5,-243"/>
<text text-anchor="middle" x="91.5" y="-195.3" font-family="Times,serif" font-size="14.00">Original data</text>
</g>
<!-- sidechain_a_bridge -->
<g id="node2" class="node">
<title>sidechain_a_bridge</title>
<path fill="none" stroke="black" d="M71,-83C71,-83 12,-83 12,-83 6,-83 0,-77 0,-71 0,-71 0,-12 0,-12 0,-6 6,0 12,0 12,0 71,0 71,0 77,0 83,-6 83,-12 83,-12 83,-71 83,-71 83,-77 77,-83 71,-83"/>
<text text-anchor="middle" x="41.5" y="-45.3" font-family="Times,serif" font-size="14.00">Bridge for</text>
<text text-anchor="middle" x="41.5" y="-30.3" font-family="Times,serif" font-size="14.00">Sidechain A</text>
</g>
<!-- sidechain_a_bridge&#45;&gt;data -->
<g id="edge1" class="edge">
<title>sidechain_a_bridge&#45;&gt;data</title>
<path fill="none" stroke="black" d="M39.7,-83.11C40.15,-93.96 41.49,-105.57 44.5,-116 47.39,-126.04 51.75,-136.15 56.67,-145.69"/>
<polygon fill="black" stroke="black" points="53.68,-147.51 61.53,-154.63 59.83,-144.17 53.68,-147.51"/>
<text text-anchor="middle" x="82.5" y="-104.8" font-family="Times,serif" font-size="14.00"> Broadcasting</text>
</g>
<!-- sidechain_b_bridge -->
<g id="node3" class="node">
<title>sidechain_b_bridge</title>
<path fill="none" stroke="black" d="M172,-83C172,-83 113,-83 113,-83 107,-83 101,-77 101,-71 101,-71 101,-12 101,-12 101,-6 107,0 113,0 113,0 172,0 172,0 178,0 184,-6 184,-12 184,-12 184,-71 184,-71 184,-77 178,-83 172,-83"/>
<text text-anchor="middle" x="142.5" y="-45.3" font-family="Times,serif" font-size="14.00">Bridge for</text>
<text text-anchor="middle" x="142.5" y="-30.3" font-family="Times,serif" font-size="14.00">Sidechain B</text>
</g>
<!-- sidechain_b_bridge&#45;&gt;data -->
<g id="edge2" class="edge">
<title>sidechain_b_bridge&#45;&gt;data</title>
<path fill="none" stroke="black" stroke-dasharray="1,5" d="M130.75,-83.05C127.53,-93.79 123.97,-105.36 120.5,-116 117.41,-125.47 113.98,-135.51 110.6,-145.2"/>
<polygon fill="black" stroke="black" points="107.27,-144.13 107.25,-154.73 113.87,-146.46 107.27,-144.13"/>
<text text-anchor="middle" x="154" y="-104.8" font-family="Times,serif" font-size="14.00">Observing</text>
</g>
</g>
</svg>
