<?xml version="1.0" encoding="UTF-8" standalone="no"?>
<!DOCTYPE svg PUBLIC "-//W3C//DTD SVG 1.1//EN"
 "http://www.w3.org/Graphics/SVG/1.1/DTD/svg11.dtd">
<!-- Generated by graphviz version 5.0.1 (0)
 -->
<!-- Pages: 1 -->
<svg width="265pt" height="250pt"
 viewBox="0.00 0.00 265.00 250.00" xmlns="http://www.w3.org/2000/svg" xmlns:xlink="http://www.w3.org/1999/xlink">
<g id="graph0" class="graph" transform="scale(1 1) rotate(0) translate(4 246)">
<polygon fill="white" stroke="none" points="-4,4 -4,-246 261,-246 261,4 -4,4"/>
<g id="clust1" class="cluster">
<title>cluster_mainchain</title>
<path fill="none" stroke="black" d="M105.5,-124C105.5,-124 169.5,-124 169.5,-124 175.5,-124 181.5,-130 181.5,-136 181.5,-136 181.5,-222 181.5,-222 181.5,-228 175.5,-234 169.5,-234 169.5,-234 105.5,-234 105.5,-234 99.5,-234 93.5,-228 93.5,-222 93.5,-222 93.5,-136 93.5,-136 93.5,-130 99.5,-124 105.5,-124"/>
<text text-anchor="middle" x="131" y="-131.8" font-family="Times,serif" font-size="14.00">Mainchain</text>
</g>
<!-- dataHash -->
<g id="node1" class="node">
<title>dataHash</title>
<polygon fill="lightgrey" stroke="black" points="173,-226 102,-226 102,-155 173,-155 173,-226"/>
<text text-anchor="middle" x="137.5" y="-186.8" font-family="Times,serif" font-size="14.00">Data hash</text>
</g>
<!-- sidechain_a_bridge -->
<g id="node2" class="node">
<title>sidechain_a_bridge</title>
<path fill="none" stroke="black" d="M71,-83C71,-83 12,-83 12,-83 6,-83 0,-77 0,-71 0,-71 0,-12 0,-12 0,-6 6,0 12,0 12,0 71,0 71,0 77,0 83,-6 83,-12 83,-12 83,-71 83,-71 83,-77 77,-83 71,-83"/>
<text text-anchor="middle" x="41.5" y="-45.3" font-family="Times,serif" font-size="14.00">Bridge for</text>
<text text-anchor="middle" x="41.5" y="-30.3" font-family="Times,serif" font-size="14.00">Sidechain A</text>
</g>
<!-- sidechain_a_bridge&#45;&gt;dataHash -->
<g id="edge1" class="edge">
<title>sidechain_a_bridge&#45;&gt;dataHash</title>
<path fill="none" stroke="black" d="M67.99,-83.06C80.75,-102.6 96.07,-126.06 109.08,-145.98"/>
<polygon fill="black" stroke="black" points="106.29,-148.11 114.68,-154.56 112.15,-144.28 106.29,-148.11"/>
<text text-anchor="middle" x="127.5" y="-104.8" font-family="Times,serif" font-size="14.00"> Broadcasting</text>
</g>
<!-- sidechain_b_bridge -->
<g id="node3" class="node">
<title>sidechain_b_bridge</title>
<path fill="none" stroke="black" d="M245,-83C245,-83 186,-83 186,-83 180,-83 174,-77 174,-71 174,-71 174,-12 174,-12 174,-6 180,0 186,0 186,0 245,0 245,0 251,0 257,-6 257,-12 257,-12 257,-71 257,-71 257,-77 251,-83 245,-83"/>
<text text-anchor="middle" x="215.5" y="-45.3" font-family="Times,serif" font-size="14.00">Bridge for</text>
<text text-anchor="middle" x="215.5" y="-30.3" font-family="Times,serif" font-size="14.00">Sidechain B</text>
</g>
<!-- sidechain_a_bridge&#45;&gt;sidechain_b_bridge -->
<g id="edge3" class="edge">
<title>sidechain_a_bridge&#45;&gt;sidechain_b_bridge</title>
<path fill="none" stroke="black" d="M83.18,-41.5C107.3,-41.5 137.87,-41.5 163.56,-41.5"/>
<polygon fill="black" stroke="black" points="163.86,-45 173.86,-41.5 163.86,-38 163.86,-45"/>
<text text-anchor="middle" x="128.5" y="-27.3" font-family="Times,serif" font-size="14.00">Send directly</text>
</g>
<!-- sidechain_b_bridge&#45;&gt;dataHash -->
<g id="edge2" class="edge">
<title>sidechain_b_bridge&#45;&gt;dataHash</title>
<path fill="none" stroke="black" stroke-dasharray="1,5" d="M193.98,-83.06C183.66,-102.51 171.27,-125.85 160.74,-145.71"/>
<polygon fill="black" stroke="black" points="157.63,-144.09 156.04,-154.56 163.82,-147.37 157.63,-144.09"/>
<text text-anchor="middle" x="208.5" y="-104.8" font-family="Times,serif" font-size="14.00">Verifying</text>
</g>
</g>
</svg>
