<?xml version="1.0" encoding="UTF-8" standalone="no"?>
<!DOCTYPE svg PUBLIC "-//W3C//DTD SVG 1.1//EN"
 "http://www.w3.org/Graphics/SVG/1.1/DTD/svg11.dtd">
<!-- Generated by graphviz version 5.0.1 (0)
 -->
<!-- Pages: 1 -->
<svg width="248pt" height="217pt"
 viewBox="0.00 0.00 248.00 217.00" xmlns="http://www.w3.org/2000/svg" xmlns:xlink="http://www.w3.org/1999/xlink">
<g id="graph0" class="graph" transform="scale(1 1) rotate(0) translate(4 213)">
<polygon fill="white" stroke="none" points="-4,4 -4,-213 244,-213 244,4 -4,4"/>
<!-- mainchain -->
<g id="node1" class="node">
<title>mainchain</title>
<path fill="none" stroke="black" d="M145,-209C145,-209 94,-209 94,-209 88,-209 82,-203 82,-197 82,-197 82,-146 82,-146 82,-140 88,-134 94,-134 94,-134 145,-134 145,-134 151,-134 157,-140 157,-146 157,-146 157,-197 157,-197 157,-203 151,-209 145,-209"/>
<text text-anchor="middle" x="119.5" y="-167.8" font-family="Times,serif" font-size="14.00">Mainchain</text>
</g>
<!-- sidechain_a -->
<g id="node2" class="node">
<title>sidechain_a</title>
<path fill="none" stroke="black" d="M71,-83C71,-83 12,-83 12,-83 6,-83 0,-77 0,-71 0,-71 0,-12 0,-12 0,-6 6,0 12,0 12,0 71,0 71,0 77,0 83,-6 83,-12 83,-12 83,-71 83,-71 83,-77 77,-83 71,-83"/>
<text text-anchor="middle" x="41.5" y="-37.8" font-family="Times,serif" font-size="14.00">Sidechain A</text>
</g>
<!-- mainchain&#45;&gt;sidechain_a -->
<g id="edge1" class="edge">
<title>mainchain&#45;&gt;sidechain_a</title>
<path fill="none" stroke="black" d="M97.15,-133.82C89.17,-120.73 80.05,-105.76 71.53,-91.78"/>
<polygon fill="black" stroke="black" points="74.51,-89.95 66.32,-83.23 68.53,-93.59 74.51,-89.95"/>
<text text-anchor="middle" x="120.5" y="-104.8" font-family="Times,serif" font-size="14.00"> Downwards</text>
</g>
<!-- sidechain_b -->
<g id="node3" class="node">
<title>sidechain_b</title>
<path fill="none" stroke="black" d="M228,-83C228,-83 169,-83 169,-83 163,-83 157,-77 157,-71 157,-71 157,-12 157,-12 157,-6 163,0 169,0 169,0 228,0 228,0 234,0 240,-6 240,-12 240,-12 240,-71 240,-71 240,-77 234,-83 228,-83"/>
<text text-anchor="middle" x="198.5" y="-37.8" font-family="Times,serif" font-size="14.00">Sidechain B</text>
</g>
<!-- sidechain_a&#45;&gt;sidechain_b -->
<g id="edge3" class="edge">
<title>sidechain_a&#45;&gt;sidechain_b</title>
<path fill="none" stroke="black" d="M93.35,-41.5C110.44,-41.5 129.45,-41.5 146.55,-41.5"/>
<polygon fill="black" stroke="black" points="93.16,-38 83.16,-41.5 93.16,-45 93.16,-38"/>
<polygon fill="black" stroke="black" points="146.92,-45 156.92,-41.5 146.92,-38 146.92,-45"/>
<text text-anchor="middle" x="120" y="-48.3" font-family="Times,serif" font-size="14.00"> Sideways</text>
</g>
<!-- sidechain_b&#45;&gt;mainchain -->
<g id="edge2" class="edge">
<title>sidechain_b&#45;&gt;mainchain</title>
<path fill="none" stroke="black" d="M173.36,-83.23C165.14,-96.55 155.96,-111.42 147.54,-125.06"/>
<polygon fill="black" stroke="black" points="144.41,-123.47 142.14,-133.82 150.37,-127.15 144.41,-123.47"/>
<text text-anchor="middle" x="193" y="-104.8" font-family="Times,serif" font-size="14.00"> Upwards</text>
</g>
</g>
</svg>
