<?xml version="1.0" encoding="UTF-8" standalone="no"?>
<!DOCTYPE svg PUBLIC "-//W3C//DTD SVG 1.1//EN"
 "http://www.w3.org/Graphics/SVG/1.1/DTD/svg11.dtd">
<!-- Generated by graphviz version 2.49.3 (0)
 -->
<!-- Pages: 1 -->
<svg width="326pt" height="209pt"
 viewBox="0.00 0.00 326.00 209.00" xmlns="http://www.w3.org/2000/svg" xmlns:xlink="http://www.w3.org/1999/xlink">
<g id="graph0" class="graph" transform="scale(1 1) rotate(0) translate(4 205)">
<polygon fill="white" stroke="transparent" points="-4,4 -4,-205 322,-205 322,4 -4,4"/>
<!-- atmsVKey -->
<g id="node1" class="node">
<title>atmsVKey</title>
<polygon fill="none" stroke="black" points="29,-164.5 29,-200.5 289,-200.5 289,-164.5 29,-164.5"/>
<text text-anchor="middle" x="87.5" y="-178.8" font-family="Times,serif" font-size="14.00">UTxO with datum</text>
<polyline fill="none" stroke="black" points="146,-164.5 146,-200.5 "/>
<text text-anchor="middle" x="217.5" y="-178.8" font-family="Times,serif" font-size="14.00">ATMS verification key</text>
</g>
<!-- mintToken -->
<g id="node2" class="node">
<title>mintToken</title>
<polygon fill="none" stroke="black" points="0,-74.5 0,-112.5 318,-112.5 318,-74.5 0,-74.5"/>
<text text-anchor="middle" x="68" y="-89.8" font-family="Times,serif" font-size="14.00">Mint MPTRootToken</text>
<polyline fill="none" stroke="black" points="136,-74.5 136,-112.5 "/>
<text text-anchor="start" x="144" y="-97.3" font-family="Times,serif" font-size="14.00">redeemer: SignedMerkleRoot </text>
<text text-anchor="start" x="144" y="-82.3" font-family="Times,serif" font-size="14.00"> tx body: minted tokens</text>
</g>
<!-- atmsVKey&#45;&gt;mintToken -->
<g id="edge1" class="edge">
<title>atmsVKey&#45;&gt;mintToken</title>
<path fill="none" stroke="black" stroke-dasharray="5,2" d="M159,-164.31C159,-152.51 159,-136.57 159,-122.9"/>
<polygon fill="black" stroke="black" points="162.5,-122.55 159,-112.55 155.5,-122.55 162.5,-122.55"/>
<text text-anchor="middle" x="202.5" y="-134.8" font-family="Times,serif" font-size="14.00">Reference input</text>
</g>
<!-- mptRootAddr -->
<g id="node3" class="node">
<title>mptRootAddr</title>
<polygon fill="none" stroke="black" points="84.5,-0.5 84.5,-36.5 233.5,-36.5 233.5,-0.5 84.5,-0.5"/>
<text text-anchor="middle" x="159" y="-14.8" font-family="Times,serif" font-size="14.00">MPT root script address</text>
</g>
<!-- mintToken&#45;&gt;mptRootAddr -->
<g id="edge2" class="edge">
<title>mintToken&#45;&gt;mptRootAddr</title>
<path fill="none" stroke="black" d="M159,-74.46C159,-66.2 159,-56.24 159,-47.07"/>
<polygon fill="black" stroke="black" points="162.5,-46.83 159,-36.83 155.5,-46.83 162.5,-46.83"/>
</g>
</g>
</svg>
