<?xml version="1.0" encoding="UTF-8" standalone="no"?>
<!DOCTYPE svg PUBLIC "-//W3C//DTD SVG 1.1//EN"
 "http://www.w3.org/Graphics/SVG/1.1/DTD/svg11.dtd">
<!-- Generated by graphviz version 2.49.3 (0)
 -->
<!-- Pages: 1 -->
<svg width="397pt" height="209pt"
 viewBox="0.00 0.00 397.00 209.00" xmlns="http://www.w3.org/2000/svg" xmlns:xlink="http://www.w3.org/1999/xlink">
<g id="graph0" class="graph" transform="scale(1 1) rotate(0) translate(4 205)">
<polygon fill="white" stroke="transparent" points="-4,4 -4,-205 393,-205 393,4 -4,4"/>
<!-- pubKey -->
<g id="node1" class="node">
<title>pubKey</title>
<polygon fill="none" stroke="black" points="84,-164.5 84,-200.5 305,-200.5 305,-164.5 84,-164.5"/>
<text text-anchor="middle" x="142.5" y="-178.8" font-family="Times,serif" font-size="14.00">UTxO with datum</text>
<polyline fill="none" stroke="black" points="201,-164.5 201,-200.5 "/>
<text text-anchor="middle" x="253" y="-178.8" font-family="Times,serif" font-size="14.00">committee hash</text>
</g>
<!-- tx -->
<g id="node3" class="node">
<title>tx</title>
<polygon fill="none" stroke="black" points="0,-74.5 0,-112.5 389,-112.5 389,-74.5 0,-74.5"/>
<text text-anchor="middle" x="79" y="-89.8" font-family="Times,serif" font-size="14.00">Verification key update tx</text>
<polyline fill="none" stroke="black" points="158,-74.5 158,-112.5 "/>
<text text-anchor="start" x="166" y="-97.3" font-family="Times,serif" font-size="14.00">redeemer: UpdateCommitteeRedeemer</text>
<text text-anchor="start" x="166" y="-82.3" font-family="Times,serif" font-size="14.00"> tx in: committee hash UTxO</text>
</g>
<!-- pubKey&#45;&gt;tx -->
<g id="edge1" class="edge">
<title>pubKey&#45;&gt;tx</title>
<path fill="none" stroke="black" d="M194.5,-164.31C194.5,-152.51 194.5,-136.57 194.5,-122.9"/>
<polygon fill="black" stroke="black" points="198,-122.55 194.5,-112.55 191,-122.55 198,-122.55"/>
<text text-anchor="middle" x="222" y="-134.8" font-family="Times,serif" font-size="14.00">consumes</text>
</g>
<!-- newPubKey -->
<g id="node2" class="node">
<title>newPubKey</title>
<polygon fill="none" stroke="black" points="84,-0.5 84,-36.5 305,-36.5 305,-0.5 84,-0.5"/>
<text text-anchor="middle" x="142.5" y="-14.8" font-family="Times,serif" font-size="14.00">UTxO with datum</text>
<polyline fill="none" stroke="black" points="201,-0.5 201,-36.5 "/>
<text text-anchor="middle" x="253" y="-14.8" font-family="Times,serif" font-size="14.00">committee hash</text>
</g>
<!-- tx&#45;&gt;newPubKey -->
<g id="edge2" class="edge">
<title>tx&#45;&gt;newPubKey</title>
<path fill="none" stroke="black" d="M194.5,-74.46C194.5,-66.2 194.5,-56.24 194.5,-47.07"/>
<polygon fill="black" stroke="black" points="198,-46.83 194.5,-36.83 191,-46.83 198,-46.83"/>
</g>
</g>
</svg>
