<?xml version="1.0" encoding="UTF-8" standalone="no"?>
<!DOCTYPE svg PUBLIC "-//W3C//DTD SVG 1.1//EN"
 "http://www.w3.org/Graphics/SVG/1.1/DTD/svg11.dtd">
<!-- Generated by graphviz version 2.49.3 (0)
 -->
<!-- Pages: 1 -->
<svg width="431pt" height="207pt"
 viewBox="0.00 0.00 431.00 207.00" xmlns="http://www.w3.org/2000/svg" xmlns:xlink="http://www.w3.org/1999/xlink">
<g id="graph0" class="graph" transform="scale(1 1) rotate(0) translate(4 203)">
<polygon fill="white" stroke="transparent" points="-4,4 -4,-203 427,-203 427,4 -4,4"/>
<!-- pubKey -->
<g id="node1" class="node">
<title>pubKey</title>
<polygon fill="none" stroke="black" points="81.5,-162.5 81.5,-198.5 341.5,-198.5 341.5,-162.5 81.5,-162.5"/>
<text text-anchor="middle" x="140" y="-176.8" font-family="Times,serif" font-size="14.00">UTxO with datum</text>
<polyline fill="none" stroke="black" points="198.5,-162.5 198.5,-198.5 "/>
<text text-anchor="middle" x="270" y="-176.8" font-family="Times,serif" font-size="14.00">ATMS verification key</text>
</g>
<!-- tx -->
<g id="node3" class="node">
<title>tx</title>
<polygon fill="none" stroke="black" points="0,-74.5 0,-110.5 423,-110.5 423,-74.5 0,-74.5"/>
<text text-anchor="middle" x="79" y="-88.8" font-family="Times,serif" font-size="14.00">Verification key update tx</text>
<polyline fill="none" stroke="black" points="158,-74.5 158,-110.5 "/>
<text text-anchor="middle" x="290.5" y="-88.8" font-family="Times,serif" font-size="14.00">redeemer: signature tx in: ATMS vkey UTxO</text>
</g>
<!-- pubKey&#45;&gt;tx -->
<g id="edge1" class="edge">
<title>pubKey&#45;&gt;tx</title>
<path fill="none" stroke="black" d="M211.5,-162.1C211.5,-150.25 211.5,-134.32 211.5,-120.79"/>
<polygon fill="black" stroke="black" points="215,-120.58 211.5,-110.58 208,-120.58 215,-120.58"/>
<text text-anchor="middle" x="239" y="-132.8" font-family="Times,serif" font-size="14.00">consumes</text>
</g>
<!-- newPubKey -->
<g id="node2" class="node">
<title>newPubKey</title>
<polygon fill="none" stroke="black" points="81.5,-0.5 81.5,-36.5 341.5,-36.5 341.5,-0.5 81.5,-0.5"/>
<text text-anchor="middle" x="140" y="-14.8" font-family="Times,serif" font-size="14.00">UTxO with datum</text>
<polyline fill="none" stroke="black" points="198.5,-0.5 198.5,-36.5 "/>
<text text-anchor="middle" x="270" y="-14.8" font-family="Times,serif" font-size="14.00">ATMS verification key</text>
</g>
<!-- tx&#45;&gt;newPubKey -->
<g id="edge2" class="edge">
<title>tx&#45;&gt;newPubKey</title>
<path fill="none" stroke="black" d="M211.5,-74.44C211.5,-66.31 211.5,-56.38 211.5,-47.2"/>
<polygon fill="black" stroke="black" points="215,-46.94 211.5,-36.94 208,-46.94 215,-46.94"/>
</g>
</g>
</svg>
