<?xml version="1.0" encoding="UTF-8" standalone="no"?>
<!DOCTYPE svg PUBLIC "-//W3C//DTD SVG 1.1//EN"
 "http://www.w3.org/Graphics/SVG/1.1/DTD/svg11.dtd">
<!-- Generated by graphviz version 3.0.0 (0)
 -->
<!-- Pages: 1 -->
<svg width="446pt" height="209pt"
 viewBox="0.00 0.00 446.00 209.00" xmlns="http://www.w3.org/2000/svg" xmlns:xlink="http://www.w3.org/1999/xlink">
<g id="graph0" class="graph" transform="scale(1 1) rotate(0) translate(4 205)">
<polygon fill="white" stroke="transparent" points="-4,4 -4,-205 442,-205 442,4 -4,4"/>
<!-- pubKey -->
<g id="node1" class="node">
<title>pubKey</title>
<polygon fill="none" stroke="black" points="0,-164.5 0,-200.5 221,-200.5 221,-164.5 0,-164.5"/>
<text text-anchor="middle" x="58.5" y="-178.8" font-family="Times,serif" font-size="14.00">UTxO with datum</text>
<polyline fill="none" stroke="black" points="117,-164.5 117,-200.5 "/>
<text text-anchor="middle" x="169" y="-178.8" font-family="Times,serif" font-size="14.00">committee hash</text>
</g>
<!-- tx -->
<g id="node4" class="node">
<title>tx</title>
<polygon fill="none" stroke="black" points="30,-74.5 30,-112.5 419,-112.5 419,-74.5 30,-74.5"/>
<text text-anchor="middle" x="109" y="-89.8" font-family="Times,serif" font-size="14.00">Verification key update tx</text>
<polyline fill="none" stroke="black" points="188,-74.5 188,-112.5 "/>
<text text-anchor="start" x="196" y="-97.3" font-family="Times,serif" font-size="14.00">redeemer: UpdateCommitteeRedeemer</text>
<text text-anchor="start" x="196" y="-82.3" font-family="Times,serif" font-size="14.00"> tx in: committee hash UTxO</text>
</g>
<!-- pubKey&#45;&gt;tx -->
<g id="edge2" class="edge">
<title>pubKey&#45;&gt;tx</title>
<path fill="none" stroke="black" d="M133.02,-164.31C150.09,-151.28 173.77,-133.21 192.76,-118.72"/>
<polygon fill="black" stroke="black" points="195.02,-121.4 200.85,-112.55 190.77,-115.84 195.02,-121.4"/>
<text text-anchor="middle" x="202" y="-134.8" font-family="Times,serif" font-size="14.00">consumes</text>
</g>
<!-- merkleRoot -->
<g id="node2" class="node">
<title>merkleRoot</title>
<polygon fill="none" stroke="black" points="239,-164.5 239,-200.5 438,-200.5 438,-164.5 239,-164.5"/>
<text text-anchor="middle" x="297.5" y="-178.8" font-family="Times,serif" font-size="14.00">UTxO with datum</text>
<polyline fill="none" stroke="black" points="356,-164.5 356,-200.5 "/>
<text text-anchor="middle" x="397" y="-178.8" font-family="Times,serif" font-size="14.00">Merkle root</text>
</g>
<!-- merkleRoot&#45;&gt;tx -->
<g id="edge1" class="edge">
<title>merkleRoot&#45;&gt;tx</title>
<path fill="none" stroke="black" stroke-dasharray="5,2" d="M315.98,-164.31C298.91,-151.28 275.23,-133.21 256.24,-118.72"/>
<polygon fill="black" stroke="black" points="258.23,-115.84 248.15,-112.55 253.98,-121.4 258.23,-115.84"/>
<text text-anchor="middle" x="319.5" y="-134.8" font-family="Times,serif" font-size="14.00">references</text>
</g>
<!-- newPubKey -->
<g id="node3" class="node">
<title>newPubKey</title>
<polygon fill="none" stroke="black" points="114,-0.5 114,-36.5 335,-36.5 335,-0.5 114,-0.5"/>
<text text-anchor="middle" x="172.5" y="-14.8" font-family="Times,serif" font-size="14.00">UTxO with datum</text>
<polyline fill="none" stroke="black" points="231,-0.5 231,-36.5 "/>
<text text-anchor="middle" x="283" y="-14.8" font-family="Times,serif" font-size="14.00">committee hash</text>
</g>
<!-- tx&#45;&gt;newPubKey -->
<g id="edge3" class="edge">
<title>tx&#45;&gt;newPubKey</title>
<path fill="none" stroke="black" d="M224.5,-74.46C224.5,-66.2 224.5,-56.24 224.5,-47.07"/>
<polygon fill="black" stroke="black" points="228,-46.83 224.5,-36.83 221,-46.83 228,-46.83"/>
</g>
</g>
</svg>
