<?xml version="1.0" encoding="UTF-8" standalone="no"?>
<!DOCTYPE svg PUBLIC "-//W3C//DTD SVG 1.1//EN"
 "http://www.w3.org/Graphics/SVG/1.1/DTD/svg11.dtd">
<!-- Generated by graphviz version 5.0.1 (0)
 -->
<!-- Pages: 1 -->
<svg width="450pt" height="213pt"
 viewBox="0.00 0.00 449.50 213.00" xmlns="http://www.w3.org/2000/svg" xmlns:xlink="http://www.w3.org/1999/xlink">
<g id="graph0" class="graph" transform="scale(1 1) rotate(0) translate(4 209)">
<polygon fill="white" stroke="none" points="-4,4 -4,-209 445.5,-209 445.5,4 -4,4"/>
<!-- pubKey -->
<g id="node1" class="node">
<title>pubKey</title>
<polygon fill="none" stroke="black" points="0,-166.5 0,-204.5 224,-204.5 224,-166.5 0,-166.5"/>
<text text-anchor="middle" x="58.5" y="-181.8" font-family="Times,serif" font-size="14.00">UTxO with datum</text>
<polyline fill="none" stroke="black" points="117,-166.5 117,-204.5"/>
<text text-anchor="start" x="125" y="-189.3" font-family="Times,serif" font-size="14.00">committee hash</text>
<text text-anchor="start" x="125" y="-174.3" font-family="Times,serif" font-size="14.00"> sidechain epoch</text>
</g>
<!-- tx -->
<g id="node4" class="node">
<title>tx</title>
<polygon fill="none" stroke="black" points="32.5,-76.5 32.5,-114.5 421.5,-114.5 421.5,-76.5 32.5,-76.5"/>
<text text-anchor="middle" x="111.5" y="-91.8" font-family="Times,serif" font-size="14.00">Verification key update tx</text>
<polyline fill="none" stroke="black" points="190.5,-76.5 190.5,-114.5"/>
<text text-anchor="start" x="198.5" y="-99.3" font-family="Times,serif" font-size="14.00">redeemer: UpdateCommitteeRedeemer</text>
<text text-anchor="start" x="198.5" y="-84.3" font-family="Times,serif" font-size="14.00"> tx in: committee hash UTxO</text>
</g>
<!-- pubKey&#45;&gt;tx -->
<g id="edge2" class="edge">
<title>pubKey&#45;&gt;tx</title>
<path fill="none" stroke="black" d="M135.55,-166.48C152.72,-153.34 176.19,-135.38 195.05,-120.95"/>
<polygon fill="black" stroke="black" points="197.27,-123.66 203.09,-114.8 193.02,-118.1 197.27,-123.66"/>
<text text-anchor="middle" x="204.5" y="-136.8" font-family="Times,serif" font-size="14.00">consumes</text>
</g>
<!-- merkleRoot -->
<g id="node2" class="node">
<title>merkleRoot</title>
<polygon fill="none" stroke="black" points="242.5,-167.5 242.5,-203.5 441.5,-203.5 441.5,-167.5 242.5,-167.5"/>
<text text-anchor="middle" x="301" y="-181.8" font-family="Times,serif" font-size="14.00">UTxO with datum</text>
<polyline fill="none" stroke="black" points="359.5,-167.5 359.5,-203.5"/>
<text text-anchor="middle" x="400.5" y="-181.8" font-family="Times,serif" font-size="14.00">Merkle root</text>
</g>
<!-- merkleRoot&#45;&gt;tx -->
<g id="edge1" class="edge">
<title>merkleRoot&#45;&gt;tx</title>
<path fill="none" stroke="black" stroke-dasharray="5,2" d="M319.55,-167.32C302.17,-154.02 277.86,-135.42 258.53,-120.62"/>
<polygon fill="black" stroke="black" points="260.64,-117.84 250.58,-114.54 256.39,-123.4 260.64,-117.84"/>
<text text-anchor="middle" x="319" y="-136.8" font-family="Times,serif" font-size="14.00">references</text>
</g>
<!-- newPubKey -->
<g id="node3" class="node">
<title>newPubKey</title>
<polygon fill="none" stroke="black" points="115,-0.5 115,-38.5 339,-38.5 339,-0.5 115,-0.5"/>
<text text-anchor="middle" x="173.5" y="-15.8" font-family="Times,serif" font-size="14.00">UTxO with datum</text>
<polyline fill="none" stroke="black" points="232,-0.5 232,-38.5"/>
<text text-anchor="start" x="240" y="-23.3" font-family="Times,serif" font-size="14.00">committee hash</text>
<text text-anchor="start" x="240" y="-8.3" font-family="Times,serif" font-size="14.00"> sidechain epoch</text>
</g>
<!-- tx&#45;&gt;newPubKey -->
<g id="edge3" class="edge">
<title>tx&#45;&gt;newPubKey</title>
<path fill="none" stroke="black" d="M227,-76.21C227,-67.96 227,-58.04 227,-48.86"/>
<polygon fill="black" stroke="black" points="230.5,-48.58 227,-38.58 223.5,-48.58 230.5,-48.58"/>
</g>
</g>
</svg>
