<?xml version="1.0" encoding="UTF-8" standalone="no"?>
<!DOCTYPE svg PUBLIC "-//W3C//DTD SVG 1.1//EN"
 "http://www.w3.org/Graphics/SVG/1.1/DTD/svg11.dtd">
<!-- Generated by graphviz version 2.49.3 (0)
 -->
<!-- Pages: 1 -->
<svg width="612pt" height="211pt"
 viewBox="0.00 0.00 611.50 211.00" xmlns="http://www.w3.org/2000/svg" xmlns:xlink="http://www.w3.org/1999/xlink">
<g id="graph0" class="graph" transform="scale(1 1) rotate(0) translate(4 207)">
<polygon fill="white" stroke="transparent" points="-4,4 -4,-207 607.5,-207 607.5,4 -4,4"/>
<!-- atmsKey -->
<g id="node1" class="node">
<title>atmsKey</title>
<polygon fill="none" stroke="black" points="0,-164.5 0,-202.5 288,-202.5 288,-164.5 0,-164.5"/>
<text text-anchor="middle" x="58.5" y="-179.8" font-family="Times,serif" font-size="14.00">UTxO with datum</text>
<polyline fill="none" stroke="black" points="117,-164.5 117,-202.5 "/>
<text text-anchor="start" x="125" y="-187.3" font-family="Times,serif" font-size="14.00">latest ATMS public key</text>
<text text-anchor="start" x="125" y="-172.3" font-family="Times,serif" font-size="14.00"> NFT (to prove authenticity)</text>
</g>
<!-- burnTx -->
<g id="node3" class="node">
<title>burnTx</title>
<polygon fill="none" stroke="black" points="194,-74.5 194,-112.5 404,-112.5 404,-74.5 194,-74.5"/>
<text text-anchor="middle" x="225" y="-89.8" font-family="Times,serif" font-size="14.00">Mint Tx</text>
<polyline fill="none" stroke="black" points="256,-74.5 256,-112.5 "/>
<text text-anchor="start" x="264" y="-97.3" font-family="Times,serif" font-size="14.00">redeemer: Merkle proof</text>
<text text-anchor="start" x="264" y="-82.3" font-family="Times,serif" font-size="14.00"> tx body: minted tokens</text>
</g>
<!-- atmsKey&#45;&gt;burnTx -->
<g id="edge2" class="edge">
<title>atmsKey&#45;&gt;burnTx</title>
<path fill="none" stroke="black" stroke-dasharray="5,2" d="M175.74,-164.48C199.59,-150.94 232.44,-132.29 258.23,-117.64"/>
<polygon fill="black" stroke="black" points="260.07,-120.63 267.04,-112.65 256.61,-114.54 260.07,-120.63"/>
<text text-anchor="middle" x="274.5" y="-134.8" font-family="Times,serif" font-size="14.00">Reference input</text>
</g>
<!-- merkleRoot -->
<g id="node2" class="node">
<title>merkleRoot</title>
<polygon fill="none" stroke="black" points="306.5,-164.5 306.5,-202.5 603.5,-202.5 603.5,-164.5 306.5,-164.5"/>
<text text-anchor="middle" x="380.5" y="-187.3" font-family="Times,serif" font-size="14.00">UTxO with datum</text>
<text text-anchor="middle" x="380.5" y="-172.3" font-family="Times,serif" font-size="14.00">(elem of distributed set)</text>
<polyline fill="none" stroke="black" points="454.5,-164.5 454.5,-202.5 "/>
<text text-anchor="start" x="462.5" y="-187.3" font-family="Times,serif" font-size="14.00">Merkle root</text>
<text text-anchor="start" x="462.5" y="-172.3" font-family="Times,serif" font-size="14.00"> Signature of committee</text>
</g>
<!-- merkleRoot&#45;&gt;burnTx -->
<g id="edge3" class="edge">
<title>merkleRoot&#45;&gt;burnTx</title>
<path fill="none" stroke="black" stroke-dasharray="5,2" d="M423.05,-164.48C399.05,-150.94 365.99,-132.29 340.03,-117.64"/>
<polygon fill="black" stroke="black" points="341.6,-114.51 331.17,-112.65 338.16,-120.61 341.6,-114.51"/>
<text text-anchor="middle" x="429.5" y="-134.8" font-family="Times,serif" font-size="14.00">Reference input</text>
</g>
<!-- wallet -->
<g id="node4" class="node">
<title>wallet</title>
<polygon fill="none" stroke="black" points="259,-0.5 259,-36.5 339,-36.5 339,-0.5 259,-0.5"/>
<text text-anchor="middle" x="299" y="-14.8" font-family="Times,serif" font-size="14.00">User Wallet</text>
</g>
<!-- burnTx&#45;&gt;wallet -->
<g id="edge1" class="edge">
<title>burnTx&#45;&gt;wallet</title>
<path fill="none" stroke="black" d="M299,-74.46C299,-66.2 299,-56.24 299,-47.07"/>
<polygon fill="black" stroke="black" points="302.5,-46.83 299,-36.83 295.5,-46.83 302.5,-46.83"/>
</g>
</g>
</svg>
