<?xml version="1.0" encoding="UTF-8" standalone="no"?>
<!DOCTYPE svg PUBLIC "-//W3C//DTD SVG 1.1//EN"
 "http://www.w3.org/Graphics/SVG/1.1/DTD/svg11.dtd">
<!-- Generated by graphviz version 2.49.3 (0)
 -->
<!-- Pages: 1 -->
<svg width="368pt" height="211pt"
 viewBox="0.00 0.00 368.00 211.00" xmlns="http://www.w3.org/2000/svg" xmlns:xlink="http://www.w3.org/1999/xlink">
<g id="graph0" class="graph" transform="scale(1 1) rotate(0) translate(4 207)">
<polygon fill="white" stroke="transparent" points="-4,4 -4,-207 364,-207 364,4 -4,4"/>
<!-- bridge -->
<g id="node1" class="node">
<title>bridge</title>
<polygon fill="none" stroke="black" points="0,-165.5 0,-201.5 54,-201.5 54,-165.5 0,-165.5"/>
<text text-anchor="middle" x="27" y="-179.8" font-family="Times,serif" font-size="14.00">Bridge</text>
</g>
<!-- burnTx -->
<g id="node3" class="node">
<title>burnTx</title>
<polygon fill="none" stroke="black" points="8,-74.5 8,-112.5 234,-112.5 234,-74.5 8,-74.5"/>
<text text-anchor="middle" x="39" y="-89.8" font-family="Times,serif" font-size="14.00">Mint Tx</text>
<polyline fill="none" stroke="black" points="70,-74.5 70,-112.5 "/>
<text text-anchor="start" x="78" y="-97.3" font-family="Times,serif" font-size="14.00">redeemer: ATMS signature</text>
<text text-anchor="middle" x="152" y="-82.3" font-family="Times,serif" font-size="14.00"> tx body: minted tokens</text>
</g>
<!-- bridge&#45;&gt;burnTx -->
<g id="edge1" class="edge">
<title>bridge&#45;&gt;burnTx</title>
<path fill="none" stroke="black" d="M45.57,-165.11C59.46,-152.11 78.65,-134.15 94.2,-119.59"/>
<polygon fill="black" stroke="black" points="96.59,-122.15 101.5,-112.76 91.8,-117.04 96.59,-122.15"/>
</g>
<!-- pubKey -->
<g id="node2" class="node">
<title>pubKey</title>
<polygon fill="none" stroke="black" points="72,-164.5 72,-202.5 360,-202.5 360,-164.5 72,-164.5"/>
<text text-anchor="middle" x="130.5" y="-179.8" font-family="Times,serif" font-size="14.00">UTxO with datum</text>
<polyline fill="none" stroke="black" points="189,-164.5 189,-202.5 "/>
<text text-anchor="start" x="197" y="-187.3" font-family="Times,serif" font-size="14.00">ATMS public key</text>
<text text-anchor="middle" x="274.5" y="-172.3" font-family="Times,serif" font-size="14.00"> NFT (to prove authenticity)</text>
</g>
<!-- pubKey&#45;&gt;burnTx -->
<g id="edge3" class="edge">
<title>pubKey&#45;&gt;burnTx</title>
<path fill="none" stroke="black" stroke-dasharray="5,2" d="M196.32,-164.27C182.43,-151.41 163.65,-134.01 148.32,-119.81"/>
<polygon fill="black" stroke="black" points="150.37,-116.94 140.66,-112.71 145.62,-122.07 150.37,-116.94"/>
<text text-anchor="middle" x="218.5" y="-134.8" font-family="Times,serif" font-size="14.00">Reference input</text>
</g>
<!-- wallet -->
<g id="node4" class="node">
<title>wallet</title>
<polygon fill="none" stroke="black" points="81,-0.5 81,-36.5 161,-36.5 161,-0.5 81,-0.5"/>
<text text-anchor="middle" x="121" y="-14.8" font-family="Times,serif" font-size="14.00">User Wallet</text>
</g>
<!-- burnTx&#45;&gt;wallet -->
<g id="edge2" class="edge">
<title>burnTx&#45;&gt;wallet</title>
<path fill="none" stroke="black" d="M121,-74.46C121,-66.2 121,-56.24 121,-47.07"/>
<polygon fill="black" stroke="black" points="124.5,-46.83 121,-36.83 117.5,-46.83 124.5,-46.83"/>
</g>
</g>
</svg>
