<?xml version="1.0" encoding="UTF-8" standalone="no"?>
<!DOCTYPE svg PUBLIC "-//W3C//DTD SVG 1.1//EN"
 "http://www.w3.org/Graphics/SVG/1.1/DTD/svg11.dtd">
<!-- Generated by graphviz version 5.0.1 (0)
 -->
<!-- Pages: 1 -->
<svg width="786pt" height="439pt"
 viewBox="0.00 0.00 786.00 439.00" xmlns="http://www.w3.org/2000/svg" xmlns:xlink="http://www.w3.org/1999/xlink">
<g id="graph0" class="graph" transform="scale(1 1) rotate(0) translate(4 435)">
<polygon fill="white" stroke="none" points="-4,4 -4,-435 782,-435 782,4 -4,4"/>
<!-- merkleRootAddr -->
<g id="node1" class="node">
<title>merkleRootAddr</title>
<polygon fill="none" stroke="black" points="219,-0.5 219,-36.5 397,-36.5 397,-0.5 219,-0.5"/>
<text text-anchor="middle" x="308" y="-14.8" font-family="Times,serif" font-size="14.00">Merkle root validator address</text>
</g>
<!-- burnAddress -->
<g id="node2" class="node">
<title>burnAddress</title>
<polygon fill="none" stroke="black" points="415,-0.5 415,-36.5 503,-36.5 503,-0.5 415,-0.5"/>
<text text-anchor="middle" x="459" y="-14.8" font-family="Times,serif" font-size="14.00">Burn address</text>
</g>
<!-- oracle -->
<g id="node3" class="node">
<title>oracle</title>
<polygon fill="none" stroke="black" points="268,-306.5 268,-342.5 454,-342.5 454,-306.5 268,-306.5"/>
<text text-anchor="middle" x="361" y="-320.8" font-family="Times,serif" font-size="14.00">CommitteeSignedTokenOracle</text>
</g>
<!-- merkleRootPolicy -->
<g id="node4" class="node">
<title>merkleRootPolicy</title>
<polygon fill="none" stroke="black" points="0,-201.5 0,-254.5 492,-254.5 492,-201.5 0,-201.5"/>
<text text-anchor="middle" x="98" y="-224.3" font-family="Times,serif" font-size="14.00">MerkleRootTokenMintingPolicy</text>
<polyline fill="none" stroke="black" points="196,-201.5 196,-254.5"/>
<text text-anchor="start" x="204" y="-239.3" font-family="Times,serif" font-size="14.00">&#45; gets CommitteeSignedTokenOracle currency</text>
<text text-anchor="start" x="204" y="-224.3" font-family="Times,serif" font-size="14.00">symbol from CommitteeSignedTokenOracle</text>
<text text-anchor="start" x="204" y="-209.3" font-family="Times,serif" font-size="14.00"> &#45; can mint if CommitteeSignedTokenOracle mints</text>
</g>
<!-- oracle&#45;&gt;merkleRootPolicy -->
<g id="edge1" class="edge">
<title>oracle&#45;&gt;merkleRootPolicy</title>
<path fill="none" stroke="black" stroke-dasharray="5,2" d="M340.17,-306.39C324.77,-293.73 303.34,-276.12 284.81,-260.89"/>
<polygon fill="black" stroke="black" points="287.02,-258.18 277.07,-254.53 282.58,-263.59 287.02,-258.18"/>
<text text-anchor="middle" x="346" y="-276.8" font-family="Times,serif" font-size="14.00">references</text>
</g>
<!-- tx -->
<g id="node7" class="node">
<title>tx</title>
<polygon fill="none" stroke="black" points="383,-164 257,-126 383,-88 509,-126 383,-164"/>
<text text-anchor="middle" x="383" y="-129.8" font-family="Times,serif" font-size="14.00">Claim transaction</text>
<text text-anchor="middle" x="383" y="-114.8" font-family="Times,serif" font-size="14.00">minting both tokens</text>
</g>
<!-- merkleRootPolicy&#45;&gt;tx -->
<g id="edge4" class="edge">
<title>merkleRootPolicy&#45;&gt;tx</title>
<path fill="none" stroke="black" d="M281.28,-201.25C298.74,-188.5 320.01,-172.98 338.57,-159.43"/>
<polygon fill="black" stroke="black" points="340.87,-162.08 346.88,-153.36 336.74,-156.43 340.87,-162.08"/>
</g>
<!-- committeeSignedTokenECDSA -->
<g id="node5" class="node">
<title>committeeSignedTokenECDSA</title>
<polygon fill="none" stroke="black" stroke-dasharray="5,2" points="356,-394.5 356,-430.5 562,-430.5 562,-394.5 356,-394.5"/>
<text text-anchor="middle" x="459" y="-408.8" font-family="Times,serif" font-size="14.00">CommitteeSignedToken &#45; ECDSA</text>
</g>
<!-- committeeSignedTokenECDSA&#45;&gt;oracle -->
<g id="edge2" class="edge">
<title>committeeSignedTokenECDSA&#45;&gt;oracle</title>
<path fill="none" stroke="black" d="M439.17,-394.1C425,-381.66 405.7,-364.73 389.83,-350.8"/>
<polygon fill="none" stroke="black" points="389.49,-350.5 382.34,-349.55 380.47,-342.58 387.62,-343.54 389.49,-350.5"/>
<text text-anchor="middle" x="458" y="-364.8" font-family="Times,serif" font-size="14.00">stores reference</text>
</g>
<!-- committeeSignedTokenECDSA&#45;&gt;tx -->
<g id="edge3" class="edge">
<title>committeeSignedTokenECDSA&#45;&gt;tx</title>
<path fill="none" stroke="black" d="M454.13,-394.14C442.34,-349.71 412,-235.33 395,-171.24"/>
<polygon fill="black" stroke="black" points="398.34,-170.17 392.39,-161.41 391.57,-171.97 398.34,-170.17"/>
</g>
<!-- committeeSignedTokenATMS -->
<g id="node6" class="node">
<title>committeeSignedTokenATMS</title>
<polygon fill="none" stroke="black" stroke-dasharray="5,2" points="580,-394.5 580,-430.5 778,-430.5 778,-394.5 580,-394.5"/>
<text text-anchor="middle" x="679" y="-408.8" font-family="Times,serif" font-size="14.00">CommitteeSignedToken &#45; ATMS</text>
</g>
<!-- tx&#45;&gt;merkleRootAddr -->
<g id="edge5" class="edge">
<title>tx&#45;&gt;merkleRootAddr</title>
<path fill="none" stroke="black" d="M361.31,-94.49C350.17,-78.82 336.75,-59.94 326.17,-45.05"/>
<polygon fill="black" stroke="black" points="328.94,-42.92 320.3,-36.8 323.24,-46.98 328.94,-42.92"/>
<text text-anchor="middle" x="386.5" y="-58.8" font-family="Times,serif" font-size="14.00">MerkleRootToken</text>
</g>
<!-- tx&#45;&gt;burnAddress -->
<g id="edge6" class="edge">
<title>tx&#45;&gt;burnAddress</title>
<path fill="none" stroke="black" d="M404.98,-94.49C416.27,-78.82 429.86,-59.94 440.59,-45.05"/>
<polygon fill="black" stroke="black" points="443.53,-46.96 446.54,-36.8 437.85,-42.87 443.53,-46.96"/>
<text text-anchor="middle" x="510" y="-58.8" font-family="Times,serif" font-size="14.00">CommitteeSignedToken</text>
</g>
</g>
</svg>
