<?xml version="1.0" encoding="UTF-8" standalone="no"?>
<!DOCTYPE svg PUBLIC "-//W3C//DTD SVG 1.1//EN"
 "http://www.w3.org/Graphics/SVG/1.1/DTD/svg11.dtd">
<!-- Generated by graphviz version 7.1.0 (0)
 -->
<!-- Pages: 1 -->
<svg width="786pt" height="439pt"
 viewBox="0.00 0.00 786.00 439.00" xmlns="http://www.w3.org/2000/svg" xmlns:xlink="http://www.w3.org/1999/xlink">
<g id="graph0" class="graph" transform="scale(1 1) rotate(0) translate(4 435)">
<polygon fill="white" stroke="none" points="-4,4 -4,-435 782,-435 782,4 -4,4"/>
<!-- merkleRootAddr -->
<g id="node1" class="node">
<title>merkleRootAddr</title>
<polygon fill="none" stroke="black" points="219,-0.5 219,-36.5 397,-36.5 397,-0.5 219,-0.5"/>
<text text-anchor="middle" x="308" y="-14.8" font-family="Times,serif" font-size="14.00">Merkle root validator address</text>
</g>
<!-- burnAddress -->
<g id="node2" class="node">
<title>burnAddress</title>
<polygon fill="none" stroke="black" points="415,-0.5 415,-36.5 503,-36.5 503,-0.5 415,-0.5"/>
<text text-anchor="middle" x="459" y="-14.8" font-family="Times,serif" font-size="14.00">Burn address</text>
</g>
<!-- oracle -->
<g id="node3" class="node">
<title>oracle</title>
<polygon fill="none" stroke="black" points="268,-306.5 268,-342.5 454,-342.5 454,-306.5 268,-306.5"/>
<text text-anchor="middle" x="361" y="-320.8" font-family="Times,serif" font-size="14.00">CommitteeSignedTokenOracle</text>
</g>
<!-- merkleRootPolicy -->
<g id="node4" class="node">
<title>merkleRootPolicy</title>
<polygon fill="none" stroke="black" points="0,-201.5 0,-254.5 492,-254.5 492,-201.5 0,-201.5"/>
<text text-anchor="middle" x="98" y="-224.3" font-family="Times,serif" font-size="14.00">MerkleRootTokenMintingPolicy</text>
<polyline fill="none" stroke="black" points="196,-201.5 196,-254.5"/>
<text text-anchor="start" x="204" y="-239.3" font-family="Times,serif" font-size="14.00">&#45; gets CommitteeSignedTokenOracle currency</text>
<text text-anchor="start" x="204" y="-224.3" font-family="Times,serif" font-size="14.00">symbol from CommitteeSignedTokenOracle</text>
<text text-anchor="start" x="204" y="-209.3" font-family="Times,serif" font-size="14.00"> &#45; can mint if CommitteeSignedTokenOracle mints</text>
</g>
<!-- oracle&#45;&gt;merkleRootPolicy -->
<g id="edge1" class="edge">
<title>oracle&#45;&gt;merkleRootPolicy</title>
<path fill="none" stroke="black" stroke-dasharray="5,2" d="M340.44,-306.61C325.23,-294.1 304.03,-276.69 285.58,-261.52"/>
<polygon fill="black" stroke="black" points="287.89,-258.89 277.94,-255.25 283.45,-264.3 287.89,-258.89"/>
<text text-anchor="middle" x="346" y="-276.8" font-family="Times,serif" font-size="14.00">references</text>
</g>
<!-- tx -->
<g id="node7" class="node">
<title>tx</title>
<polygon fill="none" stroke="black" points="383,-164 257,-126 383,-88 509,-126 383,-164"/>
<text text-anchor="middle" x="383" y="-129.8" font-family="Times,serif" font-size="14.00">Claim transaction</text>
<text text-anchor="middle" x="383" y="-114.8" font-family="Times,serif" font-size="14.00">minting both tokens</text>
</g>
<!-- merkleRootPolicy&#45;&gt;tx -->
<g id="edge4" class="edge">
<title>merkleRootPolicy&#45;&gt;tx</title>
<path fill="none" stroke="black" d="M280.93,-201.51C298.15,-188.93 319.14,-173.61 337.6,-160.14"/>
<polygon fill="black" stroke="black" points="339.47,-163.11 345.48,-154.39 335.34,-157.45 339.47,-163.11"/>
</g>
<!-- committeeSignedTokenECDSA -->
<g id="node5" class="node">
<title>committeeSignedTokenECDSA</title>
<polygon fill="none" stroke="black" stroke-dasharray="5,2" points="356,-394.5 356,-430.5 562,-430.5 562,-394.5 356,-394.5"/>
<text text-anchor="middle" x="459" y="-408.8" font-family="Times,serif" font-size="14.00">CommitteeSignedToken &#45; ECDSA</text>
</g>
<!-- committeeSignedTokenECDSA&#45;&gt;oracle -->
<g id="edge2" class="edge">
<title>committeeSignedTokenECDSA&#45;&gt;oracle</title>
<path fill="none" stroke="black" d="M439.64,-394.51C425.41,-382.02 405.84,-364.85 389.79,-350.76"/>
<polygon fill="none" stroke="black" points="390.02,-350.97 382.87,-350.01 381,-343.05 388.15,-344 390.02,-350.97"/>
<text text-anchor="middle" x="458" y="-364.8" font-family="Times,serif" font-size="14.00">stores reference</text>
</g>
<!-- committeeSignedTokenECDSA&#45;&gt;tx -->
<g id="edge3" class="edge">
<title>committeeSignedTokenECDSA&#45;&gt;tx</title>
<path fill="none" stroke="black" d="M454.25,-394.58C442.63,-350.78 412.49,-237.18 395.37,-172.63"/>
<polygon fill="black" stroke="black" points="398.77,-171.79 392.82,-163.02 392,-173.58 398.77,-171.79"/>
</g>
<!-- committeeSignedTokenATMS -->
<g id="node6" class="node">
<title>committeeSignedTokenATMS</title>
<polygon fill="none" stroke="black" stroke-dasharray="5,2" points="580,-394.5 580,-430.5 778,-430.5 778,-394.5 580,-394.5"/>
<text text-anchor="middle" x="679" y="-408.8" font-family="Times,serif" font-size="14.00">CommitteeSignedToken &#45; ATMS</text>
</g>
<!-- tx&#45;&gt;merkleRootAddr -->
<g id="edge5" class="edge">
<title>tx&#45;&gt;merkleRootAddr</title>
<path fill="none" stroke="black" d="M361.11,-94.2C350.11,-78.74 336.94,-60.2 326.46,-45.47"/>
<polygon fill="black" stroke="black" points="329.54,-43.76 320.89,-37.64 323.84,-47.82 329.54,-43.76"/>
<text text-anchor="middle" x="386.5" y="-58.8" font-family="Times,serif" font-size="14.00">MerkleRootToken</text>
</g>
<!-- tx&#45;&gt;burnAddress -->
<g id="edge6" class="edge">
<title>tx&#45;&gt;burnAddress</title>
<path fill="none" stroke="black" d="M405.19,-94.2C416.33,-78.74 429.68,-60.2 440.29,-45.47"/>
<polygon fill="black" stroke="black" points="442.93,-47.79 445.94,-37.63 437.25,-43.7 442.93,-47.79"/>
<text text-anchor="middle" x="510" y="-58.8" font-family="Times,serif" font-size="14.00">CommitteeSignedToken</text>
</g>
</g>
</svg>
